<svg xmlns="http://www.w3.org/2000/svg" width="174" height="140" viewBox="0 0 174 140"><g transform="translate(-3679.335 -3897.886)"><g transform="translate(3693.473 3897.885)"><path d="M3701.049,3914.519a13.46,13.46,0,0,1,4.415-10.318,22.434,22.434,0,0,1,9.773-4.929,42.607,42.607,0,0,1,16.81-.961c2.021.285,4.423,1.073,5.028,3.19a5.755,5.755,0,0,1-.913,4.213,40.168,40.168,0,0,1-7.4,9.775l-1.876,1.449c-2.441,2.565-5.638,3.43-9.171,3.431s-7.012-.8-10.525-1.176a1.842,1.842,0,0,0-1.586.34,1.8,1.8,0,0,0-.268,1.44,16.928,16.928,0,0,0,1.431,5.118l4.482,7.886-2.632.051s-1.67-5.085-4.263-6.478a5.165,5.165,0,0,0-4.425-.534,29.052,29.052,0,0,1-3.656-5.873,11.873,11.873,0,0,1-1.317-4.835,5.487,5.487,0,0,1,1.96-4.453,3.583,3.583,0,0,1,4.6.178" transform="translate(-3694.959 -3897.885)"/><g transform="translate(3.858 27.844)"><path d="M3705.072,3928.91a33.5,33.5,0,0,0,3.153,7.983c.321.577,1.146.033.856-.543-1.451-2.877-3.027-7.229-6.783-7.551a2.736,2.736,0,0,0-2.249.689,3.335,3.335,0,0,0-.821,2.173,5.633,5.633,0,0,0,1.634,3.986,4.915,4.915,0,0,0,4.521,1.692.618.618,0,0,0-.034-1.182,6.741,6.741,0,0,1-3.01-1.214,4.615,4.615,0,0,1-1.673-2.768,2.642,2.642,0,0,1,.152-1.621,1.454,1.454,0,0,1,1.625-.64,4.985,4.985,0,0,1,3.13,2.192,40.453,40.453,0,0,1,2.651,4.787l.856-.543a37.832,37.832,0,0,1-3.413-7.621.311.311,0,0,0-.6.181Z" transform="translate(-3699.223 -3928.515)"/></g><g transform="translate(33.074 26.212)"><path d="M3733.9,3927.46l-.168-.142a4.578,4.578,0,0,0-.375-.284l-.172-.116a.859.859,0,0,0-.327-.147.942.942,0,0,0-.292-.031.3.3,0,0,1-.049,0l.257.027a.956.956,0,0,0-.592-.005.932.932,0,0,0-.419.263.96.96,0,0,0-.227.425,2.468,2.468,0,0,0-.026.258l.041.255a2,2,0,0,0,.111.244l.037.069-.11-.245,0,.014-.044-.267a1.2,1.2,0,0,0,.173.586l.175.212.026.025.033.032.15.148c.1.1.219.178.329.265a1.11,1.11,0,0,0,1.525-.058l.159-.226a1.086,1.086,0,0,0,.127-.539l-.046-.286a1.083,1.083,0,0,0-.3-.481Z" transform="translate(-3731.51 -3926.72)"/></g><g transform="translate(21.538 29.246)"><path d="M3718.8,3931.281a1.506,1.506,0,0,0,.127.28l.014.023.009.011c.053.065.11.137.166.2l.02.02.2.146a.823.823,0,0,0,.238.09l.01,0a1.661,1.661,0,0,0,.3.028l.025,0c.085-.011.176-.026.26-.042l.013,0a.243.243,0,0,0,.052-.016c.073-.031.162-.073.233-.106l.012-.006.023-.013a1.513,1.513,0,0,0,.217-.181l.132-.187a.677.677,0,0,0,.093-.329.448.448,0,0,0-.007-.233.685.685,0,0,0-.119-.337l-.147-.178-.186-.132a.654.654,0,0,0-.326-.094.665.665,0,0,0-.35.026h0l.235-.039a.28.28,0,0,1-.067,0l.236.024a.265.265,0,0,1-.065-.016l.223.085a.276.276,0,0,1-.068-.036l.2.143a.27.27,0,0,1-.031-.026l-.006-.006-.2-.145-.233-.089-.021-.007.231.089a.262.262,0,0,1-.056-.03l.2.142a.228.228,0,0,1-.032-.027l-.2-.141a.708.708,0,0,0-.347-.1.472.472,0,0,0-.246.008.7.7,0,0,0-.355.125l-.188.157-.14.2a.715.715,0,0,0-.1.349.723.723,0,0,0,.027.374Z" transform="translate(-3718.76 -3930.057)"/></g><g transform="translate(29.475 27.053)"><path d="M3727.632,3927.859l-.037.054a.509.509,0,0,0,.018.518c.425.716.988,1.353,1.475,2.028.472.655.924,1.326,1.346,2.016a25.759,25.759,0,0,1,2.252,4.354,2.923,2.923,0,0,1,.1.4.445.445,0,0,1,.213-.335l-.045.029c-.005-.008.115-.022-.052.007-.119.022-.119.026-.157.031a8.752,8.752,0,0,1-1.329.019c-.824-.019-1.659-.047-2.444,0a.463.463,0,0,0-.2.864,7.14,7.14,0,0,0,2.919.7c.895.058,2.417.045,2.609-1.1a4.694,4.694,0,0,0-.825-2.528c-.424-.873-.89-1.726-1.4-2.554a26.825,26.825,0,0,0-1.669-2.387,11.505,11.505,0,0,0-2.007-2.19.533.533,0,0,0-.622-.058.435.435,0,0,0-.141.139Z" transform="translate(-3727.532 -3927.645)"/></g><g transform="translate(24.148 40.533)"><path d="M3726.995,3946.081a2.179,2.179,0,0,1,1.778.161l.1-.985a8.042,8.042,0,0,0-1.435.638,7.319,7.319,0,0,1-1.32.47,3.173,3.173,0,0,1-2.03-.108,2,2,0,0,1-.748-.547c-.023-.028-.088-.13-.119-.185-.011-.018-.094-.2-.055-.1a2.145,2.145,0,0,1-.073-.217s-.051-.224-.032-.115a2.456,2.456,0,0,1-.021-.443s.027-.159.038-.207c0-.018.059-.207.026-.115a1.526,1.526,0,0,1,.094-.2s.118-.172.058-.1a.706.706,0,0,1,.308-.261l-.85-.079a9.448,9.448,0,0,0,2.968,2.168,9.888,9.888,0,0,0,1.735.621,2.869,2.869,0,0,0,2.007.021.555.555,0,0,0,.08-.87,1.934,1.934,0,0,0-.857-.333c-.27-.057-.543-.112-.812-.176a8.077,8.077,0,0,1-1.53-.53,8.474,8.474,0,0,1-2.639-1.932.707.707,0,0,0-.85-.079,2.545,2.545,0,0,0-1.157,2.392,2.965,2.965,0,0,0,1.478,2.342,4.273,4.273,0,0,0,2.889.455,6.8,6.8,0,0,0,1.794-.608,5.4,5.4,0,0,0,1.6-1.026.542.542,0,0,0-.4-.9,5.591,5.591,0,0,0-2.142.571c-.156.074-.034.332.126.276Z" transform="translate(-3721.646 -3942.474)"/></g><g transform="translate(27.259 18.948)"><path d="M3732.353,3919.123a30.915,30.915,0,0,1,3.8,15.833,29.428,29.428,0,0,1-1.353,8.068,18,18,0,0,1-2.609,5.5,9.236,9.236,0,0,1-2.587,2.365,7.811,7.811,0,0,1-1.829.793,23.813,23.813,0,0,0-2.381.538.464.464,0,0,0,.026.885,5.808,5.808,0,0,0,3.83-.652,9.526,9.526,0,0,0,2.841-2.013,14.867,14.867,0,0,0,3.073-5.126,30.479,30.479,0,0,0,1.36-17.272,28.883,28.883,0,0,0-3.743-9.192c-.174-.283-.594-.013-.432.274Z" transform="translate(-3725.083 -3918.729)"/></g><g transform="translate(14.004 42.966)"><path d="M3725.792,3954.312a11.06,11.06,0,0,1-8.058-1.857,22.139,22.139,0,0,1-6.133-7.011.635.635,0,0,0-1.072.68,21.407,21.407,0,0,0,6.758,7.594,10.313,10.313,0,0,0,8.736,1.355.4.4,0,0,0-.23-.761Z" transform="translate(-3710.435 -3945.15)"/></g><g transform="translate(10.43 35.932)"><path d="M3707.9,3950.217c.145,3.265.247,11.21.822,14.5.6.235,1.482-.31,2.036,0-.255-1.609-.941-6.864-1.075-8.5-.18-2.185-.274-4.376-.4-6.565-.233-4.03-.374-8.477-2.3-12.116-.119-.226-.532-.112-.495.151.293,2.065.7,4.112.941,6.183C3707.675,3945.977,3707.8,3948.1,3707.9,3950.217Z" transform="translate(-3706.485 -3937.412)"/></g><g transform="translate(7.526 35.53)"><path d="M3703.337,3937.409l5.333,10.928s-.04-5.536-.369-7.528-1.041-4.049-3.28-3.822S3703.337,3937.409,3703.337,3937.409Z" transform="translate(-3703.276 -3936.97)"/></g><g transform="translate(15.087 2.706)"><path d="M3711.722,3915.474a18.626,18.626,0,0,0,4.756.234,12.181,12.181,0,0,0,4.351-.995,2.375,2.375,0,0,0,1.449-2.8c-.471-1.289-2-1.677-3.171-2l-.062.259a14.834,14.834,0,0,0,3.364.318,5.914,5.914,0,0,0,3.037-.673c.611-.368,1.375-1.123.87-1.877a2.464,2.464,0,0,0-1.129-.74c-.618-.275-1.234-.551-1.843-.845l-.139.366a7.616,7.616,0,0,0,7.506-2.142c.687-.728,2.021-2.369.879-3.256a2.969,2.969,0,0,0-1.7-.435,15.649,15.649,0,0,0-2.634.1,29.716,29.716,0,0,0-5.911,1.365.135.135,0,0,0,.078.258c2.9-.666,5.8-1.664,8.829-1.362.749.075,1.659.413,1.311,1.353a5.141,5.141,0,0,1-1.116,1.636,7.456,7.456,0,0,1-7.149,2.1c-.211-.053-.35.278-.139.366a15.114,15.114,0,0,1,2.532,1.152c1.21.8-.68,1.807-1.37,2.017a13.452,13.452,0,0,1-5.245.037c-.149-.015-.176.238-.028.263a5.118,5.118,0,0,1,1.856.532,2.268,2.268,0,0,1,1.194,1.563c.209,1.483-1.4,2.257-2.56,2.58a18.3,18.3,0,0,1-7.759.4c-.15-.023-.207.206-.055.233Z" transform="translate(-3711.632 -3900.862)"/></g></g><g transform="translate(3740.053 3902.482)"><path d="M3746.575,3903.693c8.838.181,17.692-.06,26.532-.082s17.689.032,26.534.133c4.965.056,9.936.192,14.9.139a.224.224,0,0,0,0-.447c-4.435-.231-8.881-.27-13.322-.333q-6.6-.094-13.209-.127c-8.844-.051-17.69-.054-26.533.056-4.969.062-9.941.1-14.9.374a.144.144,0,0,0,0,.287Z" transform="translate(-3746.436 -3902.942)"/></g><g transform="translate(3822.908 3902.747)"><path d="M3838.125,3903.5a95.342,95.342,0,0,1,14.485,1.088,49.243,49.243,0,0,1,6.407,1.268,9.973,9.973,0,0,1,5.057,3.018c3.069,3.726,2.295,9.092,2.3,13.592,0,2.489.032,4.977.062,7.465q.069,5.892.162,11.782.114,7.325.237,14.651.135,8.146.293,16.292.152,8.26.313,16.517.144,7.66.28,15.322c.076,4.3.148,8.6.252,12.9.072,3.009.144,6.018.19,9.028.007.495.019.991.019,1.486a.117.117,0,0,0,.233,0c0-2.67.021-5.34.015-8.01q-.011-6.124-.1-12.244-.111-7.543-.234-15.084-.133-8.266-.272-16.531-.138-8.292-.288-16.583-.144-7.621-.28-15.242-.113-6.255-.216-12.507c-.044-2.794-.09-5.586-.11-8.38-.026-3.743.408-7.619-.658-11.253a9.355,9.355,0,0,0-2.6-4.354,11.641,11.641,0,0,0-4.907-2.441,54.337,54.337,0,0,0-6.513-1.2c-2.348-.328-4.707-.571-7.074-.7q-3.521-.2-7.049-.137a.128.128,0,0,0,0,.256Z" transform="translate(-3838.002 -3903.233)"/></g><g transform="translate(3679.335 4008.7)"><path d="M3679.537,4020.011a51.609,51.609,0,0,1,.686,9.2c-.024,1.549-.107,3.1-.264,4.638-.149,1.466-.39,2.922-.529,4.389a11.556,11.556,0,0,0,1.227,7.258c1.314,2.113,3.511,2.955,5.884,3.239a34.865,34.865,0,0,0,9.878-.255c.2-.035.155-.372-.047-.356a57.5,57.5,0,0,1-8.7.12c-2.522-.189-5.077-.743-6.508-3.048-1.349-2.174-1.382-4.817-1.135-7.287.284-2.832.7-5.622.708-8.477a51.592,51.592,0,0,0-.859-9.517c-.042-.226-.38-.129-.343.1Z" transform="translate(-3679.334 -4019.787)"/></g><g transform="translate(3682.449 3919.893)"><path d="M3683.925,3922.493c-.263,9.392-.6,18.78-.709,28.177-.1,8.616.041,17.228.062,25.842.035,14.366-.275,28.728-.433,43.092-.031,2.838-.047,5.676-.017,8.514.016,1.414-.342,3.8.635,4.978l-.265-.644c.015.116.031.233.047.349.157,1.154,1.9.663,1.745-.484.086.629-.053.709.027.2.012-.072.013-.146.025-.219.017-.1.022-.214.034-.321.035-.3,0,.056.017-.134a6.139,6.139,0,0,0,.036-.743c0-.808-.041-1.617-.05-2.426-.022-2.346,0-4.693.021-7.04.058-6.8.148-13.6.225-20.4.085-7.446.158-14.894.13-22.341-.033-8.295-.38-16.584-.424-24.88-.055-10.511,0-21.012-.286-31.52a.41.41,0,0,0-.82,0Z" transform="translate(-3682.776 -3922.095)"/></g><g transform="translate(3682.473 3920.472)"><path d="M3683.495,4027.417c-2.332,4.275,1.629,9.6,6.033,10.189a9.811,9.811,0,0,0,1.024.069l.261,0,.162,0c-.273-.007.055.005.242.007,2.133.021,4.265.015,6.4.024,8.86.035,17.72.077,26.58.083q18.657.011,37.313,0,19.4,0,38.806-.1c10.375-.054,20.75-.114,31.125-.242,3.251-.04,6.5-.083,9.75-.164a20.637,20.637,0,0,0,4.595-.24c2.568-.683,3.474-4.364,3.711-6.581a27.32,27.32,0,0,0,.1-3.166l-.073-8.13-.3-32.814q-.172-19.115-.4-38.229c-.087-7.763-.167-15.531-.371-23.292-.007-.276-.012-.554-.022-.83-.018-.544.045.146-.006-.206a.608.608,0,0,1,0-.079,1.033,1.033,0,0,0-2.064,0,2.266,2.266,0,0,1,0,.312c0,.285-.005.57-.008.855q-.014,1.65-.012,3.3l.013,11.778c.014,11.85.111,23.7.209,35.55l.3,35.947c.047,5.581.14,11.163.139,16.745a10.4,10.4,0,0,1-.957,5.2,5.11,5.11,0,0,1-1.152,1.241c.259-.231.4-.123.2-.1.545-.059.043-.01-.212.01-.3.022-.593.035-.888.049-2.365.11-4.733.146-7.1.189-9.014.166-18.031.237-27.045.31-12.39.1-24.778.149-37.167.25q-19.022.154-38.042.249-15.243.086-30.483.2l-9.532.07-2.825.02c-.161,0-.323,0-.484,0-.066,0-.133,0-.2,0-.6.01.038,0-.212.009-.167,0-.336.009-.5.011-3.725.041-7.8-4.177-6.03-7.987.272-.587-.559-1.1-.879-.516Z" transform="translate(-3682.803 -3922.731)"/></g><g transform="translate(3682.911 3905.32)"><g transform="translate(0 0.111)"><path d="M3700.414,3906.186c-3.375.033-6.75.075-10.12.165a7.841,7.841,0,0,0-4.379,1.033,6.137,6.137,0,0,0-2.231,4.2,47.3,47.3,0,0,0-.353,8.8c.026,1.362,2.077,52.6,2.107,51.24.062-2.808.019-57.015.7-59.76a5.282,5.282,0,0,1,.76-1.844,1.817,1.817,0,0,1,.918-.625,17.927,17.927,0,0,1,4.829-.272c2.092,0,4.184-.042,6.276-.084A20.877,20.877,0,0,1,3700.414,3906.186Z" transform="translate(-3683.288 -3906.186)"/></g><g transform="translate(52.677)"><path d="M3854.611,3921.4a46.261,46.261,0,0,0-1.176-8.2c-.626-2.579-1.421-4.059-4.524-5.379-4.14-1.761-7.628-1.614-12.044-1.657-7.965-.077-20.08-.086-28.045-.095q-16.7-.018-33.391,0-16.25.008-32.5.021a14.577,14.577,0,0,1-1.427,2.721l26.648-.067q16.846-.042,33.691-.068c8.826-.012,21.8-.019,30.63-.006,2.6,0,5.2,0,7.8.036,3.194.039,5.732.125,8.634,1.618,2.615,1.344,2.338,3.257,3.017,6.363a37.436,37.436,0,0,1,.369,7.657q0,2.895.011,5.79.016,6.181.031,12.363.041,15.5.117,30.991c.058,10.191.109,20.381.269,30.571.1,6.314.192,12.627.234,18.943l.011,1.6a.5.5,0,0,0,.99,0q.049-7.455.156-14.907.231-14.739.319-29.478.094-16.265.141-32.53.018-6.841.035-13.683C3854.619,3929.815,3854.776,3925.589,3854.611,3921.4Z" transform="translate(-3741.503 -3906.064)"/></g></g><g transform="translate(3763.62 3990.389)"><path d="M3780.456,4013.542c2.361-1.523,4.916-3.19,5.194-6.267a7.069,7.069,0,0,0-4.444-6.844,7.265,7.265,0,0,0-4.612-.635,5.313,5.313,0,0,0-3.141,2.393,7.418,7.418,0,0,0-.943,4.5,9,9,0,0,0,1.321,4.533,6.9,6.9,0,0,0,4.111,2.35c1.1.278,3.151.828,3.543-.748a.654.654,0,0,0-1.189-.5c-.32.544-2.125-.147-2.559-.274a4.9,4.9,0,0,1-2.808-1.717,7.587,7.587,0,0,1-1-3.523,6.354,6.354,0,0,1,.6-3.664,3.973,3.973,0,0,1,2.254-1.928,5.662,5.662,0,0,1,3.7.413,5.985,5.985,0,0,1,3.92,5.248c.019,2.655-2.333,4.651-4.294,6.071-.352.254-.032.839.345.6Z" transform="translate(-3772.481 -3999.645)"/></g><g transform="translate(3787.149 3977.763)"><path d="M3806.139,4000.151c2.575-1.305,5.436-2.786,5.892-5.965.448-3.119-1.534-5.923-4.181-7.349a7.527,7.527,0,0,0-4.625-1.019,5.373,5.373,0,0,0-3.418,2.146,7.464,7.464,0,0,0-1.324,4.485,9.022,9.022,0,0,0,1.013,4.733,7.284,7.284,0,0,0,3.88,2.7c1.176.432,3.26,1.256,3.863-.4.271-.745-.788-1.057-1.189-.5-.178.246-.9-.005-1.114-.069a17.436,17.436,0,0,1-1.769-.628,4.918,4.918,0,0,1-2.614-2.107,8.251,8.251,0,0,1-.658-3.728,6.119,6.119,0,0,1,1.02-3.619c1.568-2.146,4.211-1.887,6.325-.737a6.259,6.259,0,0,1,3.567,5.714c-.2,2.738-2.866,4.515-5.016,5.75-.386.222-.046.794.346.595Z" transform="translate(-3798.484 -3985.754)"/></g><g transform="translate(3812.575 3977.097)"><path d="M3826.905,3993.149c1.343,2.733,2.875,5.9,6.21,6.43,3.294.523,6.177-1.706,7.557-4.566a8.321,8.321,0,0,0,.919-4.812,5.993,5.993,0,0,0-2.394-3.817,7.684,7.684,0,0,0-4.548-1.362,8.736,8.736,0,0,0-4.765,1.032,7.62,7.62,0,0,0-2.736,4.186c-.419,1.248-1.226,3.409.448,4.073.741.293,1.042-.792.5-1.195-.272-.2-.054-.941.011-1.19.161-.614.362-1.225.581-1.818a5.44,5.44,0,0,1,2.006-2.889,7.573,7.573,0,0,1,3.954-.778,6.333,6.333,0,0,1,3.675,1.05c4.561,3.284.219,11.312-4.823,10.86-2.885-.259-4.735-3.261-6-5.552-.217-.391-.786-.046-.593.348Z" transform="translate(-3826.582 -3985.022)"/></g><g transform="translate(3759.816 3928.097)"><path d="M3769.138,3964.626a3.373,3.373,0,0,0,1.851-1.266c.648-.8,1.261-1.637,1.888-2.456,1.329-1.74,2.712-3.437,4.107-5.123,2.67-3.225,5.361-6.44,8.227-9.49.483-.515.97-1.025,1.476-1.517.2-.191.394-.38.6-.563.129-.117.65-.689.29-.268a.846.846,0,0,1,.316-.2,2.076,2.076,0,0,1-1.022.135c.046.008.136.062.178.056-.221.033-.341-.175-.077-.024.093.053.191.1.286.153.281.155.552.327.823.5,2.966,1.893,5.741,4.1,8.578,6.178,1.58,1.158,4.4,4.076,6.3,2.084a72.037,72.037,0,0,0,5.222-6.748q1.685-2.247,3.373-4.492c.908-1.205,1.567-2.09,2.361-3.091.229-.286.513-.56.716-.864.026-.038.083-.067.1-.108-.2.4-1.709.437-1.894.23a3.115,3.115,0,0,0,.515.33c1.311.911,2.417,1.851,3.706,2.86a38.081,38.081,0,0,0,4.191,3.133c1.588.918,2.655-.125,3.792-1.167,1.715-1.571,3.386-3.192,5.091-4.774.939-.872,1.873-1.746,2.836-2.59a8.7,8.7,0,0,0,2.175-2.372,1.391,1.391,0,0,0-1.545-2.019c-2.012.372-3.688,2.329-5.165,3.669-1.652,1.5-3.244,3.065-4.858,4.606-.531.506-1.059,1.017-1.608,1.5-.091.08-.187.157-.275.239-.235.22-.165-.022.086-.061l-.049.034q-.6.35,1.187-.137c.41.007.37.209.106.021-1.237-.883-2.469-1.76-3.676-2.687-1.345-1.034-2.673-2.1-4.048-3.088-.994-.716-2.06-1.094-3.071-.114a22.619,22.619,0,0,0-1.894,2.311c-1.11,1.414-2.2,2.841-3.3,4.268q-1.716,2.239-3.43,4.48c-.827,1.077-1.823,2.375-2.512,3.248-.219.279-.47.545-.677.832-.051.07-.162.134-.2.209-1.428,2.924,2.3-.409,1.569-.457.457.03.374.2.139.036-1.036-.73-2.123-1.4-3.16-2.13-2.937-2.081-5.827-4.266-8.893-6.155-.9-.554-2.057-1.367-3.169-1.059a5.972,5.972,0,0,0-2.294,1.775c-3.1,3.149-5.933,6.586-8.718,10.016q-2.436,3-4.726,6.128c-.653.888-1.3,1.78-1.888,2.711a3.672,3.672,0,0,0-.776,2.645.668.668,0,0,0,.833.636Z" transform="translate(-3768.277 -3931.12)"/></g><g transform="translate(3758.881 3918.169)"><path d="M3832.806,3920.435q-10.958-.085-21.918-.139-17.488-.063-34.974-.09l-8.079-.006a.584.584,0,0,0-.573.576q-.007,7.245-.013,14.489-.009,11.5,0,22.993v5.344a.6.6,0,0,0,.591.594c19.464.523,38.941.058,58.408-.085,5.292-.039,10.584-.058,15.877-.024a.612.612,0,0,0,.6-.6q0-12.568,0-25.137,0-1.8,0-3.591a.6.6,0,0,0-1.2,0q0,12.568,0,25.137v3.591l.6-.6c-19.467-.117-38.933.406-58.4.347-5.3-.016-10.591-.075-15.884-.216l.591.593,0-14.488q0-11.5-.01-22.994l0-5.344-.575.577q10.961-.01,21.919-.032c11.658-.031,23.317-.052,34.975-.142l8.077-.063a.341.341,0,0,0,0-.682Z" transform="translate(-3767.244 -3920.199)"/></g><g transform="translate(3768.743 4004.254)"><path d="M3778.423,4015.52c-.285,3.143-.211,6.332-.234,9.486q-.021,2.6-.045,5.2c-.007.769.01,1.538.023,2.306a5.279,5.279,0,0,0,.291,2.224.788.788,0,0,0,1.356,0,4.988,4.988,0,0,0,.29-2.1c.015-.765.033-1.53.024-2.295q-.029-2.664-.06-5.329a89.606,89.606,0,0,0-.358-9.486.644.644,0,0,0-1.287,0Z" transform="translate(-3778.142 -4014.896)"/></g><g transform="translate(3793.587 3990.561)"><path d="M3806.123,4000.316a51.805,51.805,0,0,0-.406,8.184c-.062,2.761-.063,5.522-.084,8.284q-.03,4.081-.031,8.162c0,1.416-.012,2.832,0,4.247a12.8,12.8,0,0,0,.414,4.4.749.749,0,0,0,1.432,0,12.326,12.326,0,0,0,.416-4.184c.021-1.418.007-2.837.011-4.255q.012-4.185-.005-8.371c-.011-2.693,0-5.387-.055-8.08a52.3,52.3,0,0,0-.4-8.389.675.675,0,0,0-1.295,0Z" transform="translate(-3805.598 -3999.833)"/></g><g transform="translate(3819.371 3989.956)"><path d="M3834.26,3999.887c-.081,5.481-.076,10.958-.088,16.44-.006,2.625.012,5.252.009,7.877q0,2.1-.009,4.2c0,1.4-.28,3.115.225,4.433a1.013,1.013,0,0,0,1.936,0c.483-1.264.228-2.88.222-4.218q-.011-2.106-.025-4.211c-.018-2.694-.026-5.39-.081-8.083-.112-5.49-.31-10.963-.7-16.44a.743.743,0,0,0-1.485,0Z" transform="translate(-3834.093 -3999.168)"/></g><g transform="translate(3757.092 4022.473)"><path d="M3765.963,4037.164c8.927.223,17.852.42,26.781.462,13.456.063,26.911.126,40.366.1l6.987-.016c1.145,0,3,.1,3.776-.952l-.733.422h.038a.853.853,0,0,0,0-1.7h-.038l.733.422c-.686-.928-2.265-.931-3.292-.945-1.906-.025-3.816,0-5.722,0-6.016,0-12.031.038-18.048.063-13.491.055-26.99.068-40.478.426q-5.185.138-10.37.275a.725.725,0,0,0,0,1.448Z" transform="translate(-3765.266 -4034.938)"/></g><g transform="translate(3694.723 4003.585)"><path d="M3697.329,4014.716a4.133,4.133,0,0,0-.5,2.225c-.059.839-.124,1.678-.177,2.518-.11,1.73-.177,3.465-.25,5.2-.063,1.517-.072,3.039-.059,4.557.017,1.994-.057,4.094,1.37,5.649a1.819,1.819,0,0,0,3.076-1.28c-.007-1.569-.329-3.152-.414-4.727-.084-1.546-.126-3.094-.2-4.641-.079-1.634-.126-3.271-.219-4.9-.043-.747-.091-1.494-.137-2.24a4.358,4.358,0,0,0-.5-2.357,1.174,1.174,0,0,0-2,0Z" transform="translate(-3696.341 -4014.16)"/></g><g transform="translate(3695.776 4003.307)"><path d="M3698.354,4035.213c7.135,1.011,14.433.9,21.622.819,7.24-.079,14.482-.2,21.723-.115a2.018,2.018,0,0,0,1.987-2l-.095-9.246-.066-6.376c-.012-1.214-.118-3.119-1.056-4.051l.407.987v-.033a1.39,1.39,0,0,0-2.779,0v.033l.406-.987c-.917.955-1,2.828-.986,4.051l.079,6.376.115,9.246,1.987-2c-7.174-.073-14.347.152-21.519.308s-14.361.186-21.513.658c-1.231.082-1.707,2.125-.313,2.323Z" transform="translate(-3697.504 -4013.854)"/></g><g transform="translate(3695.152 4003.135)"><path d="M3741.418,4015.449l-.089-.234c-.154-.4-.462-.881-.941-.945-6.849-.925-13.921-.541-20.81-.439-3.5.052-7,.158-10.495.2-3.456.04-6.924-.122-10.376-.038-2.549.061-2.5,3.754,0,3.942,3.431.258,6.938.106,10.376.058s6.853-.117,10.276-.244,6.855-.212,10.28-.363c3.458-.154,6.942-.136,10.39-.455a1.351,1.351,0,0,0,1.165-.671c.089-.2.321-.556.224-.809Z" transform="translate(-3696.815 -4013.665)"/></g><g transform="translate(3816.127 3923.181)"><path d="M3831.04,3928.486l13.739-2.762a.671.671,0,0,1,.773.776l-2.054,14.457a.649.649,0,0,1-1.1.4l-11.684-11.695A.7.7,0,0,1,3831.04,3928.486Z" transform="translate(-3830.507 -3925.712)"/></g><g transform="translate(3758.195 4000.791)"><path d="M3766.947,4016.674a1.385,1.385,0,0,0,1.108-.192c.252-.149.5-.3.748-.459l1.56-1.029,1.514-1c.244-.161.486-.328.74-.473a1.777,1.777,0,0,0,1.015-1.062,1.1,1.1,0,0,0-1.038-1.369,1.784,1.784,0,0,0-1.287.636c-.014.013-.16.146-.1.091s-.091.071-.107.083l-.351.269-1.495,1.141-1.45,1.107c-.267.205-.527.415-.783.632a1.875,1.875,0,0,0-.392.513,1.036,1.036,0,0,0-.146.5.655.655,0,0,0,.461.609Z" transform="translate(-3766.485 -4011.087)"/></g><g transform="translate(3774.49 3985.381)"><path d="M3784.979,4003.206a2.785,2.785,0,0,0,1.872-.621c.574-.335,1.138-.686,1.711-1.023,1.16-.681,2.344-1.325,3.524-1.97,1.127-.615,2.265-1.211,3.377-1.854s2.556-1.368,2.913-2.709a.7.7,0,0,0-.484-.856c-1.365-.235-2.621.645-3.753,1.289s-2.29,1.313-3.427,1.985-2.232,1.369-3.3,2.132c-.586.417-1.167.84-1.712,1.308a2.674,2.674,0,0,0-1.2,1.682.658.658,0,0,0,.482.637Z" transform="translate(-3784.494 -3994.135)"/></g><g transform="translate(3799.563 3983.247)"><path d="M3826.044,3992.111c-1.243-.1-2.471-.245-3.717-.3-1.194-.053-2.392,0-3.586.011s-2.37.036-3.554.01c-1-.022-2.97-.338-2.984,1.211-.013,1.531,1.963,1.378,2.984,1.4,1.185.022,2.372.013,3.554-.058,1.22-.073,2.444-.136,3.656-.3s2.427-.413,3.647-.562a.7.7,0,0,0,0-1.406Z" transform="translate(-3812.202 -3991.788)"/></g><g transform="translate(3826.186 3983.141)"><path d="M3841.862,3993.791a2.464,2.464,0,0,0,1.709.4q.728.022,1.453.073c.486.035.969.054,1.456.072.242.01.485.032.727.036.1,0,.209,0,.311-.008a1.574,1.574,0,0,0,.992-.435,1.277,1.277,0,0,0,0-1.784,2.6,2.6,0,0,0-2.031-.462,14.808,14.808,0,0,0-1.732.149c-.473.067-.944.142-1.413.229a2.245,2.245,0,0,0-1.6.75.813.813,0,0,0,.126.98Z" transform="translate(-3841.625 -3991.671)"/></g><g transform="translate(3696.305 3976.695)"><path d="M3698.938,3987.65c3.048.808,6.38.774,9.516.877l4.771.156c.793.026,1.593.085,2.385.065a2.734,2.734,0,0,0,2.505-1.179,1.681,1.681,0,0,0,0-1.743c-1.1-1.607-3.177-1.208-4.891-1.192l-4.771.046a42.888,42.888,0,0,0-9.516.667,1.2,1.2,0,0,0,0,2.3Z" transform="translate(-3698.089 -3984.58)"/></g><g transform="translate(3721.977 3950.35)"><path d="M3727.318,3955.8a6.763,6.763,0,0,0-.72,2.624,14.687,14.687,0,0,0-.127,2.607,17,17,0,0,0,.3,2.6,5.16,5.16,0,0,0,.948,2.511.458.458,0,0,0,.773-.321,9.666,9.666,0,0,0-.477-2.354,14.978,14.978,0,0,1-.322-2.525,18.148,18.148,0,0,1,.075-2.449,24.682,24.682,0,0,0,.328-2.483.42.42,0,0,0-.777-.211Z" transform="translate(-3726.459 -3955.599)"/></g><g transform="translate(3693.617 3922.559)"><path d="M3695.779,3963.448c0-3.232-.66-35.188-.66-38.42l2.941,3.964s-1.106,1.718.4,4.747a7.165,7.165,0,0,0,3.72,3.737l4.926,9.292,1.509,16.767-12.77-.091c15.679.559,31.316-.083,47-.162" transform="translate(-3695.119 -3925.028)"/></g><g transform="translate(3740.612 3919.248)"><path d="M3747.6,3921.677q-.278,10.36-.368,20.722-.043,5.276-.076,10.55-.018,2.607-.042,5.214a19.144,19.144,0,0,0,.173,4.661.374.374,0,0,0,.716,0,18.552,18.552,0,0,0,.265-4.661q.019-2.607.03-5.214.025-5.276.014-10.55c-.006-6.908-.093-13.815-.111-20.722a.3.3,0,0,0-.6,0Z" transform="translate(-3747.054 -3921.385)"/></g><g transform="translate(3724.342 3918.443)"><path d="M3746.584,3920.5c-2.414,0-5.367.1-8.094.1a18.413,18.413,0,0,0-2.363.253s5.04,8.845,1.81,21.918c-2.421,9.8-8.429,11.249-8.429,11.249s-1.366,5.705.741,8.484c.515.681-2.2.3.734.506s15.072.214,15.072.214Z" transform="translate(-3729.073 -3920.5)"/></g><g transform="translate(3694.296 3959.729)"><rect width="47.657" height="2.197"/></g><g transform="translate(3695.05 3985.41)"><rect width="47.053" height="5.757" rx="2.879"/></g></g></svg>