<svg xmlns="http://www.w3.org/2000/svg" width="430" height="308" viewBox="0 0 430 308"><g transform="translate(-742 -9560)"><ellipse cx="9.5" cy="10.5" rx="9.5" ry="10.5" transform="translate(789 9674.444)" fill="#fff"/><ellipse cx="13" cy="12.5" rx="13" ry="12.5" transform="translate(804 9700.309)" fill="#fff"/><ellipse cx="8" cy="9" rx="8" ry="9" transform="matrix(0.891, 0.454, -0.454, 0.891, 828.086, 9664.673)" fill="#fff"/><ellipse cx="51" cy="49" rx="51" ry="49" transform="translate(1070 9570)" fill="#fff"/><path d="M-2632.155-11512.312s11.232-36.583,27.065-40.146,20.75-4.511,20.75-4.511l-11.728-27.472s-19.352-10.916-11.232-22.148,5.819-8.977,5.819-8.977-26.659-21.246-12.179-39.245,41.1-8,42.4-5.007,25.979-4.839,30.093,7.5,7.135,12.847,5.078,15.52,18.177-5.047,17.07,14.712,0,15.5,0,15.5,6.628,27.359-2.689,30.84-6.628,2.23-6.628,2.23l-1.107,12.182s25.885.473,30.907,6.3,19.609,15.753,21.729,34.832,1.541,7.891,1.541,7.891-22.047-.4-22.047,0S-2632.155-11512.312-2632.155-11512.312Z" transform="translate(3515.399 21243)" fill="#fff"/><g transform="translate(742 9560)"><path d="M89.683,248.5a76.6,76.6,0,0,0-19.538,2.875q-2.343.667-4.623,1.487a26.65,26.65,0,0,0-4,1.64,6.011,6.011,0,0,0-2.613,2.442c-.207.433-.559,1.226-.288,1.685a3.929,3.929,0,0,0,1.7,1.135c2.7,1.217,5.876,1.027,8.751,1.036q5.119,0,10.238-.352a134.045,134.045,0,0,0,20.006-2.938l2.7-.658a9.3,9.3,0,0,0,2.244-.766,2.937,2.937,0,0,0,1.568-3.6,3.262,3.262,0,0,0-1.631-1.478,18.782,18.782,0,0,0-2.415-.973,14.887,14.887,0,0,0-5.335-.712.379.379,0,0,0,0,.757,20.727,20.727,0,0,1,5.308,1.226,9.57,9.57,0,0,1,2.433,1.253,1.172,1.172,0,0,1,.2,1.8,3.6,3.6,0,0,1-2.046,1.063c-.9.243-1.847.451-2.767.658-1.883.415-3.767.8-5.668,1.136a138.787,138.787,0,0,1-23.089,2.253c-2.037,0-4.091,0-6.128-.072a8.625,8.625,0,0,1-5-1.532l.171.667c.234-1.676,1.8-2.6,3.2-3.244a52.529,52.529,0,0,1,6.011-2.172,86.3,86.3,0,0,1,12.959-2.992c2.532-.379,5.092-.613,7.651-.739.523,0,.532-.838,0-.82Z" transform="translate(-5.818 -25.617)"/><path d="M58.52,260.274a37.643,37.643,0,0,0,.6,4.109c.252,1.568.5,3.136.748,4.7.559,3.524,1.081,7.056,1.6,10.6q1.6,11.013,3.226,22.043c.487,3.343.946,6.714,1.649,10.021.108.532,1.018.424.964-.135-.279-2.956-.721-5.912-1.136-8.85-.5-3.542-.991-7.083-1.5-10.616-1.054-7.354-2.145-14.7-3.361-22.016-.3-1.8-.6-3.6-.9-5.353a32.216,32.216,0,0,0-.991-4.623C59.268,259.715,58.52,259.751,58.52,260.274Z" transform="translate(-5.818 -27.082)"/><path d="M106.027,253.638a27.2,27.2,0,0,0,.207,4.281c.153,1.658.306,3.307.469,4.966.342,3.686.73,7.363,1.117,11.04q1.172,11.481,2.451,22.962c.4,3.5.793,6.993,1.235,10.49l.388-.685a38.921,38.921,0,0,1-8.111,4.281,48.818,48.818,0,0,1-20.727,3.695,44.055,44.055,0,0,1-7.291-.991c-1.262-.279-2.5-.631-3.74-.955s-2.7-.9-4.028-1.325a.487.487,0,1,0-.369.9,31.128,31.128,0,0,0,6.93,2.577,45.312,45.312,0,0,0,6.669,1.172,45.906,45.906,0,0,0,12.175-.415,51.124,51.124,0,0,0,16.4-5.786,29.62,29.62,0,0,0,2.839-1.748.82.82,0,0,0,.4-.694c-.9-6.777-1.631-13.518-2.406-20.34-.9-7.678-1.685-15.365-2.613-23.034-.216-1.856-.442-3.7-.658-5.551a33.12,33.12,0,0,0-.775-4.893.315.315,0,0,0-.622.081Z" transform="translate(-6.688 -26.438)"/><path d="M113.565,262.617a8.111,8.111,0,0,0,5.831-.775,9.8,9.8,0,0,0,2.478-1.73,8.392,8.392,0,0,0,.9-1.1,2.821,2.821,0,0,0,.568-1.379.351.351,0,0,0-.523-.288,1.55,1.55,0,0,0-.442.433c-.144.171-.315.306-.469.478-.306.342-.6.676-.9,1a9.534,9.534,0,0,1-2.145,1.541,12.355,12.355,0,0,1-5.209,1.172.333.333,0,0,0-.09.649Z" transform="translate(-11.481 -26.499)"/><path d="M124.143,256.382c1.271-1,3.037,0,3.722,1.226a7.543,7.543,0,0,1,.523,4.794c-.577,3.379-4.182,4.921-6.984,6.164a25.066,25.066,0,0,1-2.884,1.054c-1.018.315-2.127.387-3.127.757a.469.469,0,0,0,0,.9,6.525,6.525,0,0,0,3.325-.171,17.252,17.252,0,0,0,3.064-1.09,23.864,23.864,0,0,0,5.29-2.974,7.02,7.02,0,0,0,2.758-5.029,7.84,7.84,0,0,0-1.28-5.578,3.425,3.425,0,0,0-4.884-.523c-.315.315.153.748.478.478Z" transform="translate(-11.657 -26.314)"/><path d="M129.423,265.308a4.776,4.776,0,0,1,.982,3.875,8.363,8.363,0,0,1-2.379,4.055,24.53,24.53,0,0,1-7.669,5.407c-.811.369-1.649.676-2.487.964-.442.153-.9.288-1.316.451a4.606,4.606,0,0,0-1.253.5.541.541,0,0,0,.126.982,5.507,5.507,0,0,0,2.568-.406,24.028,24.028,0,0,0,2.514-.946,25.873,25.873,0,0,0,4.659-2.65A24.98,24.98,0,0,0,129.189,274a9.075,9.075,0,0,0,2.424-4.569,4.676,4.676,0,0,0-1.676-4.641c-.3-.189-.739.216-.514.514Z" transform="translate(-11.657 -27.308)"/><path d="M129.528,275.029c3.217,2.073-1.027,6.308-2.776,7.922a16.735,16.735,0,0,1-3.992,2.7,17.823,17.823,0,0,1-2.217.847c-.388.117-.775.225-1.163.306a3.208,3.208,0,0,0-1.2.369.559.559,0,0,0,.126,1,3.939,3.939,0,0,0,2.208-.135,11.3,11.3,0,0,0,2.154-.685,17.125,17.125,0,0,0,3.866-2.307,18.827,18.827,0,0,0,3.154-3.127,9.21,9.21,0,0,0,2.217-4.146c.216-1.4-.4-3.388-2-3.659a.5.5,0,0,0-.378.9Z" transform="translate(-11.947 -28.262)"/><path d="M112.456,247.716l-.216.207h0l.207-.216h0Z" transform="translate(-11.365 -25.492)"/><path d="M108.042,250.821a37.289,37.289,0,0,1,4.407-2.361c1.433-.595,2.992-1.009,4.443-.252a8.868,8.868,0,0,1,3.6,3.974,10.229,10.229,0,0,1,.9,2.659,21.893,21.893,0,0,0,.415,2.758.586.586,0,0,0,1.063.135c.712-1.487.261-3.388-.261-4.884a11.715,11.715,0,0,0-2.541-4.218,7.083,7.083,0,0,0-4.272-2.361,7.5,7.5,0,0,0-4.073,1.108,30.579,30.579,0,0,0-4.127,2.7c-.415.306-.054.991.415.712Z" transform="translate(-10.887 -25.385)"/><path d="M112.3,259.12a5.992,5.992,0,0,1,2.568-1.352l.351-.072h.279a7.062,7.062,0,0,1,.757,0h.424l.333.054a.811.811,0,0,0,.9-.766.757.757,0,0,0-.379-.649,3.091,3.091,0,0,0-1.8-.153,5.658,5.658,0,0,0-1.622.415,5.353,5.353,0,0,0-2.523,2.046c-.261.424.315.811.667.5Z" transform="translate(-11.296 -26.369)"/><path d="M112.187,259.068h.108l-.216-.063c-.1-.072-.09-.054,0,0l.126.054a1.477,1.477,0,0,0,.2,0,.512.512,0,0,0,.117,0h.261a1.89,1.89,0,0,1,.216.054l.207.072h.1c-.18-.054-.063,0,0,0a3.527,3.527,0,0,1,.4.234c.054,0-.135-.117,0,0l.09.072a.9.9,0,0,1,.153.162l.072.081c.108.117-.063-.09,0,0l.117.18a2.152,2.152,0,0,1,.108.2c0,.063-.072-.2,0-.054a.505.505,0,0,1,0,.108,2.433,2.433,0,0,1,.108.442v-.216a4.326,4.326,0,0,0,.063.766.784.784,0,0,0,.649.559.793.793,0,0,0,.775-.369,1.8,1.8,0,0,0,0-1.415,2.947,2.947,0,0,0-.649-1.063,2.983,2.983,0,0,0-2.01-1,2.09,2.09,0,0,0-.622.063,1.522,1.522,0,0,0-.333.135.531.531,0,0,0-.225.2s-.108.225,0,.054,0-.054,0,0a.415.415,0,0,0-.081.433.433.433,0,0,0,.36.243Z" transform="translate(-11.331 -26.552)"/><path d="M127.426,289.591c-.063,1.577.342,3.163.379,4.749,0,1.721.252,3.794-.964,5.173-1.586,1.8-4.236,2.659-6.5,3.235a17.626,17.626,0,0,1-2.145.406,13.839,13.839,0,0,0-1.748.225.532.532,0,0,0-.126.955,2.983,2.983,0,0,0,1.8.369,9.739,9.739,0,0,0,2.1-.288,21.682,21.682,0,0,0,4.344-1.487,9.77,9.77,0,0,0,3.2-2.136,5.092,5.092,0,0,0,1.343-2.433,14.266,14.266,0,0,0,.108-3.037,14.978,14.978,0,0,0-1.09-5.912c-.162-.333-.649-.144-.667.18Z" transform="translate(-11.76 -29.985)"/><path d="M128.735,282.577c1.613.18,1.748,2.262,1.208,3.4a9.958,9.958,0,0,1-3.316,3.533,38.75,38.75,0,0,1-4.173,2.469c-.712.4-1.415.847-2.154,1.172a11.572,11.572,0,0,1-2.1.658,17.2,17.2,0,0,1-1.911.306l-.64.1h-.189a.451.451,0,0,0,0,.9h.225a3.986,3.986,0,0,0,.658,0,14.77,14.77,0,0,0,2.082-.261,16.673,16.673,0,0,0,4.866-2.064,29.957,29.957,0,0,0,4.83-3.064c1.343-1.1,2.83-2.622,3.154-4.407a2.924,2.924,0,0,0-2.541-3.677c-.577,0-.541.811,0,.9Z" transform="translate(-11.654 -29.234)"/><path d="M111.894,247.223c-.117-.126,0-.424.054-.568s.252-.5.369-.748a15.545,15.545,0,0,1,.9-1.568,5.407,5.407,0,0,1,2.325-2.118,1.46,1.46,0,0,1,.7-.153c.252.045.36.243.487.46a5.856,5.856,0,0,1,.667,1.6,5.534,5.534,0,0,1,.189,1.631,3.181,3.181,0,0,1-.415,1.388.568.568,0,0,0,.9.676c.9-.811.82-2.226.6-3.316a8.731,8.731,0,0,0-.55-1.7,4.046,4.046,0,0,0-.955-1.505c-.964-.793-2.379-.063-3.208.586a7.94,7.94,0,0,0-2.145,2.7,9.418,9.418,0,0,0-.847,1.8c-.162.586.054,1.307.766,1.253a.288.288,0,0,0,.2-.487Z" transform="translate(-11.236 -24.821)"/><path d="M68.741,260.42a11.77,11.77,0,0,1,5.849-1.694c1.027-.09,2.064-.171,3.082-.333a16.986,16.986,0,0,0,3.316-.9,21.032,21.032,0,0,1,3.515-1.136,25.506,25.506,0,0,1,3.8-.234,53.635,53.635,0,0,0,7.48-1c1.4-.243,2.794-.478,4.209-.595.694-.063,1.388-.09,2.082-.09a7.507,7.507,0,0,0,2.109,0,.487.487,0,0,0,.117-.9,3.677,3.677,0,0,0-1.7-.306,17.828,17.828,0,0,0-2.082.045,36.309,36.309,0,0,0-3.695.469,78.127,78.127,0,0,1-7.768,1.2c-1.361.09-2.7.045-4.064.216a14.546,14.546,0,0,0-3.524.991,23.929,23.929,0,0,1-3.47,1.2,27.943,27.943,0,0,1-3.235.442c-2.271.243-4.7.514-6.453,2.127-.3.27.09.793.433.559Z" transform="translate(-6.775 -26.085)"/><path d="M70.936,260.073a24.567,24.567,0,0,1,4.6-1.172c.424-.063.243-.7-.171-.64-1.947.3-3.9.577-5.84.9-.541.108-.424,1.045.135.982a46.661,46.661,0,0,0,5.993-1.081c.568-.144.469-1.117-.144-1.054a14.141,14.141,0,0,0-4.921,1.478.55.55,0,0,0,.279,1.027,40.257,40.257,0,0,0,9.5-2,.561.561,0,0,0-.3-1.081l-8.345,1.983a.6.6,0,0,0,.162,1.172,41.565,41.565,0,0,0,6.056-.9l6.164-1.262-.324-1.181-7.552,1.938c-.793.207-.442,1.316.324,1.2L87.5,258.658l-.333-1.217-8.706,1.685c-.7.135-.532,1.244.171,1.244a47.15,47.15,0,0,0,12.707-1.856.643.643,0,0,0,.144-1.163,3.767,3.767,0,0,0-2.118-.18l-2.487.406-5.146.82.333,1.226a47.113,47.113,0,0,1,8.471-2.505l-.333-1.226c-2.145.514-4.29.9-6.453,1.334l.333,1.208a9.093,9.093,0,0,0,2.145-1.045.613.613,0,0,0-.306-1.135,15.986,15.986,0,0,0-5.407.838.613.613,0,0,0,.162,1.19,9.012,9.012,0,0,0,4.984-1.081.613.613,0,0,0-.306-1.126,8.228,8.228,0,0,0-2.568.225c-.766.189-.424,1.289.324,1.163q6.308-1.009,12.617-1.748l-.162-1.2q-3.325.811-6.588,1.874a.613.613,0,0,0,.324,1.181q4.551-1.163,9.183-1.992l-.324-1.181-10.147,2.911.324,1.2a59.254,59.254,0,0,1,11.184-2.442l-.171-1.244-9.7,2.64A.641.641,0,0,0,90,258.694l11.265-2.181-.333-1.226-12.617,3.028c-.8.189-.46,1.406.333,1.226l7.714-1.712,3.794-.838c.982-.216,2.136-.315,2.7-1.226a.658.658,0,0,0-.559-.973,11.445,11.445,0,0,0-4.191.775.64.64,0,0,0,.333,1.235l5.263-1.145c.685-.153.55-1.334-.171-1.253a14.563,14.563,0,0,0-4.281,1.19c-.622.279-.234,1.136.315,1.172a5.218,5.218,0,0,0,4.064-1.5.64.64,0,0,0-.279-1.054,7.21,7.21,0,0,0-5.912,1.514c-.469.388,0,1.027.451,1.072a7.651,7.651,0,0,0,4.812-1.081c.595-.36.216-1.388-.487-1.154l-2.055.694c-.541.18-.658,1.1,0,1.217a5.633,5.633,0,0,0,1.694.063,2.109,2.109,0,0,0,1.442-.514.753.753,0,0,0-1.208-.9c-.478.64.6,1.262,1.072.622l.054-.063-.541.315h-.144l-.288-.369v.09l.063-.478c.081-.153-.117,0-.234,0a5.407,5.407,0,0,1-.55.081,4.607,4.607,0,0,1-1.054-.063v1.217l2.055-.694-.487-1.154a6.579,6.579,0,0,1-4.173.9l.442,1.072a5.885,5.885,0,0,1,4.686-1.19l-.279-1.054a3.947,3.947,0,0,1-3.172,1.136l.324,1.181a12.8,12.8,0,0,1,3.6-1.009l-.162-1.244-5.263,1.135.333,1.235a10.652,10.652,0,0,1,3.857-.721l-.559-.964c-.207.324-.748.369-1.09.442l-1.739.388-3.6.8L88.185,258.3l.333,1.226,12.617-3.028c.811-.189.46-1.379-.333-1.226l-11.274,2.172.342,1.235,9.688-2.659c.667-.18.559-1.325-.162-1.235a61.281,61.281,0,0,0-11.508,2.505c-.757.243-.451,1.424.324,1.2l10.147-2.929a.613.613,0,0,0-.324-1.181q-4.623.838-9.183,1.992l.324,1.181c2.172-.712,4.371-1.343,6.588-1.874.649-.162.532-1.28-.162-1.2q-6.489.757-12.932,1.8l.324,1.163a7.209,7.209,0,0,1,2.244-.18l-.306-1.126a7.922,7.922,0,0,1-4.371.9l.162,1.181a14.744,14.744,0,0,1,5.047-.784l-.306-1.136a7.21,7.21,0,0,1-1.865.9.631.631,0,0,0,.333,1.208c2.163-.352,4.317-.811,6.453-1.316.8-.189.46-1.379-.333-1.226a48.4,48.4,0,0,0-8.471,2.505.64.64,0,0,0,.333,1.226l4.506-.721,2.334-.36a4.064,4.064,0,0,1,2.1-.108L91,257.252a45.348,45.348,0,0,1-12.382,1.8l.171,1.244,8.7-1.685c.8-.153.451-1.334-.333-1.217l-10.922,1.784.324,1.2,7.561-1.965c.766-.2.442-1.334-.324-1.181l-5.939,1.226a40.477,40.477,0,0,1-5.957.9l.162,1.172c2.776-.667,5.551-1.334,8.327-1.983l-.3-1.081a39.257,39.257,0,0,1-9.219,1.947l.279,1.036a12.618,12.618,0,0,1,4.362-1.361l-.135-1.054a44.157,44.157,0,0,1-5.714,1.117l.135.982c1.92-.369,3.839-.829,5.741-1.271l-.171-.64a30.7,30.7,0,0,0-4.506,1.442c-.216.09-.135.451.1.369Z" transform="translate(-6.871 -26.171)"/><path d="M86.593,204.777c-1.893,1.865-2.424,4.93-2.046,7.471A9.012,9.012,0,0,0,86,215.97c.9,1.316,2.2,2.325,3.037,3.695a6.308,6.308,0,0,1,.73,4.641,21.566,21.566,0,0,1-1.911,4.145,6.1,6.1,0,0,0-.694,3.965,9,9,0,0,0,2.388,3.6,8.516,8.516,0,0,1,2.109,4.308,10.643,10.643,0,0,1-.469,4.957.324.324,0,0,0,.586.243c1.541-2.361,1.316-5.605.126-8.111A17.168,17.168,0,0,0,89.288,234a3.956,3.956,0,0,1-.9-3.965,44.04,44.04,0,0,1,1.9-4.01,7.579,7.579,0,0,0,.586-4.434,8.057,8.057,0,0,0-2.118-3.992,13.517,13.517,0,0,1-2.7-3.6,8.931,8.931,0,0,1-.649-4.506,10.283,10.283,0,0,1,1.685-4.362.315.315,0,0,0-.5-.378Z" transform="translate(-8.379 -21.192)"/><path d="M76.248,217.619a6.632,6.632,0,0,0-1.28,2.631,6.173,6.173,0,0,0-.234,2.659,4.452,4.452,0,0,0,2.893,3.65,6.732,6.732,0,0,1,2.4,1.262,3.731,3.731,0,0,1,.9,2.325c.144,1.965-.766,3.794-1.262,5.65a8.48,8.48,0,0,0-.306,3.082,3.181,3.181,0,0,0,1.208,2.424.333.333,0,0,0,.487-.378,11.436,11.436,0,0,1-.622-2.4,7.949,7.949,0,0,1,.351-2.64c.487-1.748,1.262-3.47,1.253-5.326a4.776,4.776,0,0,0-1.883-4.028c-1.352-.9-3.226-.955-4.037-2.568a4.506,4.506,0,0,1-.315-2.839c.2-1.108.793-2.118.955-3.208C76.753,217.637,76.474,217.367,76.248,217.619Z" transform="translate(-7.415 -22.461)"/><path d="M75.449,194.988a5.074,5.074,0,0,0-.685,6.038c.622,1.027,1.911,1.694,2.055,2.965.153,1.424-.829,2.514-1.217,3.785a.388.388,0,0,0,.64.369,5.858,5.858,0,0,0,1.577-3.343,3.6,3.6,0,0,0-1.172-3.118,4.7,4.7,0,0,1-1.586-2.938,4.506,4.506,0,0,1,.9-3.289c.261-.324-.171-.793-.469-.469Z" transform="translate(-7.355 -20.094)"/><path d="M66.144,217.445c-1.415,2.875-.685,7.074,2.3,8.66,1.072.577,2.884.9,3.19,2.3a14.32,14.32,0,0,1,.063,2.983,9.742,9.742,0,0,0,.18,2.983.369.369,0,0,0,.7,0,10.319,10.319,0,0,0,.18-2.983c0-.9.054-1.847,0-2.758-.144-1.523-1.226-2.3-2.532-2.875a8.662,8.662,0,0,1-1.8-.9,4.578,4.578,0,0,1-1.415-1.8c-.793-1.757-.387-3.6-.171-5.407a.352.352,0,0,0-.649-.171Z" transform="translate(-6.503 -22.418)"/><path d="M208.522,88.072c-.469-.18-.9-.451-1.388-.631a.46.46,0,0,0-.568.324c-.261,1.712.261,4.01,2.154,4.56a2.866,2.866,0,0,0,2.253-.306,2.091,2.091,0,0,0,.9-2.361,3.6,3.6,0,0,0-4.587-2.181,3.515,3.515,0,0,0-1.947,4.614,2.118,2.118,0,0,0,1.208,1.244,1.8,1.8,0,0,0,1.631-.351c1.135-.9.9-2.37.577-3.6a.658.658,0,0,0-1.2-.162,2.406,2.406,0,0,0-.045,2.253.685.685,0,0,0,1.226-.162c.09-.315.2-.631.261-.955s.054-.685.09-1.018c.063-.478-.7-.676-.9-.252s-.333.6-.451.9-.189.64-.279.955l1.217-.162a.982.982,0,0,1,0-.9l-1.19-.144c.2.64.487,1.541.045,2.1a.9.9,0,0,1-.333.261.523.523,0,0,1-.234,0,.9.9,0,0,1-.523-.559,2.127,2.127,0,0,1,0-1.613,2.235,2.235,0,0,1,1.081-1.235,2.433,2.433,0,0,1,3.073.964,1.289,1.289,0,0,1,.162.9.9.9,0,0,1-.288.442,1.685,1.685,0,0,1-1.271.3,1.929,1.929,0,0,1-1.379-1.2,4.885,4.885,0,0,1-.342-2.217l-.586.451c.487.126.991.162,1.487.279a.288.288,0,0,0,.144-.55Z" transform="translate(-20.741 -8.996)"/><path d="M247.971,87.269l.1-.189-.568-.072a4.713,4.713,0,0,0,.162,1.117,4.226,4.226,0,0,0,.613,1.117,2.163,2.163,0,0,0,1.9.9,2.064,2.064,0,0,0,1.748-1.262c.315-.9-.288-1.541-.946-2a5.146,5.146,0,0,0-4.6-.748A3.551,3.551,0,0,0,244,89.342a2.821,2.821,0,1,0,.279-.91,2.316,2.316,0,0,0,.3,2.541,2.217,2.217,0,0,0,2.325.577,1.739,1.739,0,0,0,1.072-2.046,1.8,1.8,0,0,0-1.721-1.451.7.7,0,0,0-.676.676c0,.6.045,1.208.063,1.8a.7.7,0,0,0,.9.649,2.37,2.37,0,0,0,1.063-3.388,2.019,2.019,0,0,0-.712-.694,1.072,1.072,0,0,0-1.226.4,2.2,2.2,0,0,0,.694,3.244,1.8,1.8,0,0,0,2-.288,2.325,2.325,0,0,0-.054-3.6,2.523,2.523,0,0,0-3.767,1.577.694.694,0,0,0,.478.829.685.685,0,0,0,.829-.478.973.973,0,0,1,.378-.6,1.532,1.532,0,0,1,.658-.288.9.9,0,0,1,.559.081.667.667,0,0,1,.207.162,1.019,1.019,0,0,1,.063.135h0a.748.748,0,0,0,0,.135c0,.117,0-.054,0,.081v.306a1,1,0,0,1-.063.234c-.018.081,0-.081,0,0v.09l-.108.171c.063-.081,0,0-.063.063l-.072.063c-.09.072.072-.063,0,0a.424.424,0,0,1-.2.081h-.225a.541.541,0,1,0-.045,0s-.117-.135-.054,0l-.108-.189h0a.669.669,0,0,1,0-.126.757.757,0,0,1-.054-.216c0-.081,0,0,0,0v-.279c0,.063,0-.108.045-.144-.045.126,0,0,0-.063h0l.081-.09c-.108.081.1,0,.126,0h-.694a.613.613,0,0,1,.288.315.9.9,0,0,1,0,.108.225.225,0,0,0,.045.162c.045.054,0-.063,0,.054a.793.793,0,0,1,0,.207c0,.126,0,0,0,.063v.171a.739.739,0,0,1-.09.216s-.117.171-.045.081l-.108.117-.054.045s-.18.1-.081.054l.856.658a14.994,14.994,0,0,0-.072-1.8l-.667.667h.117a.7.7,0,0,1,.117.081.37.37,0,0,1,.1.135c.108.18,0,0,0,.072a.956.956,0,0,1,.054.171.415.415,0,0,1-.045.306.469.469,0,0,1-.351.207.982.982,0,0,1-.9-.369,1.126,1.126,0,0,1,.045-1.154c.9-1.55,3.6-.225,2.893,1.415a1.621,1.621,0,0,1-3.145-.766,2.289,2.289,0,0,1,1.036-2.028,3.533,3.533,0,0,1,3.073-.171,4.38,4.38,0,0,1,.847.424c.216.144.541.333.631.577a.389.389,0,0,1-.108.306,1.009,1.009,0,0,1-.532.3,1.117,1.117,0,0,1-1.127-.541,3.461,3.461,0,0,1-.451-.793c-.144-.315-.387-.55-.532-.9s-.5-.171-.568.072l-.054.207a.288.288,0,0,0,.523.225Z" transform="translate(-24.67 -8.855)"/><path d="M222.8,126.594a24.963,24.963,0,0,0,10.643-.487,26.252,26.252,0,0,0,9.562-4.912l-1.469-.387c1.181,3.875,2.127,8.345-.162,12.022a6.308,6.308,0,0,1-9.12,1.757,6.561,6.561,0,0,1-1.8-2.271,16.377,16.377,0,0,1-.9-2.83.685.685,0,0,0-1.307,0c-.595,2.064.64,4.416,2.046,5.876a7.921,7.921,0,0,0,5.894,2.361,8.111,8.111,0,0,0,5.885-2.7,10.814,10.814,0,0,0,2.505-6.038,21.7,21.7,0,0,0-1.3-8.66.9.9,0,0,0-1.469-.388,26.513,26.513,0,0,1-18.862,5.678c-.55-.045-.685.9-.135.982Z" transform="translate(-22.515 -12.355)"/><path d="M227.349,79.858a78.135,78.135,0,0,0-4.191,16.861,83.4,83.4,0,0,0-.7,8.48c-.045,1.487-.054,2.983,0,4.506a7.372,7.372,0,0,0,.6,3.6c1.541,2.622,5.551,1.478,6.957-.667a.568.568,0,0,0-.631-.82c-1.1.36-1.947,1.3-3.136,1.451a1.8,1.8,0,0,1-2.118-1.334,15.906,15.906,0,0,1-.225-3.7v-3.83a88.585,88.585,0,0,1,1.92-15.645c.613-2.92,1.334-5.813,2.226-8.66.144-.451-.55-.631-.712-.189Z" transform="translate(-22.494 -8.248)"/><path d="M202.775,83.4c2.911,0,5.813-.3,8.724-.424,1.424-.054,2.848,0,4.272,0h1.325a.721.721,0,0,1,.234,0c-.063,0-.081-.117-.045,0a4.118,4.118,0,0,1,.189,1.154c.063.5.108,1.018.144,1.523.171,2.2.153,4.425.46,6.606.081.568.9.478,1.063,0a18.8,18.8,0,0,0,.478-6.389,22.474,22.474,0,0,0-.333-3.1,2.073,2.073,0,0,0-2.028-1.712,27.5,27.5,0,0,0-4.389.315q-2.568.252-5.11.586c-1.7.216-3.388.451-5.065.829a.315.315,0,0,0,.081.622Z" transform="translate(-20.488 -8.363)"/><path d="M200.845,99.787a14.23,14.23,0,0,0,3.713,0c1.523-.117,3.055-.225,4.578-.378l4.506-.478a30.775,30.775,0,0,0,3.875-.5c1.126-.279,1.352-1.325,1.469-2.334a5.956,5.956,0,0,0-.063-1.649,2.469,2.469,0,0,0-.523-1.442.622.622,0,0,0-1.036.279,5.183,5.183,0,0,0-.045,1.586,9.49,9.49,0,0,1-.171,1.6,1.7,1.7,0,0,1-.081.306q.171-.153-.108,0c-.171,0-.36.054-.532.072l-.9.126-4.921.658c-1.8.225-3.524.469-5.29.7l-2.424.342a9.913,9.913,0,0,0-1.992.424c-.324.117-.415.658,0,.739Z" transform="translate(-20.304 -9.57)"/><path d="M221.471,93.247a13.717,13.717,0,0,0,.469-1.712,4.56,4.56,0,0,1,.9-1.523A5.714,5.714,0,0,1,226.2,88.4a3.947,3.947,0,0,1,3.037.577,8.03,8.03,0,0,1,1.262,1.568,10.435,10.435,0,0,0,1.5,1.974,1.027,1.027,0,0,0,1.172.153.982.982,0,0,0,.442-1.1A11.185,11.185,0,0,0,232,89.156a7.48,7.48,0,0,0-1.739-1.947,6.119,6.119,0,0,0-4.623-.631,7.21,7.21,0,0,0-4.191,2.379c-.9,1.063-1.8,3.154-.8,4.4a.523.523,0,0,0,.829-.108Z" transform="translate(-22.277 -8.906)"/><path d="M233.23,81.607a65.882,65.882,0,0,0,.685,6.894,67.214,67.214,0,0,1,.388,6.993c0,.991-.072,2.118.847,2.758a5.108,5.108,0,0,0,3.181.424,21.936,21.936,0,0,0,3.506-.442,16.049,16.049,0,0,0,1.694-.424,5.939,5.939,0,0,0,1.55-.622c.351-.243.37-.9-.126-.982a10.075,10.075,0,0,0-3.154.18c-1.009.126-2.019.243-3.037.306h-1.739a4.5,4.5,0,0,1-.6,0h-.1a3.244,3.244,0,0,1-.054-1.145,14.181,14.181,0,0,0-.063-1.64,62.171,62.171,0,0,0-.622-6.308,22.2,22.2,0,0,0-1.622-6.1c-.171-.369-.73-.171-.73.2Z" transform="translate(-23.591 -8.395)"/><path d="M234.141,80.779c1.135,0,2.271-.108,3.407-.189s2.28-.135,3.416-.216c2.28-.18,4.56-.324,6.849-.415s4.578-.135,6.867-.117h1.658a2.83,2.83,0,0,1,1.316.162,1.956,1.956,0,0,1,.649.9,13.841,13.841,0,0,1,.631,1.451,22.041,22.041,0,0,1,.955,3.307,29.445,29.445,0,0,0,.73,3.524.577.577,0,0,0,1.1,0c.64-2.118,0-4.641-.73-6.669a14.581,14.581,0,0,0-1.361-3.091,3.091,3.091,0,0,0-2.613-1.433c-2.424-.126-4.893,0-7.318,0s-4.948.234-7.408.46c-1.4.126-2.785.324-4.173.532a31.613,31.613,0,0,0-4.091.82.46.46,0,0,0,.117.9Z" transform="translate(-23.658 -8.041)"/><path d="M244.794,98.061c2.064,0,4.127-.072,6.191-.144s4.127-.252,6.182-.415a24.954,24.954,0,0,0,2.956-.351,3.8,3.8,0,0,0,2.325-1.136,3.434,3.434,0,0,0,.721-2.136,3,3,0,0,0-.622-2.172.7.7,0,0,0-1.09.135c-.5.9.415,2.613-.685,3.244a6.84,6.84,0,0,1-2.451.541c-.9.108-1.8.18-2.7.252-3.677.333-7.309.9-10.949,1.379-.46.072-.342.811.108.8Z" transform="translate(-24.725 -9.433)"/><path d="M264.965,86.351a1.468,1.468,0,0,1-.243.586c-.279.369.252.9.613.622a2.568,2.568,0,0,0,.73-.9,10.4,10.4,0,0,1,.748-1.036,7.147,7.147,0,0,1,1.974-1.667,5.3,5.3,0,0,1,4.686-.279,5.218,5.218,0,0,1,2.7,4.055,26.133,26.133,0,0,1,.415,5.966,25.485,25.485,0,0,1-1.622,8.85,36.948,36.948,0,0,1-3.307,6.308,13.068,13.068,0,0,1-2.109,2.622,2.244,2.244,0,0,1-.9.5h-.3a3.91,3.91,0,0,1-.532-.081.424.424,0,0,0-.478.613,1.73,1.73,0,0,0,2.334.442,6.732,6.732,0,0,0,2.424-2.019,30.641,30.641,0,0,0,4.1-7.155,20.727,20.727,0,0,0,1.081-2.956,32.858,32.858,0,0,0,.9-6.759,27.169,27.169,0,0,0-.442-6.732,6.948,6.948,0,0,0-3.082-4.776,6.624,6.624,0,0,0-6.092-.036,7.669,7.669,0,0,0-2.5,1.965c-.613.712-1.505,1.8-1.361,2.8l.829-.351a1.316,1.316,0,0,1-.1-.523.225.225,0,0,0-.442-.063Z" transform="translate(-26.766 -8.464)"/><path d="M200.826,98.832a16.5,16.5,0,0,0,.171,6.2c.361,2.064.9,4.1,1.442,6.119a87.6,87.6,0,0,0,4.145,11.716,40.922,40.922,0,0,0,3.208,6.254c.288.433,1.108.162.9-.369-.748-1.8-1.658-3.6-2.451-5.407s-1.613-3.767-2.334-5.687a95.217,95.217,0,0,1-3.515-11.616,28.567,28.567,0,0,1-.8-7.083c0-.433-.676-.541-.766-.108Z" transform="translate(-20.295 -10.196)"/><path d="M218.809,144.132a23.809,23.809,0,0,0,13.148,7.354c4.884.964,10.346.55,14.707-2.019a11.238,11.238,0,0,0,3.091-2.586,6.849,6.849,0,0,0,1.685-3.6.524.524,0,0,0-.964-.261c-.27.4-.478.9-.748,1.4a8.454,8.454,0,0,1-1.045,1.352,12.191,12.191,0,0,1-2.469,2.091,16.591,16.591,0,0,1-6.362,2.334,23.53,23.53,0,0,1-13.788-2.046A24.332,24.332,0,0,1,219.4,143.5c-.378-.379-.9.189-.586.586Z" transform="translate(-22.15 -14.717)"/><path d="M220.981,39.143c2.505-4.794,10.229-7.282,16.131-5.2A8.778,8.778,0,0,1,240.537,36a9.165,9.165,0,0,1,1.64,2.7,49.169,49.169,0,0,1,4.254,16.951,13,13,0,0,1,6.525-4.939,11.914,11.914,0,0,1,10.94,2.947,15.587,15.587,0,0,1,4.236,9.156A28.6,28.6,0,0,1,267.1,77.029c-.793,2.172-1.6.829-2.505.324,0,0-.207-2.2-5.714.9-2.965,1.676-3.6,8.417-3.6,8.417l-1.3-10.517s-1.1-10.724-9.21-13.022a38.03,38.03,0,0,0-15.627-.9,17.123,17.123,0,0,0,1.532-7.029,19.349,19.349,0,0,1-10.589,9.327,5.173,5.173,0,0,1-3,.451c-2.812-.667-2.28-4.605-4.957-5.569a17.123,17.123,0,0,1-10.211,5.849,20.259,20.259,0,0,1-12.382-1.631,23.323,23.323,0,0,1-6.128-4.56,24.621,24.621,0,0,1-6.732-10.913A17.5,17.5,0,0,1,180.8,32.321c3.965-4.506,10.319-7.633,17.123-8.381a21.629,21.629,0,0,1,9.012.73,19.222,19.222,0,0,1,9.183,7.128,29.6,29.6,0,0,1,5.452,12.364" transform="translate(-17.925 -2.359)"/><path d="M262.426,143.794c-.433,5.524-.775,11.391-3.37,16.393a15.474,15.474,0,0,1-4.957,5.741,16.6,16.6,0,0,1-11.031,2.821,13.954,13.954,0,0,1-1.92-.306,19.113,19.113,0,0,0-2.127-.487c-.721-.072-.784.9-.333,1.226a8.742,8.742,0,0,0,3.839,1.181,16.439,16.439,0,0,0,3.992.09,17.907,17.907,0,0,0,7.615-2.559c4.975-3.091,7.543-8.453,8.489-14.086a61.963,61.963,0,0,0,.649-10.012.424.424,0,0,0-.847,0Z" transform="translate(-24.13 -14.816)"/><path d="M224.51,148.257a25.313,25.313,0,0,0,.487,5.011,26.631,26.631,0,0,0,1.514,4.812,29.451,29.451,0,0,0,5.506,8.552,23.869,23.869,0,0,0,2,1.938,6.065,6.065,0,0,0,2.523,1.577.613.613,0,0,0,.694-.9,7.264,7.264,0,0,0-1.658-1.748c-.586-.523-1.154-1.063-1.7-1.613a28.116,28.116,0,0,1-3.082-3.7,32.018,32.018,0,0,1-4.145-8.561,31.349,31.349,0,0,1-1.235-5.407c-.063-.568-.9-.6-.9,0Z" transform="translate(-22.711 -15.26)"/><path d="M221.4,148.166a15.32,15.32,0,0,0-.2,6.137,40.556,40.556,0,0,0,1.6,6.056c1.181,3.65,2.577,7.453,5.254,10.292a10.508,10.508,0,0,0,4.9,3.217.5.5,0,0,0,.379-.9,18.16,18.16,0,0,1-3.794-2.929,18.862,18.862,0,0,1-2.938-4.191,40.169,40.169,0,0,1-2.163-5.191c-.64-1.8-1.253-3.677-1.73-5.56a15.78,15.78,0,0,1-.5-6.7C222.323,147.86,221.539,147.626,221.4,148.166Z" transform="translate(-22.355 -15.277)"/><path d="M251.17,173.008a20.89,20.89,0,0,0,13.824-7c3.848-4.434,5.272-10.238,5.614-15.978.1-1.676.117-3.352.081-5.029a19.827,19.827,0,0,0-.442-5.164c-.153-.514-.991-.586-1.108,0a20.415,20.415,0,0,0-.072,4.389v4.263a36.148,36.148,0,0,1-1.054,8.282,20.889,20.889,0,0,1-8.868,12.473,19.438,19.438,0,0,1-7.976,3c-.478.063-.5.82,0,.766Z" transform="translate(-25.377 -14.423)"/><path d="M210.12,146.41a32.874,32.874,0,0,0-5.209.775c-1.7.315-3.407.685-5.1,1.081a84.971,84.971,0,0,0-10.075,2.974c-1.631.6-3.262,1.262-4.839,2.019a9.148,9.148,0,0,0-1.568.982,23.259,23.259,0,0,0-3.6,3.461,82.2,82.2,0,0,0-7.552,10.688c-2.469,4.019-4.767,8.111-6.939,12.319a103.5,103.5,0,0,0-4.641,9.868,2.029,2.029,0,0,0-.081.216,1.4,1.4,0,0,0-.054.207l-.054.2c0,.144-.171.469,0,.072-.342.766.784,1.433,1.126.658.054-.126.333-.478.46-.712s.324-.622.487-.9c.36-.685.739-1.37,1.081-2.064.856-1.712,1.712-3.425,2.586-5.119,2.073-4.037,4.236-8.039,6.543-11.95a94.95,94.95,0,0,1,7.309-10.958,30.749,30.749,0,0,1,3.434-3.749,9.562,9.562,0,0,1,1.514-1.181,18.457,18.457,0,0,1,2.947-1.415,83.042,83.042,0,0,1,11.022-3.6c1.883-.5,3.776-.9,5.668-1.406a42.815,42.815,0,0,0,5.632-1.5c.451-.18.442-.9-.117-.9Z" transform="translate(-16.264 -15.176)"/><path d="M266.322,139.445a58.82,58.82,0,0,1,19.952,3.118,50.63,50.63,0,0,1,13.752,7.119c.5.369,1.09.838,1.658,1.334s1.163,1.036,1.7,1.586a30.748,30.748,0,0,1,3.172,3.7,49.429,49.429,0,0,1,5.777,10.814,142.921,142.921,0,0,1,5.191,16.9c.243.9.622,1.712.946,2.6.207.559,1.181.532,1.117-.153a21.377,21.377,0,0,0-.261-2.7c-.171-.9-.36-1.721-.55-2.586-.37-1.631-.811-3.244-1.262-4.848-.775-2.7-1.649-5.461-2.659-8.111a53.8,53.8,0,0,0-5.948-11.842,34.065,34.065,0,0,0-6.939-7.408,48.936,48.936,0,0,0-12.86-6.993,52.684,52.684,0,0,0-20.223-3.361c-.856,0-1.712.108-2.568.189-.451.045-.478.73,0,.73Z" transform="translate(-26.963 -14.372)"/><path d="M270.34,98.481c-.487,1.478-.9,2.983-1.37,4.506-.234.748-.469,1.487-.721,2.235l-.351,1.018a2.866,2.866,0,0,0-.3,1.108,1.433,1.433,0,0,0,1.325,1.271,1.8,1.8,0,0,0,1.694-1.045,15.319,15.319,0,0,0,1.469-4.191,20.322,20.322,0,0,0,.5-5.11h-1.8a15.791,15.791,0,0,1-.153,3.8,16.217,16.217,0,0,1-.406,1.856c-.09.306-.189.6-.288.9a4.336,4.336,0,0,1-.27.838c-.541.829.676,1.739,1.361,1.045a4.831,4.831,0,0,0,.9-1.974,16.878,16.878,0,0,0,.487-2.1,18.753,18.753,0,0,0,.207-4.38c-.09-1.145-1.847-1.181-1.8,0a18.087,18.087,0,0,1-1.009,6.795c-.117.351-.252.7-.4,1.045,0,.054-.406.766-.4.784s.09,0,.189,0c.063.514.135.613.216.288a1.1,1.1,0,0,1,.117-.342c.117-.333.225-.676.342-1.018.261-.8.5-1.6.739-2.415a31.664,31.664,0,0,0,.946-4.758c.1-.73-1.027-.8-1.235-.162Z" transform="translate(-27.052 -10.045)"/><path d="M266.842,115.506c-.694,8.426-1.9,16.8-2.6,25.233a53,53,0,0,0-.279,7.273c0,.424.694.568.784.108.387-2.118.559-4.281.775-6.426s.433-4.173.667-6.254c.46-4.173.9-8.354,1.226-12.545.2-2.46.342-4.921.451-7.381a.514.514,0,0,0-1.027,0Z" transform="translate(-26.682 -11.9)"/><path d="M102.835,244.958l.279-.144a.451.451,0,0,1-.072-.18c.054-.171.09-.351.126-.523s.162-.577.261-.9a10.337,10.337,0,0,1,.9-1.865,16.509,16.509,0,0,1,2.5-3.154,26.414,26.414,0,0,1,6.552-5.092,12.942,12.942,0,0,1,3.848-1.343,20.74,20.74,0,0,0,4.353-.739,16.13,16.13,0,0,0,3.47-2.172,29.343,29.343,0,0,1,3.551-2.28,25.756,25.756,0,0,1,9.219-2.866c.811-.09.82-1.37,0-1.28a27.721,27.721,0,0,0-9.255,2.7,28.777,28.777,0,0,0-4.073,2.541,12.5,12.5,0,0,1-4.118,2.406,20.257,20.257,0,0,1-2.65.324,13.807,13.807,0,0,0-2.262.469,16.663,16.663,0,0,0-4.236,2.028,28.116,28.116,0,0,0-6.849,6.254,11.481,11.481,0,0,0-2.217,4.416c-.144.676-.234,1.379.424,1.8.4.252.964.144.9-.406a.333.333,0,0,0-.658-.09Z" transform="translate(-10.357 -22.964)"/><path d="M358.471,260.171c2.5-.279,5.164-.712,7.651-.162a8.39,8.39,0,0,1,5.407,4.064,27.531,27.531,0,0,1,2.7,6.7,61.7,61.7,0,0,1,1.884,8.345c.252,1.613.424,3.244.55,4.875.063.784.054,1.586.162,2.352a25.007,25.007,0,0,0,.333,2.487.532.532,0,0,0,1.018,0,14.692,14.692,0,0,0,.234-2.28,14.537,14.537,0,0,0-.054-2.343c-.1-1.505-.27-2.992-.478-4.506a62.259,62.259,0,0,0-1.965-9.012c-1.379-4.623-3.379-10.238-8.507-11.716-2.956-.9-6.074-.27-8.967.5-.351.1-.3.685.081.649Z" transform="translate(-36.229 -26.952)"/><path d="M347.492,255.282a24.532,24.532,0,0,0-3.992,7.912c-.82,3.037-.64,6.308-.577,9.408s.09,6.182.406,9.246c.234,2.262.811,4.731,2.8,6.092,1.045.721,2.641.982,3.47-.2a6.091,6.091,0,0,0,.694-1.8c.243-.829.478-1.658.712-2.487q1.244-4.506,2.145-9.129a121.659,121.659,0,0,0,2.235-18.682,6.309,6.309,0,0,0-.9-4.091,3.749,3.749,0,0,0-3.407-1.424,5.335,5.335,0,0,0-3.6,1.938,12.851,12.851,0,0,0-2.01,4.019c-.252.712.9,1.208,1.226.523.9-1.847,1.947-4.263,4.145-4.758a2.19,2.19,0,0,1,2.388.811,5.254,5.254,0,0,1,.46,3.064,123.229,123.229,0,0,1-1.956,16.762q-.766,4.136-1.8,8.21c-.342,1.325-.694,2.64-1.081,3.956l-.3,1.036a4.906,4.906,0,0,1-.3.955c-.225.387-.685.171-1.009,0-1.649-.973-2.046-3.172-2.208-4.912-.261-2.7-.324-5.479-.424-8.21-.1-3.127-.369-6.4.3-9.472s2.172-5.524,3.379-8.264a.469.469,0,0,0-.811-.469Z" transform="translate(-34.664 -26.118)"/><path d="M357,258.608c1.027,4.173,2.181,8.318,3.208,12.5s1.929,8.381,2.7,12.617c.315,1.658.784,3.524,2.424,4.362a2.758,2.758,0,0,0,3.947-1.388,7.057,7.057,0,0,0,.415-2.325c0-.946.063-1.892.09-2.839,0-1.956.054-3.911,0-5.867a31.064,31.064,0,0,0-2.956-12.572l-.9,1.135c.721.117,1.081.712,1.361,1.334a21.576,21.576,0,0,1,.793,2.451c.532,1.8,1,3.7,1.478,5.56a72.837,72.837,0,0,0,3.4,10.814,28.443,28.443,0,0,0,3.073,5.479.811.811,0,0,0,1.09.288,1.217,1.217,0,0,0,.306-1.893.6.6,0,0,0-1,.577.288.288,0,0,1,.081-.153l.9.369c-4.65-6.416-5.723-14.473-7.958-21.89-.487-1.64-1.081-4.109-3.109-4.416a.793.793,0,0,0-.9,1.145c3.181,6.308,3.019,13.779,2.7,20.646-.063,1.1-.424,2.893-1.938,2.226s-1.622-2.812-1.893-4.2q-1.1-5.741-2.532-11.418a110.845,110.845,0,0,0-3.884-12.8.469.469,0,0,0-.9.252Z" transform="translate(-36.107 -26.902)"/><path d="M344.736,306.21a.532.532,0,0,0-.306-.793.8.8,0,0,0-.9,1.172,2.964,2.964,0,0,0,1.334,1c.586.3,1.2.559,1.8.8a23.765,23.765,0,0,0,3.488,1.108,43.852,43.852,0,0,0,7.417,1.027c2.478.144,4.957.144,7.435.162,2.7,0,5.335,0,8-.171a44.213,44.213,0,0,0,9.075-1.451,1.09,1.09,0,0,0-.586-2.1c-5.047,1.433-10.31,1.6-15.528,1.6-4.83,0-9.769.108-14.527-.838a30.862,30.862,0,0,1-3.911-1.036c-.595-.207-1.172-.442-1.748-.694-.3-.126-.6-.252-.9-.388a3.215,3.215,0,0,0-.406-.171.658.658,0,0,0-.27-.054h.063l.379.388v-.054l-.225.55-.279-.045-.108-.415v.063a.415.415,0,0,0,.757.315Z" transform="translate(-34.773 -31.581)"/><path d="M379.142,280.234a19.834,19.834,0,0,0,1.172,2.253c.414.757.829,1.505,1.217,2.271a42.059,42.059,0,0,1,2.019,4.677,39.05,39.05,0,0,1,2.163,9.913c.072.955.117,1.911.126,2.866v1.433a4.416,4.416,0,0,0,.09,1.577l1.352-1.045-.433-.288a.658.658,0,0,0-.982.559v.532c.054.838,1.28,1.343,1.721.46a6.407,6.407,0,0,0,.315-2.749c0-.9,0-1.8-.09-2.7a40.2,40.2,0,0,0-.721-5.281,38.03,38.03,0,0,0-3.6-10.1,26.261,26.261,0,0,0-1.5-2.55,11.264,11.264,0,0,0-1.9-2.379c-.4-.333-1.217,0-.982.577Z" transform="translate(-38.49 -29.027)"/><path d="M340.5,286.892a3.821,3.821,0,0,0-.595,1.253c-.216.532-.388,1.072-.55,1.613-.3,1-.541,2.019-.757,3.037a29.47,29.47,0,0,0-.9,6.308,6.074,6.074,0,0,0,2.019,4.839,7.371,7.371,0,0,0,2.082.991c.631.243,1.307.568,1.956.847a20.987,20.987,0,0,0,2.7.982c.9.252,2.2.622,3.073.054a.793.793,0,0,0,0-1.352,7.03,7.03,0,0,0-2.253-.676c-.739-.225-1.469-.487-2.181-.775-1.181-.487-2.37-.955-3.551-1.424-1.352-.532-1.8-2.181-1.8-3.488a32.44,32.44,0,0,1,.658-5.587c.18-1.072.379-2.136.568-3.2.1-.532.207-1.063.279-1.6a5.406,5.406,0,0,0,.135-1.6.541.541,0,0,0-.9-.234Z" transform="translate(-34.141 -29.737)"/><path d="M358.786,306.133a15.78,15.78,0,0,0,3.434,9.85c2.136,2.848,4.875,5.245,6.4,8.525a7.723,7.723,0,0,1-1.37,8.94,6.741,6.741,0,0,1-4.055,1.874,8.841,8.841,0,0,1-5.2-1.307c-1.586-.9-3.064-1.956-4.722-2.7a11.49,11.49,0,0,0-5.407-1.045c-3.839.225-7.372,2.019-10.733,3.74-2.983,1.532-5.975,3.091-9.318,3.6a9.49,9.49,0,0,1-8.336-2.442,10.175,10.175,0,0,1-2.577-4.136,16.9,16.9,0,0,1-.577-5.9c.18-4.272.5-8.534.766-12.806.063-1.054.117-2.091.117-3.145s-1.532-1.027-1.658,0c-.279,2.235-.352,4.506-.487,6.741l-.406,6.741c-.243,4.028-.442,8.165,1.847,11.716a11.112,11.112,0,0,0,8.309,5.155c3.325.315,6.651-.8,9.634-2.172,3.6-1.631,6.921-3.812,10.751-4.839a11.148,11.148,0,0,1,5.524-.216,18.393,18.393,0,0,1,5.056,2.505,14.709,14.709,0,0,0,5.182,2.262,8.814,8.814,0,0,0,10.382-9.147c-.153-3.911-2.631-7.155-5.119-9.967a38.747,38.747,0,0,1-3.37-4.109A16.113,16.113,0,0,1,360.624,309a13.52,13.52,0,0,1-.423-2.875.694.694,0,0,0-1.388,0Z" transform="translate(-31.884 -31.585)"/><path d="M339.58,250.452c1.929-.73,3.767-1.7,5.659-2.523A53.91,53.91,0,0,1,351,245.766a34.327,34.327,0,0,1,6.182-1.325,8.047,8.047,0,0,1,2.938,0,4.866,4.866,0,0,1,2.01,1.4,41.689,41.689,0,0,1,4.416,5.254,35.212,35.212,0,0,1,4.173,7.083,14.9,14.9,0,0,1,.667,1.938c.081.315.153.631.207.946a4.244,4.244,0,0,1,.072.667v1a.93.93,0,0,1-.09.379c-.036.126,0,.1-.045.153s-.1.252,0,.108-.1.189-.135.252c-.126.216-.225.433-.352.649-.442.775.487,1.865,1.3,1.3,2.055-1.442,1.622-4.506.955-6.6a29.821,29.821,0,0,0-4.164-7.777,49.349,49.349,0,0,0-5.119-6.254,6.894,6.894,0,0,0-4.506-2.487,15.808,15.808,0,0,0-3.379.279,29.258,29.258,0,0,0-3.271.676,47.972,47.972,0,0,0-6.984,2.469,49.784,49.784,0,0,0-6.8,3.379c-.622.387-.225,1.5.514,1.226Z" transform="translate(-34.293 -25.032)"/><path d="M.364,296.164c7.5.162,15,.243,22.53.3l22.611.135h6.308c2.154,0,4.272-.117,6.416-.18V295.1l-1.352.108a.55.55,0,1,0,0,1.1l1.352.108a.658.658,0,0,0,0-1.316c-1.874-.054-3.74-.189-5.623-.18H46.983l-11.256.063-22.611.153c-4.236,0-8.471.135-12.707.225a.369.369,0,1,0,0,.739Z" transform="translate(-0.04 -30.547)"/><path d="M445.481,295.433c-7.5-.162-15-.243-22.53-.3L400.377,295h-6.308c-2.145,0-4.263.117-6.407.18-.838,0-.847,1.352,0,1.316l1.352-.108a.55.55,0,1,0,0-1.1l-1.352-.108V296.5c1.874.054,3.74.189,5.623.18h5.623l11.256-.063,22.611-.153c4.236,0,8.471-.135,12.707-.225a.369.369,0,0,0,0-.739Z" transform="translate(-39.277 -30.554)"/><path d="M317.446,244.585a8.419,8.419,0,0,1-1.334.306.523.523,0,0,0,0,1.045,9.211,9.211,0,0,0,1.929-.108q.9-.081,1.865-.216c1.271-.171,2.541-.406,3.794-.649,2.487-.487,4.957-1.036,7.444-1.5a70.843,70.843,0,0,1,15.239-1.172c1.442.054,2.884.144,4.317.288s2.911.424,4.371.523c.8.054.946-1.19.189-1.388a27.144,27.144,0,0,0-3.812-.541c-1.289-.126-2.577-.225-3.875-.288a69.994,69.994,0,0,0-7.777.063,105.626,105.626,0,0,0-15.185,2.487c-1.4.3-2.794.577-4.2.82-.73.126-1.469.243-2.208.351a18.371,18.371,0,0,0-2.226.306l.514.9a7.526,7.526,0,0,1,1.172-.685.279.279,0,0,0-.216-.514Z" transform="translate(-31.959 -24.799)"/><path d="M78.4,321.045s-1,3.956,19.727,4.7,43.455-3.6,34.344-8.21c-7.976-4.028-18.826-6.209-18.826-6.209s.351,2.758-4.01,4.407-11.715,5.11-16.366,5.407S78.4,321.045,78.4,321.045Z" transform="translate(-7.974 -32.168)"/><path d="M194.971,69.87c-1.8.6-2.451,2.794-2.7,4.668-.369,2.406-.55,5.092.9,7.065a4.506,4.506,0,0,0-2.055,1.8,10.6,10.6,0,0,0-1.676,8.111,10.093,10.093,0,0,0,4.713,6.786,20.728,20.728,0,0,0,6.308,1.8l-.081-3-3.226.144-.6-14.716,4.957.225-.523-13.067Z" transform="translate(-19.147 -7.211)"/><path d="M203.42,69.953a.586.586,0,0,0-.784-.388c-.5.189-.586.73-.649,1.19a25.087,25.087,0,0,0-.2,3.857c0,1.271.117,2.541.162,3.821,0,.649.054,1.307.072,1.956a5.938,5.938,0,0,0,.225,1.956.388.388,0,0,0,.7.09,6.236,6.236,0,0,0,.379-3.028c0-1.054-.081-2.109-.126-3.163s-.1-2.1-.1-3.154V71.566c0-.369-.054-1.009.189-1.289l-.424.054.081.054c.3.18.559-.171.433-.433Z" transform="translate(-20.404 -7.176)"/><path d="M199.185,78.632a7.291,7.291,0,0,1,2.334-2.758,7.885,7.885,0,0,1,3.262-.9,17.176,17.176,0,0,1,3.47-.063,6.462,6.462,0,0,1,1.649.388,4.137,4.137,0,0,1,.658.342,3.208,3.208,0,0,0,.9.342.775.775,0,0,0,.9-1.126c-.613-1.316-2.406-1.685-3.731-1.8a17.474,17.474,0,0,0-4.227.162,7.687,7.687,0,0,0-3.893,1.469,6.993,6.993,0,0,0-2.091,3.6.442.442,0,0,0,.8.342Z" transform="translate(-20.076 -7.526)"/><path d="M241.462,70.524c-.18.288-.171.369,0,.234l.36-.162.739-.288a11.094,11.094,0,0,1,1.505-.451,5.8,5.8,0,0,1,2.911.171,15.167,15.167,0,0,1,2.586,1.1,3.361,3.361,0,0,1,1.613,1.487c.451.973,1.974.279,1.7-.721a4.127,4.127,0,0,0-2.316-2.487,13.518,13.518,0,0,0-3.839-1.415,7.21,7.21,0,0,0-4.109.613c-.721.315-3.064,1.235-2.244,2.37.36.5,1.361.216,1.09-.46Z" transform="translate(-24.296 -7.003)"/><path d="M376.389,27.5a39.734,39.734,0,0,0-7.083,10.418,49.446,49.446,0,0,0-4.055,12.274A50.061,50.061,0,0,0,366.9,75.523a48.664,48.664,0,0,0,13.275,20.538,47.214,47.214,0,0,0,23.8,11.121,67.672,67.672,0,0,0,14.086.9,44.42,44.42,0,0,0,14.329-2.7,41.59,41.59,0,0,0,18.519-14.716,49.962,49.962,0,0,0,8.778-23.431,54.568,54.568,0,0,0-3.154-25.4,47.376,47.376,0,0,0-14.374-19.961,43.023,43.023,0,0,0-21.575-9.408,44.728,44.728,0,0,0-5.714-.18.46.46,0,0,0,0,.9,34.731,34.731,0,0,1,5.714.532,45.959,45.959,0,0,1,5.633,1.262,43.05,43.05,0,0,1,10.562,4.713,45.06,45.06,0,0,1,16.1,17.123,51.567,51.567,0,0,1,5.786,24.224,49.187,49.187,0,0,1-6.038,23.692A43.14,43.14,0,0,1,436.579,101.3c-7.849,4.506-16.987,5.407-25.864,4.749s-17.609-3.055-24.99-8.111A44.862,44.862,0,0,1,370.8,80.227a48.556,48.556,0,0,1-4.722-23.855,52.269,52.269,0,0,1,7.273-23.782c1.009-1.694,2.154-3.343,3.325-4.939.108-.153-.135-.324-.261-.2Z" transform="translate(-37.035 -1.222)"/><path d="M365.637,54.221c.5-1.92.784-3.9,1.144-5.858.324-1.7.712-3.407,1.163-5.083a52.392,52.392,0,0,1,2.911-8.165,31.9,31.9,0,0,1,6.308-9.363c.424-.424.9-.829,1.316-1.217l.55-.46.252-.189c.108-.1-.081.054,0,0l.126-.108a20.178,20.178,0,0,0,1.73-1.424c4.506-4.182,10.634-6.543,16.537-7.994a53.251,53.251,0,0,1,18.646-1.325c.649.081,1.289.162,1.938.216s.649-.82.135-.991a19.457,19.457,0,0,0-4.2-.748,35.968,35.968,0,0,0-4.623-.126,56.947,56.947,0,0,0-9.814,1.127c-6.227,1.253-12.617,3.47-17.681,7.354a25.231,25.231,0,0,0-2.514,2.181c-.063.072-.126.1,0,0l-.126.1-.324.234a25.761,25.761,0,0,0-2.235,1.8,30.3,30.3,0,0,0-6.308,8.687,43.717,43.717,0,0,0-3.037,7.786A54.973,54.973,0,0,0,365.5,51.112a21.865,21.865,0,0,0-.045,3.073.09.09,0,1,0,.18,0Z" transform="translate(-37.142 -1.134)"/><path d="M417.179,18.358a3.218,3.218,0,0,0,.424.1h.306a.2.2,0,0,0,.144,0,.135.135,0,0,0,.045-.171.243.243,0,0,0-.063-.072h-.162l-.2-.054h-.4a.171.171,0,0,0-.2.108.162.162,0,0,0,.117.2Z" transform="translate(-42.246 -1.806)"/><path d="M419,17.652a2.055,2.055,0,0,0-1.5-.162.956.956,0,0,0-.207.072s.171-.072,0,0l-.189.081a1.684,1.684,0,0,0-.252.2,1.92,1.92,0,0,0-.631.658,2.361,2.361,0,0,0,.973,3.172,2.253,2.253,0,0,0,1.865.135,2.532,2.532,0,0,0,1.4-1.262,2.379,2.379,0,0,0,.1-1.938,3.6,3.6,0,0,0-1.09-1.487,3.74,3.74,0,0,0-.811-.541,1.8,1.8,0,0,0-1.379-.09,2.586,2.586,0,0,0-1.46,1.28,2.433,2.433,0,0,0,0,2.109,2.334,2.334,0,0,0,1.4,1.2,2.145,2.145,0,0,0,1.8-.216,2.244,2.244,0,0,0,.9-1.721,2.019,2.019,0,0,0-.64-1.613,1.343,1.343,0,0,0-1.73-.153,1.9,1.9,0,0,0-.649.955,2.01,2.01,0,0,0,.514,1.992,1.893,1.893,0,0,0,2.145.225,1.739,1.739,0,0,0,.9-1.938,1.857,1.857,0,0,0-1.676-1.334,1.649,1.649,0,0,0-1.154.424,1.046,1.046,0,0,0-.306.748,1.18,1.18,0,0,0,.306.748,1.956,1.956,0,0,0,1.874.559.721.721,0,0,0,.523-.6.739.739,0,0,0-.351-.721s-.144-.1-.045,0h0a.846.846,0,0,1-.09-.09s-.126-.144,0,0h0a.678.678,0,0,1-.063-.108c-.045-.081-.1-.162-.135-.234l-.379,1.442c.126-.072.081,0-.108,0a.45.45,0,0,1,.117,0h-.288a.487.487,0,0,1,.162,0h-.279c.054,0,.261.081.063,0s-.054,0,0,0-.18-.162-.1-.081l.054.063c.09.072-.153-.234-.081-.1s-.054-.135-.054-.144V18.9c0,.054-.063.171,0,0s0-.063,0,0,.171-.162.081-.1l-.081.072s.234-.153.117-.1-.18.081,0,0,.054,0,0,0h-.126l.288-.045a.793.793,0,0,1-.207,0h.18c-.117,0,.252.135.117.054s.162.162.09.072l-.081-.072s.153.225.09.108-.081-.18,0,0,0,.045,0,0a.7.7,0,0,1,0-.135v.288a1.357,1.357,0,0,1,0-.27v.153h0c0,.063-.054.117,0,0h0c.054-.09,0-.054-.09.108.2-.162-.1.081-.279.135h-.514c-.045,0-.234-.135-.09,0s-.18-.171-.117-.09a.261.261,0,0,0,.063.072s-.153-.243-.081-.1a.27.27,0,0,1,0,.072c.063.1-.09-.27-.045-.126a2.03,2.03,0,0,1,.045.2v-.279a2.062,2.062,0,0,1,0,.333v-.279a1.162,1.162,0,0,1-.072.279c.081-.306.072-.171,0-.072s.117-.108.054-.063l-.1.1c.162-.117.2-.144.108-.09h-.054l.144-.063h.018a1.351,1.351,0,0,1-.27,0h.009c-.144,0,.126.045.117.054a1.01,1.01,0,0,1-.162-.09l-.072-.054s.216.2.081.063l-.126-.135c-.072-.063.117.189.081.1l-.054-.072h0c.063.144,0,.054,0,0a1.4,1.4,0,0,1-.054-.207v.27a1.8,1.8,0,0,1,0-.388v.27a1.234,1.234,0,0,1,.063-.261c0-.1.09-.108,0,.081a.157.157,0,0,1,.063-.126l.054-.09c.063-.1.126-.081,0,.045.072-.054.117-.171.207-.207s-.216.144-.081.072l.126-.081c.117-.072-.063.045-.081,0l.171-.054h-.144l.18.117.108.072c.072.054.117.135-.045,0a1.354,1.354,0,0,0,.216.18l.189.2a1.569,1.569,0,0,0,.108.126c-.09-.117-.108-.144-.063-.09l.045.072a1.157,1.157,0,0,1,.135.225v-.036a.352.352,0,0,0,.045.126v.126c.054.189,0-.243,0-.045v.072a.721.721,0,0,1-.081.27s.117-.225,0-.1l-.072.135a.253.253,0,0,0-.054.081c.09-.2.1-.126,0,0a.423.423,0,0,1-.09.09c-.162.153.171-.1,0,0l-.216.126c-.153.09.189-.054.063,0H418c-.18,0,.216.054.054,0l-.225-.072c.225.054.135.063,0,0l-.081-.045h0l.072.054-.09-.081-.081-.09c-.126-.117.126.189,0,0a1.432,1.432,0,0,0-.126-.234s.081.216,0,.081l-.054-.135v-.054a.153.153,0,0,0,0-.09V19.31a1.1,1.1,0,0,0,.072-.27c0,.117-.072.135,0,.063l.09-.153a.368.368,0,0,0,0-.081l.054-.072c.045-.063,0-.054,0,0s.072-.072.063-.072.045-.045,0,0l.072-.054.243-.144h0l.207-.072c.225-.1-.108,0,.054,0h.081a.514.514,0,0,0,.117,0h.09a.5.5,0,0,0,.568-.279.478.478,0,0,0-.2-.595Z" transform="translate(-42.098 -1.631)"/><path d="M440.1,25.916a2.217,2.217,0,0,0-2.109,1.658,2.289,2.289,0,0,0,1.19,2.577,2.514,2.514,0,0,0,3.019-.415,1.8,1.8,0,0,0,.451-.964,1.667,1.667,0,0,0-.252-1.09,4.371,4.371,0,0,0-1.2-1.208,2.487,2.487,0,0,0-1.8-.36,2.307,2.307,0,0,0-1.343.748,2.28,2.28,0,0,0-.613,1.658,2.469,2.469,0,0,0,.757,1.631,2.532,2.532,0,0,0,1.676.694,2.235,2.235,0,0,0,1.8-.955,1.8,1.8,0,0,0,0-2.01,1.694,1.694,0,0,0-1.956-.712,1.631,1.631,0,0,0-.9.748,1.55,1.55,0,0,0,0,1.433,1.5,1.5,0,0,0,2.091.676,1.622,1.622,0,0,0,.685-1.874,1.8,1.8,0,0,0-1.8-1.217,2.028,2.028,0,0,0-.523.063,1.2,1.2,0,0,0-.7.6.946.946,0,0,0,.333,1.28,1.37,1.37,0,0,0,.7.216h.045a.983.983,0,0,1,.216.063l-.252-.108a.9.9,0,0,1,.153.09l-.216-.171a.72.72,0,0,1,.117.117l-.171-.225a.9.9,0,0,1,.072.126v-.3a1.309,1.309,0,0,1,.045.18v-.3a1.154,1.154,0,0,1,0,.18l.045-.288V28.6l.108-.261-.054.09.171-.216-.063.072.216-.171-.09.054.261-.108h.4a.216.216,0,0,1-.108,0l.252.108-.1-.054.225.171-.117-.108.171.216a1.07,1.07,0,0,1-.081-.135l.108.261v.342a.375.375,0,0,1,0-.108l-.108.252a.325.325,0,0,1,.063-.09l-.171.216a.687.687,0,0,1,.081-.081l-.225.171.135-.072-.261.108.144-.045h-.279a.667.667,0,0,1,.189,0h-.144l-.252-.108.135.081-.216-.162.09.09-.171-.225.09.153-.108-.261a.9.9,0,0,1,.054.207V28.7a.9.9,0,0,1,0,.216v-.279a1.793,1.793,0,0,1-.063.207l.117-.261a.982.982,0,0,1-.126.207l.171-.225-.162.171.216-.171a1.72,1.72,0,0,1-.243.144l.252-.108a1.334,1.334,0,0,1-.324.09h.288a2.289,2.289,0,0,1-.351,0h.279a1.424,1.424,0,0,1-.333-.1l.252.108a1.514,1.514,0,0,1-.306-.18l.216.171a1.687,1.687,0,0,1-.279-.288l.144.288a1.143,1.143,0,0,1-.18-.306l.108.252a1.428,1.428,0,0,1-.1-.333v.279a1.736,1.736,0,0,1,0-.306v.27a1.453,1.453,0,0,1,.09-.324l-.1.243a1.8,1.8,0,0,1,.2-.333l-.162.216a1.639,1.639,0,0,1,.279-.279l-.207.153a1.584,1.584,0,0,1,.342-.189l-.243.1a1.405,1.405,0,0,1,.333-.09h-.261a.829.829,0,0,1,.3,0h-.252a1.45,1.45,0,0,1,.324.09l-.234-.1a2.179,2.179,0,0,1,.351.189l.081.063c-.126-.108-.153-.126-.081-.063l.153.135c.1.1.189.189.279.3a.535.535,0,0,1,.072.072l-.054-.063c0,.054.072.117.1.171l-.09-.225a.712.712,0,0,1,.054.2v-.252a.544.544,0,0,1,0,.171v-.252a.956.956,0,0,1-.054.171l.1-.225-.063.117c-.072.153.153-.153,0-.045s-.081.063-.1.1l.072-.054h-.054l-.126.063c-.09.054.234-.072.054,0l-.261.063h.243a1.883,1.883,0,0,1-.451,0h.243a2.2,2.2,0,0,1-.478-.126c.27.081.135.063.063,0l-.108-.063-.1-.063c-.135-.081.162.144.054,0l-.18-.171c-.1-.108.117.18.045.054a.678.678,0,0,1-.063-.108l-.054-.108c.126.216.054.135,0,.054V28.07a2.186,2.186,0,0,1,0-.243v-.171c0-.036-.063.108,0,0l.117-.207c0-.063-.135.144,0,0l.081-.09h0l.108-.054c.045,0-.18.054,0,0h.108c.171-.045-.153,0,0,0a.712.712,0,1,0,0-1.424Z" transform="translate(-44.258 -2.569)"/><path d="M456.087,45.868a2.884,2.884,0,0,0-2.109,1.451,2.028,2.028,0,0,0,0,1.739,2.1,2.1,0,0,0,1.271.955,3.47,3.47,0,0,0,2.9-.09,1.992,1.992,0,0,0,.946-1.559,2.19,2.19,0,0,0-.415-1.406,3.794,3.794,0,0,0-1.172-1.009,2.56,2.56,0,0,0-1.73-.451,2.181,2.181,0,0,0-1.343,2.758,2.532,2.532,0,0,0,2.388,1.8,2.082,2.082,0,0,0,2.2-2.307,1.937,1.937,0,0,0-1.3-1.316,1.884,1.884,0,0,0-.5-.126,3.524,3.524,0,0,0-.811-.063,2.325,2.325,0,0,0-1.09.324,1.748,1.748,0,0,0-.712.982,1.226,1.226,0,0,0,.793,1.532,1.027,1.027,0,0,0,1.145-.478,3.606,3.606,0,0,0,.207-.46l-.108.27a.774.774,0,0,1,.09-.144l-.18.234a1.162,1.162,0,0,1,.153-.144l-.234.171.162-.09-.27.117a1.109,1.109,0,0,1,.3-.072h-.306a2.7,2.7,0,0,1,.6,0h-.3a2.1,2.1,0,0,1,.469.117l-.27-.108a1.063,1.063,0,0,1,.261.144l-.225-.171a.775.775,0,0,1,.126.117l-.171-.225a.586.586,0,0,1,.081.144l-.108-.261a.592.592,0,0,1,0,.135l-.045-.3a.487.487,0,0,1,0,.162l.045-.306a.513.513,0,0,1,0,.126l.117-.27a1.431,1.431,0,0,1-.117.2l.18-.234a.7.7,0,0,1-.162.162l.225-.171a1.1,1.1,0,0,1-.261.153l.261-.108a1.5,1.5,0,0,1-.342.1h.3a2.036,2.036,0,0,1-.406,0h.3a1.884,1.884,0,0,1-.387-.1l.27.108a1.145,1.145,0,0,1-.306-.18l.225.171a1.7,1.7,0,0,1-.225-.216l.18.225a1.614,1.614,0,0,1-.2-.342l.108.27a1.886,1.886,0,0,1-.1-.388l.045.3a1.943,1.943,0,0,1,0-.4v.3a1.476,1.476,0,0,1,.09-.342l-.108.261a1.173,1.173,0,0,1,.126-.234l-.162.216.117-.126-.216.171.144-.09-.252.108h-.252a2.072,2.072,0,0,1,.315.09l-.252-.1a4.964,4.964,0,0,1,1,.559l-.207-.162a2.092,2.092,0,0,1,.315.315l-.162-.207a1.416,1.416,0,0,1,.171.3l-.1-.243a1.261,1.261,0,0,1,.09.315V48.2a.965.965,0,0,1,0,.279v-.27a.649.649,0,0,1-.063.225l.108-.243-.108.189.153-.207a1.208,1.208,0,0,1-.18.189l.2-.153a1.27,1.27,0,0,1-.306.171l.243-.1a1.64,1.64,0,0,1-.342.1h.261a2.6,2.6,0,0,1-.649,0h.27a4.425,4.425,0,0,1-1.135-.261l.234.1a1.578,1.578,0,0,1-.243-.144l.2.153a.9.9,0,0,1-.162-.162l.153.2a1.227,1.227,0,0,1-.117-.216l.1.234a1.245,1.245,0,0,1-.072-.243v.252a1.635,1.635,0,0,1,0-.3v.252a.377.377,0,0,1,.045-.216c.045-.072.045-.1,0-.117s-.09.2,0,.09l.117-.189c-.117.2-.063.09,0,0l.081-.081c.054-.054.126-.063,0,0l.1-.063.207-.126a1.207,1.207,0,0,1,.216-.108.405.405,0,0,0,.108-.054h0a.9.9,0,0,0,.46-.36.8.8,0,0,0,.081-.595.784.784,0,0,0-.955-.541Z" transform="translate(-45.873 -4.506)"/><path d="M459.054,70.249a1.965,1.965,0,0,0-.541,2.136,2.073,2.073,0,0,0,.82,1.036,2.118,2.118,0,0,0,1.135.333,2.208,2.208,0,0,0,1.911-1.217,2.172,2.172,0,0,0,.18-1.37,2.217,2.217,0,0,0-.541-1.036,2.136,2.136,0,0,0-2.172-.631,2.253,2.253,0,0,0-1.6,1.676,2.163,2.163,0,0,0,1.018,2.253,2.109,2.109,0,0,0,2.532-.27,1.874,1.874,0,0,0,.577-1.451,1.919,1.919,0,0,0-.847-1.433,2.28,2.28,0,0,0-1.244-.388,2.244,2.244,0,0,0-.73.108,2.361,2.361,0,0,0-.442.171,1.4,1.4,0,0,0-.478.5l.333-.333c-.424.315-1.027.739-.973,1.334a.685.685,0,0,0,.5.649.838.838,0,0,0,.514,0,2.973,2.973,0,0,0,.388-.171l.207-.1c.108-.054-.189.072,0,0l.144-.054H459.5a1.622,1.622,0,0,0,.55-.072,1.676,1.676,0,0,1,.351-.09h-.27a1.27,1.27,0,0,1,.369,0h-.279a1.8,1.8,0,0,1,.315.081l-.243-.1a1.369,1.369,0,0,1,.27.153l-.207-.153.162.153-.162-.207a1.435,1.435,0,0,1,.117.2l-.108-.243a.594.594,0,0,1,.054.18v-.27a.9.9,0,0,1,0,.216l.045-.279a1.392,1.392,0,0,1-.063.207l.1-.243a.8.8,0,0,1-.108.189l.162-.207a1.255,1.255,0,0,1-.189.189l.207-.162a1.216,1.216,0,0,1-.234.135l.243-.1a1,1,0,0,1-.234.063h.261a1.2,1.2,0,0,1-.306-.09l.243.108a1.684,1.684,0,0,1-.342-.216l.207.162a1.39,1.39,0,0,1-.225-.234l.153.207a2.163,2.163,0,0,1-.144-.243l.1.234a.9.9,0,0,1-.072-.27v.261a1.535,1.535,0,0,1,0-.288v.252a1.063,1.063,0,0,1,.072-.279l-.1.225c.045-.09.1-.162.144-.252-.1.135-.126.162-.063.09l.054-.063.108-.1-.1.081.072-.054.126-.063c.063,0,0,0-.117.045h.009a1.1,1.1,0,0,1,.3,0h-.045s.216.144.09.054h0l.072.072.063.063s-.126-.18-.063-.072a1.065,1.065,0,0,1,.1.171c.081.144,0-.054,0-.072v.081a.905.905,0,0,1,0,.207v-.225a1.1,1.1,0,0,1,0,.3v-.225a2.4,2.4,0,0,0-.063.243c.054-.135.072-.162,0-.081h0l-.072.108c-.072.135.135-.144,0,0l-.09.1-.1.081c.162-.153.1-.072,0,0l-.117.063c-.135.072.2-.063.045,0h-.126c-.153.045.216,0,.054,0h-.135c-.09,0-.144-.054.054,0h-.135c-.1,0-.117-.081,0,0a.354.354,0,0,1-.234-.135l.1.081-.072-.054-.09-.1h0c-.054-.063,0,0,0,.063a.36.36,0,0,0-.063-.117c.045,0,.063.18,0,0s0-.09,0-.126v.126a.308.308,0,0,1,0-.09v-.2c.054-.162-.054.1,0,0a.676.676,0,0,0,.063-.108c.09-.144-.072.072,0,0l.108-.108a.775.775,0,0,0,0-1.09.784.784,0,0,0-1.09,0Z" transform="translate(-46.289 -7.157)"/><path d="M454.2,90.449a1.343,1.343,0,0,0-1.145.685,1.6,1.6,0,0,0-.117,1.253A1.541,1.541,0,0,0,454.06,93.4a1.8,1.8,0,0,0,1.4-.234,2.145,2.145,0,0,0,.9-1.235,2.244,2.244,0,0,0-.153-1.568,1.532,1.532,0,0,0-1.361-.829,1.78,1.78,0,0,0-1.739,2.271,2.064,2.064,0,0,0,.469.847,1.566,1.566,0,0,0,.288.252,1.8,1.8,0,0,0,.324.207l.261.108a.838.838,0,0,0,.424,0,1.19,1.19,0,0,0,.9-.748,1.433,1.433,0,0,0,.117-.55,1.343,1.343,0,0,0-.424-1,1.118,1.118,0,0,0-1.307-.171,6.108,6.108,0,0,0-.856.478c-.171.135-.388.279-.55.433a2.045,2.045,0,0,0-.4.775.838.838,0,0,0,.793,1.045,3.741,3.741,0,0,0,.631-.063,4.738,4.738,0,0,0,.64-.324c.279-.153.541-.333.829-.487l-1.307-.162.063.054-.171-.216a.27.27,0,0,1,0,.072l-.108-.252a.215.215,0,0,1,0,.081v-.487a.262.262,0,0,1,0,.081l.108-.261a.2.2,0,0,1-.045.072l.171-.216h-.045l1.045-.27h0l.261.108a1.154,1.154,0,0,1-.225-.135l.216.162a1.083,1.083,0,0,1-.207-.2l.162.207a1.244,1.244,0,0,1-.18-.3l.108.243a1.4,1.4,0,0,1-.063-.207v.27a.9.9,0,0,1,0-.216v.27a.712.712,0,0,1,.054-.2l-.108.234.081-.135-.153.2a1.16,1.16,0,0,1,.153-.144l-.2.153a.783.783,0,0,1,.162-.1l-.225.1a.812.812,0,0,1,.2-.054h-.324a.541.541,0,0,1,.171.054l-.225-.1.108.063-.189-.144a.613.613,0,0,1,.108.108l-.144-.189a.9.9,0,0,1,.09.153l-.09-.216a1.8,1.8,0,0,1,.081.315v-.243a1.611,1.611,0,0,1,0,.36v-.243a1.62,1.62,0,0,1-.09.36l.09-.225a.9.9,0,0,1-.162.288l.144-.18a1.209,1.209,0,0,1-.189.18l.18-.144a.737.737,0,0,1-.18.108l.216-.09a.9.9,0,0,1-.261.072h.171l-.225-.054.207.081-.216-.126.171.126a.776.776,0,0,1-.126-.117l.126.162-.081-.135.081.189-.045-.153v.207a.488.488,0,0,1,0-.162v.2a.56.56,0,0,1,.063-.207l-.081.18a.973.973,0,0,1,.1-.162l-.117.144.108-.108-.144.117.108-.072-.171.072h.153a.667.667,0,0,0,.424-.324.721.721,0,0,0,.09-.451.712.712,0,0,0-.7-.613Z" transform="translate(-45.729 -9.226)"/><path d="M433.484,106.825a2.253,2.253,0,0,0,2.577,1.55,1.172,1.172,0,0,0,.9-.973,1.424,1.424,0,0,0-.261-1.018,2.982,2.982,0,0,0-.694-.694,3.7,3.7,0,0,0-.73-.369.986.986,0,0,0-1.226.694,2.208,2.208,0,0,0,0,1.163,2.118,2.118,0,0,0,.586.982,1.847,1.847,0,0,0,1.235.5,1.938,1.938,0,0,0,1.253-.478,1.649,1.649,0,0,0,.117-2.361,2.217,2.217,0,0,0-2.01-.541,3,3,0,0,0-.982.4l-.351.243-.189.108a1.082,1.082,0,0,0-.5.649l.234-.406s.18-.126.081-.063a.639.639,0,0,0-.162.108,1.617,1.617,0,0,0-.18.171.712.712,0,0,0,0,1.009,1.208,1.208,0,0,0,.36.243,1.406,1.406,0,0,0,.514.1h-.243l-.216-.09c.676.442,1.514-.144,2.145-.406l-.261.108a1.261,1.261,0,0,1,.36-.1h-.288a1.461,1.461,0,0,1,.4,0h-.279a1.244,1.244,0,0,1,.261.072l-.252-.108a.847.847,0,0,1,.2.108l-.216-.162a.614.614,0,0,1,.108.108l-.162-.216.081.135-.108-.252a.772.772,0,0,1,0,.153v-.279a.676.676,0,0,1,0,.135v-.279a.513.513,0,0,1,0,.126l.108-.252a.514.514,0,0,1-.072.117l.171-.216a1.233,1.233,0,0,1-.153.153l.216-.171a.649.649,0,0,1-.189.108l.252-.108-.207.063.288-.045a.63.63,0,0,1-.225,0h.288l-.18-.045.252.108a.9.9,0,0,1-.2-.126l.207.162a.694.694,0,0,1-.162-.162l.162.207a1.206,1.206,0,0,1-.153-.279l.1.252a1.622,1.622,0,0,1-.09-.36v.279a.985.985,0,0,0-.054-.4v.27a1.6,1.6,0,0,1,0-.207l-1.262.964a1.415,1.415,0,0,1,.261.072l-.234-.1a2.145,2.145,0,0,1,.4.225l-.2-.144a1.7,1.7,0,0,1,.288.279l-.144-.189a1.436,1.436,0,0,1,.117.2l-.09-.225a.262.262,0,0,1,0,.081v-.324l.09-.216a.6.6,0,0,1,.162-.171q.108-.063,0,0l.216-.09a.811.811,0,0,1-.2.054h.234a1.378,1.378,0,0,1-.333,0h.234a1.317,1.317,0,0,1-.324-.081c.135.063.171.072.09,0h-.081l-.135-.09.063.054-.063-.054-.108-.126c.081.108.1.135.054.063a.2.2,0,0,1-.045-.072.8.8,0,0,1-.072-.153.8.8,0,0,0-1.469.622Z" transform="translate(-43.817 -10.841)"/><path d="M414.7,107.874c-.153.108-.306.216-.451.333a1.99,1.99,0,0,0-.36.415l-.081.135a2.472,2.472,0,0,0-.135.36,1.577,1.577,0,0,0,0,.36,1.8,1.8,0,0,0,.063.388,1.5,1.5,0,0,0,.613.811h.054a1.361,1.361,0,0,0,.595.162.639.639,0,0,0,.18,0,1.082,1.082,0,0,0,.18,0,1.378,1.378,0,0,0,.288-.117,2.631,2.631,0,0,0,.252-.189,1.235,1.235,0,0,0,.225-.3v-.054a2.036,2.036,0,0,0,.117-.3,1.612,1.612,0,0,0,.054-.55,2.8,2.8,0,0,0-.063-.4,3.691,3.691,0,0,0-.144-.379,2.308,2.308,0,0,0-.315-.46l-.081-.144c-.1-.081-.2-.162-.306-.234a2.116,2.116,0,0,0-.36-.162h-.144a1.559,1.559,0,0,0-.406,0h-.5a1.885,1.885,0,0,0-.333.153,1.857,1.857,0,0,0-.514.514.677.677,0,0,0-.063.108,1.805,1.805,0,0,0-.153.36,1.459,1.459,0,0,0-.063.523,1.414,1.414,0,0,0,.216.739,1.5,1.5,0,0,0,.451.469,1.054,1.054,0,0,0,.658.153,1,1,0,0,0,.532-.144.955.955,0,0,0,.379-.379,1.054,1.054,0,0,0,0-1.063h0a.99.99,0,0,0-.108-.153l-.117-.144h0l.171.225a.676.676,0,0,1-.063-.108l.108.261a.68.68,0,0,1,0-.144v.415a.748.748,0,0,1,.054-.189l-.108.252a.46.46,0,0,1,.081-.144l-.162.207a.469.469,0,0,1,.1-.09l-.207.153a.171.171,0,0,1,.081,0l-.243.1a.478.478,0,0,1,.108,0h-.18l-.243-.1a.739.739,0,0,1,.18.108l-.207-.162a.9.9,0,0,1,.18.18l-.153-.207a1.217,1.217,0,0,1,.135.234l-.1-.243a1.415,1.415,0,0,1,.072.261v-.261a.731.731,0,0,1,0,.2v-.261a.746.746,0,0,1,0,.135l.1-.234a.3.3,0,0,1-.054.09l.153-.2-.054.063.2-.153h-.072l.234-.1h.2a.153.153,0,0,1-.09,0h.261a.153.153,0,0,1-.09,0l.234.1h-.09l.2.144-.1-.09.153.189a.514.514,0,0,1-.072-.117l.1.225a.207.207,0,0,1,0-.1v.4a.533.533,0,0,1,.045-.171l-.09.225a.65.65,0,0,1,.108-.189l-.144.189a2.332,2.332,0,0,1,.379-.351l-.189.144h0a.721.721,0,0,0,.261-.234.829.829,0,0,0,.162-.306.7.7,0,0,0,0-.36.6.6,0,0,0-.108-.342.9.9,0,0,0-1.235-.324Z" transform="translate(-41.828 -11.079)"/><path d="M390.488,99.8a2.7,2.7,0,0,0-.216,1.7,1.7,1.7,0,0,0,.451.766,1.478,1.478,0,0,0,2.451-.586,2.028,2.028,0,0,0,.252-.964,1.509,1.509,0,0,0-.054-.351,1.226,1.226,0,0,0-.225-.415,1.208,1.208,0,0,0-.658-.451,1.442,1.442,0,0,0-.757,0,1.649,1.649,0,0,0-.667.378,1.046,1.046,0,0,0-.18.216,1.412,1.412,0,0,0-.171.234,1.167,1.167,0,0,0-.072.153,1.95,1.95,0,0,0-.126.3,1.369,1.369,0,0,0-.054.378l1.352-1.063-.315-.072-.379-.045h-.063a1.072,1.072,0,0,0-.5.135l-.189.144a.649.649,0,0,0-.189.3.9.9,0,0,0-.045.6,1.568,1.568,0,0,0,.6.766,1.108,1.108,0,0,0,.487.279.9.9,0,0,0,.442,0,.838.838,0,0,0,.406-.135,1.117,1.117,0,0,0,.4-.4h0a1.3,1.3,0,0,0,.117-.288v-.135a1.052,1.052,0,0,1,.063-.225l-.108.252.081-.144-.162.216a.423.423,0,0,1,.09-.09l-.207.162a.513.513,0,0,1,.117-.072l-.243.1h-.234l-.234-.1h.081l-.2-.153h0l-.153-.189a.225.225,0,0,1,0,.063l-.09-.225a.325.325,0,0,1,0,.1v-.351a1.8,1.8,0,0,1-.153.523l.1-.225a.9.9,0,0,1-.135.225l.144-.18a1.221,1.221,0,0,1-.108.108l.18-.135-.126.072.216-.09h.1a.343.343,0,0,1-.135,0h.234a1.054,1.054,0,0,1-.225-.063l.207.09-.189-.108.171.126a1.027,1.027,0,0,1-.171-.171l.126.162a.729.729,0,0,1-.09-.162l.072.189a1.142,1.142,0,0,1-.054-.252v.207a1.669,1.669,0,0,1,0-.424v.2a4.711,4.711,0,0,1,.135-.595.721.721,0,0,0-.5-.9.676.676,0,0,0-.541.072l-.144.108a.757.757,0,0,0-.189.315Z" transform="translate(-39.581 -10.217)"/><path d="M378.94,82.857a3.659,3.659,0,0,0-1.613.279l.189-.072a1.577,1.577,0,0,0-.4.18.838.838,0,0,0-.243.189,3.035,3.035,0,0,0-.216.261,1.721,1.721,0,0,0-.27.9,1.55,1.55,0,0,0,.333.964,1.424,1.424,0,0,0,.424.379,1.361,1.361,0,0,0,.442.189,1.8,1.8,0,0,0,1.8-.514,1.947,1.947,0,0,0,.532-1.8,1.46,1.46,0,0,0-.964-1.018,1.523,1.523,0,0,0-.829,0,1.666,1.666,0,0,0-.4.162h-.072c-.189.108-.171.144-.279.234l.225-.18-.108.063.27-.108-.369.153.261-.108a.243.243,0,0,1-.108,0h.279a.126.126,0,0,1-.081,0h.27l.234.1H378.2a.9.9,0,0,0-.973,0,.964.964,0,0,0-.478.829,1.253,1.253,0,0,0,.162.568,1.217,1.217,0,0,0,.415.415,1.289,1.289,0,0,0,.721.225,1.911,1.911,0,0,0,.4-.054h.144a3.011,3.011,0,0,0,.559-.3l-.261.117h-.342l-.252-.1h.063l-.216-.162h0l-.162-.207a.225.225,0,0,1,0,.063l-.1-.243a.515.515,0,0,1,0,.126v-.27a.729.729,0,0,1,0,.2l.045-.27a1.285,1.285,0,0,1-.063.2l.108-.243a2.28,2.28,0,0,1-.144.252l.153-.207a1.371,1.371,0,0,1-.2.2l.207-.162a1.154,1.154,0,0,1-.225.135l.243-.108-.2.054h.261a.73.73,0,0,1-.2,0h.261a.748.748,0,0,1-.189-.054l.234.1a1.154,1.154,0,0,1-.225-.135l.2.153a.414.414,0,0,1-.108-.108l.144.189-.081-.126.1.216a.434.434,0,0,1-.045-.153v.243a.6.6,0,0,1,0-.18v.234a.811.811,0,0,1,.054-.2l-.09.207c.054-.126.126-.243.171-.369l-.09.2a1.424,1.424,0,0,1,.135-.216l-.126.162a.387.387,0,0,1,.09-.081l-.153.117a1.019,1.019,0,0,1,.234-.144l-.171.072a2.1,2.1,0,0,1,.568-.144h.126a.73.73,0,0,0,.469-.189.667.667,0,0,0-.469-1.136Z" transform="translate(-38.033 -8.526)"/><path d="M376.151,54.309h-.342a2.126,2.126,0,0,0-.478.09,1.883,1.883,0,0,0-.433.2,1.388,1.388,0,0,0-.424.433l.126-.171a1.181,1.181,0,0,0-.279.5q0,.149,0,.3a.254.254,0,0,0,0,.081,1.316,1.316,0,0,0,.153.586.144.144,0,0,0,0,.063.9.9,0,0,0,.162.207.424.424,0,0,0,.117.1,1.045,1.045,0,0,0,.369.2h.333a1.424,1.424,0,0,0,.342,0,.9.9,0,0,0,.216-.072l.216-.1a3.284,3.284,0,0,0,.279-.216,1.848,1.848,0,0,0,.469-.739,1.8,1.8,0,0,0,.063-.207,1.864,1.864,0,0,0,0-.451A2.094,2.094,0,0,0,377,54.76a1.417,1.417,0,0,0-.081-.207,1.933,1.933,0,0,0-.09-.2,2.138,2.138,0,0,0-.207-.27l-.054-.054a1.737,1.737,0,0,0-.252-.2l-.072-.045a2.134,2.134,0,0,0-.306-.117h-.424a2.342,2.342,0,0,0-.351,0h-.081a1.748,1.748,0,0,0-.324.135h-.072a1.647,1.647,0,0,0-.279.216s-.144.18-.171.225h0a.972.972,0,0,1-.117.288.081.081,0,0,0,0,.045,2,2,0,0,0-.045.324v-.288h0V54.9a1.207,1.207,0,0,0,0,.315,1.181,1.181,0,0,0,.306.532,1.09,1.09,0,0,0,1.054.279l.135-.063a.459.459,0,0,0,.135-.054l.117-.09.108-.081a1.8,1.8,0,0,0,.153-.207s.09-.207.1-.234a1.028,1.028,0,0,0,0-.523v.261h0v.27l-.108.261.108-.261a1.081,1.081,0,0,0,0-.586,1.5,1.5,0,0,0-.126-.288l.108.261.045.288h0l-.045.288a1.041,1.041,0,0,1,.045-.369v.2l-.108.261.063-.1-.171.225.072-.081-.216.171a.514.514,0,0,1,.117-.072l-.252.108h-.135l-.234-.108.081.054-.2-.153a.207.207,0,0,1,.063.063l-.153-.2.072.117-.1-.234a1.2,1.2,0,0,1,.045.171v-.261a.729.729,0,0,1,0,.2V55a1,1,0,0,1-.063.234l.1-.234a1.543,1.543,0,0,1-.117.207l.144-.2a.9.9,0,0,1-.126.135l.189-.153a.379.379,0,0,1-.126.081l.225-.1h.216l.225.09-.27-.108.225.09h-.063l.18.144-.054-.063.135.18a.371.371,0,0,1,0-.081l.09.207a.513.513,0,0,1,0-.126v.144a1.483,1.483,0,0,0,0-.279v.433a.453.453,0,0,1,0-.117l-.081.189a.526.526,0,0,1,0-.072l-.117.153.09-.09-.153.117a1.071,1.071,0,0,1,.2-.108l-.189.09a2.352,2.352,0,0,1,.5-.126.5.5,0,0,0,.234-.126.433.433,0,0,0,.171-.189l.072-.162a.486.486,0,0,0,0-.279.586.586,0,0,0-.189-.388.685.685,0,0,0-.478-.207Z" transform="translate(-37.796 -5.314)"/><path d="M383.76,35.71l.108.18c0,.063.072.126.1.189l-.081-.207V36a.9.9,0,0,0,.234.4.685.685,0,0,0,.288.18.658.658,0,0,0,.342.081.9.9,0,0,0,.46-.126h.063a2.038,2.038,0,0,0,.234-.18l.09-.126.1-.117a1.075,1.075,0,0,0,.072-.18.633.633,0,0,0,.072-.18h0v-.279h0v-.072a1.432,1.432,0,0,0-.054-.333v.261h0v-.27l-.1-.243-.162-.207-.207-.162-.243-.1h-.541a.739.739,0,0,0-.342.18.5.5,0,0,0-.18.18.576.576,0,0,0-.135.225.54.54,0,0,0-.072.261.683.683,0,0,0,0,.27.486.486,0,0,0,.072.252.522.522,0,0,0,.135.225.46.46,0,0,0,.18.189.838.838,0,0,0,.342.18h0l-.55-.424v.054l.144.18a.676.676,0,0,0,.288.189.5.5,0,0,0,.225.063.694.694,0,0,0,.36,0l.216-.09.18-.144a.622.622,0,0,0,.189-.288.658.658,0,0,0,.072-.342v-.063l-.676.9h-.514l-.243-.1h0l-.207-.162h0l-.153-.2a.2.2,0,0,1,.045.072l-.1-.234v-.153a.216.216,0,0,1,0,.108v-.153l.09-.216v.072l.135-.18h1.271l-.171-.261.171.126a1.17,1.17,0,0,1-.135-.162l-.135-.162a.631.631,0,0,0-.261-.171.649.649,0,0,0-.315-.072h-.216a.658.658,0,0,0-.279.153.37.37,0,0,0-.144.144.658.658,0,0,0-.153.279v.216a.757.757,0,0,0,.117.415Z" transform="translate(-38.945 -3.405)"/><path d="M420.012,68.68a9.435,9.435,0,0,0,2.505-1.883c.8-.73,1.577-1.478,2.361-2.226q2.343-2.262,4.65-4.506c1.55-1.514,3.082-3.037,4.614-4.56.6-.595,1.108-1.262,2.01-1.307s2.055-.054,3.082-.135a50.619,50.619,0,0,0,7.165-1.027l-1.2-1.559-3.082,7.155.631-.487a74.267,74.267,0,0,0-19.826,7.687,45.282,45.282,0,0,0-5.128,3.19,1.063,1.063,0,0,0-.369,1.406,1.045,1.045,0,0,0,1.406.4c1.938-1.172,3.812-2.424,5.795-3.515s3.947-2.064,5.993-2.956,4.073-1.667,6.173-2.352c1.072-.351,2.154-.685,3.244-.982s2.217-.487,3.28-.838c.721-.234.9-1.09,1.172-1.712l.829-1.947,1.712-3.992A1.081,1.081,0,0,0,445.868,51a50.735,50.735,0,0,1-6.38.982c-1.063.09-2.136.117-3.208.171a4,4,0,0,0-2.613,1.036c-1.622,1.433-3.091,3.091-4.605,4.641s-3.073,3.145-4.587,4.74c-.9.9-1.8,1.8-2.622,2.758a11.408,11.408,0,0,0-2.253,2.929.333.333,0,0,0,.451.451Z" transform="translate(-42.268 -5.049)"/><path d="M420.05,66.821a1.576,1.576,0,0,0-.406-.406h.045c-.054,0-.108-.081-.162-.108h-.369a1.37,1.37,0,0,0-.469,0l-.225.072a2.235,2.235,0,0,0-.667.415A2.541,2.541,0,0,0,417.1,68a2.93,2.93,0,0,0-.189.784,1.586,1.586,0,0,0,.207.9,1.856,1.856,0,0,0,1.289.9,2.379,2.379,0,0,0,.9,0,1.928,1.928,0,0,0,.622-.234,2.118,2.118,0,0,0,.991-2.532,2.01,2.01,0,0,0-.982-1.2,1.5,1.5,0,0,0-1.271-.072,1.343,1.343,0,0,0-.694.64,2.19,2.19,0,0,0-.189,1.289,2.235,2.235,0,0,0,.243.9,1.586,1.586,0,0,0,.9.712,1.622,1.622,0,0,0,1.649-.478,1.685,1.685,0,0,0,.424-1.09,2.019,2.019,0,0,0-.234-.9,1.983,1.983,0,0,0-1.208-.9,2.2,2.2,0,0,0-.64-.09,2.325,2.325,0,0,0-.649.108,2.154,2.154,0,0,0-1.172.9,2.2,2.2,0,0,0-.18,1.514,1.8,1.8,0,0,0,.9,1.172,1.451,1.451,0,0,0,.982.189.941.941,0,0,0,.36-1.6,1.089,1.089,0,0,1-.144-.144l.144.189a1.68,1.68,0,0,1-.144-.252l.108.252c-.054-.135-.108-.261-.171-.388l.108.252a1.7,1.7,0,0,1-.108-.406V68.7a1.354,1.354,0,0,1,0-.27v.288a.758.758,0,0,1,.063-.234l-.108.261a.775.775,0,0,1,.117-.207l-.162.216a.964.964,0,0,1,.162-.171l-.216.171a1.216,1.216,0,0,1,.234-.135l-.252.108a.982.982,0,0,1,.279-.072H418.8a.983.983,0,0,1,.324,0h-.279a1.154,1.154,0,0,1,.252.063l-.252-.108a1.217,1.217,0,0,1,.234.135l-.216-.162a1.233,1.233,0,0,1,.153.153l-.162-.207a1.018,1.018,0,0,1,.108.189l-.108-.252a.982.982,0,0,1,.063.216v-.279a.9.9,0,0,1,0,.216v-.279a.746.746,0,0,1,0,.135l.1-.252a.46.46,0,0,1-.081.144l.171-.207-.09.09.207-.171-.135.09.252-.108h.126a.442.442,0,0,1-.153,0h.153l.252.108-.081-.054.207.162a.846.846,0,0,1-.09-.09l.162.207a1.26,1.26,0,0,1-.09-.144l.108.243a1.922,1.922,0,0,1-.09-.378v.27a1.749,1.749,0,0,1,0-.487v.27a.9.9,0,0,1,.054-.207l-.1.243.054-.1-.162.207.081-.081-.207.162h.072l-.234.1h-.162L419,68.39a1.062,1.062,0,0,1,.171.1l-.2-.153a.9.9,0,0,1,.189.189l-.153-.207a1.478,1.478,0,0,1,.144.261l-.1-.243a1.45,1.45,0,0,1,.09.324V68.4a1.38,1.38,0,0,1,0,.333v-.261a1.415,1.415,0,0,1-.072.261l.1-.243a.992.992,0,0,1-.135.234l.153-.2a1.228,1.228,0,0,1-.216.216l.207-.153a1.674,1.674,0,0,1-.3.171l.234-.1a1.407,1.407,0,0,1-.333.09H419a1.7,1.7,0,0,1-.306-.081l.234.1a1.154,1.154,0,0,1-.225-.135l.2.153a1.426,1.426,0,0,1-.207-.2l.153.2a.674.674,0,0,1-.09-.153l.09.225a.647.647,0,0,1-.045-.189v.252a2.209,2.209,0,0,1,0-.243v.243a4.108,4.108,0,0,1,.252-.991l-.081.2.18-.487-.081.189a1.065,1.065,0,0,1,.1-.171c.063-.126-.117.126,0,0l.045-.045a.34.34,0,0,1,.081-.072c.027-.009-.135.09-.054,0l.189-.135c.072-.072-.108.054-.045,0h.189l.081.054a.378.378,0,0,0,.514-.523Z" transform="translate(-42.225 -6.834)"/><path d="M435.49,56.349l.442-.559a.838.838,0,0,0,.063-1.072.8.8,0,0,0-1.054-.207,26.136,26.136,0,0,0-3.19,2.8c-1.036.964-2.064,1.947-3.082,2.929-1.8,1.748-3.83,3.506-4.839,5.858a1.081,1.081,0,0,0,1.694,1.271,161.815,161.815,0,0,0,11.806-11.914l-1.8-.748c-.2,1.55-1.424,2.8-2.505,3.83A20.52,20.52,0,0,0,429.5,62.36a1.081,1.081,0,0,0,1.685,1.352q4.064-4.218,8.237-8.327l-1.631-1.262c-1.893,2.469-3.821,4.921-5.669,7.426-.748,1.027.865,2.217,1.766,1.316,2.505-2.55,4.884-5.218,7.255-7.9.9-1.027-.568-2.523-1.514-1.514a18.186,18.186,0,0,0-3.794,6.2c-.406,1.117,1.1,1.8,1.856,1.09,2.289-2.082,4.506-4.254,6.678-6.444l-1.514-1.514a31.606,31.606,0,0,0-3.866,5.641c-.559,1.063.9,2.343,1.739,1.352,1.451-1.658,2.866-3.343,4.353-4.957l-1.667-1.289c-.658,1.415-1.307,2.821-1.947,4.236a1.172,1.172,0,0,0,.406,1.559,1.145,1.145,0,0,0,1.55-.415q.973-2.271,1.938-4.56c.406-.982-1.117-1.8-1.8-1.036-1.433,1.667-2.938,3.262-4.416,4.884l1.748,1.352a34.348,34.348,0,0,1,3.461-5.254,1.072,1.072,0,0,0-1.514-1.514c-2.154,2.217-4.425,4.326-6.741,6.38l1.865,1.081a17.42,17.42,0,0,1,3.136-5.254l-1.514-1.514a92.558,92.558,0,0,1-7.3,7.858l1.73,1.334c1.9-2.469,3.722-4.993,5.569-7.489.7-.964-.829-2.1-1.64-1.262q-4.091,4.173-8.3,8.264l1.7,1.316a29.781,29.781,0,0,1,3.731-3.884,8.336,8.336,0,0,0,2.55-4.866,1.063,1.063,0,0,0-1.8-.748,136.369,136.369,0,0,1-11.851,11.887l1.8,1.045c.9-2.154,2.821-3.812,4.425-5.407q1.379-1.388,2.776-2.776a32.093,32.093,0,0,0,2.929-2.929l-1.361-.793-.252.676c-.225.631.739,1.217,1.172.676Z" transform="translate(-42.903 -5.424)"/><path d="M395.675,42.677c4.731,5.831,9.444,11.715,14.275,17.429l2.019,2.406a19.7,19.7,0,0,0,2.163,2.415.532.532,0,0,0,.829-.64,16.869,16.869,0,0,0-1.658-2.172l-1.847-2.244q-1.8-2.163-3.6-4.308c-2.415-2.893-4.866-5.759-7.3-8.633-1.4-1.649-2.812-3.289-4.218-4.939-.406-.478-1.063.207-.676.685Z" transform="translate(-40.118 -4.145)"/><path d="M393.107,36.439a20.384,20.384,0,0,0,.739,3.01l.9,2.965a.793.793,0,0,0,.964.541.784.784,0,0,0,.55-.955,9.716,9.716,0,0,0-1.235-3.28,8.931,8.931,0,0,1-1.469-2.64l-1.108.847a25.494,25.494,0,0,1,4.028,3.668c.352.4.9.9,1.451.685a.793.793,0,0,0,.333-1.09,3.35,3.35,0,0,0-.469-.694,15.9,15.9,0,0,0-1.974-1.92,27.689,27.689,0,0,0-2.613-1.947.73.73,0,0,0-.838.054.8.8,0,0,0-.27.793,8.373,8.373,0,0,0,1.469,2.857,11.024,11.024,0,0,1,1.144,3.082L396.225,42l-1.154-2.956a20.883,20.883,0,0,0-1.262-2.893c-.225-.388-.73-.108-.676.288Z" transform="translate(-39.776 -3.521)"/><path d="M396.279,40.661a85.032,85.032,0,0,0,6.308,11.094c1.19,1.8,2.442,3.452,3.749,5.119a39.266,39.266,0,0,0,4.236,4.83c.4.351,1.081-.108.766-.595-1.154-1.748-2.514-3.379-3.776-5.065s-2.487-3.416-3.686-5.155c-2.4-3.479-4.659-7.083-6.822-10.715-.315-.532-1.081-.063-.82.487Z" transform="translate(-40.181 -3.958)"/><path d="M395.174,38.689a6.929,6.929,0,0,0,.946,2.947c.676,1.036,1.424,2.028,2.154,3.028,1.487,2.028,3.028,4.037,4.578,6.02a70.347,70.347,0,0,0,4.776,5.533c1.55,1.613,3.253,3.064,4.911,4.569a25.45,25.45,0,0,1,4.857,5.407l.649-1.6c-.622.189-1.253.306-1.874.487-.973.288-.829,1.883.243,1.8.64,0,1.28-.135,1.92-.18a1.1,1.1,0,0,0,.9-1.631c-2.334-3.767-5.957-6.371-9.111-9.39a109.416,109.416,0,0,1-9.354-10.814c-.9-1.09-1.8-2.181-2.7-3.244l-1.244-1.46a7.89,7.89,0,0,1-.64-.7,3.6,3.6,0,0,1-.361-.9c-.1-.379-.748-.315-.7.09Z" transform="translate(-40.076 -3.797)"/><path d="M252.419,56.47s5.948-12.463-1.5-21.629c-8.183-10.057-21.178-5.326-25.684,2.253,0,0,1.5,3.983.3,7.435s5.858,5.335,9.769,2.929,13.887,8.336,13.887,8.336l2.028,1.883Z" transform="translate(-22.805 -2.887)"/><path d="M332.283,178.8c1.325-2.424,2.749-4.8,4.236-7.137.73-1.163,1.478-2.3,2.253-3.425a40.456,40.456,0,0,0,2.289-3.515c.189-.351-.27-.739-.559-.433a23.1,23.1,0,0,0-2.487,3.262c-.775,1.163-1.541,2.343-2.271,3.533-1.478,2.379-2.839,4.839-4.118,7.327-.225.433.415.82.658.387Z" transform="translate(-33.519 -16.934)"/><path d="M341.273,183.923c2.082-1.8,4.173-3.542,6.245-5.317q1.541-1.316,3.064-2.64a34.623,34.623,0,0,0,3.037-2.821c.243-.279-.072-.766-.415-.541a32.34,32.34,0,0,0-3.118,2.55c-1.045.9-2.091,1.8-3.118,2.7q-3.109,2.758-6.191,5.524c-.342.306.153.793.5.5Z" transform="translate(-34.443 -17.788)"/><path d="M343.892,199.526a8.3,8.3,0,0,0,2.821-.225,23.861,23.861,0,0,0,2.938-.766,14.419,14.419,0,0,0,5.209-2.613c.3-.261,0-.847-.406-.694-1.73.694-3.334,1.631-5.11,2.235a22.755,22.755,0,0,1-2.7.73,20.729,20.729,0,0,0-2.794.55c-.351.126-.451.739,0,.82Z" transform="translate(-34.731 -20.103)"/><path d="M111.181,186.723c1.721.631,3.4,1.343,5.065,2.1.811.369,1.613.766,2.415,1.163a17.409,17.409,0,0,0,2.469,1.135.487.487,0,0,0,.469-.8,10.814,10.814,0,0,0-2.3-1.433c-.847-.442-1.712-.847-2.586-1.235a48.876,48.876,0,0,0-5.245-1.965c-.667-.216-.9.8-.288,1.036Z" transform="translate(-11.228 -19.124)"/><path d="M113.746,170.122q3.091,2.776,6.1,5.614l2.92,2.785a28.34,28.34,0,0,0,3.109,2.7c.216.153.523-.153.36-.36a23.171,23.171,0,0,0-2.7-2.938q-1.5-1.433-3.037-2.83-3.073-2.794-6.218-5.5c-.36-.306-.9.207-.532.532Z" transform="translate(-11.512 -17.476)"/><path d="M132.465,159.023q1.811,5.083,3.6,10.156.9,2.541,1.883,5.056a31.939,31.939,0,0,0,2.037,4.9.424.424,0,0,0,.766-.324,33,33,0,0,0-1.73-5.1c-.631-1.649-1.253-3.3-1.893-4.939-1.3-3.325-2.631-6.642-3.947-9.913-.18-.46-.9-.27-.748.207Z" transform="translate(-13.407 -16.373)"/><path d="M156.131,161.166c-.144,2.7-.279,5.407-.37,8.111-.045,1.307-.09,2.613-.126,3.92a24.566,24.566,0,0,0,.1,4.073c.081.532.955.5,1.054,0a25.233,25.233,0,0,0,.279-3.956c0-1.343,0-2.7.054-4.037v-8.111a.5.5,0,1,0-.991,0Z" transform="translate(-15.742 -16.578)"/><path d="M404.28,12.294a91.519,91.519,0,0,1,10.156-9.165c.712-.568,1.694-1.568,2.7-1.433s1.8,1.081,2.532,1.7c1.739,1.523,3.443,3.1,5.092,4.713q1.4,1.37,2.758,2.758a18.825,18.825,0,0,0,2.866,2.758c.685.451,1.433-.415,1.072-1.063A14.13,14.13,0,0,0,428.991,9.7c-.9-.9-1.73-1.739-2.613-2.6-1.8-1.721-3.65-3.4-5.542-5.011a8.9,8.9,0,0,0-2.9-1.947A3.488,3.488,0,0,0,414.77.8a56.51,56.51,0,0,0-5.5,4.785,78.132,78.132,0,0,0-5.605,6.128c-.36.415.225,1.018.613.613Z" transform="translate(-40.91 -0.013)"/><path d="M418.343,2.814a1.588,1.588,0,0,1,.063-.541l-.063.234a1.913,1.913,0,0,1,.1-.189.6.6,0,0,0-.09-.7,1.316,1.316,0,0,0-1.172-.225,1.433,1.433,0,0,0-.9.73,1.712,1.712,0,0,0,.442,2.109,2.234,2.234,0,0,0,.46.3,2.136,2.136,0,0,0,.712.189,1.92,1.92,0,0,0,1.09-.234,1.8,1.8,0,0,0,.9-2.046,1.892,1.892,0,0,0-.766-1.027,1.469,1.469,0,0,0-1.307-.171,1.7,1.7,0,0,0-.982.838,1.8,1.8,0,0,0-.2.721,1.568,1.568,0,0,0,.18.784,1.73,1.73,0,0,0,2.01.811,1.622,1.622,0,0,0,.649-.378,1.6,1.6,0,0,0,.4-.631,1.649,1.649,0,0,0,0-1.063,1.649,1.649,0,0,0-.838-1.027,1.622,1.622,0,0,0-.82-.171,1.577,1.577,0,0,0-.784.243,1.6,1.6,0,0,0-.649.829,1.5,1.5,0,0,0,.64,1.676,1.352,1.352,0,0,0,1.054.171,1.009,1.009,0,0,0,.7-.7,1.036,1.036,0,0,0-.261-.982,1.451,1.451,0,0,0-.568-.387,1.154,1.154,0,0,0-.532-.054.991.991,0,0,0-.595.3l.171-.135h0l.207-.081a1.352,1.352,0,0,0-.415.153.9.9,0,0,0-.415.73.667.667,0,0,0,.333.577h0l-.189-.117a.775.775,0,0,0,.369.216,1.487,1.487,0,0,0,.288,0h-.054l-.379-.216h0L417,3.156h0l-.09-.216a1.181,1.181,0,0,0,.108.252,1.215,1.215,0,0,0,.351.36l.135.081-.2-.153a.721.721,0,0,1,.117.117l-.153-.2v.063l.9-1.514h.09l.243.1a.3.3,0,0,1-.09-.054l.207.162a.469.469,0,0,1-.1-.09l.162.207h.027l.108.243a.378.378,0,0,1,0-.135v.27a.217.217,0,0,1,0-.108v.27a.243.243,0,0,1,0-.108l-.108.243V2.814l-.153.207a.423.423,0,0,1,.09-.09l-.2.153.117-.063-.243.1a.586.586,0,0,1,.18,0h-.261a.487.487,0,0,1,.162,0h-.117l-.234-.1.126.072-.207-.153a.559.559,0,0,1,.126.126l-.162-.207a.65.65,0,0,1,.1.171l-.063-.216a.758.758,0,0,1,.054.216V2.76a.729.729,0,0,1,0,.2V2.7a.55.55,0,0,1-.045.162l.1-.234a.351.351,0,0,1-.072.126l.162-.2a1.239,1.239,0,0,1-.108.108l.2-.153a.459.459,0,0,1-.144.081l.234-.1a.55.55,0,0,1-.162.045h.3a.712.712,0,0,1-.2-.054l.234.1a.838.838,0,0,1-.171-.1l.2.153a.718.718,0,0,1-.117-.117l.153.2a.906.906,0,0,1-.072-.126l.1.225a.433.433,0,0,1-.045-.153v.261a.55.55,0,0,1,0-.171v.261l.054-.18-.09.225a.6.6,0,0,1,.1-.162l-.153.189a.953.953,0,0,1,.135-.135l-.2.153a.648.648,0,0,1,.171-.1l-.234.09.207-.063h-.252a1.082,1.082,0,0,1,.171,0h-.09l-.225-.09a1.064,1.064,0,0,1,.171.1l-.189-.144.1.1-.144-.18a.9.9,0,0,1,.126.216l-.09-.207a1.514,1.514,0,0,1,.063.216V2.8a.668.668,0,0,1,0,.189V2.76a.9.9,0,0,1-.063.225l.09-.207-.108.18.135-.18a.991.991,0,0,1-.189.2l.18-.135a1.605,1.605,0,0,1-.27.153l.207-.09a.811.811,0,0,1-.3.081h.153a1.73,1.73,0,0,1-.288-.081l.207.09a1.523,1.523,0,0,1-.261-.153l.171.135a1.5,1.5,0,0,1-.207-.207l.135.171a1.156,1.156,0,0,1-.135-.225l.081.2a.9.9,0,0,1-.054-.225v.225a.8.8,0,0,1,0-.207v.225a.8.8,0,0,1,.063-.252l-.081.189a1.109,1.109,0,0,1,.126-.225l-.117.162.09-.108a1.606,1.606,0,0,0,.2-.234l-.117.153a.6.6,0,0,1,.126-.135l-.135.108h.072l-.162.072a.685.685,0,0,1,.18-.054h.162l-.658-.27a1.265,1.265,0,0,0,.09.144s0-.054,0,0v.1l.063.36a.369.369,0,0,0,.415.27.378.378,0,0,0,.324-.369Z" transform="translate(-42.149 -0.122)"/><path d="M81.623,179.366c-1.172-1.874-2.794-3.461-4.1-5.254a47.023,47.023,0,0,1-3.542-5.7,5.038,5.038,0,0,1-.9-3.055,3.6,3.6,0,0,1,1.217-2.064,4.245,4.245,0,0,1,4.749-.6,6.525,6.525,0,0,1,3.2,5.056c.081.721,1.208.757,1.154,0a5.155,5.155,0,0,1,2.6-4.93c1.46-.8,4.506-1.063,5.209.9s-.568,4.362-1.613,6.074a20.908,20.908,0,0,1-3.713,4.506,25.748,25.748,0,0,1-5.488,3.7c-.667.342-.2,1.514.523,1.235a20.9,20.9,0,0,0,10.265-9.21c1.135-2.055,2.325-5.02,1.027-7.273-1.172-2.037-4.263-1.92-6.146-1.135a6.182,6.182,0,0,0-3.767,6.137h1.154a7.931,7.931,0,0,0-2.974-5.407,5.407,5.407,0,0,0-5.659-.6,4.668,4.668,0,0,0-2.821,4.506,9.589,9.589,0,0,0,1.424,3.6q.964,1.73,2.073,3.361a39.59,39.59,0,0,0,2.586,3.443,13.977,13.977,0,0,0,3.19,3.037.261.261,0,0,0,.36-.36Z" transform="translate(-7.309 -16.624)"/><path d="M63.825,144.367a23.693,23.693,0,0,1-4.154-1.893,8.6,8.6,0,0,1-3.019-3.524c-.46-1.036-.9-3.5,1.027-2.7a12.617,12.617,0,0,1,4.389,3.172c.46.514,1.415-.189.973-.757-1.009-1.316-2.478-3.154-1.5-4.893s3.136-.676,3.776.712c.784,1.73.279,3.947-.2,5.7a23.746,23.746,0,0,1-2.5,5.488c-.3.523.46,1.172.9.667a15.321,15.321,0,0,0,2.541-5.1,13.148,13.148,0,0,0,.649-5.641,4.191,4.191,0,0,0-2.857-3.551,2.776,2.776,0,0,0-3.452,1.9c-.64,1.956.469,3.812,1.577,5.407l.973-.757c-1.343-1.487-6.723-6.155-7.912-2.316a5.3,5.3,0,0,0,.811,4.028,9.58,9.58,0,0,0,3.181,3.316,5.747,5.747,0,0,0,4.776,1.018c.09,0,.144-.189,0-.234Z" transform="translate(-5.464 -13.61)"/><path d="M96.966,134.71c-1.8-3.316-4.29-7.056-2.622-10.958a4.948,4.948,0,0,1,1.451-1.92c.342-.27.964-.739,1.406-.532s.649.775.829,1.145a6.687,6.687,0,0,1-.072,5.659c-.207.5.568.766.838.351.775-1.2,1.992-2.758,3.6-2.7a1.883,1.883,0,0,1,1.586.784,1.8,1.8,0,0,1-.333,2.064,10.67,10.67,0,0,1-1.9,1.7l-2.28,1.8c-1.577,1.217-3.226,2.379-4.74,3.677-.469.406.162,1.226.667.9,1.541-1.1,2.992-2.334,4.506-3.506l2.271-1.8a17.472,17.472,0,0,0,1.92-1.631c.9-.9,1.6-2.37.793-3.6a3.082,3.082,0,0,0-3.055-1.126c-1.658.261-2.7,1.712-3.713,2.911l.721.55a7.128,7.128,0,0,0,.55-5.218,5.939,5.939,0,0,0-1.136-2.334A1.721,1.721,0,0,0,96,120.57c-3.082,1.55-3.776,5.515-2.947,8.57a18.925,18.925,0,0,0,3.2,6.065.442.442,0,0,0,.757-.442Z" transform="translate(-9.402 -12.414)"/><path d="M333.3,227.369c1.929-.234,1.613-1.487,2.992-1.974.306-.108.072-.55-.46-.676-1.054-.252-1.631-.9-2.9-1.009a1.172,1.172,0,0,1-1.244-.829c-.081-.838,1.532-1.424.469-2.406,0,0,0-.081.045-.081,1.55,0,1.505-.9,2.478-1.271.379-.126.9-.2.631-.541s-.739-.27-1.135-.288c-1.5,0-1.73-.487-1.613-1.135.072-.433,1.009-.4,1.19-.667.4-.613-1.451-.315-1.289-.685a8.871,8.871,0,0,1,.577-1.469c.135-.207,1.018-.252.487-.631a2.145,2.145,0,0,0-1.523-.09c-.55.072-1.208.234-1.622-.18s.451-.541.856-.739,1.253-.117.9-.514c-.784-.9.261-1.172,1.172-1.532.5-.2,1.433-.442.6-.9-1.613-.829-.964-1.532-.658-2.289-.388-.108-.811.072-1.2-.171a1.613,1.613,0,0,1,.09-2.469c.243-.117.676-.234.658-.379-.144-.9,1.027-1.253,2.244-1.6.532-.153,1.235-.5.433-.9s-.829-.9-1.235-1.334-.171-.829-.9-1.081c-1.622-.568-1.045-.9,0-1.163s1.172-.523.108-.991c-.433-.2-.9-.442-.379-.64,1.289-.523.676-.964-.5-1.469a1.208,1.208,0,0,1-.676-.613c-.451-1.649-2.3-2.992-4.335-4.3l-.315-.207q-1.712.081-3.434.216a225.789,225.789,0,0,0-.487,23.044c.351,14.924,1.469,29.893.6,44.762-.793,13.7-2.37,27.351-3.686,41a1.442,1.442,0,0,0,1.46-.153,9.444,9.444,0,0,0,2.7-3.19c.189-.351.162-.748-.469-1.117-.46-.27-.739-.523.18-.595s1.874-.189,1.856-.847-1.054-.9-2.01-1.271c-1.3-.442-1.505-.991-.5-1.424.541-.225.595-.595.306-.838-1.388-1.172-.333-1.424,2.073-1.352-2.64-.712-1.676-1.045-.649-1.37,1.424-.451,1.8-1.667.9-2.541-1.325-1.2-1.208-1.676.811-2.316.793-.252.279-.559,0-.82-1.235-1.235-1.135-2.145.451-3.1,2.172-1.316,1.893-1.577-1.009-2.893-.811-.379-2.361-.631-1.1-1.334.613-.342-.622-1.28,1.316-1.28a3.317,3.317,0,0,0,2.046-.9c.451-.406-.721-.64-1.117-.964-.784-.631-.36-1.19.388-1.433,1.667-.541,1.334-1.316.676-2.226-.433-.613-.73-1.244.388-1.631.685-.243.379-.55,0-.9-.64-.649-1.3-1.523-.685-1.947a11.031,11.031,0,0,1,2.361-1.676c1.018-.442.586-.9-.487-1.072-1.856-.288-1.126-.586-.6-1.009a4.912,4.912,0,0,1,1.009-.568c.306-.144.559-.3.388-.559s-.7-.36-1.181-.469c-.721-.171-1.442.171-2.37-.243l2.19-.234c.9-.09,1.478-.369,1.451-.856s-.9-.523-1.532-.631a1.289,1.289,0,0,1-1.135-.784c-.144-.306.333-.451.766-.514a10.707,10.707,0,0,0,2.64-.757c1.244-.478,1.2-.829-.054-1.523-3.073-1.712-3.055-1.478.342-2.136.955-.189,1.253-.424.649-1.081s-1.865-1.37-1.3-2.136,1.343-1.361.46-2.289c-.081-.081.09-.243.234-.324a.722.722,0,0,0,.081-1.271c-.739-.685-.288-.991.595-1.271.333-.1.667-.234.379-.532-1.172-1.208-.279-2.226.64-2.992s.685-1.054-.685-1.631c1.361-.234,1.379-.748.9-1.379-.288-.378-.487-.775-.82-1.145-.5-.559-.424-1.009.487-1.217,1.442-.333,2.992-.586,1.136-1.8.73-.964-.712-1.694-1.8-2.388C332.082,227.658,332.388,227.477,333.3,227.369Z" transform="translate(-32.386 -20.194)"/><path d="M260.5,308.06l-116.1,9.76v10.517h5.407l.279-.072a1.144,1.144,0,0,0,.631-.46c.451-.766.9-1.181,1.613-.4.288.315.514,0,.694-.27.424-.694.766-.586,1.145,0s.847.991,1.325-.054c.216-.469.766-.388,1.145-.622s.991-.315,1.388-.847.9-.1,1.1.225c.523.739.991,1.46,2.055,1.325.153,0,.342.243.5.388a2.929,2.929,0,0,0,2.83-.072c.234-.252,0-.514.072-.766.9.153,1.757.532,2.55-.532.406-.541.775,0,1.054.333.5.55.9,1.19,1.874.658.406-.234.46.342.676.55s.433.829.9.5.18-.685,0-1.027-.351-.676-.045-.955.514.189.766.27c.559.162,1.154.171,1.739.279.433.081-.1-1.063.64-.838.324.09.388.676.9.7.748.045,1.226-.126,1.126-1.072,0-.252-.081-.577.216-.73s.5.135.676.369c.487.595,1.514.514,1.7,1.487h.1c1.018-.721,1.847.261,2.794.162a.838.838,0,0,0,.82-.82c0-.8.676-1.2.847-1.874.09-.342.568-.514.73-.324.7.838,2.1.577,2.559,1.8.216.568.46.757,1.018.144s1.361-1.667,2.541-1.262c1.163-1.226,1.6-.261,2.127.622a.938.938,0,0,0,1.442.234c.388-.225.82-.37,1.226-.568.676-.342,1.262-.36,1.667.487.514-.9.9-1.009,1.8-.523a3.345,3.345,0,0,0,3.488.243c.306-.189.5,0,.649.216.406.541.8.8,1.5.3a1.217,1.217,0,0,1,1.451,0c.117.081.315.18.406.126.964-.6,1.8-.126,2.659.171s1.6-.5,2.3-.9.991-.243,1.307.351c1.1,2.091.829,2.118,2.469.1.667-.82,1.063-.9,1.739-.117a5.713,5.713,0,0,1,1.135,1.622c.108.27.324.559.658.46a.945.945,0,0,0,.784-.757c.063-.478,0-.955.55-1a1.126,1.126,0,0,1,1.135.9l.5,1.37c.369-.613-.09-1.045,0-1.505.072-.306.081-.631.415-.766s.487,0,.676.207a4.173,4.173,0,0,0,.757.613c.541.3.946.748,1.09-.442.081-.676.568-.973,1.172-.351a11.264,11.264,0,0,0,2.154,1.388c.55.36,1.478-.1,2.145-.532.387-.252.712-.46,1.054-.045.559.676,1.253.46,1.9.153.973-.46,1.8-.712,2.613.315a1.126,1.126,0,0,0,1.676.162c.324-.27.469-1.018.982-.757s1.208.739,1.289,1.244c.2,1.217,1.135.388,1.586.757a1.466,1.466,0,0,0,.153.1h.847a7.208,7.208,0,0,0,.478-.9c1.217-1.893,1.487-2.082,3.208-.784a2.7,2.7,0,0,0,3.6.117c.27-.18.568-.514.9,0,.9,1.235,1.5,1.28,2.7.388a2.244,2.244,0,0,1,2.983.4c.487.631.955,1.217,1.505-.478a3.775,3.775,0,0,0,.288,1.253h1.451a.7.7,0,0,1,.82,0h1.6a1.9,1.9,0,0,0,.144-.27c.261-.613.451-1.28,1.244-1.325s.973.541,1.154,1.117.433.387.694.09a1.145,1.145,0,0,1,1.226-.36,17.049,17.049,0,0,1,2.325.748h45.519V317.82Z" transform="translate(-14.815 -31.845)"/><path d="M141.091,192.5,139,197.614l5.137,107.314H312.66l1.027-115.208Zm95.977,76.6c-1.316-.054-2.613-.252-3.938-.306s-2.577-.054-3.875-.054c-2.7,0-5.407.108-8.192.162a.838.838,0,0,1-.9-.739c0-1.757,0-3.524-.081-5.29s-.514-3.56-.469-5.326l-.514.063a3.217,3.217,0,0,1-1.541-.153,12.247,12.247,0,0,1-2.983-1.469,5.02,5.02,0,0,1-2.424-4.6,5.984,5.984,0,0,1,2.7-4.506,9.147,9.147,0,0,1,5.569-1.532,5.534,5.534,0,0,1,2.812.793c.667.433,1.6,1.307,1.271,2.145a.577.577,0,0,1-.811.333,4.623,4.623,0,0,1-.829-.9,2.7,2.7,0,0,0-1.136-.712,7.074,7.074,0,0,0-7.48,2.7,3.8,3.8,0,0,0,.694,4.776,12.1,12.1,0,0,0,2.379,1.514c.478.261.9.523,1.424.766a3.126,3.126,0,0,0,.9.37h.135a.721.721,0,0,1,1.235.171,21.015,21.015,0,0,1,.757,5.344c.117,1.55.153,3.109.153,4.65,2.505-.072,4.993-.162,7.462-.189,1.352,0,2.7,0,4.037.063a22.845,22.845,0,0,1,3.866.37.8.8,0,0,1-.225,1.541Zm-8.219-9.309a24.18,24.18,0,0,1,2.559.3.748.748,0,0,1,.595.9.9.9,0,0,1-1,.586c-.838-.063-1.667-.234-2.5-.351a9.86,9.86,0,0,1-2.523-.487.55.55,0,0,1,.108-1.027,9.435,9.435,0,0,1,2.758.072Zm-2.379-2.541a1.1,1.1,0,0,0,.388,0,3.2,3.2,0,0,1,.514-.045h1.667a1.937,1.937,0,0,1,1.09.045.586.586,0,0,1,.333.5.649.649,0,0,1-.306.532,1.721,1.721,0,0,1-1.09.135l-.9-.045a5.028,5.028,0,0,1-.9-.108,2.752,2.752,0,0,1-.487-.126,2.917,2.917,0,0,0-.369-.117.389.389,0,1,1,.063-.775Zm17.943-4.866a8.039,8.039,0,0,1-3.5,3.56,6.489,6.489,0,0,1-2.523.739h0a20.321,20.321,0,0,1-.3,3.758,16.348,16.348,0,0,0-.117,4.587.808.808,0,0,1-1.532.5,15.564,15.564,0,0,1,0-4.839c.171-1.343.315-2.7.55-4.055a1.8,1.8,0,0,1-1.135-.622.748.748,0,0,1,.27-1.045,2.848,2.848,0,0,1,1.37-.189,5.617,5.617,0,0,0,1.226-.09,7.075,7.075,0,0,0,2.172-.631,4.641,4.641,0,0,0,1.8-1.523,3.37,3.37,0,0,0,.55-2.64,6.813,6.813,0,0,0-2.478-4.506,2.469,2.469,0,0,0-2.2-.469,2.7,2.7,0,0,0-1.667,1.28,1.8,1.8,0,0,1-.379.6.514.514,0,0,1-.838-.189,2.811,2.811,0,0,1-.072-1.37,11.792,11.792,0,0,0,0-1.262,7.21,7.21,0,0,0-.622-2.6,5.317,5.317,0,0,0-3.812-2.992,4.317,4.317,0,0,0-2.343.144,5.632,5.632,0,0,0-2.2,1.712,10.265,10.265,0,0,0-1.8,2.55,5.236,5.236,0,0,0-.388,3.136.369.369,0,0,1-.667.288,3.65,3.65,0,0,1-.523-3.028,7.741,7.741,0,0,1,1.541-2.938,7.929,7.929,0,0,1,4.209-3.154,6.606,6.606,0,0,1,4.74.838,6.948,6.948,0,0,1,2.974,3.875,8.643,8.643,0,0,1,.4,2.577h0a3.542,3.542,0,0,1,2.938-.811,5.972,5.972,0,0,1,3.758,3.325c.739,1.64,1.352,3.74.622,5.47Z" transform="translate(-14.272 -20.152)"/><path d="M188.2,47.59a7.976,7.976,0,0,1-.487-7.949,12.337,12.337,0,0,1,6.218-5.623,16.149,16.149,0,0,1,4.641-1.4,9.363,9.363,0,0,1,4.975.793,27.721,27.721,0,0,1,7.444,5.011,31.342,31.342,0,0,1,3.334,3.6c1.045,1.307,1.9,2.7,2.857,4.1a.243.243,0,0,0,.415-.243,19.963,19.963,0,0,0-2.55-3.983,31.987,31.987,0,0,0-3.19-3.6,28.631,28.631,0,0,0-7.876-5.407,10.084,10.084,0,0,0-4.993-.973,15.816,15.816,0,0,0-4.839,1.28,13.3,13.3,0,0,0-6.786,5.759,8.106,8.106,0,0,0,.586,8.823c.117.135.351-.045.243-.189Z" transform="translate(-18.875 -3.163)" fill="#b6b6b6"/><path d="M233.529,39.821c-.252-3.731,3.289-5.632,6.489-6.146,2.622-.415,5.84,0,7.642,2.145,1.208,1.442,1.424,3.425,1.676,5.218,0,.171.306.126.3,0a8.873,8.873,0,0,0-1.244-5.263,6.588,6.588,0,0,0-3.515-2.415,11.247,11.247,0,0,0-9.607,1.559,5.119,5.119,0,0,0-2.145,5c.054.225.424.18.406-.054Z" transform="translate(-23.58 -3.263)" fill="#b6b6b6"/><path d="M265.685,60.484a7.318,7.318,0,0,1,3.551,1.667,8.183,8.183,0,0,1,2.2,3.244.261.261,0,0,0,.5-.135,6.389,6.389,0,0,0-2.3-3.6,6.831,6.831,0,0,0-3.893-1.6c-.216,0-.27.342-.054.388Z" transform="translate(-26.847 -5.946)" fill="#b6b6b6"/><path d="M260.269,196.749c9.066-.595,18.159-.676,27.243-.9,4.623-.1,9.246-.2,13.869-.351q3.434-.108,6.858-.27c2.1-.1,4.191-.279,6.308-.351,1.667-.063,3.884,0,4.848,1.631a4.965,4.965,0,0,1,.559,2.37c0,.694.045,1.388.054,2.082v8.489q0,6.353-.045,12.7l-.081,15.158q0,7.8-.072,15.609,0,7.155-.063,14.293v11.139c0,2.046,0,4.091.117,6.137V285c0,.162.478.279.451,0a45.486,45.486,0,0,1-.054-4.7V256.174q0-7.786.063-15.591c0-5.155.045-10.31.054-15.455V202.184c0-1.992.315-5.11-1.271-6.552-1.172-1.072-2.938-1.2-4.452-1.163-2.109.054-4.209.252-6.308.36-4.614.234-9.228.378-13.851.5-9.282.243-18.574.378-27.847.9-2.163.117-4.317.225-6.471.369a.1.1,0,0,0,0,.2Z" transform="translate(-26.378 -20.621)" fill="#b6b6b6"/></g></g></svg>