<svg xmlns="http://www.w3.org/2000/svg" width="163" height="140.001" viewBox="0 0 163 140.001"><g transform="translate(-4138.381 -3480.755)"><g transform="translate(4160.847 3492.869)"><g transform="translate(0)"><path d="M4162.6,3520.048a14.584,14.584,0,0,0,3.24-.937q1.7-.609,3.409-1.216,3.453-1.222,6.908-2.435,7.357-2.581,14.734-5.1c9.992-3.428,20-6.817,29.97-10.307,5.124-1.794,10.314-3.538,15.28-5.743.322-.143.092-.664-.238-.565-4.617,1.387-9.143,3.1-13.7,4.68-4.915,1.708-9.825,3.427-14.745,5.12-9.926,3.417-19.861,6.809-29.747,10.342-2.646.946-5.29,1.9-7.921,2.88q-1.877.7-3.751,1.41a15.884,15.884,0,0,0-3.523,1.58c-.115.079-.091.315.08.3Z" transform="translate(-4162.452 -3493.729)"/></g></g><g transform="translate(4157.193 3518.598)"><path d="M4162.953,3521.345a.875.875,0,0,0-.763.079,10.329,10.329,0,0,0-1.423.694,4.423,4.423,0,0,0-1.771,1.861,5.329,5.329,0,0,0,.454,5.1c1.216,1.983,2.3,4.016,3.333,6.1.479.968.9,1.971,1.411,2.921l.812-.626a1.189,1.189,0,0,0-.507-.286.484.484,0,0,0-.372.879l.066.032c.329.439,1.12.208.945-.4a14.23,14.23,0,0,0-1-2.22q-.819-1.671-1.68-3.322c-.471-.9-.939-1.8-1.469-2.666-.749-1.226-1.586-2.325-1.477-3.854a3.572,3.572,0,0,1,1.307-2.512,13.018,13.018,0,0,1,1.392-.888c.3-.186.733-.391.8-.768a.118.118,0,0,0-.052-.13Z" transform="translate(-4158.537 -3521.285)"/></g><g transform="translate(4163.473 3504.271)"><g transform="translate(0)"><path d="M4165.7,3537.038c4.665-1.3,9.266-2.823,13.862-4.345q9.873-3.267,19.718-6.623,10.875-3.7,21.747-7.408,10.042-3.419,20.1-6.8,7.354-2.468,14.718-4.908c.411-.136.813-.314,1.228-.438a.29.29,0,0,0-.154-.559c-1.987.6-4,1.118-5.979,1.74q-3.959,1.244-7.9,2.549c-6.584,2.171-13.151,4.4-19.716,6.627q-10.878,3.692-21.75,7.4-10.045,3.413-20.1,6.806c-4.9,1.644-9.817,3.258-14.725,4.885q-.617.2-1.237.405a.351.351,0,0,0,.187.675Z" transform="translate(-4165.265 -3505.94)"/></g></g><g transform="translate(4253.193 3541.349)"><path d="M4261.92,3598.04h3.138a.545.545,0,0,0,0-1.089h-.507a.545.545,0,0,0,0,1.089,11.185,11.185,0,0,0,4.241-.579,6.373,6.373,0,0,0,3.64-4.7,26.788,26.788,0,0,0,.408-6.263v-19.647q0-6.8.012-13.6c0-2.313.1-4.646.006-6.957,0-.034,0-.067,0-.1a.564.564,0,0,0-1.126,0q0,2.742,0,5.484l.012,12.748q.007,7.113,0,14.226c0,3.366.006,6.731,0,10.1,0,2.373-.22,5.4-2.2,7.032a7.033,7.033,0,0,1-4.55,1.17h-.446a.545.545,0,0,0,0,1.089h.507a.545.545,0,0,0,0-1.089h-3.138a.545.545,0,0,0,0,1.089Z" transform="translate(-4261.395 -3545.65)"/></g><g transform="translate(4162.116 3533.902)"><g transform="translate(0)"><path d="M4266.9,3537.844c-6.254-.157-12.512-.155-18.768-.166-6.868-.013-13.736.013-20.6.044q-10.632.048-21.262.15-10.325.1-20.65.265-9.527.15-19.056.364l-2.2.052a.542.542,0,0,0-.533.534l0,11.6q0,11.465,0,22.929v16.44a21.376,21.376,0,0,0,.146,3.226,4.326,4.326,0,0,0,2.67,3.568,14.091,14.091,0,0,0,5.275.661c1.141.01,2.281.028,3.422.045,10.266.151,20.532.269,30.8.295q2.715.007,5.433.008a.545.545,0,0,0,0-1.089q-16.837,0-33.671-.262c-2.5-.037-5.016-.017-7.519-.1-1.685-.054-3.989-.223-4.907-1.891a8.254,8.254,0,0,1-.565-3.953v-14.787q0-11.432,0-22.862l0-9.014c0-1.526.085-3.081,0-4.6,0-.071,0-.143,0-.213l-.533.533q9.379-.234,18.762-.387,10.3-.177,20.6-.291,10.632-.122,21.263-.21,10.326-.083,20.652-.121c6.354-.022,12.707-.078,19.061-.1.734,0,1.47-.024,2.206-.038a.315.315,0,0,0,0-.629Z" transform="translate(-4163.812 -3537.674)"/></g></g><g transform="translate(4229.115 3586.257)"><g transform="translate(0)"><path d="M4260.047,3601.075c-.936-1.223-1.875-2.451-2.889-3.61a9.539,9.539,0,0,0-3.668-2.871,17.11,17.11,0,0,0-5.781-.84,16.361,16.361,0,0,0-6.05.767c-2.014.752-3.84,1.9-5.877,2.615a.267.267,0,0,0,.071.522c1.761.083,3.331-.854,4.868-1.593a13.531,13.531,0,0,1,5.687-1.267,21.949,21.949,0,0,1,5.762.425,9.089,9.089,0,0,1,4.128,2.354,35.349,35.349,0,0,1,3.358,3.8c.174.219.563-.077.391-.3Z" transform="translate(-4235.596 -3593.746)"/></g></g><g transform="translate(4209.321 3588.833)"><g transform="translate(0)"><path d="M4238.182,3596.519a23.569,23.569,0,0,1-7.616,1.052,41.54,41.54,0,0,1-4.117-.651,19.688,19.688,0,0,0-6.2.081,5.949,5.949,0,0,0-3.6,1.741,8.13,8.13,0,0,0-2.26,5.369.354.354,0,0,0,.692.094,10.586,10.586,0,0,1,2.13-4.733,5.161,5.161,0,0,1,1.271-1.041,7.02,7.02,0,0,1,2.217-.6,18.965,18.965,0,0,1,6.049,0,28.969,28.969,0,0,0,3.819.555,23.124,23.124,0,0,0,7.768-1.32c.343-.118.2-.656-.151-.549Z" transform="translate(-4214.388 -3596.505)"/></g></g><g transform="translate(4209.474 3596.009)"><path d="M4214.835,3605.083a22.433,22.433,0,0,1,3.989.077c.969.063,1.936.088,2.9.216s1.918.3,2.885.385c2.018.177,4.091.025,6.116,0,2.056-.022,4.112-.033,6.167-.082a50.518,50.518,0,0,0,6.945-.566c.6-.1.347-1.015-.252-.918a84.513,84.513,0,0,1-12.4.622c-2,.028-4.027.157-6.025.058-1.961-.1-3.883-.465-5.851-.514a19.55,19.55,0,0,0-4.547.149c-.314.066-.25.607.078.57Z" transform="translate(-4214.553 -3604.19)"/></g><g transform="translate(4224.064 3597.726)"><path d="M4230.224,3606.415a7.148,7.148,0,0,0,3.032,2.566,14.231,14.231,0,0,0,4.392,1.266c3.421.511,6.913.754,10.3,1.44,1.066.216,2.039.637,3.071.951.767.233,1.549.412,2.33.589,2.087.475,4.186.9,6.264,1.41a27.741,27.741,0,0,1,5.691,1.888.352.352,0,0,0,.425-.55c-1.165-1.165-3.1-1.548-4.632-1.959-2.1-.563-4.241-1-6.369-1.459a39.662,39.662,0,0,1-4.754-1.3,21.378,21.378,0,0,0-4.364-.863q-2.654-.342-5.306-.676a28.186,28.186,0,0,1-5.589-1.016,12.3,12.3,0,0,1-4.082-2.6.264.264,0,0,0-.413.317Z" transform="translate(-4230.186 -3606.029)"/></g><g transform="translate(4257.06 3492.232)"><g transform="translate(0)"><path d="M4271.335,3493.532c1.682,1.34,3.232,2.839,4.78,4.33q1.228,1.182,2.433,2.389c.368.367.722.753,1.1,1.107.361.337.8.558,1.14.922l.344-.344q-.581-.538-1.154-1.082a.3.3,0,0,0-.5.133c-.309,1.794.551,3.554.231,5.333-.307,1.711-1.641,3.008-2.727,4.276-1.992,2.328-3.934,4.815-6.441,6.617a10.806,10.806,0,0,1-4.671,1.98l.25.906c1.884-.364,3.45-1.588,5.125-2.446.846-.433,1.756-.738,2.613-1.151a19.918,19.918,0,0,0,2.425-1.373c2.958-1.974,5.339-4.9,5.61-8.562a8.344,8.344,0,0,0-1.607-5.64c-.226-.3-.744-.008-.515.3,2.681,3.613,1.72,8.5-.569,12.038a32.344,32.344,0,0,1-2.023,2.729,26.635,26.635,0,0,1-2.036,2.379,14.086,14.086,0,0,1-4.449,2.885,13.773,13.773,0,0,1-2.081.673,3.374,3.374,0,0,1-1.261.171.394.394,0,0,0-.209.759,5.713,5.713,0,0,0,3.231-.484,15.6,15.6,0,0,0,4.789-2.773,17.4,17.4,0,0,0,2.215-2.408c.759-.948,1.514-1.9,2.2-2.909a14.114,14.114,0,0,0,2.507-6.361,9.717,9.717,0,0,0-1.794-7l-.515.3c2.151,2.825,1.787,6.7-.144,9.536a13.662,13.662,0,0,1-3.7,3.577,30.223,30.223,0,0,1-4.627,2.333c-1.813.816-3.414,2.223-5.432,2.519-.518.075-.4.981.125.923,3.226-.361,5.888-2.525,8.058-4.79,1.141-1.19,2.19-2.464,3.246-3.73a15.7,15.7,0,0,0,2.965-4.163c.813-2.119-.395-4.216-.2-6.367l-.511.212c.413.332.825.665,1.233,1,.237.2.575-.125.344-.344-.361-.343-.582-.783-.921-1.141-.356-.377-.745-.73-1.117-1.091q-1.257-1.22-2.534-2.418a60.872,60.872,0,0,0-4.888-4.191c-.25-.189-.585.241-.338.439Z" transform="translate(-4265.537 -3493.047)"/></g></g><g transform="translate(4258.557 3514.39)"><g transform="translate(0)"><path d="M4267.224,3524.37c1.391,1.422,2.614,2.979,3.957,4.443a23.721,23.721,0,0,0,2.367,2.306,2.709,2.709,0,0,0,2.743.441,13.019,13.019,0,0,0,3.026-2.038c.821-.656,1.61-1.354,2.373-2.078a42.6,42.6,0,0,0,4.273-4.706,25.693,25.693,0,0,0,1.971-2.867,7.024,7.024,0,0,0,1.079-2.811.287.287,0,0,0-.531-.144,26.488,26.488,0,0,1-2.628,4.636,40.432,40.432,0,0,1-3.987,4.573,32.781,32.781,0,0,1-4.558,3.9c-1.019.7-2.146,1.4-3.287.495a22.591,22.591,0,0,1-2.186-2.067c-1.42-1.485-2.725-3.059-4.209-4.487a.285.285,0,0,0-.4.4Z" transform="translate(-4267.141 -3516.777)"/></g></g><g transform="translate(4270.399 3500.279)"><path d="M4282.884,3501.913c-.284,2.2,2.118,3.875,3.606,5.088a23.554,23.554,0,0,0,4.36,2.62,2.187,2.187,0,0,1,.757.472c.285.382-.111.845-.282,1.177-.279.544-.538,1.1-.81,1.647-.536,1.085-1.086,2.166-1.665,3.232a48.326,48.326,0,0,1-3.607,5.761c-.767,1.036-1.6,2.012-2.46,2.971-.928,1.036-1.949,1.975-2.9,2.988-.159.171.049.474.259.335a22.617,22.617,0,0,0,5.2-5.094,45.275,45.275,0,0,0,3.768-5.756c.6-1.075,1.169-2.167,1.722-3.267q.407-.81.8-1.626a10.911,10.911,0,0,0,.833-1.744c.324-1.205-1.079-1.689-1.914-2.105a25.767,25.767,0,0,1-2.324-1.252,22.6,22.6,0,0,1-2.382-1.817c-1.1-.919-2.586-2.025-2.442-3.63.029-.338-.479-.324-.521,0Z" transform="translate(-4279.83 -3501.665)"/></g><g transform="translate(4238.837 3489.878)"><g transform="translate(0)"><path d="M4262.962,3493.852c-1.381-.544-2.788-1.013-4.181-1.523-.913-.334-1.811-.712-2.734-1.017a12.645,12.645,0,0,0-6.431-.589,5.372,5.372,0,0,0-2.959,1.551,2.944,2.944,0,0,0-.249,3.323c1.251,2.423,4.487,3.256,6.948,3.7,1.618.293,3.259.436,4.884.68.831.124,1.663.263,2.479.461.8.193,1.558.508,2.351.7a.28.28,0,0,0,.215-.51,9.567,9.567,0,0,0-3.576-1.231c-1.256-.258-2.534-.4-3.8-.568-2.554-.335-5.478-.672-7.606-2.264-1-.751-1.96-2.152-1.276-3.411a4.074,4.074,0,0,1,2.816-1.619,12.662,12.662,0,0,1,5.877.543c.97.273,1.913.636,2.879.922,1.419.42,2.849.792,4.249,1.273.271.092.374-.321.117-.422Z" transform="translate(-4246.013 -3490.526)"/></g></g><g transform="translate(4251.164 3499.133)"><path d="M4259.339,3500.643c-.1.041-.026.05.072.145a5.166,5.166,0,0,0,.448.346c.361.273.733.533,1.1.8a6.083,6.083,0,0,1,.752.56,12.332,12.332,0,0,1,1.225,1.67,27.293,27.293,0,0,0,4.038,5.208,10.982,10.982,0,0,0,3.587,2.2c.375.12.569-.415.259-.615-.618-.4-1.308-.687-1.936-1.079a11.387,11.387,0,0,1-1.5-1.1,14.645,14.645,0,0,1-2.178-2.495c-.761-1.059-1.486-2.145-2.271-3.188a5.377,5.377,0,0,0-.969-1.143c-.324-.241-.664-.465-1-.685-.118-.075-1.691-1.141-1.749-.743-.009.062.042.148.118.118Z" transform="translate(-4259.22 -3500.437)"/></g><g transform="translate(4224.771 3489.833)"><path d="M4231.013,3494.93a6.713,6.713,0,0,0,6.471.608,9.284,9.284,0,0,0,2.873-1.974c.458-.435.907-.882,1.352-1.331a12.577,12.577,0,0,0,1.231-1.274c.171-.23-.11-.544-.361-.47a6.787,6.787,0,0,0-2.476,1.882,10.775,10.775,0,0,1-2.6,2.055,8.133,8.133,0,0,1-6.27.124c-.2-.065-.4.237-.22.38Z" transform="translate(-4230.941 -3490.477)"/></g><g transform="translate(4239.701 3487.302)"><path d="M4247.2,3488.9c.875-.6,2.261-.456,3.268-.4a9.58,9.58,0,0,1,3.057.7,9.351,9.351,0,0,1,3.5,2.5c.313.357.524.759.975.945a.4.4,0,0,0,.5-.38,2.173,2.173,0,0,0-.756-1.283,9.827,9.827,0,0,0-1.226-1.139,9.978,9.978,0,0,0-2.929-1.59,9.517,9.517,0,0,0-3.437-.481c-1.078.039-2.35.041-3.165.846-.141.137.045.4.215.279Z" transform="translate(-4246.938 -3487.767)"/></g><g transform="translate(4224.534 3482.91)"><path d="M4231.035,3493.552a22.241,22.241,0,0,0,2.319-2.01q1.366-1.223,2.712-2.464c1.551-1.423,3.14-2.836,4.564-4.389.318-.346.933-.89.807-1.423a.288.288,0,0,0-.52-.068,9.059,9.059,0,0,1-.831,1c-.6.659-1.245,1.282-1.888,1.9-1.672,1.607-3.4,3.153-5.087,4.744a19.369,19.369,0,0,0-2.386,2.394c-.135.184.128.433.31.311Z" transform="translate(-4230.688 -3483.063)"/></g><g transform="translate(4234.904 3480.755)"><path d="M4242.06,3483.409c2.215-.406,4.449-.726,6.674-1.072q1.725-.269,3.454-.508.8-.112,1.6-.215a7.714,7.714,0,0,1,1.781-.148,3.338,3.338,0,0,1,1.541.816c.465.34.943.662,1.422.981.953.635,1.925,1.241,2.9,1.842,1.957,1.209,4.311,2.411,5.51,4.445a9.985,9.985,0,0,0,2.066,2.748c.874.739,1.805,1.389,2.621,2.2.207.207.59-.066.416-.321a11.1,11.1,0,0,0-2.179-2.21,8.825,8.825,0,0,1-2.061-2.582,8.07,8.07,0,0,0-2.334-2.62c-.921-.683-1.894-1.3-2.87-1.9-1.064-.654-2.145-1.284-3.209-1.939-.477-.293-.952-.592-1.415-.908a12.584,12.584,0,0,0-1.486-1c-.993-.489-2.181-.163-3.225-.018q-1.723.238-3.441.509-3.968.619-7.877,1.5c-.264.06-.149.448.111.4Z" transform="translate(-4241.798 -3480.755)"/></g><g transform="translate(4235.342 3506.56)"><path d="M4242.268,3513.467c.007,1.626,2.117,1.614,3.236,1.536a27.374,27.374,0,0,0,5.56-.97,6.823,6.823,0,0,0,3.943-2.248,3.168,3.168,0,0,0,.579-1.928c-.026-.5-.176-1.256-.7-1.45a.314.314,0,0,0-.38.216.374.374,0,0,0,.1.406.3.3,0,0,0,.357.046l.04-.021a.292.292,0,0,0-.223-.531l-.044.012.333.135-.031-.062v.306l.032-.053-.267.153c.1,0,.157.728.155.842a2.554,2.554,0,0,1-.154.823,3.2,3.2,0,0,1-1.027,1.394,9.359,9.359,0,0,1-3.531,1.458,27.483,27.483,0,0,1-3.983.726c-1.159.125-3,.551-3.523-.855a.242.242,0,0,0-.473.064Z" transform="translate(-4242.268 -3508.392)"/></g><g transform="translate(4240.738 3510.629)"><path d="M4248.055,3514.641a4.746,4.746,0,0,0,.8,2.688,6.42,6.42,0,0,0,1.691,2.1,3.164,3.164,0,0,0,2.691.21,25.539,25.539,0,0,0,2.756-1.023,15.018,15.018,0,0,0,4.762-2.879,2.7,2.7,0,0,0,1.051-1.716c.043-.442,0-1.094-.5-1.259-.276-.09-.432.315-.194.46.12.073.05.557.038.674a1.262,1.262,0,0,1-.248.7,7.759,7.759,0,0,1-1.617,1.464,18.3,18.3,0,0,1-3.91,2.051c-1.244.5-3.208,1.585-4.482.722a6.088,6.088,0,0,1-1.468-1.838,4.862,4.862,0,0,1-.916-2.354.227.227,0,0,0-.453,0Z" transform="translate(-4248.05 -3512.75)"/></g><g transform="translate(4246.322 3509.688)"><path d="M4254.23,3513.016a15.584,15.584,0,0,0,1.9-.377,12.97,12.97,0,0,1,1.973-.262,7.277,7.277,0,0,1,1.849.145,5.954,5.954,0,0,1,.892.269c.22.087.678.225.769.466a.294.294,0,0,0,.575-.077c.033-.64-.81-.9-1.292-1.076a6.785,6.785,0,0,0-2.188-.361,10.919,10.919,0,0,0-2.238.232,9.6,9.6,0,0,0-2.336.67.2.2,0,0,0,.1.372Z" transform="translate(-4254.033 -3511.742)"/></g><g transform="translate(4253.915 3512.436)"><path d="M4262.18,3515c.133.45.591.628.985.8a14.219,14.219,0,0,0,1.584.578,15.55,15.55,0,0,0,1.6.389c.279.052.559.1.839.134.3.042.621.142.857-.109a.356.356,0,0,0,.055-.425c-.181-.269-.4-.257-.7-.281-.232-.02-.463-.043-.7-.073-.478-.062-.953-.148-1.422-.255s-.939-.231-1.4-.378c-.221-.071-.442-.146-.662-.221-.162-.055-.47-.118-.544-.3-.122-.3-.591-.19-.5.137Z" transform="translate(-4262.167 -3514.685)"/></g><g transform="translate(4253.614 3513.798)"><path d="M4265.025,3516.362c-1.713,1.188-5.141,5.474-1.713,5.935s7.119-2.834,8.108-3.56a13.8,13.8,0,0,0,2.263-2.594Z" transform="translate(-4261.845 -3516.143)"/></g><g transform="translate(4255.45 3590.505)"><g transform="translate(0 2.725)"><path d="M4264.81,3615.987l.025.044a.281.281,0,0,0,.313.127.446.446,0,0,0,.321-.553.386.386,0,0,0-.37-.281c-.89.009-1.241,1.61-1.281,2.305a6.7,6.7,0,0,0,.907,3.107.442.442,0,0,0,.49.2,5.962,5.962,0,0,0,3.416-1.112,15.1,15.1,0,0,0,2.808-3.731,34.484,34.484,0,0,0,3.422-8.984c.221-.871.422-1.746.616-2.624a17.855,17.855,0,0,0,.544-2.764.508.508,0,0,0-.638-.487l-.368.12a.448.448,0,0,0,.118.876l.383,0-.486-.64a23.589,23.589,0,0,0-.667,2.99c-.209.939-.433,1.876-.677,2.807a40.915,40.915,0,0,1-1.8,5.434,23.63,23.63,0,0,1-2.776,4.958,5.529,5.529,0,0,1-1.815,1.817,7.85,7.85,0,0,1-2.311.507l.489.2a7.364,7.364,0,0,1-.8-2.2,2.753,2.753,0,0,1,.077-1.012,3.7,3.7,0,0,1,.162-.475,2.712,2.712,0,0,1,.145-.319c.159-.159.156-.224-.008-.2l-.242-.241,0-.039.267-.2-.047,0a.253.253,0,0,0-.217.378Z" transform="translate(-4263.813 -3601.214)"/></g><g transform="translate(8.508 0.635)"><path d="M4273.719,3599.844a.345.345,0,0,1,.418-.075,2.075,2.075,0,0,1,.66.6l1.458,1.6.523-.679a19.013,19.013,0,0,0-3.167-1.957l-.353.836a5.915,5.915,0,0,1,2.327.9l.487-.835c-.617-.34-1.277-.618-1.912-.924a.514.514,0,0,0-.56.04.5.5,0,0,0-.18.528,2.415,2.415,0,0,0,.165.395.845.845,0,0,0,.285.315c.214.153.456-.023.539-.219a1.244,1.244,0,0,0-.018-.757l-.738.568c.679.314,1.353.662,2.048.938a.484.484,0,0,0,.372-.883c-.423-.206-.834-.423-1.277-.59a7.361,7.361,0,0,0-1.293-.355.462.462,0,0,0-.54.264.455.455,0,0,0,.187.572,19.817,19.817,0,0,1,3.194,1.914.429.429,0,0,0,.557-.112.435.435,0,0,0-.034-.567c-.579-.613-1.14-1.248-1.739-1.838a1.691,1.691,0,0,0-1.007-.537.972.972,0,0,0-.92.464.331.331,0,0,0,.52.4Z" transform="translate(-4272.928 -3598.975)"/></g><g transform="translate(1.121 21.773)"><path d="M4265.138,3622.1a42.054,42.054,0,0,0,4.393,2.892,15.031,15.031,0,0,0,3.123,1.1,18.614,18.614,0,0,0,4.971.637c.288-.01.372-.453.07-.521-2.674-.609-5.416-.7-7.925-1.926-1.534-.748-2.848-1.865-4.367-2.641a.263.263,0,0,0-.265.454Z" transform="translate(-4265.014 -3621.613)"/></g><g transform="translate(8.214)"><path d="M4272.974,3599.908c2.036-1.729,5.035-.964,7.315-.211,1.256.415,2.479.92,3.708,1.408a5.671,5.671,0,0,1,1.836.881,1.4,1.4,0,0,1,.327,1.069,30.265,30.265,0,0,1-.617,6.359,40.9,40.9,0,0,1-2.431,8.837,16.574,16.574,0,0,1-2.68,4.728,5.375,5.375,0,0,1-3.124,1.7.269.269,0,0,0,.072.527,5.233,5.233,0,0,0,2.977-1.123,11.568,11.568,0,0,0,2.785-3.954,36.163,36.163,0,0,0,3.111-9.887,30.147,30.147,0,0,0,.653-7.245,2.759,2.759,0,0,0-.222-1.122,2.711,2.711,0,0,0-1.428-1.045c-1.356-.55-2.737-1.071-4.124-1.542-2.641-.9-6.159-1.837-8.455.323-.2.186.093.465.294.294Z" transform="translate(-4272.614 -3598.295)"/></g><g transform="translate(0.371 16.039)"><path d="M4265.393,3615.473c.049.123,5.651,1.561,5.651,1.561s-1.983,3.075-3.638,4.025-2.429,1.027-3.056-1.233A5.464,5.464,0,0,1,4265.393,3615.473Z" transform="translate(-4264.21 -3615.473)"/></g></g><g transform="translate(4157.658 3519.38)"><path d="M4161.057,3522.122s5.712,3.342,10.283,5.715,9.4,4.836,9.4,4.836-11.249,2.813-12.919,3.868-1.845,3.078-3.691-.088-4.9-8.423-5.086-10.322S4161.057,3522.122,4161.057,3522.122Z" transform="translate(-4159.035 -3522.122)"/></g><g transform="translate(4167.26 3511.072)"><path d="M4169.323,3518.433a22.67,22.67,0,0,1,5.273,2.242c1.978,1.319.46,1.055,5.338,2.967a38.54,38.54,0,0,1,9.162,5.473l15.006-5.166s-4.5-3.055-8.436-5.209l-7.427-4.066-3.3-1.451-2.637.329Z" transform="translate(-4169.323 -3513.224)"/></g><g transform="translate(4190.621 3503.159)"><path d="M4194.353,3510.312a20.567,20.567,0,0,1,5.142,2.393c1.9,1.409.4,1.127,5.167,3.169a35.484,35.484,0,0,1,8.844,5.844l14.193-5.232a98.507,98.507,0,0,1-9.161-5.605c-3-2.126-8.24-5.407-8.24-5.407l-.022-.725-2.656.352Z" transform="translate(-4194.353 -3504.749)"/></g><g transform="translate(4211.318 3495.883)"><path d="M4216.528,3502.519a20.6,20.6,0,0,1,5.143,2.394c1.9,1.409.4,1.127,5.167,3.169a35.465,35.465,0,0,1,8.844,5.844l14.194-5.232a98.856,98.856,0,0,1-9.163-5.605c-2.995-2.126-8.239-5.407-8.239-5.407l-.021-.725-2.656.352Z" transform="translate(-4216.528 -3496.957)"/></g><g transform="translate(4232.647 3488.137)"><path d="M4261.681,3503.808c-.44-.723-.807-1.456-1.19-2.207a5.5,5.5,0,0,0-2.237-1.947c-2.877-1.8-6.6-.8-9.631-2.231-1.277-.6-2.646-1.772-2.733-3.29-.085-1.484,1.32-2.579,2.622-2.947a10.457,10.457,0,0,1,2.594-.221,18.717,18.717,0,0,1,2.8.062,9.39,9.39,0,0,1,2.746.824,4.038,4.038,0,0,1,.853.513,6.94,6.94,0,0,0-.267-.673,4.342,4.342,0,0,0-.556-1,5.776,5.776,0,0,0-3.331-2.032l-.989.14-12.984,5.514a21.29,21.29,0,0,1,5.273,2.534c1.977,1.49.461,1.192,5.338,3.353a38.128,38.128,0,0,1,9.163,6.185l3.33-1.316C4262.2,3504.652,4261.934,3504.224,4261.681,3503.808Z" transform="translate(-4239.381 -3488.661)"/></g><g transform="translate(4162.341 3534.388)"><g transform="translate(0 0.857)"><path d="M4168.887,3552.052l-4.553.035c0-2.449-.69-9.23.089-12.894,4.575-.032,11.609-.043,16.184-.08-1.162,1.228-2.468,2.609-3.748,3.973C4173.661,3546.492,4169.855,3550.92,4168.887,3552.052Z" transform="translate(-4164.052 -3539.113)"/></g><g transform="translate(14.251 0.558)"><path d="M4197,3550.976l-.9.848-16.774.132a18.3,18.3,0,0,0,2.9-2.865c1.516-2.007.14-1.248,4.262-4.8a35.757,35.757,0,0,0,4.876-5.292c2.218-.022,4.437-.036,6.655-.064,3.187-.04,6.374-.093,9.56-.14-1.27,1.622-2.984,3.746-4.625,5.572Z" transform="translate(-4179.321 -3538.793)"/></g><g transform="translate(39.374 0.226)"><path d="M4222.232,3551.609l-15.994.126a14.967,14.967,0,0,0,2.137-2.383c1.417-2.075.061-1.3,4.041-4.954a33.728,33.728,0,0,0,4.831-5.743q7.619-.12,15.236-.218c-1.469,1.7-3.577,4.226-5.353,6.724C4225.729,3547.129,4223.627,3549.837,4222.232,3551.609Z" transform="translate(-4206.239 -3538.437)"/></g><g transform="translate(62.409)"><path d="M4246.667,3551.414l-15.748.124a11.6,11.6,0,0,0,1-1.243c1.416-2.076.061-1.3,4.04-4.955a35.879,35.879,0,0,0,5.665-7.012q7.719-.079,15.441-.133a101.615,101.615,0,0,0-6.391,7.908C4249.548,3547.685,4247.969,3549.746,4246.667,3551.414Z" transform="translate(-4230.919 -3538.195)"/></g><g transform="translate(86.041 0.023)"><path d="M4272.413,3551.335l-16.172.019c.021-.031.044-.062.065-.093,1.467-2.186.1-1.39,4.152-5.2a38.716,38.716,0,0,0,6-7.652c1.44.031,6.1-.188,6.1-.188S4272.413,3550.078,4272.413,3551.335Z" transform="translate(-4256.24 -3538.22)"/></g></g><g transform="translate(4212.876 3593.497)"><g transform="translate(0)"><path d="M4218.438,3602.023a5.7,5.7,0,0,1,2.5.356,2.236,2.236,0,0,1,.818.635,1.124,1.124,0,0,1,.142.229c.008.019.026.107.033.109s.01-.035.022-.032c.076.013-.014-.028-.005,0l-.039.01h.1c.01-.029-.208,0-.231.009a.366.366,0,0,0-.262.344.535.535,0,0,0,.7.444.717.717,0,0,0,.549-.657c.044-.585-.484-1.078-.933-1.371a5.6,5.6,0,0,0-3.389-.572.249.249,0,0,0,0,.5Z" transform="translate(-4218.198 -3601.5)"/></g></g><g transform="translate(4272.711 3594.327)"><path d="M4287.135,3602.389c-.176,4.308-.268,8.052-1.675,12.448a41.062,41.062,0,0,1-3.153,7.4s7.284,1.656,8.954,2.184,15.059,3.9,15.059,3.9l.1-23.759Z" transform="translate(-4282.307 -3602.389)"/></g><g transform="translate(4270.109 3510.72)"><path d="M4302.775,3544.959c.383-.1.505-.206.092-.429-.5-.268-1.139-.536-.87-1.036-.837-.459-.189-.664.407-.9.378-.151.391-.37.154-.606-.157-.158-.255-.336-.395-.5-.232-.274-.248-.519.321-.706-.605-.2-.687-.355-.362-.735.36-.419.7-.951.147-1.46-.133-.124,0-.208.137-.276.365-.181.543-.351.2-.637a.362.362,0,0,1-.017-.6c.055-.049.12-.135.084-.17-.413-.393-.1-.746.1-1.115.21-.393-.352-.654-.641-.941s-.169-.408.231-.55c1.412-.5,1.429-.39.055-1.033-.563-.264-.6-.426-.087-.724a4.453,4.453,0,0,1,1.088-.507c.181-.051.377-.148.3-.287a.535.535,0,0,0-.514-.309c-.283-.014-.645.017-.677-.213s.211-.4.579-.49l.919-.232c-.414-.144-.7.056-1.016.018-.209-.026-.425-.021-.523-.157-.083-.115.016-.2.141-.289a2.093,2.093,0,0,0,.406-.328c.2-.23.5-.409-.3-.444-.461-.021-.667-.219-.25-.484a5.234,5.234,0,0,0,.932-.927c.238-.238-.076-.615-.374-.886-.171-.157-.318-.288-.036-.44.457-.245.306-.53.094-.8-.316-.4-.493-.746.194-1.1.306-.157.463-.447.1-.7-.185-.133-.692-.178-.519-.4a1.45,1.45,0,0,1,.831-.562c.824-.108.261-.484.506-.68.506-.4-.164-.441-.526-.572-1.288-.468-1.417-.577-.548-1.321.631-.542.635-.982.057-1.5-.075-.067-.176-.139-.178-.221l-11.375-5.865c-.659,3.3-12.129,16.486-12.129,16.486a18.081,18.081,0,0,0,2.242,2.77c.739.634,15.109,9.442,20.816,12.932A1.282,1.282,0,0,1,4302.775,3544.959Z" transform="translate(-4279.518 -3512.847)"/></g><g transform="translate(4294.178 3596.454)"><path d="M4311.653,3628.968a7.459,7.459,0,0,1,.273-.771c.326-.782.244-1.112-.361-1.516a1.057,1.057,0,0,0,.321-1.456c-.14-.34-.237-.707-.4-1.032a.954.954,0,0,1,.155-1.251c.595-.489,1.244-.911.406-1.859.27-1.031-.375-1.585-.87-2.137-.413-.459-.291-.673.092-.884.806-.445.622-1.638,1.186-2.279a.457.457,0,0,0-.225-.613c-.459-.123-.731-.716-1.275-.652-.3.034-.527-.289-.561-.675-.071-.81.587-1.57.1-2.416-.01-.018,0-.083.016-.086.656-.2.6-1.087,1-1.528.155-.171.369-.3.245-.6-.1-.249-.328-.185-.494-.153-.639.122-.758-.285-.735-.934.014-.432.411-.508.475-.792.146-.646-.627-.144-.573-.521.063-.45.08-.91.159-1.346-.1-1.051-.826-.787-1.478-.731-.9.079-2.283,1.091-3.189,1.083-.1,0-.207-.01-.311-.013l-.3,22.008A25.375,25.375,0,0,0,4311.653,3628.968Z" transform="translate(-4305.307 -3604.667)"/></g><g transform="translate(4162.636 3549.145)"><path d="M4164.525,3554h100.8s.622,34.081.207,37.089-.363,6.381-4.562,6.692-5.29,1.5-7.1-.726-3.318-5.083-10.163-5.5-9.644,3.009-13.17,3.424-5.445-.57-10.37-.57-5.6.934-6.534,2.022-.363,1.972-3.63,2.179-39.148-.156-41.637-.779-3.993-1.3-3.993-7.107S4164.525,3554,4164.525,3554Z" transform="translate(-4164.369 -3554)"/></g><g transform="translate(4166.681 3559.183)"><rect width="92.4" height="1.245" rx="0.622" transform="translate(0)" fill="#f7f6f4"/></g><g transform="translate(4166.681 3569.143)"><rect width="92.4" height="1.245" rx="0.622" transform="translate(0)" fill="#f7f6f4"/></g><g transform="translate(4193.592 3569.298)"><rect width="18.493" height="1.244" rx="0.622" transform="translate(0 18.493) rotate(-90)" fill="#f7f6f4"/></g><g transform="translate(4231.858 3569.298)"><rect width="18.493" height="1.244" rx="0.622" transform="translate(0 18.493) rotate(-90)" fill="#f7f6f4"/></g><g transform="translate(4145.763 3497.136)"><path d="M4149.977,3526.142c-2.2-3.2-4.609-8.069-1.636-11.6,1.394-1.653,3.582-1.926,5.615-1.954,1.541-.021,4.151.531,4.534-1.548.152-.819-.052-1.667.117-2.482a3.113,3.113,0,0,1,1.975-2.132,5.393,5.393,0,0,1,3.378-.007c1.039.284,2.1.985,3.2.943a3.928,3.928,0,0,0,2.4-1.451c.79-.785,1.5-1.654,2.342-2.386a4.969,4.969,0,0,1,3.1-1.364c1.065-.009,1.764.665,2.64,1.149a2.556,2.556,0,0,0,2.874-.143,33.8,33.8,0,0,1,3-2.038,18.682,18.682,0,0,1,7.243-2.062.386.386,0,0,0,0-.772,15.882,15.882,0,0,0-6.547,1.484,16.842,16.842,0,0,0-2.913,1.672c-.875.626-1.806,1.734-2.978,1.231-.93-.4-1.634-1.133-2.668-1.306a4.657,4.657,0,0,0-2.83.523,9.486,9.486,0,0,0-2.585,2.109,10.265,10.265,0,0,1-2.563,2.422,2.228,2.228,0,0,1-1.817-.163,15.976,15.976,0,0,0-1.794-.607,6.354,6.354,0,0,0-3.361-.048,4.327,4.327,0,0,0-2.162,1.443,3.681,3.681,0,0,0-.708,2.417c.008,1.008.163,2.276-1.167,2.394-1.048.093-2.121-.01-3.173.025-1.986.066-4.064.454-5.48,1.969a7.166,7.166,0,0,0-1.653,5.75,14.8,14.8,0,0,0,3.206,6.77c.18.246.594.015.417-.243Z" transform="translate(-4146.29 -3498.299)"/></g><g transform="translate(4275.065 3550.657)"><g transform="translate(0)"><path d="M4290.25,3578.316a14.042,14.042,0,0,0,13.814,1.681c5.189-2.115,7.171-8.541,6.51-13.735a12.613,12.613,0,0,0-3.424-7.262,11.934,11.934,0,0,0-7.734-3.321,14.255,14.255,0,0,0-8.745,1.859,12.711,12.711,0,0,0-4.884,5.781,12.52,12.52,0,0,0,4.954,15.375c.194.108.438-.174.249-.322a14.039,14.039,0,0,1-4.6-5.848,11.837,11.837,0,0,1-.55-7.153,11.872,11.872,0,0,1,11.222-9.087,13.022,13.022,0,0,1,8.324,2,11.3,11.3,0,0,1,4.214,6.182,15.135,15.135,0,0,1-.434,8.8,9.813,9.813,0,0,1-4.414,5.726,14.043,14.043,0,0,1-14.356-.873c-.111-.082-.258.106-.149.194Z" transform="translate(-4284.829 -3555.619)"/></g></g><g transform="translate(4284.167 3557.212)"><g transform="translate(0)"><path d="M4294.61,3562.845c-.054,2.04-.031,4.065.035,6.105.033,1.016.057,2.032.061,3.048,0,.525,0,1.051-.008,1.576a3.979,3.979,0,0,0,.082,1.427c.084.227.451.344.575.076a7.125,7.125,0,0,0,.2-2.853c-.008-1.053-.04-2.106-.081-3.16-.081-2.081-.278-4.144-.438-6.219a.214.214,0,0,0-.427,0Z" transform="translate(-4294.58 -3562.64)"/></g><g transform="translate(0.078 5.553)"><path d="M4294.863,3574.568a.652.652,0,0,0,.04.972c.4.361.963.131,1.382-.061a25.035,25.035,0,0,0,3.542-2c1.066-.715,2.115-1.452,3.189-2.156a12.877,12.877,0,0,0,2.962-2.234c.188-.229-.06-.648-.345-.446-.758.534-1.476,1.118-2.249,1.636-.814.545-1.646,1.063-2.452,1.62-.887.614-1.771,1.23-2.688,1.8q-.645.4-1.315.763-.35.189-.706.367c-.11.055-.219.114-.332.164s-.944.2-.7-.167c.135-.206-.162-.414-.332-.255Z" transform="translate(-4294.664 -3568.587)"/></g><g transform="translate(0.341 0.181)"><path d="M4295.057,3563.141a24.916,24.916,0,0,1,3.22,1.311c.926.4,1.875.747,2.771,1.211.77.4,1.518.837,2.263,1.28.37.22.739.443,1.11.665.311.187.885.4.888.815,0,.478.785.622.864.117.158-1-.863-1.447-1.587-1.876-.9-.532-1.8-1.068-2.723-1.557a22.71,22.71,0,0,0-2.991-1.265,10.812,10.812,0,0,0-3.773-1.007.157.157,0,0,0-.041.306Z" transform="translate(-4294.946 -3562.833)"/></g></g><g transform="translate(4271.667 3578.84)"><g transform="translate(0)"><path d="M4281.4,3592.659a9.614,9.614,0,0,0,3.509-1.944,3.012,3.012,0,0,0,.993-3.169,1.412,1.412,0,0,0-2.523.038c-.7,1.213.275,2.665,1.3,3.314,2.417,1.527,5.413.1,6.438-2.383.285-.689.817-2.852-.62-2.706-1.375.139-.967,2.1-.425,2.815,2.122,2.815,6.947.716,8.574-1.612.148-.214-.167-.423-.344-.265-1.537,1.366-3.424,2.632-5.583,2.514a2.619,2.619,0,0,1-2.446-1.637,1.367,1.367,0,0,1-.058-.764c.035-.121.145-.379.267-.411s.338.229.369.31a2.435,2.435,0,0,1-.266,1.433,3.972,3.972,0,0,1-4.49,2.6,2.987,2.987,0,0,1-2.217-1.833,1.21,1.21,0,0,1,.383-1.438.771.771,0,0,1,1.223.622,3.178,3.178,0,0,1-1.318,2.628,9.846,9.846,0,0,1-2.856,1.554c-.2.079-.12.409.091.333Z" transform="translate(-4281.188 -3585.802)"/></g></g><g transform="translate(4272.643 3547.898)"><g transform="translate(0)"><path d="M4282.564,3557.7a17.374,17.374,0,0,1,3.964-2.915,16.135,16.135,0,0,1,2.25-.988c.778-.276,1.582-.444,2.363-.7.229-.073.2-.445-.059-.435a11.643,11.643,0,0,0-4.794,1.57,14.474,14.474,0,0,0-4,3.188c-.167.189.1.458.278.278Z" transform="translate(-4282.233 -3552.664)"/></g></g><g transform="translate(4272.841 3546.644)"><g transform="translate(0)"><path d="M4282.813,3553.262a13.8,13.8,0,0,1,1.825-.872c.315-.122.634-.237.955-.34a4.341,4.341,0,0,0,.932-.366.2.2,0,0,0-.1-.361,2.951,2.951,0,0,0-1.049.2q-.484.158-.953.358a14.315,14.315,0,0,0-1.86.955.247.247,0,0,0,.25.426Z" transform="translate(-4282.446 -3551.321)"/></g></g><g transform="translate(4138.381 3532.241)"><path d="M4138.647,3536.641a19.66,19.66,0,0,0,3.733.859c.615.087,1.232.159,1.852.2a5.959,5.959,0,0,0,1.9-.063.328.328,0,0,0,0-.627,9.315,9.315,0,0,0-1.76-.2c-.632-.048-1.264-.1-1.893-.193-1.225-.172-2.424-.447-3.629-.716a.381.381,0,0,0-.2.734Z" transform="translate(-4138.381 -3535.896)"/></g><g transform="translate(4138.525 3537.05)"><g transform="translate(0)"><path d="M4138.867,3544.428l4.023-1.448,1.974-.711a8.366,8.366,0,0,0,1.926-.808c.164-.111.126-.439-.111-.413a8.329,8.329,0,0,0-1.982.615l-1.968.737-4.009,1.5c-.326.122-.187.648.146.528Z" transform="translate(-4138.535 -3541.046)"/></g></g><g transform="translate(4143.292 3540.396)"><g transform="translate(0)"><path d="M4144.022,3553.452q1.9-2.239,3.961-4.332,1-1.021,2.043-2c.729-.687,1.5-1.34,2.188-2.072.174-.187-.06-.538-.289-.373a32.952,32.952,0,0,0-4.285,4c-1.378,1.427-2.689,2.92-3.942,4.459-.186.226.131.552.324.325Z" transform="translate(-4143.642 -3544.629)"/></g></g></g></svg>