<svg xmlns="http://www.w3.org/2000/svg" width="205" height="140" viewBox="0 0 205 140"><g transform="translate(-4560.328 -3469)"><g transform="translate(4613 3527.34)"><path d="M4631.057,3533.583a14.12,14.12,0,0,0-5.544,2.014,14.5,14.5,0,0,0-3.556,3.415,16.23,16.23,0,0,0-3.165,9.679,15.556,15.556,0,0,0,3.47,9.443c1.969,2.481,5.11,5.052,8.385,5.254a1.2,1.2,0,0,0,.6-2.21c-1.224-.688-2.538-1.156-3.723-1.931a13.631,13.631,0,0,1-3.1-2.821,12.821,12.821,0,0,1-2.88-7.735,13.755,13.755,0,0,1,2.459-8.1,15.292,15.292,0,0,1,7.429-5.651.707.707,0,0,0-.375-1.362Z" transform="translate(-4618.791 -3533.569)"/></g><g transform="translate(4618.314 3555.365)"><path d="M4626.069,3564.846c-2.738,4.292-1,10.684,1.761,14.513a23.479,23.479,0,0,0,12.853,8.477,1.392,1.392,0,0,0,.737-2.682,21.529,21.529,0,0,1-11.338-7.115,15.711,15.711,0,0,1-2.874-6.1,21.035,21.035,0,0,1-.076-6.805c.057-.6-.783-.728-1.062-.288Z" transform="translate(-4624.69 -3564.585)"/></g><g transform="translate(4635.073 3572.547)"><path d="M4643.448,3584.3c-.359,3.367-.2,6.773,1.63,9.732a9.506,9.506,0,0,0,7.1,4.543c1.665.209,2.224,1.538,3.381,2.584a12.135,12.135,0,0,0,3.641,2.251,11.826,11.826,0,0,0,8.53.107c1.675-.636.959-3.358-.748-2.723a9.494,9.494,0,0,1-7.137-.179,8.878,8.878,0,0,1-2.883-2.014c-.92-.969-1.653-2.035-2.972-2.487-1.195-.409-2.482-.257-3.654-.792a7.342,7.342,0,0,1-2.789-2.358c-1.785-2.42-2.324-5.739-2.65-8.663a.726.726,0,0,0-1.451,0Z" transform="translate(-4643.292 -3583.602)"/></g><g transform="translate(4636.319 3493.09)"><path d="M4648.522,3519.854c-3.066-5.524-2.022-13.518,2.741-17.765,4.425-3.946,11.591-5.013,17.123-3.225l-.8-1.051c.261,3.034.53,6.064.75,9.1q.223,3.079.5,6.153c.058.66.114,1.321.2,1.979.029.222.062.442.1.663s.034.273.023.086c.033.615.991.619.958,0,0-.021.042-.591.048-.847.017-.681,0-1.364-.017-2.046q-.061-3.049-.167-6.1c-.108-3-.161-5.992-.226-8.991a1.133,1.133,0,0,0-.8-1.051c-5.042-2-11.237-1.109-15.966,1.328a15.416,15.416,0,0,0-8.322,13.538,14.029,14.029,0,0,0,3.062,8.833c.357.46,1.052-.126.785-.607Z" transform="translate(-4644.676 -3495.661)"/></g><g transform="translate(4617.424 3507.03)"><path d="M4644.04,3512.687a27.631,27.631,0,0,0-2.593-1.075,15.31,15.31,0,0,0-2.348-.439,14.053,14.053,0,0,0-12.3,5.056c-2.056,2.6-2.7,5.763-2.989,9a15.507,15.507,0,0,0,.121,4.532,5.427,5.427,0,0,0,2.106,3.632,1.039,1.039,0,0,0,1.407-1.41c-.23-.514-.6-.943-.8-1.477a6.443,6.443,0,0,1-.365-1.805,19.259,19.259,0,0,1,.138-3.643c.3-2.6.9-5.353,2.636-7.4a11.386,11.386,0,0,1,5.919-3.623,17.8,17.8,0,0,1,4.128-.475,18.434,18.434,0,0,1,4.612.324.622.622,0,0,0,.329-1.2Z" transform="translate(-4623.703 -3511.09)"/></g><g transform="translate(4695.618 3527.34)"><path d="M4710.993,3534.945a15.3,15.3,0,0,1,7.429,5.651,13.714,13.714,0,0,1,2.459,8.1,12.88,12.88,0,0,1-2.879,7.735,13.6,13.6,0,0,1-3.1,2.821c-1.185.776-2.5,1.242-3.724,1.931a1.2,1.2,0,0,0,.6,2.21c3.273-.2,6.415-2.773,8.383-5.254a15.546,15.546,0,0,0,3.471-9.443,16.233,16.233,0,0,0-3.165-9.679,14.513,14.513,0,0,0-3.556-3.415,14.121,14.121,0,0,0-5.545-2.014.707.707,0,0,0-.375,1.362Z" transform="translate(-4710.495 -3533.569)"/></g><g transform="translate(4685.735 3555.365)"><path d="M4714.793,3565.134a21.3,21.3,0,0,1-.04,6.641,15.676,15.676,0,0,1-2.911,6.264,21.518,21.518,0,0,1-11.338,7.115,1.391,1.391,0,0,0,.737,2.682,23.474,23.474,0,0,0,12.853-8.477c2.763-3.828,4.5-10.221,1.762-14.513-.281-.439-1.12-.312-1.062.288Z" transform="translate(-4699.526 -3564.585)"/></g><g transform="translate(4661.292 3572.547)"><path d="M4696.18,3584.3c-.325,2.928-.869,6.236-2.649,8.663a7.42,7.42,0,0,1-2.646,2.289c-1.214.6-2.548.434-3.8.862a7.28,7.28,0,0,0-2.861,2.366,8.986,8.986,0,0,1-2.994,2.134,9.473,9.473,0,0,1-7.136.179c-1.7-.633-2.428,2.086-.749,2.723a11.83,11.83,0,0,0,8.38-.045,12.229,12.229,0,0,0,3.67-2.2,18.941,18.941,0,0,0,1.583-1.7,2.7,2.7,0,0,1,1.919-.99,9.493,9.493,0,0,0,7.014-4.4c1.914-2.976,2.083-6.453,1.717-9.87a.726.726,0,0,0-1.45,0Z" transform="translate(-4672.395 -3583.602)"/></g><g transform="translate(4659.976 3493.223)"><path d="M4671.571,3498.311a23.782,23.782,0,0,1,9.257.012,19.29,19.29,0,0,1,8.546,3.439,14.111,14.111,0,0,1,4.764,8.233,13.319,13.319,0,0,1,.065,5.25,23.069,23.069,0,0,1-1.686,4.749c-.19.46.49.785.8.467,1.975-2.019,2.757-5.277,2.855-8.017a15.9,15.9,0,0,0-2.021-8.7c-2.881-4.966-8.617-7.24-14.082-7.827a15.88,15.88,0,0,0-8.884,1.478c-.525.257-.148,1.045.386.916Z" transform="translate(-4670.934 -3495.809)"/></g><g transform="translate(4683.569 3507.031)"><path d="M4697.875,3513.885a18.1,18.1,0,0,1,4.438-.325,18.44,18.44,0,0,1,4.133.436,11.4,11.4,0,0,1,6.088,3.664,13.517,13.517,0,0,1,2.617,7.226,19.836,19.836,0,0,1,.169,3.666,7.094,7.094,0,0,1-.332,1.817c-.2.594-.594,1.049-.845,1.612a1.038,1.038,0,0,0,1.4,1.41,5.439,5.439,0,0,0,2.107-3.632,15.576,15.576,0,0,0,.121-4.532c-.285-3.237-.932-6.4-2.989-9a14.054,14.054,0,0,0-12.3-5.055,15.352,15.352,0,0,0-2.349.439,27.622,27.622,0,0,0-2.592,1.075.622.622,0,0,0,.328,1.2Z" transform="translate(-4697.121 -3511.091)"/></g><g transform="translate(4702.076 3525.665)"><path d="M4718.342,3534.223c5.854.062,11.714-.1,17.57-.061,2.937.021,5.875.066,8.812.164,1.072.036,2.658.392,3.663-.044,1.264-.549,1.2-2.743-.4-2.556a.981.981,0,0,0-.891.681l-.045.119c-.239.65.468,1.177,1.048,1.051l.134-.03-.9-.239.049.074-.1-.8-.034.177.489-.637c-.345.227-2.189-.036-2.872-.049q-1.774-.033-3.548-.04-4.107-.021-8.213.044a121.421,121.421,0,0,0-14.937.784c-.787.109-.57,1.351.184,1.359Z" transform="translate(-4717.664 -3531.715)"/></g><g transform="translate(4730.061 3511.974)"><path d="M4751.37,3516.909a15.713,15.713,0,0,0-.453,4.045c-.083,1.3-.171,2.61-.221,3.916s-.09,2.611-.148,3.916c-.041.9-.154,1.8-1.244,1.772a.593.593,0,0,0-.564.742c.289,1.38,2.131,1.214,2.92.434,1.136-1.122.894-3.035.91-4.485.019-1.726.025-3.45.009-5.176-.009-.839-.023-1.678-.051-2.517a10.515,10.515,0,0,0-.222-2.646.489.489,0,0,0-.936,0Z" transform="translate(-4748.726 -3516.562)"/></g><g transform="translate(4728.252 3505.003)"><path d="M4751.469,3511.216c-1.967.088-2.8,2.522-1.975,4.113.97,1.874,3.6,1.9,5.069.667,1.651-1.382,1.409-4.078.009-5.536a4.4,4.4,0,0,0-5.212-.612,4.124,4.124,0,0,0-1.831,4.9,4.612,4.612,0,0,0,1.675,2.334,4,4,0,0,0,2.952.65,3.64,3.64,0,0,0,2.6-1.739,4.664,4.664,0,0,0,.383-3.4c-.495-2-2.355-3.866-4.525-3.736-2.036.122-4.1,1.866-3.882,4.055a3.535,3.535,0,0,0,4.277,3.024,2.116,2.116,0,0,0,1.244-.971.9.9,0,0,0-.071-1,.886.886,0,0,0-.947-.323,5.522,5.522,0,0,1-.836.215c0-.016.288-.014.072-.014-.074,0-.146.006-.219,0-.272-.012,0,0,0,.007s-.271-.06-.293-.067c-.048-.013-.1-.028-.145-.044l-.071-.025c-.113-.043-.1-.035.053.024-.084.021-.327-.185-.4-.229-.205-.126.1.124.011.01a1.56,1.56,0,0,0-.143-.129c-.054-.054-.1-.114-.156-.168.2.207-.005-.012-.05-.084a1.143,1.143,0,0,0-.09-.166c-.087-.106.07.244.01.02-.019-.073-.04-.147-.061-.219-.07-.239-.012.239,0-.012,0-.087,0-.176,0-.263,0-.2,0-.005-.008.035.02-.084.036-.168.061-.25.016-.055.034-.109.055-.163-.057.13-.06.139-.007.027.072-.125.142-.248.222-.368-.145.214.015-.012.048-.049.06-.064.122-.127.186-.186.031-.028.258-.2.051-.053q.107-.079.22-.149c.05-.031.1-.061.153-.089s.39-.162.144-.076c.168-.059.336-.1.509-.146.062-.015.192-.005-.026,0,.087,0,.175-.014.263-.014s.176.006.265.012c-.273-.018.02.009.071.021.076.017.149.038.223.06.051.016.347.144.13.04a3.782,3.782,0,0,1,.479.27s.229.181.114.081.107.1.1.1a4.085,4.085,0,0,1,.382.406c-.148-.178.041.06.058.085q.078.116.149.238c.048.082.092.165.135.249.012.026.13.311.045.091a4.236,4.236,0,0,1,.147.447c.024.091.046.182.064.275.008.038.036.339.018.091a4.562,4.562,0,0,1,.01.678c0,.046-.04.269-.007.09-.019.1-.042.208-.069.311a2.111,2.111,0,0,1-.1.3c.081-.181-.077.125-.079.128-.036.06-.074.119-.115.177.129-.185-.045.042-.068.065a2.352,2.352,0,0,1-.2.182c.179-.146-.12.067-.16.088s-.105.055-.159.083c.2-.106-.051.018-.088.03-.085.029-.173.053-.262.074-.035.008-.33.052-.084.025a3.136,3.136,0,0,1-.457.018c-.034,0-.333-.034-.09,0a2.736,2.736,0,0,1-.356-.078c-.085-.025-.168-.053-.251-.084.038.013.183.092.019,0a4.669,4.669,0,0,1-.42-.254c.2.136-.014-.015-.046-.045s-.081-.074-.119-.112c-.058-.058-.11-.121-.167-.18-.072-.089-.07-.083,0,.014-.032-.044-.063-.088-.1-.135a3.649,3.649,0,0,1-.23-.391c-.031-.061-.06-.124-.088-.187.1.224-.006-.031-.018-.067a3.715,3.715,0,0,1-.128-.48c-.01-.054-.02-.108-.028-.164.04.265,0-.091,0-.143a3.741,3.741,0,0,1,.021-.491c-.026.249.041-.147.059-.215s.05-.156.076-.233c-.074.22.013-.024.033-.063.032-.061.065-.122.1-.181.025-.042.2-.278.055-.1a2.857,2.857,0,0,1,.333-.351c.028-.025.238-.179.051-.048.043-.031.087-.062.132-.091a4.031,4.031,0,0,1,.424-.235c.233-.117-.185.05.066-.024.078-.024.154-.052.232-.075a3.6,3.6,0,0,1,.478-.1c-.244.035.026,0,.065,0,.068,0,.135-.005.2-.006s.135,0,.2.005c.039,0,.308.031.064,0a3.239,3.239,0,0,1,.512.116c.064.02.126.043.189.066-.21-.076.031.015.064.033a2.7,2.7,0,0,1,.412.255c-.146-.11-.029-.023,0,0,.063.066.133.126.2.193.007.008.191.239.083.09a3.2,3.2,0,0,1,.2.311,2.13,2.13,0,0,1,.265.81c-.034-.2.005.093.006.112,0,.061,0,.122,0,.183,0,.09-.005.182-.015.272.019-.192-.036.155-.046.194a2.3,2.3,0,0,1-.082.258c.057-.148-.04.075-.056.1-.044.079-.093.157-.145.232.109-.158-.092.095-.122.124s-.224.186-.063.067a2.244,2.244,0,0,1-.207.135c-.071.042-.144.079-.218.115.176-.086-.126.042-.166.053-.065.019-.133.032-.2.051-.041.009-.082.017-.122.024.108-.013.108-.014,0,0-.083,0-.164.009-.247.008-.045,0-.372-.045-.162,0a2.31,2.31,0,0,1-.466-.131c.188.079-.049-.036-.071-.049-.047-.027-.092-.056-.137-.087.075.061.073.059-.007-.009-.037-.037-.078-.081-.118-.115-.067-.078-.068-.075,0,.01-.03-.04-.057-.081-.083-.124-.038-.063-.068-.13-.1-.2-.042-.092-.042-.089,0,.011-.017-.046-.033-.093-.046-.141s-.021-.1-.035-.145c-.018-.1-.019-.1,0,.014-.005-.05-.01-.1-.012-.15q-.005-.112,0-.225c0-.05.006-.1.012-.149-.013.1-.012.1,0,0,.013-.048.021-.1.034-.145.009-.032.111-.318.041-.153.029-.068.065-.132.1-.2a.914.914,0,0,0,.121-.258c-.031.084-.025.085.017,0,.03-.035.053-.081.08-.118-.082.106.1-.1.121-.115a1.171,1.171,0,0,1,.33-.23.6.6,0,0,0-.3-1.1Z" transform="translate(-4746.717 -3508.847)"/></g><g transform="translate(4731.706 3506.436)"><path d="M4753.219,3510.518a6.094,6.094,0,0,0-2.2,1.9,2.906,2.906,0,0,0-.244,2.7,2.314,2.314,0,0,0,2.219,1.519,2.473,2.473,0,0,0,2.054-1.427,4.68,4.68,0,0,0,.382-2.906,1.021,1.021,0,0,0-.979-.747c-.379,0-.759,0-1.139-.016a1.081,1.081,0,0,0-1.013.772c-.209.522-.4,1.048-.6,1.576l2.152.6a2.945,2.945,0,0,0-.062-1.513c-.208-.626-.88-1.4-1.61-1.205a.929.929,0,0,0-.573.443,1.288,1.288,0,0,0,0,1.071c.021.12.02.093-.007-.081l.039.294a1.291,1.291,0,0,0,.065.278c-.021-.178-.024-.205-.015-.082,0,.047,0,.095,0,.143,0,.079-.047.411,0,.058a1.232,1.232,0,0,0,.112.863,1.115,1.115,0,0,0,2.04-.267c.163-.536.324-1.071.473-1.611l-1.013.774c.38-.027.76-.039,1.139-.054l-.979-.747c.017.071.029.143.043.214.03.169-.019-.261-.007-.019.008.153.017.3.011.457,0,.068-.008.135-.014.2,0,.037-.013.078-.013.114,0-.015.045-.253.011-.092-.03.138-.057.276-.1.411-.011.035-.106.28-.035.116s-.021.039-.041.079-.059.107-.089.159c-.019.029-.04.057-.058.086-.055.1.151-.173.045-.055-.039.042-.076.086-.118.126-.021.022-.049.041-.07.065-.06.065.1-.077.1-.077a1.06,1.06,0,0,0-.162.1c-.075.046-.092-.012.1-.038a.694.694,0,0,0-.092.03c-.031.009-.062.015-.093.023-.1.026-.065-.044.1-.012a1.041,1.041,0,0,0-.183,0c-.039,0-.168-.011-.01,0s.052.009.019,0-.069-.021-.1-.03c-.152-.041.141.085.055.023a.691.691,0,0,0-.156-.1c.114.021.141.125.065.048-.024-.025-.052-.049-.077-.074s-.148-.2-.07-.068-.06-.095-.082-.135-.086-.229-.053-.093-.021-.062-.034-.1c-.022-.073-.036-.147-.056-.221-.011-.042,0-.109,0,.005-.006.148,0-.016,0-.053,0-.067-.008-.133-.007-.2,0-.038,0-.076,0-.113l0-.028c.008-.076.008-.075,0,0,.024.048-.018.08,0,0,.012-.042.02-.083.031-.125.025-.091.057-.18.09-.267-.056.146-.013.031,0,0,.027-.052.053-.1.082-.156.052-.092.107-.183.168-.27l.062-.086c.047-.064-.054.06.035-.042.071-.081.142-.163.217-.242.142-.148.291-.288.446-.423.073-.063.147-.125.223-.186.094-.076.156-.123.208-.163a.673.673,0,0,0,.232-.889.656.656,0,0,0-.886-.232Z" transform="translate(-4750.552 -3510.432)"/></g><g transform="translate(4626.061 3495.681)"><path d="M4633.635,3499.752a15.7,15.7,0,0,0,4.034.454c1.3.083,2.6.17,3.9.221s2.6.091,3.9.149c.9.04,1.792.155,1.766,1.247a.592.592,0,0,0,.739.565c1.377-.29,1.211-2.136.433-2.928-1.119-1.14-3.025-.9-4.472-.912-1.722-.019-3.439-.026-5.16-.009-.837.008-1.673.023-2.511.05a10.49,10.49,0,0,0-2.64.223.492.492,0,0,0,0,.94Z" transform="translate(-4633.29 -3498.529)"/></g><g transform="translate(4619.11 3492.347)"><path d="M4627.937,3499.1c.089,1.972,2.515,2.806,4.1,1.98,1.869-.972,1.892-3.609.665-5.083-1.378-1.656-4.067-1.414-5.52-.009a4.435,4.435,0,0,0-.61,5.227,4.1,4.1,0,0,0,4.886,1.835,4.589,4.589,0,0,0,2.327-1.68,4.025,4.025,0,0,0,.648-2.96,3.649,3.649,0,0,0-1.734-2.609,4.63,4.63,0,0,0-3.393-.385,4.748,4.748,0,0,0-3.725,4.539c.12,2.041,1.861,4.109,4.042,3.892a3.541,3.541,0,0,0,3.016-4.289,2.119,2.119,0,0,0-.968-1.247.907.907,0,0,0-1.324,1.02,5.509,5.509,0,0,1,.215.839c-.018,0-.013-.289-.013-.073,0,.073,0,.146,0,.22-.012.272,0,0,.006,0s-.06.27-.067.293c-.012.049-.027.1-.043.145l-.025.072q-.067.17.024-.054c.021.086-.185.329-.229.4-.126.2.124-.1.009-.011a1.774,1.774,0,0,0-.128.142c-.054.055-.113.1-.168.157.208-.2-.012.005-.084.049a1.507,1.507,0,0,0-.166.09c-.1.087.245-.069.02-.009-.072.019-.146.039-.218.061-.237.07.239.012-.011,0-.088,0-.175,0-.263,0-.2,0-.005,0,.035.006-.083-.02-.167-.035-.249-.06-.054-.017-.109-.035-.162-.055.13.057.138.06.027.007-.125-.073-.248-.142-.367-.223.213.146-.013-.015-.049-.049-.064-.059-.125-.121-.186-.185-.029-.031-.2-.259-.054-.052-.051-.072-.1-.146-.148-.22-.032-.051-.062-.1-.089-.154s-.161-.392-.076-.144c-.058-.17-.1-.337-.145-.511-.015-.063-.005-.194,0,.025,0-.088-.012-.175-.013-.265s.006-.176.012-.264c-.019.273.009-.02.021-.072.017-.075.037-.149.061-.223.015-.051.142-.347.04-.129a3.615,3.615,0,0,1,.27-.48s.179-.231.08-.114.1-.108.1-.1a4.484,4.484,0,0,1,.405-.383c-.177.149.061-.041.085-.057.078-.052.157-.1.238-.15s.164-.093.248-.135c.027-.014.31-.132.09-.047a4.565,4.565,0,0,1,.446-.147c.091-.024.182-.046.275-.064.037-.007.337-.036.088-.017a4.512,4.512,0,0,1,.677-.01c.046,0,.269.039.09.007a2.994,2.994,0,0,1,.31.07,2.191,2.191,0,0,1,.3.1c-.179-.079.125.078.128.08.061.036.119.075.177.115-.186-.13.041.046.064.07a2.185,2.185,0,0,1,.182.2c-.146-.179.066.121.089.16s.055.107.082.16c-.1-.2.018.052.031.088.028.087.054.174.074.263.008.035.052.331.024.085a3.121,3.121,0,0,1,.018.458c0,.033-.034.333,0,.091a2.908,2.908,0,0,1-.077.358c-.024.085-.054.168-.085.251.015-.037.093-.184,0-.018a4.743,4.743,0,0,1-.253.42c.136-.2-.016.015-.045.048s-.074.08-.113.118c-.057.059-.12.111-.178.168-.088.073-.084.071.013,0-.042.034-.088.065-.133.1a3.821,3.821,0,0,1-.39.231c-.062.031-.124.061-.187.089.222-.1-.031.005-.067.018a3.636,3.636,0,0,1-.479.127c-.055.011-.108.02-.163.028.263-.039-.092,0-.142,0a3.488,3.488,0,0,1-.49-.021c.249.026-.146-.04-.215-.059s-.155-.051-.232-.077c.22.074-.024-.013-.062-.032-.062-.031-.122-.065-.18-.1-.042-.025-.278-.2-.1-.055a3.01,3.01,0,0,1-.35-.333c-.025-.029-.178-.239-.047-.052-.031-.044-.063-.088-.092-.133a4.129,4.129,0,0,1-.234-.425c-.116-.233.049.185-.024-.067-.023-.078-.053-.153-.075-.232a3.745,3.745,0,0,1-.1-.479c.036.244,0-.027,0-.066,0-.068-.007-.136-.007-.2s0-.136,0-.2c0-.039.033-.309,0-.066a3.341,3.341,0,0,1,.115-.512c.021-.064.043-.127.066-.19-.075.211.016-.03.034-.064a2.841,2.841,0,0,1,.253-.412c-.108.146-.021.029,0,0,.066-.064.124-.135.192-.2.008-.007.238-.191.09-.083a3,3,0,0,1,.309-.2,2.114,2.114,0,0,1,.808-.267c-.2.034.093-.005.113-.006.06,0,.12,0,.181,0,.091,0,.181.006.271.015-.191-.019.155.035.193.045.088.023.173.051.257.082-.147-.056.075.041.1.057a2.424,2.424,0,0,1,.231.145c-.157-.11.1.093.125.123s.186.223.065.063a2.464,2.464,0,0,1,.136.206c.042.071.078.145.115.219-.086-.177.042.126.052.165.02.067.033.135.05.2.01.04.017.08.024.121-.012-.108-.013-.107,0,0,0,.082.009.164.008.247,0,.045-.045.373,0,.164a2.339,2.339,0,0,1-.13.466c.079-.187-.036.051-.049.073-.027.046-.055.091-.086.135.062-.075.059-.073-.009.008-.036.037-.081.078-.114.118-.078.067-.074.068.01,0-.041.029-.081.057-.124.082-.064.039-.129.071-.2.1-.092.043-.089.042.011,0-.047.016-.094.032-.142.045s-.1.021-.143.036c-.1.017-.1.019.013,0-.05.005-.1.009-.149.011-.075,0-.149,0-.225,0-.05,0-.1-.006-.149-.012.1.015.1.012,0,0-.048-.013-.1-.021-.146-.034-.032-.008-.316-.11-.151-.04-.069-.029-.131-.066-.2-.1a.92.92,0,0,0-.257-.121c.084.032.085.026,0-.017-.036-.03-.082-.052-.118-.08.107.082-.1-.1-.114-.12a1.217,1.217,0,0,1-.23-.331.6.6,0,0,0-1.1.3Z" transform="translate(-4625.575 -3494.84)"/></g><g transform="translate(4620.539 3492.932)"><path d="M4627.245,3497.785a6.11,6.11,0,0,0,1.9,2.206,2.883,2.883,0,0,0,2.689.245,2.323,2.323,0,0,0,1.515-2.225,2.483,2.483,0,0,0-1.424-2.059,4.632,4.632,0,0,0-2.9-.383,1.025,1.025,0,0,0-.745.981c0,.381,0,.761-.016,1.142a1.084,1.084,0,0,0,.771,1.017c.521.209,1.045.406,1.57.6l.594-2.16a2.924,2.924,0,0,0-1.507.063c-.624.209-1.4.884-1.2,1.615a.937.937,0,0,0,.442.576,1.28,1.28,0,0,0,1.068,0c.119-.022.092-.019-.082.007l.293-.04a1.262,1.262,0,0,0,.278-.065q-.267.031-.083.014c.048,0,.1,0,.143,0,.08,0,.41.047.058,0a1.228,1.228,0,0,0,.861-.113,1.121,1.121,0,0,0-.267-2.047c-.534-.163-1.067-.325-1.605-.474l.771,1.016c-.027-.38-.039-.761-.054-1.142l-.746.982c.071-.016.142-.029.214-.042.168-.031-.26.018-.019.005.152-.007.3-.015.455-.01.067,0,.134.007.2.013.037,0,.078.013.113.013-.016,0-.252-.044-.093-.01.139.03.276.056.411.1.035.01.278.106.115.035s.04.02.079.041.107.058.159.091c.029.018.056.04.085.056.1.056-.172-.152-.055-.044.043.039.086.076.126.117.022.023.041.051.064.072.066.059-.077-.1-.076-.1a1.1,1.1,0,0,0,.1.162c.046.077-.012.093-.039-.1a.69.69,0,0,0,.03.091c.009.031.015.063.024.095.026.095-.044.064-.013-.106a.993.993,0,0,0,0,.182c0,.04-.012.169,0,.011s.009-.052,0-.019-.021.07-.03.1c-.041.154.084-.141.022-.056a.664.664,0,0,0-.1.158c.02-.114.124-.142.047-.066-.026.024-.049.052-.074.078s-.2.148-.067.071l-.135.082c-.042.023-.228.086-.092.053s-.061.02-.1.033c-.073.022-.147.037-.221.056-.041.01-.109,0,0,0,.148.006-.015,0-.051,0-.067,0-.133.007-.2.006l-.113-.006-.028,0c-.075-.008-.074-.007,0,0,.048-.025.08.016,0,0-.041-.012-.083-.02-.124-.031-.091-.025-.179-.057-.268-.09.145.055.032.012,0,0-.053-.027-.1-.053-.156-.081-.092-.052-.181-.108-.268-.169l-.086-.061c-.064-.047.06.054-.041-.035-.082-.072-.164-.142-.242-.218-.148-.142-.289-.293-.423-.448-.062-.073-.124-.147-.185-.223-.076-.093-.123-.155-.163-.208a.665.665,0,0,0-.885-.233.659.659,0,0,0-.233.888Z" transform="translate(-4627.16 -3495.487)"/></g><g transform="translate(4706.583 3540.342)"><path d="M4723.195,3551.6c3.3.245,6.652.13,9.958.122q5.453-.015,10.909-.084c7.142-.092,14.286-.25,21.426-.43q1.318-.033,2.636-.068a2.813,2.813,0,0,0,2.309-.714c1.354-1.652-1.442-3.529-2.221-1.743a1.046,1.046,0,0,0,1.161,1.514l.151-.026-1.076-.285-.183-.361.373-.9c.2-.19-.61-.042-.836-.033l-1.311.043-2.708.088q-2.854.089-5.708.175c-4.033.125-8.064.269-12.1.4s-8.064.329-12.1.51c-3.6.161-7.26.254-10.83.736-.631.085-.419,1.012.142,1.053Z" transform="translate(-4722.667 -3547.959)"/></g><g transform="translate(4749.112 3538.207)"><path d="M4776.64,3546.878a2.792,2.792,0,0,0-3.957,1.647,2.573,2.573,0,0,0,.688,2.491,3.3,3.3,0,0,0,2.356.961,2.827,2.827,0,0,0,2.322-1.31,3.416,3.416,0,0,0,.411-2.512c-.419-2.134-2.757-2.8-4.646-2.489a4.72,4.72,0,0,0-3.832,3.18c-.544,2.126.977,4.083,2.874,4.836a4.637,4.637,0,0,0,5.082-1.061,4.237,4.237,0,0,0,.429-4.8,3.426,3.426,0,0,0-4.792-1.177,2.849,2.849,0,0,0-1.359,2.555,3.04,3.04,0,0,0,1.554,2.444,2.358,2.358,0,0,0,1.645.215,1.1,1.1,0,0,0,.8-1.056l-.081-1.04a3.54,3.54,0,0,0-.072-.618,3,3,0,0,0-.248-.558.758.758,0,0,0-1.3,0,2.717,2.717,0,0,0-.25.5,3.867,3.867,0,0,0-.105.675l-.128,1.04,1.092-1.1c-.076,0-.149,0-.226-.008-.25-.012.237.082.006,0,.011,0-.14-.04-.139-.043-.006.021.243.1,0-.016-.216-.1.158.169-.014,0-.035-.035-.074-.068-.109-.1l-.051-.056c-.078-.092-.065-.077.033.047a1.025,1.025,0,0,1-.156-.265c0-.005.089.269.024.055-.022-.073-.042-.148-.063-.221-.072-.238-.014.242,0,0,0-.048,0-.1,0-.152-.006-.241-.082.222.006,0l.021-.073q.061-.171-.026.05a.661.661,0,0,1,.074-.136,1.527,1.527,0,0,1,.084-.128c-.1.123-.106.139-.028.048a.882.882,0,0,0,.138-.133c.075-.112-.211.125-.01.009.066-.038.136-.078.2-.119.2-.131-.16.034-.016,0s.276-.085.416-.118c.238-.059-.163-.022-.02,0a2.394,2.394,0,0,0,.277-.005l.079,0q.186.019-.059-.01a.806.806,0,0,1,.154.033c.041.011.2.037.225.071l-.125-.053c.043.021.086.042.128.065s.082.046.122.072c.214.135-.01.03,0-.009,0,.01.26.253.3.292.165.174-.126-.21,0,0,.036.06.075.117.111.178.022.041.045.082.066.124.117.232-.017.009,0-.005,0,0,.1.3.109.339.019.069.031.14.047.209.053.217-.009-.256.005.029.007.133.016.264.011.4,0,.061-.008.12-.011.181-.011.224-.04-.027.007-.042a3.351,3.351,0,0,0-.09.386c-.017.057-.039.113-.056.17-.059.18.108-.208-.036.065-.021.042-.156.312-.187.305.027.006.159-.183-.008,0-.035.039-.071.076-.108.113-.059.058-.123.111-.184.166.2-.179.007-.007-.042.024a3.883,3.883,0,0,1-.427.238c.256-.127-.122.037-.2.06a2.111,2.111,0,0,1-.482.1c.033,0,.246-.019.043-.011-.083,0-.166.01-.25.012a1.589,1.589,0,0,1-.5-.024c.246.094.034,0-.042-.011s-.137-.029-.2-.045c-.15-.037-.293-.088-.44-.136-.256-.083.136.074-.012,0-.061-.033-.126-.061-.187-.093a4.8,4.8,0,0,1-.426-.264c-.227-.153.164.167-.05-.045-.068-.067-.141-.127-.208-.2-.044-.046-.088-.092-.129-.139-.021-.023-.2-.27-.069-.079a3.634,3.634,0,0,1-.248-.4c-.018-.034-.12-.312-.044-.086a3.435,3.435,0,0,1-.107-.36c-.015-.061-.026-.123-.036-.184.038.241.008-.019.007-.061,0-.079.006-.156.008-.235,0-.156-.031.013-.008.054-.042-.077.1-.359.12-.439-.01.031-.1.209-.017.043.047-.09.092-.181.146-.267.032-.052.079-.1.105-.159.064-.129-.161.175,0,0,.1-.106.193-.212.3-.31.049-.044.1-.087.15-.13-.189.164.011-.005.05-.031a4.157,4.157,0,0,1,.417-.251c.073-.038.149-.07.222-.108-.178.095-.066.025-.017.007.155-.058.31-.113.47-.155.133-.036.269-.062.4-.09.267-.056-.217.013.055-.007.082-.005.163-.013.245-.015.169-.006.334,0,.5.015.031,0,.2.025.028,0,.1.014.2.033.293.057s.19.055.285.08c.024.006.18.068.037.006a2.062,2.062,0,0,1,.26.136c.057.034.112.071.165.11-.095-.075-.115-.089-.06-.042a.742.742,0,0,0,.129.127c.17.154-.094-.173.023.024.063.1.123.205.176.315-.117-.239.027.137.05.211s.033.237.007-.011a2.683,2.683,0,0,1,.018.294c0,.086-.068.438,0,.174-.029.118-.06.234-.09.352-.061.226.1-.17-.013.031-.035.062-.071.125-.1.188-.079.146,0,.005.028-.024-.061.075-.13.139-.2.209-.153.162.167-.081-.033.024-.064.034-.127.073-.191.107.21-.113.023-.013-.036,0s-.14.032-.209.047c.255-.052.034-.01-.027-.009a2.354,2.354,0,0,1-.288-.015c.036,0,.208.046.042,0l-.281-.079c-.213-.061.1.076-.005,0-.067-.048-.154-.078-.225-.121-.038-.023-.23-.169-.043-.017a2.147,2.147,0,0,1-.162-.144c-.052-.051-.1-.1-.146-.158.113.145.083.108-.086-.113.069.09.083.107.045.049a.738.738,0,0,0-.09-.153c-.045-.094-.042-.085.007.027-.017-.045-.031-.091-.044-.137s-.021-.094-.032-.141c.048.223.007-.069.009-.128,0-.039.029-.27-.008-.057.013-.071.035-.14.049-.211.042-.2-.073.111.026-.073.035-.064.069-.129.107-.192,0-.007.147-.192.055-.082a2.373,2.373,0,0,1,.2-.213,1.22,1.22,0,0,1,1.28-.282.529.529,0,0,0,.534-.914Z" transform="translate(-4769.871 -3545.594)"/></g><g transform="translate(4702.045 3556.604)"><path d="M4718.124,3567.258c5.111.615,10.339.588,15.479.736,5.16.149,10.32.236,15.48.371l-1.125-1.128c-.01,2.03-.006,4.06-.009,6.091l0,4.081a3.36,3.36,0,0,0,.506,2.414l-.262-.633v.005a.894.894,0,0,0,1.788,0v-.005l-.262.633a3.235,3.235,0,0,0,.507-2.331l-.005-4.164c0-2.031,0-4.061-.009-6.091a1.144,1.144,0,0,0-1.124-1.128q-7.74-.131-15.48-.124c-5.142,0-10.349-.155-15.479.242a.516.516,0,0,0,0,1.031Z" transform="translate(-4717.629 -3565.957)"/></g><g transform="translate(4666.065 3485.151)"><path d="M4720.36,3487.935a95.7,95.7,0,0,0-10.047-.509c-3.515-.1-7.032-.2-10.549-.248q-10.438-.155-20.876-.3a1.2,1.2,0,0,0-1.187,1.191l-.005,3.833,0,2.529a4.1,4.1,0,0,0,.069,1c.021.082.058.158.081.24.153.552,0,.261,0-.155a1.042,1.042,0,0,0,2.083,0c0,.1-.208.891,0,.181.021-.074.053-.146.073-.22a3.79,3.79,0,0,0,.085-1.042q0-1.265,0-2.529l-.006-3.833-1.187,1.191q10.326.108,20.65.188c3.442.03,6.884.013,10.326,0a96.245,96.245,0,0,0,10.325-.253c.645-.072.95-1.156.17-1.261Z" transform="translate(-4677.692 -3486.875)"/></g><g transform="translate(4705.264 3483.854)"><path d="M4723.853,3486.144a2.809,2.809,0,0,0-1.646,1.635,2.542,2.542,0,0,0,.192,2.288,2.909,2.909,0,0,0,1.894,1.319,2.705,2.705,0,0,0,2.277-.6,3.1,3.1,0,0,0,.652-3.843,3.386,3.386,0,0,0-3.836-1.343,3.051,3.051,0,0,0-1.738,1.41,3.548,3.548,0,0,0-.434,2,3.81,3.81,0,0,0,.822,2.091,2.905,2.905,0,0,0,1.737,1.032,3.6,3.6,0,0,0,3.769-1.853,3.023,3.023,0,0,0,.212-2.287,3.561,3.561,0,0,0-1.4-1.807,3.114,3.114,0,0,0-4.234.541,2.377,2.377,0,0,0-.251,2.7,2.119,2.119,0,0,0,2.356.906,1.41,1.41,0,0,0,1.022-1.1.951.951,0,0,0-.328-.965.926.926,0,0,0-1.016-.071c-.125.067.246-.071.064-.032-.106.023.22-.026.182-.021a2.029,2.029,0,0,0-.3.044.753.753,0,0,0-.139.043s.265-.023.184-.024c-.029,0-.056,0-.085,0l-.065,0c-.15,0,.162.019.165.023-.02-.02-.1-.021-.13-.028-.052-.012-.1-.032-.152-.045-.084-.021.162.063.163.069a.517.517,0,0,0-.081-.043c-.011-.006-.074-.05-.076-.049s.191.169.137.1a.989.989,0,0,0-.1-.1c-.063-.054.111.129.1.137s-.039-.068-.046-.077c-.021-.032-.061-.135.021.051s.026.057.016.008c-.062-.241,0,.218.006.043a.822.822,0,0,0,0-.085c-.009-.125-.018.184-.025.156-.014-.049.031-.144.047-.193.07-.22-.1.175-.013.025.034-.059.073-.117.1-.176.057-.1-.084.126-.084.106s.047-.057.057-.067c.047-.052.1-.1.146-.147.122-.12-.207.138-.012.01a1.478,1.478,0,0,1,.169-.1c.021-.012.045-.021.067-.032.088-.05-.15.077-.149.063,0-.036.293-.079.33-.089-.309.093-.2.021-.076.014.056,0,.114,0,.17,0s.1.007.146.009.144.018-.049-.007c-.214-.029-.042,0,0,0a2.33,2.33,0,0,1,.309.087c.046.016.219.087.032.009s.029.02.071.042c.1.052.184.113.273.175.145.1-.191-.167-.064-.048.049.046.1.088.147.135s.07.071.1.108a.426.426,0,0,1,.064.076c0,.019-.152-.214-.1-.125s.128.19.181.293c.022.042.1.213.018.024s0,.006.011.052.026.095.038.143c0,.011.019.1.018.1s-.025-.3-.02-.145c0,.109,0,.218,0,.326s.012-.173.024-.169-.012.068-.013.072c-.015.064-.028.128-.049.19-.029.1-.125.246.035-.057-.023.043-.041.09-.064.133s-.121.276-.182.29c-.025.006.177-.2.1-.125-.018.016-.032.038-.048.056-.038.043-.078.086-.119.126s-.083.08-.128.118c-.018.016-.039.031-.056.048-.085.083.205-.142.1-.081s-.179.121-.274.174c-.052.028-.106.051-.157.079-.1.057.166-.082.149-.061s-.072.029-.094.036a2.391,2.391,0,0,1-.31.091c-.021,0-.169.037-.169.033s.266-.025.17-.024c-.032,0-.065.005-.1.007a2.622,2.622,0,0,1-.319-.005c-.179-.01.29.059.076.007-.057-.013-.112-.025-.167-.042s-.109-.042-.164-.057c-.1-.027.163.053.149.062a.332.332,0,0,1-.067-.032c-.049-.027-.1-.053-.146-.083s-.206-.15-.042-.022,0,0-.032-.035-.068-.065-.1-.1-.165-.2-.036-.032,0,0-.024-.041a3.162,3.162,0,0,1-.162-.289c-.081-.153.091.25.034.087-.021-.06-.043-.12-.062-.181-.03-.1-.052-.2-.073-.3-.041-.2.014.169.012.1s-.012-.128-.015-.192a2.559,2.559,0,0,1,0-.312c0-.023.008-.048.008-.071,0-.09-.017.168-.024.169a1.9,1.9,0,0,0,.036-.188,2.641,2.641,0,0,1,.088-.3.357.357,0,0,1,.024-.066c.02,0-.115.231-.061.148.034-.052.056-.113.086-.167s.05-.08.075-.12c.11-.177-.152.172-.039.045.075-.085.154-.163.237-.24.125-.118-.2.137-.054.042.05-.032.1-.068.148-.1s.087-.052.131-.076.062-.027.09-.044c.1-.06-.22.079-.109.045s.207-.072.315-.1c.049-.011.1-.02.15-.03.163-.034-.122.017-.119.015a.322.322,0,0,1,.1-.009,2.5,2.5,0,0,1,.331,0c.1.006.241.069-.035-.01.057.016.118.021.174.034a3.076,3.076,0,0,1,.313.1c.147.051-.212-.11-.022-.006.052.028.1.053.153.085.021.014.041.03.063.042.1.056-.154-.136-.072-.056.035.034.076.065.112.1s.08.086.12.128c.1.1-.11-.178-.01-.008.029.05.062.1.089.149.011.021.02.045.032.065.049.077-.046-.116-.045-.113.018.107.067.219.094.325.038.154-.016-.233,0-.033,0,.049.006.1.006.146s0,.114,0,.171c0,.023-.007.049-.007.073,0,.109.041-.21.015-.1s-.042.208-.073.311c-.016.054-.041.106-.056.162-.024.089.049-.113.046-.109a.588.588,0,0,0-.042.089,2.958,2.958,0,0,1-.163.271c-.114.174.114-.123.012-.015-.044.046-.086.094-.131.139a.931.931,0,0,0-.107.095s.168-.111.092-.072c-.021.011-.039.028-.059.041-.047.031-.1.057-.144.085-.167.1.191-.057,0,0-.047.014-.092.03-.139.042-.091.023-.232,0,.006.01-.055,0-.111.009-.167.01a.929.929,0,0,0-.222-.01s.2.036.1.011l-.082-.016c-.062-.014-.125-.032-.187-.052a.392.392,0,0,0-.079-.028s.173.082.087.037c-.065-.034-.133-.066-.2-.1s-.093-.062-.141-.091c-.08-.051.071.055.071.056a.61.61,0,0,0-.083-.073c-.041-.038-.081-.078-.119-.118a.711.711,0,0,0-.073-.085.45.45,0,1,0,.041.049c-.03-.048-.061-.094-.088-.143a.612.612,0,0,0-.05-.1s.063.176.035.085c-.015-.053-.036-.1-.05-.159-.007-.026-.012-.053-.02-.08-.052-.194.039.328-.011-.043-.046-.341.009.167-.007-.072a1.793,1.793,0,0,1,0-.192.753.753,0,0,0,0-.081c-.006-.087-.009.083-.015.092.031-.04.029-.162.044-.216s.032-.1.048-.157c.041-.135-.071.14.011-.031.024-.049.051-.1.078-.145.017-.027.144-.211.077-.123s.062-.068.081-.087c.038-.039.078-.075.118-.112.1-.095-.1.06.02-.013.063-.039.124-.076.189-.11a.738.738,0,0,0,.3-.925.73.73,0,0,0-.871-.429Z" transform="translate(-4721.201 -3485.439)"/></g><g transform="translate(4666.249 3591.35)"><path d="M4678.242,3604.932a37.766,37.766,0,0,0-.276,7.887c.025,1.281.077,2.56.185,3.836a3.607,3.607,0,0,0,.413,1.735,1.5,1.5,0,0,0,1.677.8c.892-.274.783-1.848-.232-1.718.03,0,.263.091.224.125.04-.034-.027-.339-.032-.386q-.029-.32-.058-.642c-.042-.5-.073-1-.1-1.5-.073-1.157-.145-2.314-.191-3.472-.085-2.151.014-4.331-.194-6.472-.071-.745-1.243-1.052-1.411-.192Z" transform="translate(-4677.896 -3604.412)"/></g><g transform="translate(4667.067 3603.967)"><path d="M4679.579,3620.247c2.951.186,5.925.146,8.881.2,1.428.024,2.855.03,4.283.042.762.006,1.537.046,2.3,0a2.256,2.256,0,0,0,1.8-.559.721.721,0,0,0,0-.978,2.263,2.263,0,0,0-1.8-.559c-.763-.041-1.536,0-2.3,0-1.428.011-2.855.017-4.283.042-2.956.05-5.93.011-8.881.2a.806.806,0,0,0,0,1.61Z" transform="translate(-4678.804 -3618.376)"/></g><g transform="translate(4727.97 3568.803)"><path d="M4748.724,3582.112a5.935,5.935,0,0,0-1.462,3.139,7.982,7.982,0,0,0-.221,1.881,2.305,2.305,0,0,0,1.221,1.9,6.448,6.448,0,0,0,6.4-.043c2.2-1.232,3.927-4.172,2.438-6.582a6.064,6.064,0,0,0-2.937-2.277,7.673,7.673,0,0,0-4.195-.592,4.324,4.324,0,0,0-3.346,2.7,4.49,4.49,0,0,0-.083,2.465,6.156,6.156,0,0,0,.411,1.24,3.9,3.9,0,0,0,.812,1.028,1.052,1.052,0,0,0,1.778-.739,6.956,6.956,0,0,0-.273-1.593,2.633,2.633,0,0,1-.214-1.355c-.028.241.064-.208.063-.205.016-.06.122-.234.014-.045a3.133,3.133,0,0,1,.189-.313c-.043.06-.144.138.024-.013.091-.083.171-.173.267-.25-.056.044-.17.1.032-.011.108-.059.214-.124.323-.183.228-.124-.129.015.145-.055a3.188,3.188,0,0,1,1.2-.133,6.193,6.193,0,0,1,1.458.32c.2.064.4.134.591.213-.212-.087-.019-.006.019.013.107.055.218.1.325.163a5.522,5.522,0,0,1,.515.311c.065.044.132.09.195.139-.211-.165.145.144.179.178.054.054.1.111.158.167.234.248-.092-.2.072.1.034.062.076.134.116.192.177.266-.036-.209.047.1.02.073.042.147.064.219.082.282.036-.188.021.175,0,.1,0,.2-.011.293.019-.139-.07.25-.087.3a3.416,3.416,0,0,1-.515.94c.15-.2-.165.178-.231.247s-.159.155-.242.229c-.021.02-.3.242-.085.08a5.956,5.956,0,0,1-.955.565c-.319.158.229-.064-.111.043-.07.022-.14.051-.211.073a5.639,5.639,0,0,1-.646.169s-.355.058-.164.032-.17.015-.166.015c-.185.013-.371.019-.556.018a5.334,5.334,0,0,1-.551-.032c.248.026,0,0-.059-.015-.127-.028-.253-.053-.378-.087-.07-.019-.142-.041-.211-.063-.044-.014-.44-.183-.233-.083-.067-.033-.134-.064-.2-.1s-.139-.076-.207-.118c.06.056.06.057,0,.005l-.045-.038q-.175-.192.014.063c-.036,0-.051-.262-.055-.292-.034-.261-.047-.528-.065-.791a3.871,3.871,0,0,1,.55-2.8c.512-.636-.31-1.521-.916-.918Z" transform="translate(-4746.403 -3579.458)"/><g transform="translate(2.029 0.799)"><path d="M4750.287,3582.893l.064-.066c.524-.541-.246-1.261-.807-.81a2.9,2.9,0,0,0-.825,1.852,6,6,0,0,0,.087,2.214,1.027,1.027,0,0,0,.857.741,1.012,1.012,0,0,0,1.029-.494,11.629,11.629,0,0,0,.837-4.375,1.133,1.133,0,0,0-1.121-1.123,1.152,1.152,0,0,0-1.121,1.123,11.524,11.524,0,0,0,.111,3.009c.167,1.026.67,2.23,1.91,2.182a1.211,1.211,0,0,0,1.048-.6,14.942,14.942,0,0,0,1.43-4.944h-2.532c.115.9-.151,1.781-.073,2.676a3.46,3.46,0,0,0,1.365,2.609,1.265,1.265,0,0,0,1.309,0,1.375,1.375,0,0,0,.642-1.123c-.037.28.026-.113.031-.135.02-.1.042-.2.065-.3q.077-.327.184-.645c.032-.1.074-.19.1-.287.042-.136-.066.134.033-.081s.213-.438.334-.65l-2.439-.663-.1,2.151a10,10,0,0,0-.044,1.053,1.533,1.533,0,0,0,1.287,1.489c1.053.141,1.615-.661,2.136-1.427l1.269-1.866-2.429-.319c.166,1.03.179,2.412,1.5,2.59a1.376,1.376,0,0,0,1.543-1.393,1.319,1.319,0,0,0-1.657-1.267,1.232,1.232,0,0,0-.876,1.021,1.205,1.205,0,0,0,.585,1.224l.034.014-.569-.743.007.036v-.668l-.015.043.326-.562.188-.145,1-.132-.044-.008.583.341q.275.657.187.314l-.022-.125c-.026-.146-.049-.292-.074-.437-.046-.271-.09-.542-.136-.813a1.313,1.313,0,0,0-1.1-.955,1.351,1.351,0,0,0-1.324.636l-.917,1.361-.458.68c-.064.095-.128.189-.191.284l.055-.081a.817.817,0,0,1,.579-.234l.667.182.158.125.339.584c.011.181.017.181.018,0l.005-.134.016-.4.034-.806.065-1.614a1.318,1.318,0,0,0-2.439-.662,9.263,9.263,0,0,0-1.083,3.423l1.951-1.123c.122.092.138.092.019-.015s.1.178.036.041c-.024-.054-.115-.142-.113-.205,0,.062.074.217.027.044-.021-.079-.044-.155-.061-.233-.008-.031-.014-.063-.02-.1-.018-.1-.014-.063.01.1a4.2,4.2,0,0,0-.021-.437c0-.383.05-.764.077-1.146a6.608,6.608,0,0,0-.068-1.429,1.255,1.255,0,0,0-1.389-.91,1.287,1.287,0,0,0-1.1,1.247c-.008.084-.017.167-.026.25s-.023.173,0,.036c-.027.187-.058.372-.093.557-.065.35-.145.7-.238,1.04-.088.323-.186.643-.294.959-.061.178-.126.354-.195.53-.008.02-.091.228-.056.144s-.091.205-.09.2l1.048-.6a.951.951,0,0,1,.488.226q.139.2.032.028.079.22.012.03c-.021-.07-.042-.142-.058-.214-.081-.319-.144-.643-.194-.968-.013-.083-.013-.087,0-.016-.011-.087-.02-.175-.028-.263-.017-.175-.03-.35-.037-.527-.016-.352-.011-.7.008-1.054h-2.242a13.056,13.056,0,0,1-.482,3.578l1.887-.248a4.026,4.026,0,0,1-.263-1.3c-.012-.518.135-1.048.088-1.56l-1.122.152.02.088a.524.524,0,0,0,.87.231Z" transform="translate(-4748.656 -3580.343)"/></g></g><g transform="translate(4702.711 3482.463)"><path d="M4720.577,3485.319a4.884,4.884,0,0,0-2.1,5.1,3.569,3.569,0,0,0,1.694,2.369,7.548,7.548,0,0,0,3.392.622c2.208.021,4.656-.946,5.321-3.267.648-2.261-1.108-4.644-3.056-5.616a5.51,5.51,0,0,0-3.691-.5c-1.25.273-2.977,1.341-2.577,2.853a1.044,1.044,0,0,0,.985.752,1.535,1.535,0,0,0,.809-.187c.036-.019.238-.146.094-.061-.228.135.293-.128.369-.173.136-.078.265-.166.406-.237.071-.035.143-.067.214-.1.336-.16-.257.066.1-.038.152-.044.3-.087.458-.123.258-.06.039-.009-.02,0,.08-.007.159-.015.238-.018q.149-.006.3,0c.042,0,.293.013.114,0s.079.014.124.023q.186.038.367.092c.08.024.159.058.238.08.2.056-.167-.094.019.006.167.091.338.172.5.273.072.045.422.312.236.156a5.721,5.721,0,0,1,.466.435c.034.036.345.409.2.211a3.948,3.948,0,0,1,.32.5c.016.029.14.271.074.132-.077-.164.073.22.069.2.024.083.042.167.063.251-.046-.192,0-.023,0,.087,0,.086-.037.364.017.058a2.244,2.244,0,0,1-.048.22c-.02.072-.046.142-.07.212.087-.25.03-.076,0-.019s-.289.4-.108.191a3.91,3.91,0,0,1-.407.4c.2-.171.005-.009-.053.03s-.131.083-.2.121-.14.069-.206.109c-.174.107.282-.078-.049.021-.183.054-.36.115-.547.156-.092.021-.186.039-.278.054.216-.036-.208.018-.209.019a11.352,11.352,0,0,1-2.389-.074c.091.015-.533-.169-.29-.061-.081-.036-.387-.251-.171-.075a3.443,3.443,0,0,1-.29-.276c-.156-.16-.017-.03.009.011-.054-.087-.11-.172-.157-.263-.033-.061-.063-.123-.09-.186.1.244-.016-.08-.024-.108-.052-.172-.081-.347-.124-.521-.009-.035-.038-.219-.01-.019-.016-.107-.022-.218-.028-.326a5.141,5.141,0,0,1,.008-.535,3.548,3.548,0,0,1,.65-2.107c.352-.445-.1-1.217-.657-.854Z" transform="translate(-4718.368 -3483.9)"/></g><g transform="translate(4654.212 3480.352)"><path d="M4665.363,3481.771c-.576,1.167-.457,2.785-.512,4.064-.044,1.029-.1,2.058-.147,3.087-.05,1-.1,2-.125,3-.018.645-.032,1.291-.028,1.937a4.77,4.77,0,0,0,.312,2.46.908.908,0,0,0,1.556,0,4.6,4.6,0,0,0,.249-2.346c-.008-.653-.021-1.306-.025-1.961-.007-1.029.006-2.058.023-3.087.016-1,.027-2,0-3-.028-1.3.064-2.994-.577-4.156a.426.426,0,0,0-.73,0Z" transform="translate(-4664.536 -3481.564)"/></g><g transform="translate(4635.574 3478.69)"><path d="M4663.43,3480.517c-6.053-.535-12.154-.735-18.229-.793a1.406,1.406,0,0,0,0,2.81,135.326,135.326,0,0,0,18.229-.379.819.819,0,0,0,0-1.637Z" transform="translate(-4643.848 -3479.724)"/></g><g transform="translate(4629.723 3476.083)"><path d="M4641.538,3480.665a1.628,1.628,0,0,0-1.107,2.083,2.515,2.515,0,0,0,2.411,1.574,3.107,3.107,0,0,0,2.546-1.229,2.627,2.627,0,0,0-.1-3.048c-1.3-1.773-4.018-1.846-5.833-.914a4.04,4.04,0,0,0-1.976,2.24,2.356,2.356,0,0,0,1.467,2.932,4.939,4.939,0,0,0,3.57.261,3.676,3.676,0,0,0,2.36-2.456,3.172,3.172,0,0,0-1-3.173,3.784,3.784,0,0,0-3.471-.761,3.637,3.637,0,0,0-2.7,2.342,2.58,2.58,0,0,0,1.628,2.847c2.026.923,4.912.856,6.011-1.414a3.655,3.655,0,0,0,.059-3.2,3.5,3.5,0,0,0-2.334-1.814,3.33,3.33,0,0,0-3.058.79,3.182,3.182,0,0,0-.936,2.969,2.942,2.942,0,0,0,.713,1.284.985.985,0,0,0,1.635-.954c-.042-.124-.051-.26-.093-.381.082.232.021.083.025-.024,0-.052.009-.1.014-.156.023-.29.017,0-.011,0,0,0,.033-.166.031-.155a4.012,4.012,0,0,1,.143-.458c.088-.251-.12.176-.02.04a1.91,1.91,0,0,0,.094-.177l.042-.068c.061-.087.058-.089-.006,0l-.05.062c.034-.042.068-.081.1-.12s.077-.073.113-.111c.18-.194-.234.125,0,0,.044-.023.1-.053.138-.081.121-.058.094-.05-.076.026.05-.019.1-.035.155-.051.02-.006.157-.034.157-.037-.008.045-.309.019-.009.009.054,0,.108,0,.162,0l.081,0c.11.011.108.01,0,0l-.086-.011c.054.01.107.021.161.035a1.318,1.318,0,0,0,.2.06c.155.012-.259-.141-.032-.016.072.04.146.076.216.119l.068.044q.163.115-.055-.049a.973.973,0,0,1,.123.11c.015.014.175.162.167.179s-.168-.269-.05-.055a1.321,1.321,0,0,1,.121.213c-.012.011-.1-.305-.03-.066.021.08.043.162.066.242.066.234,0-.263,0,0,0,.069,0,.141,0,.21.011.27-.018-.052.015-.04a2.209,2.209,0,0,1-.1.408c-.063.239.032-.066.033-.062.011.039-.094.191-.114.225s-.062.095-.089.143q-.116.164.042-.049c-.036.042-.073.084-.111.125s-.082.077-.12.117c-.188.2.225-.12-.015.012a1.484,1.484,0,0,0-.143.087c-.208.145.145-.033-.025.019-.084.026-.167.057-.252.079,0,0-.339.073-.147.038s-.15.01-.154.01c-.107.005-.215.005-.323,0s-.215-.017-.324-.024c.24.016.06.01,0,0-.178-.035-.356-.069-.531-.114-.148-.037-.29-.082-.433-.132-.279-.1.225.134-.031-.016-.077-.044-.157-.081-.232-.128-.028-.017-.224-.187-.086-.052s-.045-.055-.063-.07c-.181-.157.065.047.041.063l-.042-.066q-.092-.177.027.082c-.064-.192,0,.062,0,.1-.005-.269-.1.266-.005-.029-.071.219-.042.092,0,.027q.113-.171-.016.009c.045-.051.092-.1.142-.145.034-.038.182-.146-.015,0a3.084,3.084,0,0,1,.265-.178c.06-.036.123-.071.186-.1,0,0,.31-.135.143-.072s.161-.049.154-.047c.084-.026.17-.048.255-.066s.3-.025.041-.012c.105-.005.209-.012.314-.01.067,0,.363.073.094,0,.064.017.129.028.191.046l.088.026q.19.07-.036-.022a.7.7,0,0,1,.164.084c.08.045.155.1.232.147-.04-.026-.181-.168-.032-.018.064.064.127.131.191.2-.134-.135-.045-.07.026.048.006.01.158.267.063.1s.025.085.032.11a.651.651,0,0,1,.04.177l-.021-.134c0,.062,0,.125,0,.187.008.247.016-.026.012-.04.017.064-.053.208-.07.27-.057.2-.009.018.014-.023-.059.112-.121.218-.19.325.024-.039.155-.17.007-.014-.054.058-.107.116-.166.171s-.216.167-.021.03c-.064.046-.13.089-.2.129s-.139.078-.209.11c.188-.085-.029,0-.079.017-.086.026-.175.043-.261.068-.251.069.117.011-.123.02-.183.006-.361.005-.544,0-.339-.01.2.051-.133-.014-.072-.014-.143-.027-.215-.043-.179-.04-.351-.1-.526-.151-.276-.082.181.114-.076-.029l-.244-.138c-.244-.142.089.093-.024-.025s.109.223-.021-.018c-.115-.214,0,.017.008.017l.008.089c0-.132,0-.138-.015-.018.013-.072.037-.135.054-.2.074-.3-.089.133.04-.092.029-.051.054-.1.084-.151s.25-.332.077-.13a3.525,3.525,0,0,1,.261-.279c.052-.049.106-.095.16-.141-.171.147-.026.022.023-.013a3.859,3.859,0,0,1,.372-.221c.065-.034.13-.064.2-.095-.217.1.023-.005.074-.023.139-.048.28-.089.423-.123.086-.021.173-.035.259-.053.05-.01.2-.013-.014,0a4.776,4.776,0,0,1,.979,0c-.167-.023.006,0,.033.011.134.031.267.058.4.1.065.02.13.042.194.066-.147-.056.14.073.174.092a1.212,1.212,0,0,1,.564.588c-.069-.135.015.044.027.084a1.418,1.418,0,0,1,.036.14c-.008-.1-.008-.085,0,.032a1.822,1.822,0,0,1-.007.193c.035-.24-.114.253-.007.017-.022.049-.054.094-.076.143-.059.086-.059.09,0,.013a1.159,1.159,0,0,1-.082.091c-.05.048-.1.1-.148.142.127-.108-.075.045-.09.055a1.744,1.744,0,0,1-.694.228c-.127,0-.35,0-.414-.007,0,0-.321-.082-.312-.079-.255-.106-.451-.257-.485-.492-.011-.076.011-.355.172-.42a.5.5,0,0,0-.266-.967Z" transform="translate(-4637.354 -3476.839)"/></g><g transform="translate(4653.418 3480.23)"><path d="M4664.188,3482.132a17.649,17.649,0,0,0-.389,3.657c-.071,1.176-.131,2.353-.14,3.53s0,2.354.024,3.531a15.361,15.361,0,0,0,.146,3.036,1.337,1.337,0,0,0,1.952.8c.754-.49.678-1.346.709-2.132.014-.338.027-.676.049-1.013.009-.143.034-.289.035-.432,0-.192-.016.144-.023.172.048-.189.026.023-.1.2l-.795.614.01,0-1.295-.343c-.16-.136-.361-.848-.24-.272a3.168,3.168,0,0,1,.1.435c.008.125-.048.4-.04.577.039.7.737,1.44,1.5,1.144,1.35-.526,1.337-1.935.931-3.135a1.364,1.364,0,0,0-2.63.029,8.435,8.435,0,0,0-.149,1.65c-.013.288-.023.577-.035.865-.008.194-.1.8.021.138l.61-.8,0,0,1.952.8c.161.633.03.14.015-.106q-.029-.458-.054-.914-.042-.785-.074-1.569-.071-1.764-.085-3.53c-.01-1.133-.036-2.266-.034-3.4a23.023,23.023,0,0,0-.078-3.527c-.157-1.006-1.648-.867-1.893,0Z" transform="translate(-4663.655 -3481.428)"/></g><g transform="translate(4651.643 3591.627)"><path d="M4662.655,3605.029c-.025.056-.08.167-.011.053a1.7,1.7,0,0,0-.269.479,5.849,5.849,0,0,0-.124.62c-.1.552-.165,1.109-.228,1.665-.145,1.293-.183,2.6-.245,3.9s-.075,2.616-.092,3.922c-.006.509,0,1.017.017,1.526a4.515,4.515,0,0,0,.073.926,2.467,2.467,0,0,0,.57.955,1.308,1.308,0,0,0,2.042-.264c.566-.941.357-2.215.342-3.285-.018-1.288,0-2.576-.03-3.863-.033-1.271-.039-2.551-.186-3.814a15.873,15.873,0,0,0-.257-1.665c-.044-.192-.1-.389-.158-.577a1.7,1.7,0,0,0-.273-.5c-.1-.137,0,.034-.078-.078a.639.639,0,0,0-1.094,0Z" transform="translate(-4661.685 -3604.719)"/></g><g transform="translate(4627.566 3603.333)"><path d="M4635.338,3620.135a75.551,75.551,0,0,0,12.78.525c2.109-.025,4.218-.039,6.328-.069q1.6-.023,3.2-.031a9.425,9.425,0,0,0,3.373-.214,1.271,1.271,0,0,0,0-2.423,8.873,8.873,0,0,0-3.373-.176q-1.5.029-2.992.073c-2.182.063-4.361.176-6.54.279a114.234,114.234,0,0,0-12.78,1.015.534.534,0,0,0,0,1.021Z" transform="translate(-4634.96 -3617.674)"/></g><g transform="translate(4667.122 3603.453)"><path d="M4679.544,3620.307a17.758,17.758,0,0,0,4.3.46c1.519.038,3.038.087,4.557.113,1.462.024,2.925.037,4.387.056q1.1.014,2.193.012a6.862,6.862,0,0,0,2.4-.172,1.455,1.455,0,0,0,0-2.777,6.889,6.889,0,0,0-2.4-.172c-.675,0-1.35,0-2.024.01-1.518.02-3.037.032-4.555.059-1.463.025-2.925.072-4.388.107a18.432,18.432,0,0,0-4.472.466.961.961,0,0,0,0,1.838Z" transform="translate(-4678.866 -3617.807)"/></g><g transform="translate(4682.972 3601.055)"><path d="M4701.054,3616.276a1.919,1.919,0,0,0-1.8-.207,2.786,2.786,0,0,0-1.549,1.428,4.172,4.172,0,0,0,.622,4.506,2.827,2.827,0,0,0,2.006.967,3.062,3.062,0,0,0,2.149-.894,4.584,4.584,0,0,0,1.244-4.479,3.558,3.558,0,0,0-3.193-2.429,3.669,3.669,0,0,0-3.665,2.038,3.6,3.6,0,0,0,.991,4.607,3.207,3.207,0,0,0,2.331.44,3.161,3.161,0,0,0,2-1.358,3.876,3.876,0,0,0-.265-4.57,2.217,2.217,0,0,0-2.736-.413,2.664,2.664,0,0,0-1.454,2.808,1.161,1.161,0,0,0,1.386.789,2.146,2.146,0,0,0,1.246-.867q.092-.1.189-.2l.054-.052c.112-.1.071-.069-.121.085a.858.858,0,0,0,.173-.106c-.245.094-.3.119-.161.075a.815.815,0,0,1,.124-.022l-.38.051a1.1,1.1,0,0,1,.192.005l-.38-.051c.149.029.294.143-.123-.07.167.085,0,.1-.132-.115.026.042.212.246.028,0s-.021-.021.009.034.051.1.08.155c-.226-.386-.082-.2-.037-.057a3.024,3.024,0,0,1,.093.441l-.05-.38a3.163,3.163,0,0,1,0,.726l.051-.38a4.334,4.334,0,0,1-.1.438c-.051.209.079-.181.078-.169a.683.683,0,0,1-.07.143.894.894,0,0,1-.16.255c-.023.018.221-.252.109-.149-.034.03-.063.067-.1.1-.2.2.245-.146.053-.032-.063.037-.136.071-.2.114-.133.094.324-.1.164-.068-.05.01-.1.033-.15.046a.588.588,0,0,0-.092.021c-.106.048.215-.05.225-.027,0,0-.233.008-.249.007-.032,0-.063-.007-.094-.007-.167,0,.35.081.193.022a1.739,1.739,0,0,0-.244-.068c-.162-.036.3.147.151.063-.029-.017-.062-.032-.091-.049s-.121-.075-.121-.075.238.208.145.112c-.06-.061-.122-.131-.185-.188.241.218.134.2.085.094-.026-.054-.128-.268-.027-.026s0-.024-.021-.092-.032-.163-.052-.243c-.03-.13.026.2.026.2a1.238,1.238,0,0,0-.011-.146q-.007-.149,0-.3a.648.648,0,0,1,.012-.148s-.066.38-.018.151c.015-.072.028-.145.047-.217.024-.094.054-.185.085-.277.015-.045.069-.17-.017.034-.094.225-.008.026.019-.023.035-.068.089-.131.119-.2.062-.14-.2.227-.078.1.028-.03.053-.062.081-.092.046-.049.272-.235.1-.106s-.026.022.018-.006.1-.065.159-.094c.033-.018.066-.033.1-.05.146-.078-.273.1-.115.052.081-.024.16-.054.242-.073.035-.009.07-.015.1-.024.161-.044-.3.025-.136.015.094-.006.188-.015.283-.015.073,0,.146,0,.219,0-.007,0,.112.013.113.011s-.364-.067-.175-.021c.145.034.284.08.429.12.128.034-.2-.069-.174-.075a.533.533,0,0,1,.11.053c.063.033.123.073.185.107.24.135-.186-.175-.042-.039.062.058.124.113.182.175.026.029.054.07.083.1-.016-.015-.182-.277-.09-.107a2.1,2.1,0,0,0,.116.205c.072.1-.061-.156-.061-.156.012.044.034.091.048.135.02.063.032.258.073.292-.019-.016-.024-.344-.013-.09,0,.046.005.091.007.137,0,.107,0,.214-.009.322-.013.267.012-.079.014-.076a1.087,1.087,0,0,1-.034.179c-.025.117-.056.233-.092.347-.016.051-.138.362-.052.162s-.045.085-.073.138c-.043.081-.091.161-.14.238-.028.043-.059.084-.087.127-.087.136.175-.2.066-.086-.06.062-.112.128-.174.189-.034.033-.07.063-.1.1-.088.086-.122.018.1-.075a2.121,2.121,0,0,0-.2.127c-.029.016-.059.03-.087.046-.181.1.209-.05.1-.046-.041,0-.185.082-.212.056s.377-.016.163-.025c-.029,0-.063,0-.092,0-.057,0-.212-.021.019.01s.1.017.051,0-.078-.023-.114-.033c-.2-.052.236.133.117.048a.991.991,0,0,0-.187-.115s.216.193.136.1c-.028-.034-.066-.06-.1-.091a1.377,1.377,0,0,0-.162-.177c.014.009.195.268.073.095-.027-.04-.056-.079-.083-.119a2.773,2.773,0,0,1-.151-.257.757.757,0,0,0-.067-.138c.056.036.107.281.026.054-.036-.1-.068-.2-.094-.3-.013-.053-.025-.1-.035-.157-.023-.107.008-.242,0,.054.005-.217-.034-.435-.023-.654a1.288,1.288,0,0,0,.013-.154c0,.057-.045.251-.007.09.026-.11.051-.218.087-.324.085-.25-.1.181.024-.056.042-.082.09-.159.139-.236l.071-.11c.077-.126.079-.018-.037.034.053-.023.126-.135.166-.177.02-.02.1-.093-.01,0s.011,0,.042-.019c.1-.071.009.066-.072.028a.382.382,0,0,0,.1-.03c.146-.047-.063.025-.079.01s.212.058.048-.009c-.113-.046-.035-.007,0,0,.055.019.109.033.163.055a.816.816,0,0,0,.971-.478.846.846,0,0,0-.337-1.032Z" transform="translate(-4696.458 -3615.153)"/></g><g transform="translate(4622.926 3600.882)"><path d="M4631.611,3620.146a1.35,1.35,0,0,0,.959.934,2.514,2.514,0,0,0,1.392-.041,3.422,3.422,0,0,0,2.191-2.13,3.013,3.013,0,0,0-.723-2.963,3.158,3.158,0,0,0-3.024-.9,3.468,3.468,0,0,0-2.214,1.831,3.644,3.644,0,0,0-.036,3.177,4.037,4.037,0,0,0,5.178,1.939,3.486,3.486,0,0,0-.431-6.727,3.012,3.012,0,0,0-2.861,1,4.694,4.694,0,0,0-.136,5.364,2.84,2.84,0,0,0,3.079,1.365,3.8,3.8,0,0,0,2.2-2.029,3.747,3.747,0,0,0,.417-3.556,2.185,2.185,0,0,0-3.391-.677,2.464,2.464,0,0,0-.344,2.937,2.733,2.733,0,0,0,3.057,1.117,4.062,4.062,0,0,0,.611-.138,2.27,2.27,0,0,0,.83-.538.968.968,0,0,0-.422-1.6,2.737,2.737,0,0,0-.609-.114c-.155,0-.31.026-.466.037-.139.009-.276,0-.415,0,.244.007.095.018.027,0s-.127-.033-.19-.055l.125.057c-.073-.009-.15-.09-.213-.125-.168-.092.189.156.073.056-.15-.129.041-.087.065.1a.827.827,0,0,0-.064-.118c.011.011.125.339.069.138s.015.156.013.172a2.49,2.49,0,0,0,0-.336c0,.33-.049.311-.017.185.063-.236-.147.285-.06.139s-.268.279-.1.122c0,0-.319.219-.145.119a.949.949,0,0,1-.473.127c.24,0-.1-.016-.124-.024-.257-.067-.22-.1-.111-.032-.169-.137-.2-.153-.1-.046l-.118-.142c.131.179-.014-.045-.03-.094.093.281.023-.277.006-.059v.057c-.009.164,0,.152.017-.037a.868.868,0,0,1-.054.221.858.858,0,0,1-.074.218c.122-.124.061-.135.006-.015-.07.152-.139.3-.217.453-.064.124-.131.246-.2.365-.032.053-.066.105-.1.157-.157.235.041,0,.029-.023.017.033-.21.228-.243.264-.16.179.047-.064.086-.056a1.543,1.543,0,0,0-.215.13c.034-.076.29-.108.1-.055-.273.08.277-.006.085-.011s.286.082.108.023c-.272-.09.045.03.043.037s-.168-.094-.152-.091c.162.031.184.166.074.047a1.151,1.151,0,0,1-.127-.134c.12.162.136.183.049.059l-.052-.079c-.076-.121-.136-.248-.2-.375-.085-.167.074.262.041.09-.014-.066-.048-.134-.068-.2-.033-.109-.061-.218-.084-.329a.872.872,0,0,0-.032-.168q.042.346.015.116l-.007-.085c-.01-.127-.013-.256-.011-.384,0-.056.006-.113.009-.169.008-.187.1-.132-.016.081a1.724,1.724,0,0,0,.071-.321c.015-.052.034-.1.049-.153.074-.263-.144.256-.017.041.035-.058.246-.387.1-.187-.164.224.151-.124.158-.138-.016.038-.283.175-.09.079.046-.024.1-.053.139-.08.206-.122-.083.058-.1.043.039-.013.078-.024.119-.034.107-.024.053-.019-.167.015.051.013.489.01.221-.015-.311-.028.226.07.211.075-.03.012-.3-.159-.1-.037.048.029.1.052.146.082a1.439,1.439,0,0,0,.14.094c-.153-.122-.19-.15-.112-.082.032.027.063.056.093.086s.078.083.117.123c.2.194-.106-.2-.031-.042a1.423,1.423,0,0,0,.089.144c.125.19-.052.081-.01-.061a2.1,2.1,0,0,0,.1.322c-.09-.056-.013-.3-.018-.11a1.788,1.788,0,0,0,0,.26c-.041-.2.045-.233.006-.094-.015.055-.034.116-.046.172-.06.28.109-.191.021-.034-.037.064-.068.132-.106.2a.923.923,0,0,0-.1.149c0-.034.206-.233.042-.062a3.845,3.845,0,0,0-.327.312c.126-.171.155-.111.051-.049-.053.032-.1.065-.156.1s-.135.069-.2.1c-.163.088.308-.087.021-.015-.119.03-.234.067-.353.094-.239.054.055-.022.082-.01a1.453,1.453,0,0,0-.272.009.829.829,0,0,1-.184-.012c.015.016.269.06.072,0-.137-.039-.27-.077-.4-.118-.176-.056.267.156.013,0-.053-.033-.111-.06-.164-.091s-.106-.068-.157-.1c-.254-.161.183.182-.031-.028-.059-.059-.246-.187-.259-.268l.089.116c-.028-.037-.054-.075-.08-.115s-.065-.1-.1-.159c-.061-.11-.171-.164-.007.016a.706.706,0,0,1-.061-.175c-.017-.06-.029-.12-.044-.181-.078-.283,0,.265,0-.015,0-.057,0-.119,0-.177-.007-.266,0,.091-.017.077-.035-.031.088-.341.1-.388.042-.172-.152.267-.008.019.029-.052.054-.106.084-.156a1.3,1.3,0,0,0,.1-.15c-.1.126-.124.154-.064.082q.042-.052.088-.1c.041-.043.084-.082.125-.124.187-.2-.214.117.019-.017.049-.028.1-.059.149-.09.22-.144-.236.056.017-.011.056-.014.114-.031.169-.048.25-.076-.248-.013.025,0a.712.712,0,0,1,.185.007c-.181-.027-.2-.026-.062,0l.09.024c.226.049-.011-.024-.039-.028a.949.949,0,0,1,.245.134c.194.106.008-.011-.026-.031a1.194,1.194,0,0,1,.21.185c.045.043.085.09.127.135-.193-.2-.018-.016.023.053.03.052.058.107.083.161-.123-.259-.024-.01,0,.059.079.251.021-.145,0,.005-.019.117-.016.178.014.026-.015.082-.05.163-.062.244-.017.108.071-.112-.023.059-.083.148-.164.294-.257.438-.168.26.061-.059-.049.064-.061.067-.122.132-.187.192-.017.016-.161.135-.077.07a1.885,1.885,0,0,0-.166.108c-.052.031-.1.06-.157.085s-.053.025.007,0a1.263,1.263,0,0,1-.125.037c-.138.036.107-.021-.028.011a.888.888,0,0,1-.122,0c.061.013.064.013.009,0a1.9,1.9,0,0,1-.277-.042c-.05,0-.048-.006,0,0a.817.817,0,0,1-.14-.051c-.417-.172-.86.332-.727.729Z" transform="translate(-4629.809 -3614.961)"/></g><g transform="translate(4593.788 3560.744)"><path d="M4622.749,3570.993a9.257,9.257,0,0,0-3.12-.392c-1.114-.049-2.231-.042-3.347-.054-2.081-.023-4.163.005-6.245.014s-4.164.012-6.246.039l-3.124.035c-1.12.012-2.179-.031-2.928.937a1.034,1.034,0,0,0,0,1.4c.77.951,1.807.9,2.928.878l3.124-.057c2.157-.041,4.313-.113,6.469-.188s4.315-.146,6.47-.271c1.972-.114,4.412.051,6.218-.816.722-.345.389-1.28-.2-1.522Z" transform="translate(-4597.467 -3570.538)"/></g><g transform="translate(4593.275 3561.468)"><path d="M4599.537,3573.126c-.016-.047-.276-.552-.288-.492a1.049,1.049,0,0,0-1.519-1.171c-.873.433-.784,1.81-.812,2.643-.029.907-.022,1.814.014,2.722.075,1.9.208,3.809.2,5.717,0,1-.281,2.3.769,2.879a1.4,1.4,0,0,0,1.848-.541,2.95,2.95,0,0,0,.278-1.629c-.009-1.884-.2-3.763-.34-5.64-.079-1.019-.162-2.039-.212-3.059-.024-.492-.026-.985-.043-1.477a1.747,1.747,0,0,0-.66-1.614l-.247,1.9c.2-.082.524.09.745.116a.277.277,0,0,0,.265-.349Z" transform="translate(-4596.899 -3571.34)"/></g><g transform="translate(4589.487 3572.952)"><path d="M4597.969,3586.821a1.965,1.965,0,0,0-2.481-.514,2.674,2.674,0,0,0-.961,2.959,4.1,4.1,0,0,0,3.947,2.9,3.854,3.854,0,0,0,3.655-3.133,3.989,3.989,0,0,0-2.1-4.453,5.464,5.464,0,0,0-5.411.4,4.362,4.362,0,0,0-1.829,2.444,3.477,3.477,0,0,0,.913,3.218,5.646,5.646,0,0,0,6.175,1.12,3.96,3.96,0,0,0,1.918-5.334,3.43,3.43,0,0,0-3.005-1.806,3.215,3.215,0,0,0-2.964,2.269,2.81,2.81,0,0,0,1.606,3.439,2.642,2.642,0,0,0,1.69.041,2.186,2.186,0,0,0,1.467-1.465,1.269,1.269,0,0,0-2.105-1.229c-.181.186.2-.088.053-.03a1.061,1.061,0,0,0-.138.077c-.211.129-.006-.053.075-.013-.01-.006-.163.054-.156.042.022-.035.352,0,.12-.021a.8.8,0,0,0-.164-.006c.169-.062.292.053.086-.01-.154-.048.268.159.072.022.325.228.108.115.055.038-.1-.152.131.236.043.072-.134-.251-.025.052,0,.049a1.528,1.528,0,0,1-.053-.176c-.05-.167.068-.047.009.095a1.2,1.2,0,0,0,0-.186c-.015-.3-.069.211,0,.044.1-.249-.061-.045-.033.021-.016-.038.1-.171.115-.208.083-.16-.165.147-.023.036.075-.059.177-.245-.007-.023a.829.829,0,0,1,.173-.11c.25-.163-.044.034-.046.009,0,.018.176-.076.2-.059-.065-.054-.26.011-.017.007.308-.006-.034-.027-.035-.023.009-.018.2.052.225.056.174.031-.273-.167-.024-.012.052.033.11.063.163.094.158.09-.031.052-.047-.045.015.094.264.163.27.269l-.095-.125c.028.039.055.078.08.119s.131.173.117.21c.034-.091-.085-.242-.013-.015.008.029.076.217.059.231s-.007-.364-.017-.078c0,.064,0,.132,0,.2,0,.256-.011-.044.017-.072a1.03,1.03,0,0,0-.042.19c-.021.078-.051.154-.073.231q-.052.142.043-.1c-.021.044-.042.088-.066.13-.03.058-.064.114-.1.169-.06.093-.094.26.012,0a1.161,1.161,0,0,1-.27.29.8.8,0,0,1-.148.131c.188-.064.141-.1.038-.035-.071.042-.138.089-.21.13-.037.021-.332.149-.156.084s-.056.013-.1.027c-.091.029-.183.054-.276.075a1.013,1.013,0,0,1-.225.043c.04,0,.3-.02.021-.011-.173.005-.343.011-.516,0-.044,0-.29-.024-.106,0s-.176-.034-.218-.044a4.859,4.859,0,0,1-.5-.138c-.073-.024-.144-.055-.218-.078.234.074.08.036.02.007-.138-.069-.275-.138-.408-.219-.058-.036-.116-.073-.173-.112l-.126-.089c.127.1.153.116.078.052s-.31-.224-.326-.32c0,.013.173.267.031.037-.035-.055-.068-.114-.1-.169-.144-.222,0,.042.013.052-.05-.049-.047-.176-.072-.24-.065-.172,0,.245,0,.063,0-.064-.056-.352-.015-.161l-.013.082a1.8,1.8,0,0,1,.039-.189c.006-.024.055-.185.056-.185s-.149.292-.019.047c.031-.058.06-.116.094-.173s.073-.111.108-.168c.164-.267-.127.118.012-.014s.234-.25.363-.363c.058-.05.248-.174.021-.022.058-.039.113-.079.171-.116a3.785,3.785,0,0,1,.354-.2.942.942,0,0,1,.174-.083c-.278.06-.087.039,0,.007.149-.053.3-.1.451-.14.023-.006.414-.071.417-.087,0,.013-.315.029-.05.008.063,0,.125-.011.188-.014.141-.007.283-.008.423,0,.078,0,.155.011.233.016.235.016-.149-.037,0,0s.27.056.4.1c.092.028.377.156.14.04.124.06.239.125.358.192.064.037.208.17.016,0,.057.05.115.1.168.153s.1.111.156.167.086.166-.018-.026c.052.1.114.192.17.286.137.223-.042-.173,0-.017.014.053.037.1.053.156s.038.133.052.2l.018.082c.021.131.019.108-.006-.067a1.459,1.459,0,0,1-.007.665c.1-.207.027-.14-.006-.023-.018.067-.031.135-.05.2s-.031.107-.05.16l-.027.079c-.047.12-.04.1.022-.049.005.073-.117.23-.155.295-.056.091-.223.293-.055.1-.092.1-.187.2-.284.3-.045.049-.17.118.046-.026-.07.046-.135.095-.208.137-.047.028-.1.051-.146.079-.2.114.207-.047-.037.014-.109.027-.3.126-.414.1.015,0,.286-.015.057-.014-.085,0-.17.007-.256,0-.057,0-.113-.006-.17-.01-.276-.015.237.063-.032-.009-.138-.037-.276-.073-.414-.116-.194-.061,0,0,.034.019-.078-.038-.156-.074-.231-.116a3.351,3.351,0,0,1-.362-.234c.221.162-.094-.1-.155-.166-.039-.042-.075-.085-.113-.127.178.2.011.011-.026-.047-.077-.119-.139-.247-.206-.372.113.212.02.057,0-.015s-.041-.149-.062-.223c-.085-.293,0,.107-.014-.072,0-.087-.005-.173,0-.258-.008.186,0-.025.012-.077a1.269,1.269,0,0,1,.061-.243c-.068.168.082-.1.01-.015s.165-.182.074-.1.175-.123.139-.095c.1-.072.115-.086.045-.042.091-.048.094-.054.013-.019l-.058.023c-.025-.011-.016-.009.027,0,0,0,.113.059.111.057a.628.628,0,0,0,.823.05.62.62,0,0,0,.161-.811Z" transform="translate(-4592.694 -3584.05)"/></g><g transform="translate(4578.705 3548.241)"><path d="M4618.7,3557c-5.125-.556-10.313-.2-15.459-.059s-10.317.229-15.477.255q-1.794.008-3.589.005c-1.14,0-2.678-.266-3.252,1-1.259,2.778,3.965,2.207,5.271,2.2q7.743-.016,15.477-.324c5.737-.236,11.617-.367,17.208-1.751.79-.2.535-1.253-.18-1.331Z" transform="translate(-4580.726 -3556.7)"/></g><g transform="translate(4571.05 3545.353)"><path d="M4574.211,3556.631a7.665,7.665,0,0,0,.527,3.736,4.332,4.332,0,0,0,2.9,2.31,10.616,10.616,0,0,0,3.984.232,2.972,2.972,0,0,0,2.489-2.889,6.069,6.069,0,0,0-1.646-3.984,7.06,7.06,0,0,0-3.364-2.3,5.262,5.262,0,0,0-6.614,3.417,6.8,6.8,0,0,0-.248,2.192,4.054,4.054,0,0,0,4,4.34,5.381,5.381,0,0,0,6.23-3.813c.6-2.482-.7-5.308-3.377-5.746a4.626,4.626,0,0,0-3.385.67,3.662,3.662,0,0,0-1.607,3.69c.34,1.647,2.031,2.318,3.53,2.422a3.613,3.613,0,0,0,3.565-1.777,2.717,2.717,0,0,0-1.021-3.66,2.46,2.46,0,0,0-3.529,1.958,2.051,2.051,0,0,0,.987,1.976,1.021,1.021,0,0,0,1.228-.159,1.069,1.069,0,0,0,.159-1.231c.086.2.021-.584,0-.324,0,.043-.074.205.011-.07.005-.016-.054.095-.06.076l.084-.088a.107.107,0,0,1-.083.052c-.013.1.155-.134,0-.026-.023.016.275-.079.044-.022.285-.07-.112.055.159.065a.2.2,0,0,1-.119-.108c.094.328-.037-.123.037.069s-.111-.259.017.075c.009.024-.01.253.017.03-.01.086-.153.43-.069.274.006-.011-.2.277-.105.171.06-.067-.092.063-.1.069a2.273,2.273,0,0,1-2.023.027c-.213-.092-.352-.188-.374-.446.012.134.038-.2.017-.1a2.726,2.726,0,0,0,.076-.278,2.445,2.445,0,0,1,.216-.368c-.133.178.16-.141.216-.192.137-.125-.147.09.011-.006.078-.048.153-.1.234-.143.063-.035.129-.069.2-.1-.2.091-.028.013.015,0,.09-.024.177-.056.267-.079.038-.009.366-.069.222-.05-.088.012.3-.013.4-.01.075,0,.149.007.225.013-.243-.016-.005,0,.062.012a4.5,4.5,0,0,1,.483.138c-.2-.073-.031-.016.012.009.1.054.192.11.288.166.291.17-.085-.088.062.045.073.067.143.135.21.207.016.018.145.181.044.045a2.326,2.326,0,0,1,.136.209,2.823,2.823,0,0,1,.146.277c.088.195-.055-.25.036.111.02.081.048.16.068.241,0,.008.071.392.042.167a3.475,3.475,0,0,1,.019.57c0,.085-.008.17-.017.255-.024.223.078-.262-.023.112a2.614,2.614,0,0,1-.364.945,2.579,2.579,0,0,1-1.483,1.091,3.557,3.557,0,0,1-2.159-.034,1.571,1.571,0,0,1-.4-.156,3.319,3.319,0,0,1-.539-.319.984.984,0,0,1-.36-.656,4.747,4.747,0,0,1,.224-2.58,2.466,2.466,0,0,1,1.392-1.282,3.275,3.275,0,0,1,2.127-.072,5.377,5.377,0,0,1,3.445,3.514,1.1,1.1,0,0,1-.928,1.523,9.624,9.624,0,0,1-2.967-.054,2.994,2.994,0,0,1-2.172-1.415,5.976,5.976,0,0,1-.573-2.96.57.57,0,0,0-1.14,0Z" transform="translate(-4572.229 -3553.504)"/></g><g transform="translate(4594.849 3511.544)"><path d="M4617.694,3542.529a62.031,62.031,0,0,0-8.6-.54c-2.944-.108-5.887-.27-8.828-.452l1.467,1.471q.1-11.161.113-22.323c0-1.258.359-3.228-.6-4.219l.4.979v-.024a1.38,1.38,0,0,0-2.759,0v.024l.4-.979c-.87.9-.606,2.474-.6,3.616l.012,6.13q.013,6.844.075,13.688l.027,3.108a1.5,1.5,0,0,0,1.466,1.471c2.941.129,5.884.177,8.828.163a41.5,41.5,0,0,0,8.6-.574.8.8,0,0,0,0-1.539Z" transform="translate(-4598.646 -3516.085)"/></g><g transform="translate(4591.174 3507.797)"><path d="M4599.5,3515.845a2.051,2.051,0,0,0-2.288,1.48,2.475,2.475,0,0,0,.987,2.714,4.418,4.418,0,0,0,6.1-6.058,4.328,4.328,0,0,0-2.343-1.855,4.992,4.992,0,0,0-3.36.251c-2.01.828-4.365,2.7-3.986,5.138.372,2.391,3.235,3.421,5.349,3.1a3.676,3.676,0,0,0,2.7-1.818,3.073,3.073,0,0,0-.326-3.527,3.646,3.646,0,0,0-5.8.513,3.39,3.39,0,0,0,.129,3.5,3.122,3.122,0,0,0,3.321,1.178c1.363-.349,2.613-1.961,1.825-3.361a2.43,2.43,0,0,0-1.57-1.13,4.173,4.173,0,0,0-2.215.172.819.819,0,0,0-.192,1.471,2.319,2.319,0,0,0,1.157.428,3.7,3.7,0,0,1,.535.12c-.04-.012-.2-.075.022.015l.093.057c-.082-.068-.093-.074-.033-.017.049.133-.029-.067-.048-.1-.089-.142,0,.136,0-.006,0-.014-.015-.289.056-.24.007,0-.125.125-.14.143.135-.16.1-.049.012-.018-.215.081-.011.019.029,0-.095.036-.195.05-.289.083.026-.009.214,0,.081-.011-.065-.006-.136,0-.2,0-.049,0-.246-.046-.086,0s-.044-.018-.083-.031-.231-.1-.087-.026c.167.082-.077-.051-.075-.054l-.042-.027c.1.085.12.1.053.037,0-.045-.161-.192-.047-.027-.04-.059-.073-.122-.11-.184.028.047.058.223,0,0-.017-.069-.036-.138-.054-.207.013.051.006.248,0,.008,0-.073,0-.145,0-.217s.054-.2-.005,0c.021-.075.144-.437.043-.221.029-.062.25-.387.1-.207.042-.05.343-.289.173-.182.055-.034.426-.194.223-.129.074-.024.148-.042.223-.064.218-.065-.058-.01.076-.017.078,0,.155-.007.233-.006.033,0,.275.02.127,0s.091.022.125.031c.076.019.15.042.224.067.133.046,0,0-.023-.012.07.036.135.077.2.113.189.1.1.067.047.023a1.569,1.569,0,0,1,.256.26c-.071-.1-.009-.042.011.053-.01-.046-.069-.2.007.028.006.017.042.2.02.056s0,.078,0,.115c.009.188.047-.178.007.007-.017.074-.038.146-.057.22-.051.182.081-.146-.007.024-.045.085-.092.168-.144.249.1-.156.009-.007-.022.025-.055.056-.107.11-.164.163.039-.036.176-.1-.027.017-.074.044-.146.089-.223.128.13-.068-.257.087-.308.1-.083.021-.168.04-.252.052.165-.024-.069,0-.128,0-.152.006-.3,0-.457-.008-.247-.014-.127-.01-.067,0-.085-.012-.172-.03-.257-.048a4.35,4.35,0,0,1-.463-.126c-.074-.024-.149-.05-.222-.08.181.076-.055-.033-.087-.051a3.987,3.987,0,0,1-.4-.244c-.161-.11.112.106-.029-.024-.057-.051-.112-.1-.166-.158-.021-.022-.165-.2-.087-.094s-.046-.086-.061-.111a1.436,1.436,0,0,1-.078-.149c.089.212-.016-.126-.02-.145.042.23.026-.338,0-.1.01-.079.038-.157.055-.236,0-.016.067-.212.009-.063a2.34,2.34,0,0,1,.209-.386,1.668,1.668,0,0,1,.246-.328,5.7,5.7,0,0,1,1.6-1.249,3.694,3.694,0,0,1,1.8-.512,2.063,2.063,0,0,1,.757.153c.167.064-.117-.063.039.022.064.034.128.068.189.106s.123.076.181.117.06.042,0,0l.082.071a2.349,2.349,0,0,1,.7,2.636c-.065.168.05-.1-.031.065-.042.082-.085.164-.133.243a1.365,1.365,0,0,1-.242.332,2.6,2.6,0,0,1-.664.552,2.487,2.487,0,0,1-1.651.382,1.674,1.674,0,0,1-1.2-.7c-.14-.3.046-.821.448-.8.825.047,1.037-1.339.2-1.469Z" transform="translate(-4594.566 -3511.939)"/></g><g transform="translate(4649.722 3561.79)"><path d="M4659.552,3574.206c.259.042.509.091.738.141a1.8,1.8,0,0,0,1.469-.087,2.02,2.02,0,0,0,1.4.186c.33-.042.685-.068,1-.119a1.93,1.93,0,0,1,1.2.112,1.836,1.836,0,0,0,1.786.236,3.815,3.815,0,0,0,2.075-.266c.45-.148.653-.091.851.072.417.341,1.57.314,2.178.566a.8.8,0,0,0,.595-.067c.126-.18.7-.267.648-.488-.029-.124.287-.2.659-.2a10.753,10.753,0,0,0,2.329.133.236.236,0,0,1,.083.01c.186.272,1.038.283,1.456.462a.879.879,0,0,0,.574.122c.241-.031.184-.125.156-.193-.107-.262.287-.294.912-.26.416.022.483.186.756.222.62.085.148-.247.512-.21.432.043.875.068,1.294.116,1.016,0,.772-.3.728-.566-.062-.368-1.014-.962-.992-1.326,0-.042.013-.083.018-.125l-21.213-.982A5.3,5.3,0,0,0,4659.552,3574.206Z" transform="translate(-4659.552 -3571.696)"/></g><g transform="translate(4587.408 3501.393)"><path d="M4601.6,3505.173a9.447,9.447,0,0,0-7.135.931c-1.993,1.117-4.578,3.492-4,6.047a.307.307,0,0,0,.6-.082c-.155-2.321,2.173-4.352,4.032-5.358a10.51,10.51,0,0,1,6.4-1.167c.238.036.348-.307.1-.372Z" transform="translate(-4590.386 -3504.851)"/></g><g transform="translate(4581.156 3493.632)"><path d="M4583.718,3506.863a15.966,15.966,0,0,1,5.479-7.616,11.663,11.663,0,0,1,9.262-1.969c.458.095.656-.588.195-.709a11.818,11.818,0,0,0-9.736,2.2,15.721,15.721,0,0,0-5.464,8.023c-.053.171.206.238.265.073Z" transform="translate(-4583.446 -3496.261)"/></g><g transform="translate(4565.169 3558.309)"><path d="M4566.006,3570.522l1.72-1.135.832-.549a4.722,4.722,0,0,0,.852-.622c.136-.142,0-.444-.208-.358a4.75,4.75,0,0,0-.893.553l-.82.57-1.692,1.179c-.218.152-.017.51.21.362Z" transform="translate(-4565.702 -3567.843)"/></g><g transform="translate(4560.328 3551.853)"><path d="M4560.629,3561.653a22.456,22.456,0,0,1,3.05-.355c.485-.022.972-.03,1.458-.022.263,0,.523.022.786.026a.769.769,0,0,0,.585-.134.2.2,0,0,0,0-.276.792.792,0,0,0-.585-.181c-.261-.017-.524-.013-.786-.012-.523,0-1.048.021-1.57.06a23.6,23.6,0,0,0-3.065.43c-.3.063-.174.521.128.464Z" transform="translate(-4560.328 -3560.698)"/></g><g transform="translate(4564.072 3544.071)"><path d="M4564.627,3552.627a21.558,21.558,0,0,1,2.079,1.074c.337.2.666.407.992.623s.679.388,1.016.575a.183.183,0,0,0,.221-.286,7,7,0,0,0-.875-.763c-.331-.229-.677-.438-1.024-.642a21.623,21.623,0,0,0-2.113-1.088.3.3,0,0,0-.4.106.3.3,0,0,0,.105.4Z" transform="translate(-4564.483 -3552.085)"/></g><g transform="translate(4583.07 3580.506)"><path d="M4585.774,3592.557a9.9,9.9,0,0,0-.127,3.056,3.742,3.742,0,0,0,1.5,2.389,7.956,7.956,0,0,0,2.81,1.206,11.715,11.715,0,0,0,1.7.3,4.062,4.062,0,0,0,1.695-.057.214.214,0,0,0,0-.408,7.756,7.756,0,0,0-1.49-.18,13.255,13.255,0,0,1-1.6-.268,7.979,7.979,0,0,1-2.56-1,3.417,3.417,0,0,1-1.525-2.133,8.243,8.243,0,0,1,0-2.853c.028-.229-.371-.285-.4-.055Z" transform="translate(-4585.571 -3592.41)"/></g><g transform="translate(4620.57 3594.239)"><path d="M4627.205,3607.8a20.05,20.05,0,0,0,1.056,2.226q.29.531.611,1.044a3.181,3.181,0,0,0,.733.987c.138.093.3-.061.267-.206a1.719,1.719,0,0,0-.274-.507c-.109-.169-.223-.335-.331-.505q-.327-.509-.636-1.03c-.41-.693-.788-1.408-1.151-2.126-.077-.15-.339-.044-.275.117Z" transform="translate(-4627.195 -3607.609)"/></g><g transform="translate(4625.527 3590.118)"><path d="M4632.788,3603.256c-.021,1.228-.051,2.457-.064,3.685l-.018,1.842a5.11,5.11,0,0,0,.14,1.744.162.162,0,0,0,.311,0,5.086,5.086,0,0,0,.141-1.744l-.019-1.842c-.012-1.228-.041-2.457-.063-3.685a.214.214,0,0,0-.429,0Z" transform="translate(-4632.697 -3603.048)"/></g><g transform="translate(4629.321 3593.361)"><path d="M4638.845,3606.713c-.4.73-.784,1.474-1.132,2.232-.172.374-.331.753-.479,1.137a4.308,4.308,0,0,0-.326,1.17c-.016.184.239.224.325.089a5.829,5.829,0,0,0,.486-1.124q.2-.549.414-1.094.439-1.148.974-2.257c.083-.172-.165-.323-.261-.152Z" transform="translate(-4636.907 -3606.637)"/></g><g transform="translate(4618.244 3598.978)"><path d="M4624.665,3613.165l.626.576a.147.147,0,0,0,.205,0,.15.15,0,0,0,0-.206l-.574-.628a.182.182,0,0,0-.257,0,.184.184,0,0,0,0,.258Z" transform="translate(-4624.612 -3612.854)"/></g><g transform="translate(4688.856 3596.161)"><path d="M4703.214,3610.182a4.387,4.387,0,0,1,4.019,1.7,6.07,6.07,0,0,1,1.058,2.081,8.061,8.061,0,0,1,.25,1.2,3.82,3.82,0,0,0,.185,1.119.223.223,0,0,0,.383,0,2.548,2.548,0,0,0,.025-1.3,7.991,7.991,0,0,0-.286-1.28,6.281,6.281,0,0,0-1.267-2.3,4.714,4.714,0,0,0-4.463-1.56c-.228.052-.127.385.1.347Z" transform="translate(-4702.99 -3609.737)"/></g><g transform="translate(4689.951 3592.428)"><path d="M4704.3,3605.9a9.01,9.01,0,0,1,5.837,1.351,5.814,5.814,0,0,1,2.5,4.72c.005.214.352.282.389.053a5.447,5.447,0,0,0-2.378-5.018,8.833,8.833,0,0,0-6.351-1.3c-.122.015-.127.206,0,.2Z" transform="translate(-4704.204 -3605.606)"/></g><g transform="translate(4727.729 3500.009)"><path d="M4756.9,3505.537a8.468,8.468,0,0,0-5.231-2.2,7.522,7.522,0,0,0-5.471,1.592c-.164.156.043.379.227.3a16.5,16.5,0,0,1,2.526-1.054,9.2,9.2,0,0,1,7.827,1.522c.091.069.2-.082.122-.157Z" transform="translate(-4746.138 -3503.319)"/></g><g transform="translate(4728.177 3495.325)"><path d="M4755.015,3498.915a13.518,13.518,0,0,0-4.27-.778,12.963,12.963,0,0,0-2.137.15c-.343.052-.685.113-1.022.194a1.768,1.768,0,0,0-.906.369.166.166,0,0,0,.072.275,1.859,1.859,0,0,0,.827-.109c.337-.08.674-.16,1.015-.22a14.212,14.212,0,0,1,2.15-.2,13.723,13.723,0,0,1,4.2.572c.161.048.224-.195.069-.25Z" transform="translate(-4746.635 -3498.135)"/></g><g transform="translate(4705.146 3477.353)"><path d="M4721.283,3479.341a9.413,9.413,0,0,1,3.058-.583,10.011,10.011,0,0,1,1.527.09c.256.035.507.086.76.136a1.774,1.774,0,0,0,.71.07.214.214,0,0,0,.093-.354,2.645,2.645,0,0,0-1.418-.391,8.977,8.977,0,0,0-1.671-.044,9.837,9.837,0,0,0-3.152.735c-.2.085-.124.422.094.342Z" transform="translate(-4721.071 -3478.244)"/></g><g transform="translate(4746.295 3548.659)"><path d="M4767.164,3561.523a10.963,10.963,0,0,1,1.191-2.2,12.009,12.009,0,0,1,.753-.961c.247-.286.64-.6.728-.986a.174.174,0,0,0-.211-.211c-.4.067-.728.5-.975.785a9.446,9.446,0,0,0-.793,1.082,10.262,10.262,0,0,0-1.1,2.377c-.084.265.309.359.407.112Z" transform="translate(-4766.745 -3557.164)"/></g><g transform="translate(4753.351 3549.993)"><path d="M4775.321,3565.049c-.111-1.061-.172-2.124-.177-3.19,0-.506.018-1.01.04-1.515a10.04,10.04,0,0,0,.036-1.541.167.167,0,0,0-.327-.044,4.984,4.984,0,0,0-.278,1.528c-.042.522-.042,1.049-.033,1.573a26.758,26.758,0,0,0,.3,3.25c.036.248.467.193.44-.06Z" transform="translate(-4774.577 -3558.64)"/></g><g transform="translate(4758.015 3549.037)"><path d="M4782.427,3560.4l-1.192-1.413a9.5,9.5,0,0,0-1.238-1.367.143.143,0,0,0-.223.172,9.6,9.6,0,0,0,1.146,1.47l1.209,1.437c.174.209.473-.092.3-.3Z" transform="translate(-4779.753 -3557.582)"/></g><g transform="translate(4758.459 3531.488)"><path d="M4782.923,3538.3a10.95,10.95,0,0,1-1.19,2.2c-.233.333-.488.652-.754.961-.247.287-.639.6-.728.986a.174.174,0,0,0,.212.211c.4-.067.728-.5.976-.785a9.277,9.277,0,0,0,.792-1.082,10.26,10.26,0,0,0,1.1-2.377c.084-.266-.308-.359-.408-.113Z" transform="translate(-4780.246 -3538.159)"/></g><g transform="translate(4753.754 3528.027)"><path d="M4775.025,3534.549c.11,1.061.172,2.124.178,3.19,0,.506-.018,1.01-.04,1.515a10.168,10.168,0,0,0-.036,1.542.167.167,0,0,0,.327.044,5,5,0,0,0,.28-1.528c.04-.523.041-1.049.031-1.573a26.759,26.759,0,0,0-.3-3.251c-.036-.249-.468-.193-.441.06Z" transform="translate(-4775.024 -3534.329)"/></g><g transform="translate(4747.109 3532.427)"><path d="M4767.7,3539.568l1.192,1.413a9.6,9.6,0,0,0,1.238,1.367.143.143,0,0,0,.223-.174,9.576,9.576,0,0,0-1.146-1.469l-1.207-1.437c-.176-.209-.474.093-.3.3Z" transform="translate(-4767.648 -3539.198)"/></g><g transform="translate(4760.533 3545.17)"><path d="M4787.189,3555c-.722-.322-1.462-.6-2.2-.892s-1.455-.557-2.2-.792a.2.2,0,0,0-.152.359,40.712,40.712,0,0,0,4.261,1.82c.332.147.623-.344.288-.494Z" transform="translate(-4782.548 -3553.302)"/></g><g transform="translate(4760.318 3538.843)"><path d="M4786.961,3546.3c-.761.136-1.515.32-2.27.488s-1.5.354-2.245.578c-.2.061-.175.4.052.385a41.143,41.143,0,0,0,4.614-.9c.361-.065.208-.615-.151-.551Z" transform="translate(-4782.309 -3546.299)"/></g><g transform="translate(4739.71 3567.185)"><path d="M4759.782,3579.9l2.039-.922,1-.453a3.928,3.928,0,0,0,.975-.521c.168-.147-.019-.364-.194-.337a3.956,3.956,0,0,0-1,.4l-1.028.485-2.02.953c-.265.125-.034.512.229.393Z" transform="translate(-4759.436 -3577.667)"/></g><g transform="translate(4741.515 3571.78)"><path d="M4761.676,3583.272l.937.025c.153,0,.305,0,.458,0a.877.877,0,0,0,.492-.125.172.172,0,0,0,0-.292.849.849,0,0,0-.475-.124c-.159-.007-.317-.006-.476,0l-.937.025a.246.246,0,0,0,0,.492Z" transform="translate(-4761.439 -3582.752)"/></g><g transform="translate(4741.318 3575.432)"><path d="M4761.335,3587.236l.417.189.2.093a.764.764,0,0,0,.139.053l.115.029a.175.175,0,0,0,.2-.08.178.178,0,0,0-.027-.212,1.593,1.593,0,0,0-.2-.152l-.2-.112-.4-.22a.238.238,0,1,0-.239.411Z" transform="translate(-4761.22 -3586.794)"/></g><g transform="translate(4628.484 3483.554)"><path d="M4636.031,3485.214a.053.053,0,0,0,0-.106.053.053,0,0,0,0,.106Z" transform="translate(-4635.979 -3485.108)"/></g><g transform="translate(4620.271 3469)"><g transform="translate(2.412 17.227)"><path d="M4629.9,3490.166a17.784,17.784,0,0,1,1.849-.93c.316-.135.638-.258.961-.376a5.076,5.076,0,0,0,.948-.4.216.216,0,0,0-.108-.4,3.411,3.411,0,0,0-1.053.278q-.483.187-.956.4a17.826,17.826,0,0,0-1.889,1,.246.246,0,0,0,.248.425Z" transform="translate(-4629.54 -3488.066)"/></g><g transform="translate(0 11.145)"><path d="M4627.08,3481.79q1.271.118,2.523.354c.4.076.793.162,1.188.25.214.048.425.1.639.143a1.276,1.276,0,0,0,.594.055.235.235,0,0,0,.1-.389,1.164,1.164,0,0,0-.539-.235c-.21-.059-.423-.1-.637-.15-.428-.09-.859-.162-1.291-.226q-1.282-.187-2.579-.258c-.294-.015-.286.429,0,.456Z" transform="translate(-4626.862 -3481.334)"/></g><g transform="translate(2.998 2.475)"><path d="M4630.3,3472.181l2.292,1.447q.573.362,1.15.715a3.988,3.988,0,0,0,1.174.586.179.179,0,0,0,.172-.3,4,4,0,0,0-1.061-.779q-.578-.354-1.161-.7l-2.33-1.381a.235.235,0,0,0-.237.407Z" transform="translate(-4630.19 -3471.739)"/></g><g transform="translate(10.33)"><path d="M4638.364,3469.379a7.345,7.345,0,0,0,.683.994,3.147,3.147,0,0,0,.874.813.206.206,0,0,0,.282-.282,2.13,2.13,0,0,0-.195-.246c-.063-.065-.127-.131-.189-.2-.131-.142-.262-.284-.385-.432a6.532,6.532,0,0,1-.632-.906.254.254,0,0,0-.437.257Z" transform="translate(-4638.328 -3469)"/></g></g><g transform="translate(4637.453 3519.636)"><path d="M4692.021,3543.836a8.229,8.229,0,0,0-5.642-4.539,6.962,6.962,0,0,0-4.7.742,10.247,10.247,0,0,0-.144-6.774c-1.162-3.189-3.064-5.885-6.247-7.261a12.083,12.083,0,0,0-9.189-.108,13.413,13.413,0,0,0-7.289,6.506,10.01,10.01,0,0,0-.656,5.588c.013.083.042.158.055.24a8.072,8.072,0,0,0-1.093-.252,11.142,11.142,0,0,0-8.566,2.384,6.521,6.521,0,0,0-2.141,7.607c1.177,2.861,3.87,4.436,6.63,5.5a8.749,8.749,0,0,0,4.8.61c.21,4.314.341,8.635.362,12.952a1.4,1.4,0,0,0,.31.878,1.007,1.007,0,0,0,.721,1.154c2.866.717,6.01.535,8.94.59q2.321.043,4.642.053a5.792,5.792,0,0,0,2.979-.479,11.187,11.187,0,0,0,5.116-.544,1.549,1.549,0,0,0,1.114-1.467c-.3-3.969-.641-7.941-.915-11.915a12.558,12.558,0,0,0,3.977.181,8.622,8.622,0,0,0,6.639-4.213A8.122,8.122,0,0,0,4692.021,3543.836Zm-29.083,12.792h6.177a1.08,1.08,0,0,1,0,2.159h-6.177a1.08,1.08,0,0,1,0-2.159Zm11.945,7.06c-4.033.538-8.1.077-12.149.068a1.08,1.08,0,0,1,0-2.158c4.049.008,8.116.469,12.149-.069.581-.077,1.077.557,1.077,1.08A1.114,1.114,0,0,1,4674.883,3563.688Z" transform="translate(-4645.935 -3525.042)"/></g></g></svg>