<svg xmlns="http://www.w3.org/2000/svg" width="180" height="140" viewBox="0 0 180 140"><g transform="translate(-3688.883 -3467.124)"><g transform="translate(3815.96 3599.376)"><path d="M3861.3,3605.36c-.04-.957-.558-2.414-.554-3.37,0-.111,0-.219.006-.33l-42.532-.455,0,.014c.134.437.248.892.366,1.342a.929.929,0,0,1-.1.753c-.062.1-.129.179-.214.1-.134-.132-.12-.368-.127-.586,0-.138-.006-.277-.019-.412s-.061-.267-.145-.3-.149.1-.172.231a2,2,0,0,0-.077,1.021,1.627,1.627,0,0,1-.085,1.423.677.677,0,0,0,.087.864,4.914,4.914,0,0,0,1.767,1.082c.185.07.385.04.534-.259.109-.217.219-.353.309.054s.205.833.534.8c.35-.038.416-.517.521-.959.145-.6.409-.72.685-.289.149.232.338.239.441.1.506-.676.7-.213.8.866.2-1.214.425-.8.651-.35.312.616.945.742,1.329.268.525-.646.773-.615,1.212.262.172.343.3.1.412-.028.548-.611,1.015-.607,1.587.061.787.917.9.781,1.4-.58.139-.383.177-1.09.6-.555.207.26.6-.335.719.534a1.53,1.53,0,0,0,.595.878c.231.182.28-.352.42-.547.272-.381.577-.213.743.11.371.726.739.539,1.159.205.282-.224.583-.383.843.1.161.3.3.143.465-.038.287-.315.686-.647.937-.4a5.538,5.538,0,0,1,.981.984c.28.441.49.223.512-.264.037-.847.226-.53.47-.318a2.2,2.2,0,0,1,.347.429c.089.132.184.237.305.149.144-.1.138-.331.166-.552.041-.33-.171-.635-.019-1.073.1.389.172.681.246.972.1.388.274.646.519.612s.211-.417.225-.715a.567.567,0,0,1,.327-.544c.147-.076.25.131.3.323a4.7,4.7,0,0,0,.536,1.149c.315.537.487.5.765-.092.68-1.453.563-1.434,1.093.058.151.423.287.543.583.244s.579-.9.995-.679c.391.208.764.542,1.18.1.037-.037.129.031.18.09a.383.383,0,0,0,.64-.018c.3-.365.482-.177.674.209.072.143.16.286.292.145.538-.581,1.1-.226,1.545.155.4.344.57.258.777-.383.2.6.456.585.747.339.174-.147.362-.251.53-.417.25-.25.481-.238.641.163.251.629.467,1.315.953.43.529.284.812-.4,1.1-.92.235-.436.345-.307.454.1.228.851.839.657,1.168,1.251.074.135.281.009.313-.237.063-.485.367-.773.335-1.347a.527.527,0,0,1,.345-.592c.415-.075.8.62,1.239.1.009-.011.042,0,.044.016.1.694.557.632.782,1.054.088.164.152.392.307.26.128-.107.095-.345.079-.522-.063-.675.146-.8.478-.777.222.016.261.436.406.5.332.155.074-.663.268-.607.23.067.466.084.689.168C3861.462,3606.812,3861.326,3606.047,3861.3,3605.36Z" transform="translate(-3817.541 -3601.205)"/></g><g transform="translate(3734.236 3523.243)"><g transform="translate(0 18.717)"><path d="M3735.432,3544.7q3.548.107,7.1.261,1.741.078,3.477.236.867.08,1.733.178a2.341,2.341,0,0,0,1.743-.159.83.83,0,0,0,.165-1.281,2.238,2.238,0,0,0-1.641-.567q-.932-.1-1.867-.168-1.8-.139-3.61-.191a42.666,42.666,0,0,0-7.268.431c-.739.1-.523,1.239.171,1.26Z" transform="translate(-3734.8 -3542.994)"/></g><g transform="translate(23.664 18.663)"><path d="M3759.461,3544.643c2.1.171,4.209.221,6.317.284,1.052.031,2.1.084,3.156.127a9.47,9.47,0,0,0,3.094-.186c.512-.156.734-1,.164-1.252a8.673,8.673,0,0,0-3.015-.561c-1.089-.069-2.187-.078-3.278-.1a48.863,48.863,0,0,0-6.438.23.729.729,0,0,0,0,1.457Z" transform="translate(-3758.759 -3542.94)"/></g><g transform="translate(45.924 18.51)"><path d="M3782.142,3544.681c1.781.059,3.561.091,5.343.11.874.01,1.749.029,2.623.027.85,0,2.015.136,2.551-.658a.69.69,0,0,0,0-.709c-.534-.792-1.7-.656-2.551-.658-.874,0-1.749.019-2.623.028-1.782.019-3.562.051-5.343.109a.876.876,0,0,0,0,1.751Z" transform="translate(-3781.295 -3542.785)"/></g><g transform="translate(66.939 18.413)"><path d="M3803.46,3544.723c3.137.085,6.273.193,9.411.2a1.119,1.119,0,0,0,0-2.236c-3.138.006-6.274.115-9.411.2a.919.919,0,0,0,0,1.838Z" transform="translate(-3802.571 -3542.686)"/></g><g transform="translate(71.256 0.689)"><path d="M3807.677,3525.172a32.735,32.735,0,0,0-.671,6.137q-.051,1.534-.056,3.069c0,.789-.147,2.478,1,2.6,1.2.124,1.108-1.66,1.084-2.394q-.049-1.531-.057-3.066c-.01-2.059.022-4.117-.053-6.175-.026-.686-1.083-.891-1.245-.167Z" transform="translate(-3806.943 -3524.718)"/></g><g transform="translate(66.064 5.389)"><path d="M3802.287,3531.389c2.031.208,4.075.347,6.116.358.984,0,1.967,0,2.95.013.8.012,2.472.1,2.458-1.107s-1.619-1.181-2.458-1.167c-.986.015-1.968.063-2.95.134-2.043.147-4.065.456-6.116.521a.624.624,0,0,0,0,1.248Z" transform="translate(-3801.685 -3529.483)"/></g><g transform="translate(67.474 1.701)"><path d="M3803.284,3526.876c1.2,1.421,2.076,3.1,3.36,4.449.761.8,1.586,1.543,2.4,2.3.4.377.806.756,1.194,1.148a3.868,3.868,0,0,0,1.413,1.148c.737.259,1.307-.517,1.174-1.174a3.12,3.12,0,0,0-1.093-1.466c-.38-.367-.771-.721-1.166-1.074-.843-.753-1.7-1.491-2.5-2.3-.621-.627-1.19-1.3-1.8-1.935-.668-.689-1.361-1.354-2.043-2.029-.613-.606-1.473.292-.934.932Z" transform="translate(-3803.113 -3525.743)"/></g><g transform="translate(67.013 1.837)"><path d="M3803.559,3535.558a53.14,53.14,0,0,0,4.648-3.974c.725-.7,1.449-1.4,2.185-2.082.38-.354.764-.7,1.15-1.052a6.692,6.692,0,0,0,1.131-1.145.963.963,0,0,0-.149-1.155.989.989,0,0,0-1.157-.149,5.383,5.383,0,0,0-1.194.974c-.36.335-.71.681-1.059,1.028-.732.727-1.451,1.467-2.169,2.208-1.4,1.44-2.711,2.967-4.132,4.381-.478.477.176,1.4.747.967Z" transform="translate(-3802.646 -3525.882)"/></g><g transform="translate(45.37 6.038)"><path d="M3792.56,3530.873a32.862,32.862,0,0,0-6.145-.67q-1.537-.049-3.074-.055c-.789,0-2.48-.148-2.6,1-.125,1.2,1.662,1.107,2.4,1.083q1.535-.049,3.071-.057c2.062-.009,4.123.022,6.183-.053.687-.026.892-1.081.168-1.243Z" transform="translate(-3780.735 -3530.14)"/></g><g transform="translate(50.658 0.852)"><path d="M3786.465,3525.484c-.208,2.028-.348,4.07-.358,6.108,0,.982,0,1.965-.013,2.946-.012.794-.1,2.469,1.108,2.455s1.181-1.616,1.168-2.455c-.016-.984-.063-1.965-.135-2.946-.147-2.041-.456-4.06-.521-6.108a.626.626,0,0,0-1.25,0Z" transform="translate(-3786.088 -3524.882)"/></g><g transform="translate(46.397 2.26)"><path d="M3790.88,3526.481c-1.424,1.2-3.1,2.073-4.456,3.356-.8.76-1.545,1.584-2.3,2.392-.377.4-.757.8-1.15,1.194a3.849,3.849,0,0,0-1.15,1.41c-.26.736.518,1.3,1.174,1.173a3.117,3.117,0,0,0,1.469-1.092c.368-.38.723-.77,1.076-1.164.755-.841,1.493-1.7,2.3-2.5.628-.62,1.3-1.189,1.938-1.8.69-.667,1.356-1.359,2.032-2.04.606-.613-.292-1.471-.933-.932Z" transform="translate(-3781.774 -3526.311)"/></g><g transform="translate(46.696 1.8)"><path d="M3782.19,3526.755a53.539,53.539,0,0,0,3.979,4.642c.7.724,1.4,1.448,2.085,2.183.354.379.7.763,1.053,1.147a6.717,6.717,0,0,0,1.147,1.129.966.966,0,0,0,1.158-.149.988.988,0,0,0,.149-1.156,5.443,5.443,0,0,0-.975-1.193c-.336-.359-.682-.709-1.029-1.057-.729-.731-1.469-1.449-2.21-2.166-1.442-1.4-2.971-2.708-4.387-4.126-.477-.477-1.406.177-.969.746Z" transform="translate(-3782.077 -3525.844)"/></g><g transform="translate(24.004 6.038)"><path d="M3770.927,3530.873a32.86,32.86,0,0,0-6.146-.67q-1.537-.049-3.073-.055c-.79,0-2.481-.148-2.6,1-.125,1.2,1.662,1.107,2.4,1.083q1.533-.049,3.07-.057c2.061-.009,4.123.022,6.183-.053.688-.026.892-1.081.168-1.243Z" transform="translate(-3759.103 -3530.14)"/></g><g transform="translate(29.291 0.852)"><path d="M3764.832,3525.484c-.208,2.028-.349,4.07-.358,6.108,0,.982,0,1.965-.013,2.946-.012.794-.1,2.469,1.108,2.455s1.183-1.616,1.169-2.455c-.016-.984-.063-1.965-.135-2.946-.147-2.041-.456-4.06-.521-6.108a.625.625,0,0,0-1.25,0Z" transform="translate(-3764.455 -3524.882)"/></g><g transform="translate(25.03 2.26)"><path d="M3769.247,3526.481c-1.424,1.2-3.1,2.073-4.456,3.356-.8.76-1.545,1.584-2.3,2.392-.377.4-.757.8-1.15,1.194a3.842,3.842,0,0,0-1.15,1.41c-.26.736.517,1.3,1.175,1.173a3.126,3.126,0,0,0,1.469-1.092c.367-.38.722-.77,1.075-1.164.754-.841,1.493-1.7,2.3-2.5.629-.62,1.3-1.189,1.938-1.8.69-.667,1.356-1.359,2.031-2.04.606-.613-.292-1.471-.933-.932Z" transform="translate(-3760.141 -3526.311)"/></g><g transform="translate(25.33 1.8)"><path d="M3760.559,3526.755a53.119,53.119,0,0,0,3.98,4.642c.7.724,1.4,1.448,2.084,2.183.355.379.7.763,1.054,1.147a6.666,6.666,0,0,0,1.147,1.129.964.964,0,0,0,1.156-.149.986.986,0,0,0,.149-1.156,5.408,5.408,0,0,0-.975-1.193c-.335-.359-.682-.709-1.029-1.057-.728-.731-1.469-1.449-2.211-2.166-1.442-1.4-2.971-2.708-4.387-4.126-.477-.477-1.4.177-.968.746Z" transform="translate(-3760.445 -3525.844)"/></g><g transform="translate(2.205 2.067)"><path d="M3737.969,3534.927a43.553,43.553,0,0,0,7.162-6.128c.545-.541,1.486-1.343,1.1-2.222a.774.774,0,0,0-.789-.461,1.914,1.914,0,0,0-1.291.681q-1.609,1.733-3.287,3.4c-1.241,1.228-2.478,2.461-3.668,3.739-.474.509.138,1.392.769.993Z" transform="translate(-3737.032 -3526.115)"/></g><g transform="translate(2.297 2.379)"><path d="M3746.085,3534.345c-1.143-1.4-2.326-2.815-3.6-4.1-.622-.625-1.241-1.253-1.866-1.876q-.483-.481-.955-.973a3.709,3.709,0,0,0-.628-.6,3.555,3.555,0,0,0-.733-.318.934.934,0,0,0-1.142,1.14,2.851,2.851,0,0,0,.3.753,3.583,3.583,0,0,0,.537.588c.323.319.652.634.983.945.662.622,1.349,1.213,2.038,1.806,1.384,1.192,2.854,2.263,4.189,3.516a.625.625,0,0,0,.884-.883Z" transform="translate(-3737.125 -3526.431)"/></g><g transform="translate(5.963)"><path d="M3742.279,3536.776c.131-1.528.5-3.016.7-4.537a40.087,40.087,0,0,0-.023-5.535c-.008-.836.326-2.346-.76-2.649a1.01,1.01,0,0,0-1.108.45,2.486,2.486,0,0,0-.248,1.419c0,1.866.235,3.726.206,5.594-.029,1.756-.092,3.5-.084,5.259a.66.66,0,0,0,1.32,0Z" transform="translate(-3740.837 -3524.019)"/></g><g transform="translate(0.372 5.746)"><path d="M3748,3530.5a53.512,53.512,0,0,0-6.055-.454c-1.023-.019-2.048-.038-3.071-.075a13.8,13.8,0,0,0-3.017-.047c-.988.191-.824,1.562,0,1.839a10.083,10.083,0,0,0,3.017.178c1.023,0,2.048-.013,3.071-.029,2.019-.031,4.039-.183,6.055-.181.819,0,.761-1.13,0-1.231Z" transform="translate(-3735.177 -3529.845)"/></g></g><g transform="translate(3794.451 3467.125)"><g transform="translate(37.566 41.007)"><g transform="translate(0 0.825)"><path d="M3833.8,3532.326c.7,1.015,1.357,7.166,1.634,8.368.344-1.26,3.361-18.352,2.943-21.926-.44-3.772-.5-4.15-1.383-6.161s.692-.05.943-1.056a3.962,3.962,0,0,0,.063-1.76,10.145,10.145,0,0,0-3.883-.126C3834.3,3515.3,3834.1,3524.1,3833.8,3532.326Z" transform="translate(-3833.798 -3509.535)"/></g><g transform="translate(0.522)"><path d="M3850.531,3511.088c-3.587,1.194-5.161,1.885-6.483,1.635s-1.7,5.405-1.637,7.1-.881,1.76-1.762,3.143c-.837,1.314-5.906,9.325-6.321,10.359.459,2,1.389,6.535,1.584,8.494a91.849,91.849,0,0,1,.274,12.057l4.211.771s.881-9.869,3.714-15.589,13.03-24.956,13.03-24.956v-3.646l1.322-1.76S3854.119,3509.894,3850.531,3511.088Z" transform="translate(-3834.327 -3508.699)"/></g></g><g transform="translate(24.487 41.007)"><path d="M3858.168,3566.907a40.621,40.621,0,0,0,9.771-20.924c.205-1.528.273-3.075.561-4.592.261-1.371.7-2.7,1.05-4.053a24.178,24.178,0,0,0-.427-14.808c-1.83-4.676-5.822-8.643-10.738-9.694l-.094-4.138s-7.3,2.137-11.456,6.914-6.169,17.727-6.8,27.156-.441,10.183-.441,10.183a36.979,36.979,0,0,1-9.379-1.068c-5.162-1.257-5.225-.816-5.225-.816a30.935,30.935,0,0,1-1.6,4.84,18.147,18.147,0,0,1-2.833,4.242s19.735,6.381,22.882,7.2S3856.03,3569.358,3858.168,3566.907Z" transform="translate(-3820.556 -3508.699)"/></g><g transform="translate(24.927 89.715)"><path d="M3856.8,3567.707c-6.436.114-12.648-.157-18.792-2.275-2.866-.987-5.595-2.3-8.487-3.218-2.542-.81-5.165-1.637-6.892-3.795-.794-.991-2.184.412-1.4,1.395,1.736,2.167,4.307,3.183,6.878,4.016,3.107,1.007,6.088,2.32,9.18,3.361,6.162,2.073,13.255,3.053,19.654,1.576a.542.542,0,0,0-.143-1.059Z" transform="translate(-3821.001 -3558.081)"/></g><g transform="translate(30.047 82.449)"><path d="M3826.32,3551.23c7.339,3.421,15.813,1.86,23.3,4.8.551.216.786-.667.244-.882-1.814-.722-3.684-1.292-5.5-2.016l.073.553c1.57-.961,3.477-1.253,5.025-2.187a.33.33,0,0,0-.165-.61c-1.846.023-3.663,1.343-5.166,2.274a.306.306,0,0,0,.072.553c1.829.721,3.591,1.592,5.417,2.314l.244-.882c-7.478-2.916-15.836-1.539-23.332-4.415-.288-.11-.492.369-.21.5Z" transform="translate(-3826.186 -3550.713)" fill="#fff"/></g><g transform="translate(56.621 58.329)"><path d="M3856.481,3526.391a26.687,26.687,0,0,0-2.534,5.769,18.73,18.73,0,0,0-.711,3.028,6.5,6.5,0,0,0,.056,2.97c.08.226.447.271.506,0,.215-.986.15-2.047.307-3.05a19.175,19.175,0,0,1,.681-2.826c.615-1.942,1.559-3.751,2.211-5.675.1-.309-.353-.482-.515-.216Z" transform="translate(-3853.09 -3526.26)" fill="#fff"/></g><g transform="translate(0 80.279)"><g transform="translate(0.08 3.784)"><path d="M3812.494,3556.028c-2.635-.166-5.264-.294-7.9-.389l-3.871-.141-1.935-.069c-.208-.008-1.989.051-2.049-.129l-.211.517a17.823,17.823,0,0,1,6.459-2c1.113-.143,2.231-.191,3.349-.26a11.448,11.448,0,0,0,3.255-.281.357.357,0,0,0,0-.681,9.732,9.732,0,0,0-3.392-.192,29.384,29.384,0,0,0-3.579.3,15.763,15.763,0,0,0-6.554,2.325.475.475,0,0,0-.165.626c.388.914,1.965.633,2.726.655l4.677.133c3.066.085,6.126.15,9.193.155a.284.284,0,0,0,0-.567Z" transform="translate(-3795.845 -3552.35)"/></g><path d="M3815.973,3549.318c-1.368-.233-2.752-.392-4.133-.521a32.692,32.692,0,0,0-7.493-.1c-.427.059-3.129.41-2.279,1.448.318.388,1.032.385,1.481.43,1.01.1,2.018.222,3.022.369q2.3.339,4.59.775c.578.111.828-.772.245-.888a25.352,25.352,0,0,0-7.153-.3,35.678,35.678,0,0,0-6.765,1.045c-.63.182-2.147.692-1.613,1.646.5.9,2.366.909,3.2.815.37-.041.523-.606.1-.7-.576-.13-1.166-.167-1.737-.313a4.015,4.015,0,0,0-.542-.17c-.139-.012-.189-.206-.187-.011s.207-.031.327-.09a4.393,4.393,0,0,1,.71-.248,18.946,18.946,0,0,1,2.311-.455c3.676-.564,7.415-1.04,11.106-.332l.245-.888q-2.058-.379-4.13-.677c-1.033-.151-2.068-.291-3.108-.383a5.614,5.614,0,0,0-1.341-.146.646.646,0,0,1-.167-.057c-.071.335-.04.455.1.36a2.673,2.673,0,0,0,.4-.163c2.375-.8,5.22-.57,7.676-.423,1.665.1,3.339.273,4.988.538.363.058.521-.5.154-.557Z" transform="translate(-3795.764 -3548.514)"/><g transform="translate(9.766 10.536)"><path d="M3806.009,3561.844c2.746-.542,5.411-1.322,8.211-1.611a38.1,38.1,0,0,1,4.015-.2,24.974,24.974,0,0,0,3.938.077c.3-.049.225-.448,0-.535a12.462,12.462,0,0,0-4.235-.365,38.41,38.41,0,0,0-4.163.22,24.919,24.919,0,0,0-7.979,1.91c-.3.142-.078.565.213.507Z" transform="translate(-3805.653 -3559.196)"/></g><g transform="translate(9.151 6.98)"><path d="M3813.408,3555.595a7.012,7.012,0,0,0-2.68.522,19.309,19.309,0,0,0-2.6,1.084,7.142,7.142,0,0,0-2,1.551,3.166,3.166,0,0,0-1.079,2.4.636.636,0,0,0,1.051.277,3.614,3.614,0,0,0,.585-.95,4.838,4.838,0,0,1,.556-.782,8.171,8.171,0,0,1,1.743-1.438,19.52,19.52,0,0,1,2.153-1.151,9.179,9.179,0,0,1,2.347-.885c.367-.062.259-.611-.084-.625Z" transform="translate(-3805.03 -3555.591)"/></g></g><g transform="translate(27.924 94.627)"><path d="M3832.684,3567.775c4.156,1.979,13.408,3.017,18.035,3.3a23.81,23.81,0,0,0,7.271-.471l4.626-7.544s.188,5.613.1,11.037a74.86,74.86,0,0,0,.741,9.782s-8.806.522-13.905,1.371-25.521-1.207-25.521-1.207,4.534-7.175,5.267-8.877C3830.95,3571.344,3832.684,3567.775,3832.684,3567.775Z" transform="translate(-3824.036 -3563.06)"/></g><g transform="translate(20.865 81.124)"><path d="M3825.5,3551.9a6.9,6.9,0,0,0-3.876-2.147,13.527,13.527,0,0,0-2.291-.352c-.383-.027-.765-.031-1.149-.025-.161,0-.322,0-.483.012a1.476,1.476,0,0,1-.513.018l.166.293-.066.087-.3-.079.015.021a.215.215,0,0,0,.391-.165l0-.026a.223.223,0,0,0-.212-.162.273.273,0,0,0-.259.14.242.242,0,0,0,.037.289c.189.227.543.08.792.049a7.574,7.574,0,0,1,1.05-.043,12.855,12.855,0,0,1,2.376.271,8.413,8.413,0,0,1,4.173,1.97c.1.1.236-.046.151-.151Z" transform="translate(-3816.89 -3549.37)"/></g><g transform="translate(45.8 30.811)"><path d="M3848.781,3498.368c-.354.05-.509.489-.712.739a5.8,5.8,0,0,1-.64.683,3.431,3.431,0,0,1-1.519.821,2.947,2.947,0,0,1-.772.008,4.582,4.582,0,0,1-.819-.19,3.3,3.3,0,0,1-.728-.328,1.692,1.692,0,0,0-.9-.315.566.566,0,0,0-.553.552c-.033.889,1.152,1.316,1.833,1.531a4.516,4.516,0,0,0,2.494.13,4.054,4.054,0,0,0,2.116-1.392,4.136,4.136,0,0,0,.666-1.189,1.257,1.257,0,0,0,.111-.683.5.5,0,0,0-.574-.366Z" transform="translate(-3842.134 -3498.362)"/></g><g transform="translate(51.165 20.487)"><path d="M3848.32,3489.456a.781.781,0,0,0,0-1.561.781.781,0,0,0,0,1.561Z" transform="translate(-3847.565 -3487.895)"/></g><g transform="translate(41.274 21.155)"><path d="M3837.552,3489.313v.04a.571.571,0,0,0,.064.285.668.668,0,0,0,.391.391.562.562,0,0,0,.286.064l.2-.027a.746.746,0,0,0,.327-.19l.115-.15a.727.727,0,0,0,.1-.373v-.04a.821.821,0,0,0-.216-.524.568.568,0,0,0-.239-.153.557.557,0,0,0-.285-.063l-.2.027a.744.744,0,0,0-.327.189l-.115.15a.738.738,0,0,0-.1.374Z" transform="translate(-3837.552 -3488.573)"/></g><g transform="translate(44.404 16.115)"><path d="M3841.619,3483.813a46.24,46.24,0,0,0-.8,4.8,34.522,34.522,0,0,0,0,5.193,13.476,13.476,0,0,0,.188,2.259,1.5,1.5,0,0,0,1.236,1.063c.831.227,3.176.825,3.421-.466a.626.626,0,0,0-.277-.679c-.451-.288-.924-.015-1.416-.015a6.372,6.372,0,0,1-1.431-.192c-.278-.064-.311-.115-.356-.4-.056-.355-.057-.727-.084-1.085-.05-.685-.1-1.369-.128-2.054a39.495,39.495,0,0,1,.581-8.168c.1-.6-.811-.879-.937-.258Z" transform="translate(-3840.721 -3483.462)"/></g><g transform="translate(34.618)"><path d="M3830.816,3473.361c-.077,4.151,1.641,9.832,7.951,10.9,2.517.424,5.573.029,8.131-.158,1.77-.13,4.223-.651,5.72.593,1.656,1.377,2.414,4.776,2.621,5.993a13.239,13.239,0,0,0,.755,3.379.469.469,0,0,0,.852-.056,9.536,9.536,0,0,0,.04-3.844c-.055-.48-.136-.958-.215-1.437a5.612,5.612,0,0,1,2.146-1.726,1.155,1.155,0,0,1,1.38.065,3.869,3.869,0,0,1,.9,1.237,5.552,5.552,0,0,1,.642,3.749,3.966,3.966,0,0,1-.686,1.461c-.341.454-.851.7-1.221,1.111-.283.318-.214,1.006.336.985,1.352-.053,2.335-1.578,2.716-2.737a6.72,6.72,0,0,0-.05-4,5.417,5.417,0,0,0-1.939-3.18,2.325,2.325,0,0,0-.413-.2,8.515,8.515,0,0,0,1.438-7.091c-.675-2.617-2.669-2.436-4.377-1.389-.083-2.664-1.043-5.856-3.417-7-2.328-1.119-3.591,1.463-4.926,3.02-3.035-4.122-8.584-6.973-13.7-5.532A6.564,6.564,0,0,0,3830.816,3473.361Z" transform="translate(-3830.813 -3467.125)"/></g><g transform="translate(60.158 32.279)"><path d="M3859.2,3500.383a3.5,3.5,0,0,1-.121.568c-.045.184-.07.371-.114.555a4.1,4.1,0,0,1-.433,1.093,8.322,8.322,0,0,1-.645.985c-.108.141-.241.3-.363.439-.072.082-.144.164-.217.244l-.11.121c-.053.059-.061.063-.022.011l.33-.089.067.01.289.167a.456.456,0,0,1,.109.238c-.017.1-.015.088.006-.023s.047-.237.071-.354l.125-.62.266-1.328.124-.62a2.176,2.176,0,0,0,.067-.327q.064-.2-.112.13c-.054.027-.038.024.048-.009.186-.046.366-.1.556-.131l.051-.008c.053-.006.108-.011.161-.014.1.009.108.008.033,0a.812.812,0,0,0,.292.024l-.562-1.355c-.45.425-1.117,1.387-.693,2.006a.576.576,0,0,0,.62.252c.348-.064.561-.385.753-.649.077-.106-.111.119.041-.051.042-.045.083-.091.127-.134.1-.1.184-.2.276-.3a.8.8,0,0,0,.165-.868.784.784,0,0,0-.727-.488,4.929,4.929,0,0,0-1.386.407,1.3,1.3,0,0,0-.887.916c-.2.894-.375,1.8-.563,2.695a1.9,1.9,0,0,0-.033,1.358.8.8,0,0,0,.716.387,1.027,1.027,0,0,0,.7-.392,8.717,8.717,0,0,0,1.533-2.062,5.43,5.43,0,0,0,.468-1.357,2.488,2.488,0,0,0,.05-.774,3.457,3.457,0,0,0-.2-.764.437.437,0,0,0-.853.115Z" transform="translate(-3856.671 -3499.85)"/></g><g transform="translate(58.868 33.115)"><path d="M3858.17,3501.555l.407-.115-.225-.553a17.365,17.365,0,0,0-1.28,3.971q-.5,1.976-.853,3.979-.35,1.947-.6,3.911c-.153,1.187-.594,2.731.235,3.74a.437.437,0,0,0,.726-.191,10.876,10.876,0,0,0,.176-1.819c.058-.675.139-1.347.223-2.019q.242-1.934.588-3.852.335-1.861.731-3.713a27.2,27.2,0,0,0,.758-3.817.379.379,0,0,0-.377-.377.955.955,0,0,0-.876.641c-.085.209.225.363.369.214Z" transform="translate(-3855.364 -3500.698)"/></g><g transform="translate(38.651 39.665)"><path d="M3842.261,3508.238c-.053,1.217-.424,3.767-.424,3.767s-3.233,9.049-4.293,11.8-2.013-7.673-2.331-9.365a15,15,0,0,1-.318-2.339l.152-2.559,2.974-.14.477-2.063Z" transform="translate(-3834.896 -3507.338)"/></g></g><g transform="translate(3725.492 3491.947)"><path d="M3726.358,3517.214c4.214-8.917,13.086-14.017,21.851-17.66,8.8-3.656,18.163-6.431,27.787-6.08a44.955,44.955,0,0,1,24.553,8.743A49.78,49.78,0,0,1,3807.3,3508a41.521,41.521,0,0,1,5.09,6.729,78.016,78.016,0,0,1,7.576,15.14,59.942,59.942,0,0,1,3.135,14.4,54.916,54.916,0,0,1-.328,14.657,30.685,30.685,0,0,1-.734,3.174.362.362,0,0,0,.7.192,40.8,40.8,0,0,0,1.87-14.483,63.34,63.34,0,0,0-2.369-15.112,66.588,66.588,0,0,0-6.706-15.25,71.171,71.171,0,0,0-4.7-7.235,40.215,40.215,0,0,0-6.157-6.348,47.486,47.486,0,0,0-26.009-11.385c-9.392-.889-18.81,1.385-27.513,4.758-8.925,3.461-18.741,8.081-23.755,16.688a20.97,20.97,0,0,0-1.441,3.117c-.087.228.292.389.4.167Z" transform="translate(-3725.948 -3492.29)"/></g><g transform="translate(3724.34 3528.607)"><path d="M3724.816,3569.3a49.305,49.305,0,0,0,21.281,22.382,50.927,50.927,0,0,0,33.454,5.172,67.764,67.764,0,0,0,30.8-15.915,53.906,53.906,0,0,0,10.692-14.167,29,29,0,0,0,2.486-6.13,35.258,35.258,0,0,0,.844-5.356,64.622,64.622,0,0,0-.139-12.942c-.416-3.756-1.058-7.662-2.8-11.059a12.3,12.3,0,0,0-1.119-1.708c-.212-.287-.7-.008-.484.283a13.4,13.4,0,0,1,1.825,4.179,42.041,42.041,0,0,1,1.187,5.519,65.952,65.952,0,0,1,.623,12.691,31.118,31.118,0,0,1-1.771,10.229,49.563,49.563,0,0,1-9.429,14.674,55.29,55.29,0,0,1-13.127,10.539,66.791,66.791,0,0,1-15.766,6.929,50.159,50.159,0,0,1-33.413-2.418,51.8,51.8,0,0,1-22.636-19.976c-.67-1.073-1.309-2.163-1.9-3.28-.214-.4-.788-.049-.6.353Z" transform="translate(-3724.781 -3529.457)"/></g><g transform="translate(3725.021 3481.659)"><path d="M3725.887,3505.287c3.491-6.629,10.389-10.282,16.75-13.681,7.266-3.88,14.94-7.219,23.206-8.124a73.5,73.5,0,0,1,15-.282,52.1,52.1,0,0,1,16.948,4.594,69.525,69.525,0,0,1,18.463,13.039c.816.777,1.61,1.572,2.448,2.328a.4.4,0,0,0,.569-.568,50.921,50.921,0,0,0-4.8-4.864c-1.5-1.379-3.072-2.673-4.688-3.908a62.779,62.779,0,0,0-9.363-5.966,53.643,53.643,0,0,0-17.555-5.509,68.435,68.435,0,0,0-15.641-.076,52.429,52.429,0,0,0-11,2.206,78.551,78.551,0,0,0-11.725,4.992,98.054,98.054,0,0,0-10.235,5.86,24.832,24.832,0,0,0-7.629,7.451,15.933,15.933,0,0,0-1.149,2.339c-.092.233.287.388.4.17Z" transform="translate(-3725.471 -3481.86)"/></g><g transform="translate(3725.469 3585.048)"><path d="M3725.984,3587.9a53.355,53.355,0,0,0,16.3,13.245,61.971,61.971,0,0,0,19.831,6.789,63.1,63.1,0,0,0,20.647-.222,66.522,66.522,0,0,0,19.492-6.585,53.034,53.034,0,0,0,15.929-12.329c.519-.612,1.014-1.237,1.486-1.885.1-.141-.124-.312-.24-.186a63.737,63.737,0,0,1-15.546,12.434,66.732,66.732,0,0,1-18.875,6.971,63.527,63.527,0,0,1-20.2,1.038,61.394,61.394,0,0,1-19.783-5.831,66.44,66.44,0,0,1-16.867-11.989c-.615-.592-1.22-1.2-1.82-1.8-.232-.233-.546.108-.353.352Z" transform="translate(-3725.924 -3586.679)"/></g><g transform="translate(3796.942 3498.503)"><path d="M3798.572,3601.359c7.8-3.44,15.257-7.872,21.365-13.881a49.856,49.856,0,0,0,11.5-17.817,77.8,77.8,0,0,0,3.268-11.2,44.559,44.559,0,0,0,.983-5.248c.134-1.415.131-2.846.126-4.266a79.672,79.672,0,0,0-.609-10.657,44.926,44.926,0,0,0-1.433-5.742c-.708-2.552-1.438-5.1-2.257-7.619a90.208,90.208,0,0,0-5.8-13.76,36.106,36.106,0,0,0-6.88-9.722,29.249,29.249,0,0,0-2.964-2.461c-.3-.217-.677.271-.4.513a38.625,38.625,0,0,1,8.3,10.557,83.582,83.582,0,0,1,5.53,12.094c1.753,4.852,3.17,9.859,4.449,14.855a23.467,23.467,0,0,1,.534,3.906c.15,1.82.237,3.647.288,5.472.048,1.69.068,3.381.018,5.071a23.758,23.758,0,0,1-.483,4.016,88.1,88.1,0,0,1-2.912,11.38,50.9,50.9,0,0,1-10.314,18.1,55.775,55.775,0,0,1-8.386,7.508,112.922,112.922,0,0,1-11.047,6.89q-1.523.867-3.073,1.684c-.218.114-.027.419.189.324Z" transform="translate(-3798.286 -3498.937)"/></g><g transform="translate(3720.328 3490.057)"><path d="M3721.218,3490.589c-.23,2.457-.4,4.888-.451,7.359q-.082,3.683-.021,7.367c.084,4.877.281,9.75.495,14.623.427,9.729.948,19.463.8,29.205-.041,2.727-.121,5.454-.279,8.177-.16,2.762-.46,5.516-.614,8.276a.322.322,0,0,0,.63.085,64.394,64.394,0,0,0,.875-7.16c.2-2.44.337-4.885.428-7.331.181-4.9.132-9.8-.011-14.7-.285-9.791-.953-19.566-1.218-29.359-.148-5.509-.2-11.03-.194-16.538a.223.223,0,0,0-.446,0Z" transform="translate(-3720.719 -3490.375)"/></g><g transform="translate(3705.047 3491.395)"><path d="M3720.341,3494.353c.087,1.335.056,2.686.067,4.024q.036,4.347.041,8.695.016,6.073.045,12.146.022,7.216.071,14.431.053,7.716.1,15.432.052,7.566.1,15.131.049,6.832.1,13.665.047,5.505.1,11.011c.026,2.345.05,4.69.1,7.036.012.555.02,1.113.047,1.668.006.119.023.242.022.36-.012.979-1.622.621-2.258.588-2.167-.112-4.336-.189-6.5-.267q-1.575-.056-3.151-.123-.787-.034-1.573-.073l-.824-.043a3.581,3.581,0,0,1-.484-.026c0,.008.047-.019.039-.035a1.081,1.081,0,0,1,0-.342q0-.843.006-1.687.011-3.441.021-6.882.016-5.289.031-10.578.021-6.594.041-13.19.024-7.38.045-14.76.024-7.55.047-15.1c.015-4.817.036-9.635.039-14.451q0-6.288.008-12.575c0-3.229-.014-6.458-.024-9.689,0-1.871-.021-3.742-.035-5.614,0-.315,0-.628-.007-.943l-.431.43c1.225-.013,2.451-.072,3.676-.072a.359.359,0,0,0,0-.717c-1.225,0-2.451-.059-3.676-.071a.436.436,0,0,0-.431.43q-.019,1.666-.042,3.332c-.034,2.666-.056,5.332-.081,8q-.05,5.731-.073,11.461-.037,6.939-.059,13.879-.022,7.555-.045,15.109t-.044,15.133q-.019,7.069-.041,14.138-.018,5.969-.035,11.936-.013,4.294-.024,8.587c0,1.362-.019,2.725-.011,4.087,0,.754.3,1.258,1.105,1.328,2.2.19,4.436.2,6.645.278s4.405.163,6.607.272a2.923,2.923,0,0,0,2.206-.493,1.774,1.774,0,0,0,.441-1.492c-.067-1.43-.079-2.863-.1-4.293q-.073-4.516-.116-9.031-.068-6.245-.125-12.489-.071-7.337-.137-14.674-.071-7.762-.14-15.523c-.045-5.077-.077-10.155-.139-15.231q-.083-6.8-.194-13.6-.08-5.335-.185-10.668c-.044-2.184-.084-4.368-.155-6.551-.014-.432-.022-.865-.057-1.3-.029-.356-.584-.362-.562,0Z" transform="translate(-3705.248 -3491.731)"/></g><g transform="translate(3716.465 3491.004)"><path d="M3716.9,3491.994a1.022,1.022,0,0,0,.648.174c.191.013.38.028.571.041.257.021.514.031.771.046l.4.02c.033,0,.067.008.1.007.07,0-.093-.012-.1-.013.1.024-.212-.136-.193-.117l-.121-.207h0l.048-.362h0l.169-.169c-.014.01.153-.058.1-.043,0,0,.171-.016.092-.013-.025,0-.052,0-.078.006a.629.629,0,0,0-.433.151.482.482,0,0,0,.213.8,1.154,1.154,0,0,0,.2.024c.187.016.375.018.563.024.558.018,1.116.031,1.674.043l-.492-.375a3.284,3.284,0,0,1,.089,1.786.49.49,0,0,0,.944.261,3.269,3.269,0,0,0-.048-2.318.53.53,0,0,0-.493-.374c-.605,0-1.211.01-1.816.008-.122,0-.243,0-.364,0-.028,0-.058,0-.085,0-.007,0-.02-.005-.027,0,.084-.031.287.1.318.134l.121.209h0l-.047.365h0l-.17.169a.287.287,0,0,1-.189.055l.078-.009c.2-.024.381-.044.5-.248a.479.479,0,0,0-.288-.7,1.073,1.073,0,0,0-.211-.023c-.211-.01-.422,0-.632,0-.241.006-.481.015-.722.029a1.906,1.906,0,0,0-1.081.19.306.306,0,0,0,0,.433Z" transform="translate(-3716.808 -3491.334)"/></g><g transform="translate(3721.423 3491.686)"><path d="M3722.281,3492.77c1.145-.217,1.745,1.029,1.841,1.961a10.283,10.283,0,0,1-.009,1.522c-.01.219-.017.439-.024.658-.024.724-.041,1.448-.056,2.172-.054,2.445-.084,4.889-.1,7.336-.027,3.482-.03,6.965-.038,10.448q-.015,6.337-.023,12.674-.011,6.936-.015,13.871,0,7.008,0,14.017,0,6.655.01,13.311.012,5.775.017,11.551c0,2.934.036,5.87.052,8.8.009,1.686.028,3.372.018,5.058,0,.189,0,.379-.007.567-.015.368.558.367.573,0,.014-.345.042-1,.056-1.474q.04-1.3.065-2.609.079-4.082.135-8.164c.054-3.716.048-7.433.068-11.15q.034-6.608.048-13.215.01-7.071.02-14.142t.011-14.171q0-6.527.011-13.054c0-3.677.021-7.354.021-11.031q0-3.944-.015-7.889-.006-1.236,0-2.471a21.159,21.159,0,0,0-.031-2.778c-.185-1.4-1.238-2.829-2.812-2.5-.457.1-.262.783.193.7Z" transform="translate(-3721.828 -3492.025)"/></g><g transform="translate(3720.843 3493.005)"><path d="M3725.333,3494.067c.123-.072.45.381.476.46a1.739,1.739,0,0,1,.027.335v.042c0,.04,0,.08,0,.119,0,.091,0,.181,0,.272,0,.258,0,.518,0,.776,0,.8-.012,1.595-.027,2.393-.048,2.571-.061,5.141-.068,7.713q-.013,5.425-.038,10.852-.028,6.454-.044,12.909-.022,7.011-.047,14.024-.023,7.078-.043,14.157-.014,6.685-.018,13.367c0,3.823-.014,7.646.006,11.469q.022,4.326.042,8.651c.009,1.616,0,3.236.053,4.852.005.166.011.332.021.5l.409-.408c-1.5-.02-3-.023-4.5-.06a.359.359,0,0,0,0,.717c1.5.036,3,.106,4.5.16a.412.412,0,0,0,.409-.408c-.044-1.291-.025-2.587-.027-3.878q0-4,.024-8,.04-5.557.057-11.115.029-6.6.062-13.2.03-7.165.056-14.331t.047-14.305q.021-6.659.035-13.32,0-5.677,0-11.354c0-2.753.025-5.511-.067-8.263-.03-.894-.046-1.787-.072-2.682q-.013-.458-.03-.916c0-.115-.007-.23-.013-.345,0-.044,0-.089-.005-.133s-.012-.095-.015-.143c0,.047.012.077.008.018a2.925,2.925,0,0,0-.156-.952.962.962,0,0,0-1.4-.527.327.327,0,0,0,.33.564Z" transform="translate(-3721.241 -3493.363)"/></g><g transform="translate(3700.771 3529.74)"><path d="M3706.266,3530.675c-1.746-.442-3.065,1.34-3.673,2.723a20.343,20.343,0,0,0-1.466,6.673c-.181,2.363-.229,4.758-.2,7.128a22.66,22.66,0,0,0,.928,6.779,11.877,11.877,0,0,0,3.685,5.634l.5-.855c-.319-.076-.629-.172-.942-.269-.441-.138-.745.547-.319.756.293.143.584.286.867.449.486.281,1.086-.427.62-.8-3.151-2.546-4.133-6.642-4.3-10.513-.091-2.126-.022-4.265.058-6.39a27.908,27.908,0,0,1,.784-6.2c.5-1.857,1.291-4.228,3.458-4.584.271-.044.246-.462,0-.524Z" transform="translate(-3700.918 -3530.607)"/></g><g transform="translate(3692.681 3528.404)"><path d="M3693.027,3529.5c-.389,4.469-.239,9.01-.274,13.493-.017,2.208-.018,4.416-.024,6.625q-.006,1.716.022,3.434a20.145,20.145,0,0,0,.164,3.257.257.257,0,0,0,.491,0,20.181,20.181,0,0,0,.192-3.257q.043-1.718.053-3.434c.013-2.208.033-4.416.036-6.625.006-4.482.2-9.022-.15-13.493a.255.255,0,0,0-.51,0Z" transform="translate(-3692.728 -3529.251)"/></g><g transform="translate(3689.098 3525.88)"><path d="M3693.536,3529.3a.939.939,0,0,1-.081-.269,2.115,2.115,0,0,1-.067-.313,5.891,5.891,0,0,0-.1-.713,1.5,1.5,0,0,0-1.056-1.108,4.427,4.427,0,0,0-.717-.153,2.424,2.424,0,0,0-.958,0,1.971,1.971,0,0,0-1.223,1.331,2.975,2.975,0,0,0-.229.993,3.009,3.009,0,0,0,.061.507.609.609,0,0,0,.258.508.342.342,0,0,0,.407-.052.731.731,0,0,0,.156-.533c.012-.132.064-.262.087-.4a2.981,2.981,0,0,1,.252-.858,1.048,1.048,0,0,1,.458-.558,1.67,1.67,0,0,1,.768,0c.394.052.86.135,1.028.572.087.229.134.469.229.7a1.415,1.415,0,0,0,.171.335,1.1,1.1,0,0,0,.327.248.172.172,0,0,0,.234-.233Z" transform="translate(-3689.101 -3526.692)"/></g><g transform="translate(3688.883 3528.005)"><path d="M3689.429,3529.059c-.461,5.136-.553,10.293-.546,15.452s.11,10.3.323,15.45c.028.656,1.048.66,1.025,0q-.271-7.722-.306-15.45c-.017-5.152.06-10.306-.056-15.452a.22.22,0,0,0-.439,0Z" transform="translate(-3688.883 -3528.847)"/></g><g transform="translate(3689.233 3554.295)"><path d="M3689.259,3561.082a2.9,2.9,0,0,0,1.823,1.813,1.954,1.954,0,0,0,2.246-.959,7.355,7.355,0,0,0,.56-2.935c.031-.552.035-1.1.016-1.657a5.223,5.223,0,0,0-.065-.888,2.524,2.524,0,0,0-.248-.8.329.329,0,0,0-.593.078,3.879,3.879,0,0,0-.055,1.356c.022.446.026.893.015,1.338a12.716,12.716,0,0,1-.246,2.535c-.149.638-.5,1.193-1.23,1.149a2.464,2.464,0,0,1-1.74-1.233c-.159-.221-.6-.094-.482.2Z" transform="translate(-3689.238 -3555.5)"/></g><g transform="translate(3692.748 3548.184)"><path d="M3693.1,3552.287c.349-.108.719-.157,1.077-.239.648-.149,1.294-.3,1.938-.469,1.357-.351,2.725-.7,4.047-1.164.336-.118,1.148-.311,1.108-.784a.329.329,0,0,0-.318-.318c.131.012,0-.011-.045-.006a.662.662,0,0,0-.212.049c-.065.028-.126.077-.19.109a4.942,4.942,0,0,1-.543.22c-.595.214-1.2.4-1.81.572-1.338.391-2.687.743-4.019,1.151a10.431,10.431,0,0,0-1.219.436c-.251.114-.073.525.188.444Z" transform="translate(-3692.795 -3549.305)"/></g><g transform="translate(3693.227 3550.094)"><path d="M3693.56,3554.5a4.2,4.2,0,0,1,1.116-.427c.649-.2,1.307-.367,1.961-.543,1.4-.379,2.8-.771,4.174-1.23.372-.125,1.09-.289,1.231-.711a.28.28,0,0,0-.268-.351,3.657,3.657,0,0,0-1.089.362c-.621.224-1.25.423-1.88.622-1.4.442-2.811.867-4.186,1.391a5.164,5.164,0,0,0-1.256.554c-.2.146-.016.477.2.334Z" transform="translate(-3693.281 -3551.241)"/></g><g transform="translate(3693.26 3534.732)"><path d="M3693.406,3536.157a3.529,3.529,0,0,0,.922.576c.569.29,1.149.559,1.73.824,1.264.575,2.552,1.1,3.808,1.695.228.107.452.228.679.338a1.788,1.788,0,0,0,.649.26.387.387,0,0,0,.373-.285l.008-.046a.394.394,0,0,0-.176-.432l-.048-.025a.367.367,0,0,0-.425.054l-.02.017a.326.326,0,0,0,0,.461l.02.017-.1-.248,0,0,.477-.271c-.015,0-.213-.194-.293-.247a4.676,4.676,0,0,0-.562-.289c-.545-.257-1.1-.494-1.654-.73-1.277-.544-2.574-1.039-3.854-1.577-.245-.1-.489-.207-.731-.316-.083-.038-.166-.075-.246-.117-.038-.02-.193-.121-.133-.072-.289-.233-.692.141-.418.417Z" transform="translate(-3693.314 -3535.667)"/></g><g transform="translate(3693.498 3532.04)"><path d="M3693.654,3533.572a3.589,3.589,0,0,0,.947.673c.566.326,1.147.625,1.726.923,1.262.651,2.552,1.25,3.789,1.948.248.14.494.286.733.443a1.52,1.52,0,0,1,.356.279.453.453,0,0,0,.709-.546,2.386,2.386,0,0,0-.971-.787c-.556-.325-1.134-.615-1.71-.9-1.289-.64-2.6-1.229-3.885-1.881q-.387-.2-.763-.41c-.093-.052-.185-.1-.273-.162-.114-.073-.064-.035-.133-.1-.345-.336-.832.166-.523.524Z" transform="translate(-3693.556 -3532.938)"/></g><g transform="translate(3693.248 3540.939)"><path d="M3693.633,3541.991a1.571,1.571,0,0,0-.326.575.107.107,0,0,0,.1.134c.437.011.872.037,1.309.057l-.138-.08c.211.318.583.275.933.291.324.014.649.014.974.021.707.015,1.415.024,2.122.035.6.009,1.192.011,1.789.013.315,0,.788.079,1.06-.111a.376.376,0,0,0,0-.638c-.27-.193-.746-.115-1.06-.115-.6,0-1.192,0-1.789.008-.707.01-1.415.017-2.122.031-.325.006-.65,0-.974.018-.353.016-.72-.031-.933.289l.138-.079c-.437.019-.872.044-1.309.051l.1.133a1.333,1.333,0,0,1,.253-.5c.073-.091-.051-.222-.131-.13Z" transform="translate(-3693.302 -3541.959)"/></g><g transform="translate(3693.257 3544.364)"><path d="M3693.584,3546.068c1.342.151,2.754.127,4.118.161s2.751.12,4.119.082a.422.422,0,0,0,0-.844,14.608,14.608,0,0,0-1.541-.03c-.859,0-1.719,0-2.578.007-1.373.008-2.746.019-4.118.057a.283.283,0,0,0,0,.566Z" transform="translate(-3693.311 -3545.432)"/></g><g transform="translate(3708.881 3488.266)"><path d="M3710.469,3495.078a8.526,8.526,0,0,0,4.992.1,4.614,4.614,0,0,0,2.074-1.144,2.287,2.287,0,0,0,.268-2.379,4.391,4.391,0,0,0-3.49-3.057,4.34,4.34,0,0,0-4.173,2.109,6.888,6.888,0,0,0-.982,2.739,1.863,1.863,0,0,0,.131,1.107,1.058,1.058,0,0,0,.354.413.9.9,0,0,0,.191.094.4.4,0,0,0,.158.044c.12.036.115.023-.016-.036l-.13-.489-.019.049c-.21.547.616.833.91.383l.029-.044a.494.494,0,0,0,0-.508.8.8,0,0,0-.29-.282,2.481,2.481,0,0,0-.276-.086,1.212,1.212,0,0,1-.015-.5,5.841,5.841,0,0,1,.625-1.953,3.538,3.538,0,0,1,2.991-2.043,3.309,3.309,0,0,1,2.955,2.091c.241.57.476,1.306-.034,1.782a4.09,4.09,0,0,1-1.7.843,16.766,16.766,0,0,1-4.473.157.314.314,0,0,0-.084.614Z" transform="translate(-3709.129 -3488.559)"/></g><g transform="translate(3709.448 3507.737)"><path d="M3714.373,3509.6a3.133,3.133,0,0,0-2.867,1.154,4.513,4.513,0,0,0-.9,3.21,2.376,2.376,0,0,0,.673,1.546,3.449,3.449,0,0,0,1.456.719,5.805,5.805,0,0,0,1.836.3,2.7,2.7,0,0,0,1.635-.7,4.648,4.648,0,0,0,1.537-3.092,4.16,4.16,0,0,0-1.483-3.059,3.927,3.927,0,0,0-2.938-1.378,3.712,3.712,0,0,0-2.7,1.24,3.99,3.99,0,0,0-.829,3.421,4.139,4.139,0,0,0,.77,1.647c.413.546.927,1.013,1.324,1.569.171.24.612.107.508-.214a20.526,20.526,0,0,0-1.411-2.357,3.275,3.275,0,0,1-.135-2.381,2.725,2.725,0,0,1,3.62-1.662,3.913,3.913,0,0,1,1.073.833,5.4,5.4,0,0,1,.9,1.1,2.6,2.6,0,0,1-.133,2.631,2.273,2.273,0,0,1-2.122,1.438,6.867,6.867,0,0,1-1.394-.3,1.845,1.845,0,0,1-1.045-.627,2.409,2.409,0,0,1-.259-1.506,3.594,3.594,0,0,1,.406-1.458,2.91,2.91,0,0,1,2.414-1.591c.26-.014.355-.438.065-.482Z" transform="translate(-3709.704 -3508.299)"/></g><g transform="translate(3709.485 3530.509)"><path d="M3712.251,3531.891a4.426,4.426,0,0,0-2.48,4.356,3.085,3.085,0,0,0,1.835,2.218,4.547,4.547,0,0,0,2.9.6c2.011-.309,3.135-2.485,3.079-4.381a3.008,3.008,0,0,0-1.26-2.4,4.153,4.153,0,0,0-1.929-.88,4.018,4.018,0,0,0-1.98.375,2.915,2.915,0,0,0-1.8,1.883.336.336,0,0,0,.556.324,10.127,10.127,0,0,1,1.437-1.2,3.318,3.318,0,0,1,1.343-.4c.092-.006.184-.008.277-.005.031,0,.253.024.153.008a1.638,1.638,0,0,1,.19.043c.132.038-.219-.109.064.028.107.052.215.1.322.155a2.752,2.752,0,0,1,1.528,1.378,3.387,3.387,0,0,1-.155,2.244,2.783,2.783,0,0,1-1.338,1.689,2.965,2.965,0,0,1-2.217.023,5.25,5.25,0,0,1-1.126-.569,2.187,2.187,0,0,1-.825-.774,3.062,3.062,0,0,1,.158-2.369,3.754,3.754,0,0,1,1.579-1.827.3.3,0,0,0-.3-.514Z" transform="translate(-3709.741 -3531.385)"/></g><g transform="translate(3709.712 3549.796)"><path d="M3716.922,3554.507c.315-1.454-1.177-2.559-2.3-3.135a3.154,3.154,0,0,0-2.276-.346,2.905,2.905,0,0,0-1.67,1.189,4.778,4.778,0,0,0-.7,2.508,3.505,3.505,0,0,0,4.568,3.3,3.419,3.419,0,0,0,2.326-3.863.424.424,0,0,0-.83.113,2.8,2.8,0,0,1-1.359,2.69,2.584,2.584,0,0,1-3.043-.479,3.013,3.013,0,0,1-.4-3.277,2.056,2.056,0,0,1,2.668-1.233,3.779,3.779,0,0,1,2.7,2.533.169.169,0,0,0,.323,0Z" transform="translate(-3709.971 -3550.939)"/></g><g transform="translate(3709.631 3569.072)"><path d="M3711.772,3570.521a3.745,3.745,0,0,0-1.866,3.626,3.865,3.865,0,0,0,2.3,3.253,3.505,3.505,0,0,0,3.659-.7,3.793,3.793,0,0,0,.984-2.1,3.591,3.591,0,0,0-.318-2.479,3.375,3.375,0,0,0-1.878-1.435,4.228,4.228,0,0,0-1.407-.2,2.96,2.96,0,0,0-1.518.372c-.232.159-.257.63.09.682.7.1,1.413-.1,2.121.03a2.624,2.624,0,0,1,1.467.76,2.1,2.1,0,0,1,.49,1.607,3.509,3.509,0,0,1-.542,1.773,2.428,2.428,0,0,1-2.5.823,2.806,2.806,0,0,1-1.929-2.1,3.3,3.3,0,0,1,1.109-3.469.26.26,0,0,0-.263-.449Z" transform="translate(-3709.889 -3570.482)"/></g><g transform="translate(3709.802 3586.411)"><path d="M3711.038,3590.066a3.7,3.7,0,0,0-.959,2.567,2.612,2.612,0,0,0,1.466,1.955c1.6.855,3.979,1.252,5.437-.072a3.523,3.523,0,0,0,.95-2.555,3.241,3.241,0,0,0-1.015-2.6,4.787,4.787,0,0,0-3.775-1.247,3.134,3.134,0,0,0-1.738,1,4.942,4.942,0,0,0-.746,1.077,6.111,6.111,0,0,0-.482,1.553c-.081.383.485.681.672.283.164-.351.374-.656.547-1a6.417,6.417,0,0,1,.533-.9,2.591,2.591,0,0,1,1.029-.874,2.838,2.838,0,0,1,2.309.263,2.707,2.707,0,0,1,1.492,1.393,3.47,3.47,0,0,1-.073,2.252c-.6,1.555-2.707,1.242-3.949.853a2.6,2.6,0,0,1-1.674-1.172,2.736,2.736,0,0,1,.485-2.482c.212-.323-.289-.6-.51-.3Z" transform="translate(-3710.063 -3588.061)"/></g><g transform="translate(3709.292 3598.057)"><path d="M3717.786,3600.226c-.176.362-.385.71-.579,1.062a2.182,2.182,0,0,1-.775.874,6.772,6.772,0,0,1-2.322.882,3.06,3.06,0,0,1-2.356-.613,1.411,1.411,0,0,1-.59-.822,4.366,4.366,0,0,0-.385-1.232c-.186-.293-.521-.6-.9-.484a.529.529,0,0,0-.286.213,1.021,1.021,0,0,0-.048.226,7.279,7.279,0,0,0,.328,1,4.689,4.689,0,0,0,.375,1.227,3.755,3.755,0,0,0,1.976,1.459,4.124,4.124,0,0,0,2.544.061,6.821,6.821,0,0,0,2.45-1.189,2.89,2.89,0,0,0,.752-1,5.65,5.65,0,0,0,.355-1.431c.054-.3-.382-.549-.54-.227Z" transform="translate(-3709.546 -3599.868)"/></g><g transform="translate(3730.691 3584.037)"><path d="M3732.7,3585.682a3.286,3.286,0,0,0-1.482,2.129,2.406,2.406,0,0,0,.953,2.1,1.944,1.944,0,0,0,2.376.111,2.385,2.385,0,0,0,.673-1.006,1.891,1.891,0,0,0,.205-1.367,2.359,2.359,0,0,0-1.1-1.007,7.9,7.9,0,0,0-.767-.4,1.619,1.619,0,0,0-.932-.211.3.3,0,0,0-.13.493,3.431,3.431,0,0,0,1.135.525,4.878,4.878,0,0,1,1.052.554.608.608,0,0,1,.266.375,1.4,1.4,0,0,1-.121.58,2.878,2.878,0,0,1-.422.913,1.366,1.366,0,0,1-1.83.1,1.931,1.931,0,0,1-.863-1.55,3.025,3.025,0,0,1,1.176-2.083c.13-.119-.047-.36-.194-.25Z" transform="translate(-3731.211 -3585.653)"/></g><g transform="translate(3738.311 3590.482)"><path d="M3741.564,3592.193a5.857,5.857,0,0,0-1.5.44,2.083,2.083,0,0,0-.935,1,2.291,2.291,0,0,0,.472,2.57,2.317,2.317,0,0,0,2.608.446,2.125,2.125,0,0,0,.512-3.543,2.256,2.256,0,0,0-.648-.371c-.1-.04-.4-.117-.439-.222a.359.359,0,0,0-.692.19c.073.426.456.609.823.742a1.331,1.331,0,0,1,.506,2.275,1.527,1.527,0,0,1-1.844.189,1.554,1.554,0,0,1-.717-1.774,2.5,2.5,0,0,1,1.962-1.554.2.2,0,0,0-.106-.385Z" transform="translate(-3738.927 -3592.188)"/></g><g transform="translate(3748.257 3595.155)"><path d="M3750.549,3596.951a2.98,2.98,0,0,0-1.528,2.068,2.277,2.277,0,0,0,.955,2.217,1.821,1.821,0,0,0,2.219-.031,2.017,2.017,0,0,0,.613-2.181,2.289,2.289,0,0,0-1.569-1.392c-.251-.06-.565-.115-.75.107a.279.279,0,0,0,0,.38.661.661,0,0,0,.44.2,1.914,1.914,0,0,1,.46.16,1.532,1.532,0,0,1,.634.6,1.268,1.268,0,0,1-.195,1.47,1.088,1.088,0,0,1-1.4.13,1.563,1.563,0,0,1-.75-1.441,2.913,2.913,0,0,1,1.1-1.977c.173-.14-.049-.413-.235-.3Z" transform="translate(-3748.996 -3596.926)"/></g><g transform="translate(3758.715 3598.325)"><path d="M3760.895,3600.168a1.911,1.911,0,0,0-.807.852,4.217,4.217,0,0,0-.475,1.283,2.122,2.122,0,0,0,.911,2.107,2.043,2.043,0,0,0,2.266.065,2.21,2.21,0,0,0,1.054-1.986,1.472,1.472,0,0,0-.719-1.2c-.18-.1-.38-.173-.567-.266s-.336-.239-.534-.32a.317.317,0,0,0-.4.3.589.589,0,0,0,.237.447,1.743,1.743,0,0,0,.4.238,1.711,1.711,0,0,1,.739.415,1.3,1.3,0,0,1-.318,1.577,1.37,1.37,0,0,1-1.519.312,1.581,1.581,0,0,1-.948-1.352,3.4,3.4,0,0,1,.271-1.226,1.5,1.5,0,0,1,.653-.836c.273-.148.032-.549-.243-.413Z" transform="translate(-3759.583 -3600.14)"/></g><g transform="translate(3769.605 3599.612)"><path d="M3772.364,3601.738a2.5,2.5,0,0,0-1.735,2.151,1.982,1.982,0,0,0,.426,1.584,2.63,2.63,0,0,0,1.353.723,2.66,2.66,0,0,0,1.635-.072,2.565,2.565,0,0,0,1.078-.848,2.343,2.343,0,0,0,.188-2.583,2.576,2.576,0,0,0-1.1-1.008,2.418,2.418,0,0,0-.794-.234,1.081,1.081,0,0,0-.754.177.266.266,0,0,0,.063.48,5.115,5.115,0,0,0,.522.1,2.168,2.168,0,0,1,.451.106,1.85,1.85,0,0,1,.782.554,1.506,1.506,0,0,1,.153,1.7,1.675,1.675,0,0,1-1.655.912,2.5,2.5,0,0,1-1.141-.381,1.049,1.049,0,0,1-.432-.947,2.737,2.737,0,0,1,1.192-2.006c.2-.162-.02-.45-.233-.4Z" transform="translate(-3770.609 -3601.444)"/></g><g transform="translate(3779.566 3599.079)"><path d="M3783.056,3601.3a1.9,1.9,0,0,0-2.226,1.259,1.978,1.978,0,0,0,.836,2.5,3.316,3.316,0,0,0,1.323.25,2.679,2.679,0,0,0,1.43-.291,2.566,2.566,0,0,0,.922-2.56,1.862,1.862,0,0,0-.811-1.31c-.363-.235-1.22-.46-1.388.116a.236.236,0,0,0,.107.261.861.861,0,0,0,.458.091.891.891,0,0,1,.388.11,1.094,1.094,0,0,1,.509.738,2.018,2.018,0,0,1-.447,1.83,1.428,1.428,0,0,1-.918.262,3.489,3.489,0,0,1-.975-.084,1.07,1.07,0,0,1-.64-.391,1.6,1.6,0,0,1,1.372-2.333c.258.031.305-.385.061-.448Z" transform="translate(-3780.694 -3600.903)"/></g><g transform="translate(3789.281 3596.208)"><path d="M3791.861,3598.139a.955.955,0,0,0-.575.234,2.162,2.162,0,0,0-.417.49,2.226,2.226,0,0,0-.34,1.192,2.337,2.337,0,0,0,1.315,2.059,2.487,2.487,0,0,0,2.571-.305,2.051,2.051,0,0,0,.836-1.193,1.826,1.826,0,0,0-.249-1.263,2.516,2.516,0,0,0-1.15-.979,5.042,5.042,0,0,0-.8-.277,1.142,1.142,0,0,0-.845-.031.275.275,0,0,0-.1.376.78.78,0,0,0,.495.288c.191.049.384.1.573.157a2.411,2.411,0,0,1,.921.5,1.382,1.382,0,0,1,.443.79,1.007,1.007,0,0,1-.343.851,1.84,1.84,0,0,1-1.807.515,1.674,1.674,0,0,1-1.125-1.275,1.742,1.742,0,0,1,.152-.99,1.827,1.827,0,0,1,.266-.426c.054-.065.111-.126.167-.188a2.046,2.046,0,0,0,.163-.253.18.18,0,0,0-.154-.269Z" transform="translate(-3790.53 -3597.993)"/></g><g transform="translate(3799.31 3591.329)"><path d="M3802.27,3593.738a1.93,1.93,0,0,0-1.094.612,2,2,0,0,0-.489,1.2,2.144,2.144,0,0,0,3.746,1.505,2.736,2.736,0,0,0,.34-2.818,1.839,1.839,0,0,0-2.477-1.009c-.383.2-.113.767.285.676a1.215,1.215,0,0,1,1.344.483,2.276,2.276,0,0,1,.24,1.062,1.5,1.5,0,0,1-.241.907,1.361,1.361,0,0,1-1.409.545,1.43,1.43,0,0,1-1.021-1.136,1.675,1.675,0,0,1,.948-1.622c.243-.105.061-.456-.172-.407Z" transform="translate(-3800.683 -3593.047)"/></g><g transform="translate(3807.195 3585.254)"><path d="M3810.521,3587.539c-1.842.292-2.732,3.617-.663,4.237a2.238,2.238,0,0,0,2.284-.7,3.7,3.7,0,0,0,.688-2.787,1.084,1.084,0,0,0-.347-.8,3.157,3.157,0,0,0-.786-.419c-.515-.213-1.3-.354-1.654.205a.32.32,0,0,0,.274.479,4.139,4.139,0,0,1,.522-.07,1.47,1.47,0,0,1,.511.11,3.517,3.517,0,0,1,.494.236c.139.078.156.089.176.234a3.2,3.2,0,0,1-.341,2.088,1.412,1.412,0,0,1-.636.577,1.973,1.973,0,0,1-.382.116.606.606,0,0,1-.153.018,1.933,1.933,0,0,1-.235,0c-.133-.011.066.016-.063-.009-.033-.006-.068-.014-.1-.023-.05-.013-.15-.046-.168-.054s-.109-.06-.151-.088c-.062-.041.063.057-.036-.027a1.246,1.246,0,0,1-.1-.1.937.937,0,0,1-.186-.355,1.525,1.525,0,0,1-.047-.539,2.833,2.833,0,0,1,.374-1.139,1.707,1.707,0,0,1,.83-.839.182.182,0,0,0-.1-.351Z" transform="translate(-3808.667 -3586.888)"/></g><g transform="translate(3813.583 3578.283)"><path d="M3817.233,3580.217a1.9,1.9,0,0,0-1.34.41,1.959,1.959,0,0,0-.725,1.171,2.31,2.31,0,0,0,1.239,2.417,2.59,2.59,0,0,0,2.832-.441,2.444,2.444,0,0,0,.61-2.728,1.992,1.992,0,0,0-2.659-1.012.377.377,0,0,0,.29.687,1.353,1.353,0,0,1,1.506.494,1.54,1.54,0,0,1-.149,1.759,1.755,1.755,0,0,1-1.784.595,1.547,1.547,0,0,1-1.125-1.363,1.518,1.518,0,0,1,1.3-1.543.223.223,0,0,0,0-.445Z" transform="translate(-3815.134 -3579.82)"/></g><g transform="translate(3819.686 3570.461)"><path d="M3822.219,3573.245a2.58,2.58,0,0,0-.644,1.278,1.665,1.665,0,0,0,.379,1.4,2.1,2.1,0,0,0,2.569.129,2.136,2.136,0,0,0,.973-1.18,3.521,3.521,0,0,0,.058-1.589,1.474,1.474,0,0,0-.942-1.175,2.989,2.989,0,0,0-1.592-.184,2.056,2.056,0,0,0-1.415.9,1.872,1.872,0,0,0-.27.733,1.518,1.518,0,0,0-.015.385.831.831,0,0,0,.2.417.266.266,0,0,0,.491-.133c0-.091.043-.167.047-.26,0-.071,0-.151.007-.214a1.16,1.16,0,0,1,.158-.425,1.321,1.321,0,0,1,.73-.589,2,2,0,0,1,1.1-.017c.336.087.625.2.728.557a2.808,2.808,0,0,1,.057,1.116,1.329,1.329,0,0,1-.51.895,1.606,1.606,0,0,1-1.726.241.935.935,0,0,1-.364-.895,6.292,6.292,0,0,1,.244-1.242c.036-.142-.156-.275-.262-.152Z" transform="translate(-3821.313 -3571.89)"/></g><g transform="translate(3823.078 3562.388)"><path d="M3826.36,3564.43a3.165,3.165,0,0,0-1.612,2.611,2.256,2.256,0,0,0,1.687,2.213,2.6,2.6,0,0,0,2.571-1.1,3.715,3.715,0,0,0,.248-3.352,1.314,1.314,0,0,0-1.491-1.076,4.849,4.849,0,0,0-1.108.026,3.673,3.673,0,0,0-1.021.332.323.323,0,0,0,.163.6,14.8,14.8,0,0,1,1.511-.113,4.8,4.8,0,0,1,.7.035.369.369,0,0,1,.375.282,3.141,3.141,0,0,1,.068,2.536,1.83,1.83,0,0,1-1.616,1.033,1.418,1.418,0,0,1-1.289-1.3,2.833,2.833,0,0,1,1.056-2.407.2.2,0,0,0-.245-.318Z" transform="translate(-3824.748 -3563.705)"/></g><g transform="translate(3826.487 3552.233)"><path d="M3829.8,3553.853c-.166.126-.354.209-.521.336a2.924,2.924,0,0,0-.514.46,2.3,2.3,0,0,0-.546,1.128,1.976,1.976,0,0,0,1.257,2.107,2.025,2.025,0,0,0,2.348-.771,3.777,3.777,0,0,0,.461-2.361,1.064,1.064,0,0,0-.309-.792,2.143,2.143,0,0,0-.749-.361,3.271,3.271,0,0,0-1.749-.116.366.366,0,0,0,.1.715,5.649,5.649,0,0,1,1.124.092,3.272,3.272,0,0,1,.56.172c.1.042.2.065.221.177a2.515,2.515,0,0,1,.025.489c0,.164,0,.329-.013.492a2.505,2.505,0,0,1-.189.832,1.272,1.272,0,0,1-1.364.775,1.254,1.254,0,0,1-1.015-1.19,1.715,1.715,0,0,1,.3-.965,4.539,4.539,0,0,1,.337-.473,2.923,2.923,0,0,1,.41-.456c.169-.129,0-.42-.17-.289Z" transform="translate(-3828.198 -3553.411)"/></g><g transform="translate(3724.638 3576.707)"><path d="M3726.249,3578.63a2.258,2.258,0,0,1,.6.432,1.849,1.849,0,0,1,.415.579,1.739,1.739,0,0,1,.056,1.3,1.3,1.3,0,0,1-.337.5,1.222,1.222,0,0,1-.482.247.818.818,0,0,1-.285.04,1.741,1.741,0,0,1-.175-.008s-.126-.014-.066,0a2.619,2.619,0,0,1-.336-.075.688.688,0,0,0-.374-.063.258.258,0,0,0-.187.246c-.01.243.259.456.453.56a1.467,1.467,0,0,0,.729.155,2.054,2.054,0,0,0,1.351-.562,2.4,2.4,0,0,0,.2-2.944,2.1,2.1,0,0,0-.636-.638,1.244,1.244,0,0,0-.433-.156,1.179,1.179,0,0,0-.451.025.2.2,0,0,0-.049.37Z" transform="translate(-3725.083 -3578.222)"/></g><g transform="translate(3724.904 3506.421)"><path d="M3726.035,3507.449c.058.007.119.042.18.05a1.72,1.72,0,0,0,.184.009,3.03,3.03,0,0,1,.41.023.989.989,0,0,1,.654.316,1.608,1.608,0,0,1,.112,1.433,2.307,2.307,0,0,1-.8,1.094,2.354,2.354,0,0,1-.619.339,1.967,1.967,0,0,0-.734.287.242.242,0,0,0,0,.339.918.918,0,0,0,.773.121,2.687,2.687,0,0,0,.719-.263,3.03,3.03,0,0,0,1.1-1.062,2.213,2.213,0,0,0-.285-2.929,1.5,1.5,0,0,0-.876-.243,3.307,3.307,0,0,0-.463.046,1.19,1.19,0,0,0-.236.058c-.058.023-.106.073-.16.1a.146.146,0,0,0,.038.284Z" transform="translate(-3725.352 -3506.965)"/></g><g transform="translate(3731.054 3499.078)"><path d="M3732.519,3500.489a4.956,4.956,0,0,0-.83,1.434,2.213,2.213,0,0,0,.03,1.474,1.993,1.993,0,0,0,2.184,1.156,2.424,2.424,0,0,0,1.863-1.786,2.706,2.706,0,0,0-.662-2.632,2.207,2.207,0,0,0-1.425-.612c-.484-.026-1.225.127-1.443.619-.105.24.071.566.366.476a3.966,3.966,0,0,1,.911-.323,1.439,1.439,0,0,1,.911.247,1.9,1.9,0,0,1,.712,1.784,1.84,1.84,0,0,1-1.157,1.526,1.39,1.39,0,0,1-1.6-.528c-.491-.827,0-1.926.439-2.66.118-.2-.171-.351-.3-.176Z" transform="translate(-3731.578 -3499.52)"/></g><g transform="translate(3740.015 3492.747)"><path d="M3742.3,3493.334a3.192,3.192,0,0,0-1.634,2.857,2.092,2.092,0,0,0,.794,1.454,2.83,2.83,0,0,0,1.686.521,3.046,3.046,0,0,0,2.842-1.7,2.4,2.4,0,0,0-.752-2.981,2.056,2.056,0,0,0-1.744-.31c-.531.151-1.352.672-1.28,1.313a.278.278,0,0,0,.414.237,3,3,0,0,0,.427-.424,1.577,1.577,0,0,1,.493-.347,1.257,1.257,0,0,1,1.087.042,1.615,1.615,0,0,1,.726,2.014,2.229,2.229,0,0,1-1.949,1.387,1.727,1.727,0,0,1-1.991-1.1,2.78,2.78,0,0,1,1.169-2.589c.2-.176-.066-.527-.287-.372Z" transform="translate(-3740.651 -3493.102)"/></g><g transform="translate(3808.287 3499.766)"><path d="M3811.3,3500.446a2.932,2.932,0,0,0-1.514,2.631,1.951,1.951,0,0,0,.775,1.384,2.614,2.614,0,0,0,1.524.454,2.81,2.81,0,0,0,2.638-1.6,2.222,2.222,0,0,0-.761-2.776,1.9,1.9,0,0,0-1.631-.234c-.525.174-1.223.661-1.115,1.286a.277.277,0,0,0,.4.165,2.192,2.192,0,0,0,.4-.387,1.464,1.464,0,0,1,.44-.311,1.123,1.123,0,0,1,.966.038,1.445,1.445,0,0,1,.65,1.806,2.01,2.01,0,0,1-1.752,1.245,1.55,1.55,0,0,1-1.79-.985,2.533,2.533,0,0,1,1.053-2.346c.2-.177-.064-.526-.288-.372Z" transform="translate(-3809.772 -3500.218)"/></g><g transform="translate(3750.025 3488.265)"><path d="M3752.732,3489.158a1.39,1.39,0,0,0-1.427.355,1.962,1.962,0,0,0-.515,1.232,2.322,2.322,0,0,0,1.487,2.217,2.366,2.366,0,0,0,2.808-.5,2.7,2.7,0,0,0,.469-1.321,4.615,4.615,0,0,0,0-1.463c-.237-1.155-1.589-1.225-2.524-1.059-.407.072-.318.774.1.727.482-.055,1.322-.191,1.63.277a2,2,0,0,1,.1,1.128,3.039,3.039,0,0,1-.184.98,1.406,1.406,0,0,1-1.738.68,1.8,1.8,0,0,1-1.426-1.289,1.38,1.38,0,0,1,1.178-1.675.151.151,0,0,0,.041-.3Z" transform="translate(-3750.786 -3488.557)"/></g><g transform="translate(3759.336 3486.268)"><path d="M3763.112,3486.648a4.229,4.229,0,0,0-.835.008,2.633,2.633,0,0,0-.8.268,2.284,2.284,0,0,0-1.118,1.241,2.155,2.155,0,0,0,.041,1.645,2.061,2.061,0,0,0,1.134,1.016,3.68,3.68,0,0,0,1.526.228,3.6,3.6,0,0,0,1.515-.347,1.481,1.481,0,0,0,.854-1.275,3.056,3.056,0,0,0-.7-1.71,2.729,2.729,0,0,0-1.54-1.135c-.52-.119-1.568-.093-1.676.6a.285.285,0,0,0,.271.355,1.623,1.623,0,0,0,.558-.155,1.173,1.173,0,0,1,.548-.049,1.7,1.7,0,0,1,1.035.633,3.329,3.329,0,0,1,.645,1.147.665.665,0,0,1-.289.831,3.062,3.062,0,0,1-2.2.247,1.321,1.321,0,0,1-1.111-1.539,1.883,1.883,0,0,1,.722-1.129,3.022,3.022,0,0,1,.656-.36,2.932,2.932,0,0,1,.759-.232.142.142,0,0,0,0-.284Z" transform="translate(-3760.213 -3486.533)"/></g><g transform="translate(3769.624 3485.401)"><path d="M3776.265,3487.64a2.507,2.507,0,0,0-1.982-1.8,3.006,3.006,0,0,0-3.128.553,2.49,2.49,0,0,0-.526,1.611,1.393,1.393,0,0,0,.714,1.382,2.939,2.939,0,0,0,.88.177,7.98,7.98,0,0,0,.9.052,4.763,4.763,0,0,0,1.678-.265,2.417,2.417,0,0,0,1.459-1.217,1.223,1.223,0,0,0-.02-.963c-.111-.271-.325-.477-.35-.781-.022-.26-.394-.417-.534-.144-.216.42.017.826.171,1.226s-.158.717-.489.924a4.223,4.223,0,0,1-2.651.418c-.38-.035-.86-.017-.956-.466a1.923,1.923,0,0,1,.148-1.212c.417-.825,1.462-.808,2.254-.687s1.882.4,2.123,1.275a.162.162,0,0,0,.312-.087Z" transform="translate(-3770.628 -3485.654)"/></g><g transform="translate(3780.252 3486.406)"><path d="M3783.063,3488.083a2.308,2.308,0,0,1,1.083-.6,1.867,1.867,0,0,1,1.19.014,1.423,1.423,0,0,1,.676,1.628,1.856,1.856,0,0,1-1.1,1.34,2.107,2.107,0,0,1-1.872-.277,1.66,1.66,0,0,1-.789-1.9c.084-.223-.192-.371-.371-.283a1.115,1.115,0,0,0-.431,1.352,2.608,2.608,0,0,0,.767,1.2,3.013,3.013,0,0,0,2.632.75c1.836-.4,2.747-3.058,1.133-4.273-1.043-.785-2.485-.137-3.214.764-.165.2.1.486.3.294Z" transform="translate(-3781.389 -3486.673)"/></g><g transform="translate(3790.582 3489.807)"><path d="M3793.306,3491.544c-.029-.142.195-.277.3-.336a2.754,2.754,0,0,1,.573-.2,3.188,3.188,0,0,1,1.1-.151,1.067,1.067,0,0,1,.818.4,1.111,1.111,0,0,1,.147.862,1.956,1.956,0,0,1-1.5,1.36c-.571.166-1.5.334-1.946-.176a.6.6,0,0,1-.111-.176c.024.059-.018-.077-.017-.07-.019-.075-.006.017-.011-.067a.859.859,0,0,1,.08-.44.971.971,0,0,1,.231-.33,1.972,1.972,0,0,1,.407-.237.274.274,0,0,0-.065-.5,1.166,1.166,0,0,0-1.2.58,1.49,1.49,0,0,0-.19,1.311c.391,1.1,1.752,1.168,2.72.963a2.858,2.858,0,0,0,2.368-1.958,1.971,1.971,0,0,0-.216-1.475,1.767,1.767,0,0,0-1.323-.774,3.55,3.55,0,0,0-1.723.335c-.469.2-1.155.674-.719,1.234.111.142.305-.017.276-.16Z" transform="translate(-3791.846 -3490.121)"/></g><g transform="translate(3800.326 3494.378)"><path d="M3803.707,3494.77a2.961,2.961,0,0,0-1.939,1.95,1.884,1.884,0,0,0,1.33,2.2,2.423,2.423,0,0,0,2.575-.534,1.869,1.869,0,0,0,.139-2.391,2.071,2.071,0,0,0-1.292-.7,3.315,3.315,0,0,0-1,0,1.81,1.81,0,0,0-.928.31.312.312,0,0,0,.136.517,1.693,1.693,0,0,0,.693-.027,6.417,6.417,0,0,1,.684-.053,1.682,1.682,0,0,1,.926.245,1.008,1.008,0,0,1,.2,1.448c-.669.967-2.845.588-2.721-.723a2,2,0,0,1,.469-1.006,2.768,2.768,0,0,1,.936-.744.276.276,0,0,0-.211-.5Z" transform="translate(-3801.713 -3494.755)"/></g><g transform="translate(3814.943 3508.056)"><path d="M3819,3508.781a2.665,2.665,0,0,0-2.36,1.615,2.522,2.522,0,0,0,0,1.556,2.2,2.2,0,0,0,1.121,1.464,2.62,2.62,0,0,0,3.188-.765,2.547,2.547,0,0,0-.062-3.176,2.712,2.712,0,0,0-1.85-.847,2.275,2.275,0,0,0-1.958.919c-.177.255.115.544.376.488.463-.1.9-.383,1.36-.438a1.879,1.879,0,0,1,1.229.3,1.564,1.564,0,0,1,.426,2.005,1.8,1.8,0,0,1-2.066.9,1.612,1.612,0,0,1-.57-.27,1.5,1.5,0,0,1-.379-.6,2.089,2.089,0,0,1-.161-1.1,1.421,1.421,0,0,1,.552-.958,4.134,4.134,0,0,1,1.218-.649c.227-.075.207-.471-.06-.443Z" transform="translate(-3816.511 -3508.623)"/></g><g transform="translate(3820.847 3518.839)"><path d="M3823.456,3519.958a2.447,2.447,0,0,0-.857,2.792,2.195,2.195,0,0,0,2.268,1.683,2.272,2.272,0,0,0,2.093-2.015,2.523,2.523,0,0,0-1.393-2.558,2.828,2.828,0,0,0-1.792-.259,1.3,1.3,0,0,0-.85.542.792.792,0,0,0,.121,1.025.385.385,0,0,0,.639-.371l-.036.138a.708.708,0,0,0,.07-.151c.011-.032.019-.065.031-.1l.02-.048c-.014.038-.007.031.021-.021,0,0-.065.054,0,.011a.881.881,0,0,1,.442-.118,1.857,1.857,0,0,1,.962.2,1.588,1.588,0,0,1,.878,1.653,1.481,1.481,0,0,1-.385.807,1.406,1.406,0,0,1-.834.4,1.323,1.323,0,0,1-.832-.174,1.534,1.534,0,0,1-.582-.737,2.557,2.557,0,0,1,.3-2.42c.128-.177-.115-.371-.281-.281Z" transform="translate(-3822.489 -3519.554)"/></g><g transform="translate(3824.411 3529.166)"><path d="M3827.521,3530.342a2.944,2.944,0,0,0-1.118,1.112,2.459,2.459,0,0,0-.268,1.571,2.193,2.193,0,0,0,2.041,1.872,2.358,2.358,0,0,0,2.242-1.449,2.5,2.5,0,0,0-.689-2.655,2.962,2.962,0,0,0-1.674-.693c-.614-.085-1.413-.21-1.85.346a.392.392,0,0,0-.058.455.376.376,0,0,0,.425.172,2.28,2.28,0,0,1,1.2-.089,5.3,5.3,0,0,1,.589.091,1.575,1.575,0,0,1,1.18.952,1.691,1.691,0,0,1,.125.856,1.414,1.414,0,0,1-1.224,1.129,1.228,1.228,0,0,1-.83-.153,1.422,1.422,0,0,1-.59-.774,2.265,2.265,0,0,1,.811-2.344c.224-.187-.065-.547-.309-.4Z" transform="translate(-3826.097 -3530.024)"/></g><g transform="translate(3826.04 3539.907)"><path d="M3828.68,3541.3a8.773,8.773,0,0,0-.7,1.636,3.742,3.742,0,0,0-.2,1.711,2.177,2.177,0,0,0,2.349,1.591,2.579,2.579,0,0,0,2.3-1.581,2.632,2.632,0,0,0-.467-2.645,3.825,3.825,0,0,0-1.621-.929,1.507,1.507,0,0,0-1.793.273.3.3,0,0,0,.257.448,2.858,2.858,0,0,1,1.211.208,3.683,3.683,0,0,1,1.13.5,1.6,1.6,0,0,1,.509,1.645,1.646,1.646,0,0,1-1.367,1.182c-.588.109-1.491-.1-1.669-.792a3.165,3.165,0,0,1,.095-1.409,7.545,7.545,0,0,1,.495-1.532c.162-.351-.338-.662-.53-.309Z" transform="translate(-3827.745 -3540.914)"/></g><g transform="translate(3827.314 3514.142)"><path d="M3836.608,3514.792c-3.292.329-7.572,4.439-7.572,4.439l5.268,15.289a52.45,52.45,0,0,0,1.4-9.617A92.885,92.885,0,0,1,3836.608,3514.792Z" transform="translate(-3829.036 -3514.792)"/></g><g transform="translate(3815.297 3584.378)"><path d="M3861.316,3586a81.208,81.208,0,0,0-9.26.493,61.183,61.183,0,0,1-12.278.986c-3.8-.124-13.464-.623-18.288-1-1.07.95-2.011,2.041-3.1,2.974a15.742,15.742,0,0,1-1.52,1.13c-.007.33,0,.667.024,1.006.2,2.794.6,13.809.6,13.809h43.816s-.6-9.207-.6-12.33A56.392,56.392,0,0,1,3861.316,3586Z" transform="translate(-3816.869 -3586)"/></g><g transform="translate(3725.535 3510.237)"><path d="M3729.986,3510.833l1.976,68.059-3.375-4.151a30.817,30.817,0,0,1-.124,6.124c-.412,3.042-.494,7.644-.494,7.644a3.828,3.828,0,0,1-1.976-2.959c-.041-1.931.412-29.261.412-32.22s-.042-34.646-.042-34.646a8.879,8.879,0,0,1,1.811-4.891C3729.986,3511.409,3729.986,3510.833,3729.986,3510.833Z" transform="translate(-3725.991 -3510.833)"/></g><g transform="translate(3723.748 3482.171)"><path d="M3724.2,3482.647l1.458,3.611c.476,1.18.917,2.382,1.473,3.526a.238.238,0,0,0,.434-.183c-.413-1.2-.949-2.369-1.443-3.543l-1.487-3.531c-.109-.262-.544-.151-.434.119Z" transform="translate(-3724.181 -3482.379)"/></g><g transform="translate(3730.21 3477.734)"><path d="M3730.729,3478.163q-.019,2.737.041,5.476a38.636,38.636,0,0,0,.343,5.311c.036.215.354.149.364-.049.1-1.784-.039-3.583-.09-5.367s-.074-3.581-.073-5.371a.293.293,0,0,0-.585,0Z" transform="translate(-3730.724 -3477.881)"/></g><g transform="translate(3735.142 3482.904)"><path d="M3737.734,3483.39a13.629,13.629,0,0,1-.876,2.431c-.188.393-.4.774-.61,1.153a3.017,3.017,0,0,0-.53,1.168c-.018.222.236.311.4.233a2.414,2.414,0,0,0,.854-1.023,11.23,11.23,0,0,0,.61-1.2,14.7,14.7,0,0,0,.871-2.565.376.376,0,0,0-.725-.2Z" transform="translate(-3735.717 -3483.123)"/></g></g></svg>