<svg xmlns="http://www.w3.org/2000/svg" width="479.578" height="267.189" viewBox="0 0 479.578 267.189" preserveAspectRatio="none"><g><path d="M43.578 168.931s80.252-27.1 117.182-16.1c4.721 1.406 5.59-9.2 5.59-9.2l40.123-21.6 46.516-13.6 3.992 6.2 15.172 2.8s88.834-41 193.637 67-422.212-15.5-422.212-15.5z" fill="#f8f6f4"/><g><g><path d="M477.866 190.232q-4.437-3.93-8.9-7.838a1.086 1.086 0 01-.479-1.15v-.006c-1.971-1.8-4.043-3.5-6.17-5.131-.149.278-.236.2-.726-.23l-2.353-2.076c-6.556-4.811-13.391-9.326-19.154-15.052-2.767-2.748-5.416-5.581-8.151-8.343a130.8 130.8 0 00-17.825-10.414c.064.092.126.184.192.275a.861.861 0 00.686.4c.223 0 .407.044.293.327a.679.679 0 00.148.9c.381.322.693.158 1.029.049a.6.6 0 01.856.529.562.562 0 00.407.476c.868.17.829.575.389 1.194.83-.381.847.033.854.467a1.684 1.684 0 001.241 1.422c.874.2 1.114.458 1.122 1.3 0 .332.254.337.44.388a2.068 2.068 0 011.615 1.574c.348 1.205.538 1.252 1.743 1.082.339-.047.738-.349.909.324.083.325.8.427.473.954-.135.219.021.68.17 1s.469.1.713.146a.823.823 0 01.713.775c.015.708.491.977 1.1 1.227.407.168.8.384.823.867.015.3.237.36.5.434.459.13 1.04.358 1.173.724a7.312 7.312 0 01.516 1.425c.065.483.393.583.663.371.471-.369.506-.033.65.3a2.315 2.315 0 01.14.543.433.433 0 00.242.369c.2.09.311-.024.453-.1.21-.118.146-.47.526-.532l-.24.7a.687.687 0 00.227.8c.269.221.43.006.6-.123.19-.146.418-.052.616.058a.363.363 0 01.15.45 2.888 2.888 0 00-.03 1.071c.053.563.249.713.841.7 1.445-.032 1.313-.137 1.1 1.092-.059.348.021.538.479.683s1.059.134 1.377.644c.3.48.517 1 1.17 1.2.058.018.117.14.14.217a.92.92 0 00.673.615.663.663 0 01.592.756.31.31 0 00.228.352 2.486 2.486 0 011.522 1.577c.24.555.46.679 1 .574-.1.48.175.723.6.889.256.1.5.232.761.315.387.124.619.355.581.7-.06.545-.185 1.083.769 1.132.4.65 1.044.6 1.6.626.466.021.514.189.42.488-.2.629.536 1.131.573 1.735.008.136.288.279.446.192.313-.17.774-.013 1.033-.319.145-.17.436-.122.66.054.468.368.517 1.079 1.231 1.254.015 0 .042.043.038.051-.245.433.255.844.274 1.265.007.164-.043.335.186.423.188.073.275-.072.347-.173.279-.383.559-.24.892.094.222.224.048.462.164.636.265.4.415-.246.587-.03.228.287.5.546.7.842.091.136-.03.4.264.429.236.024.257-.2.3-.369.052-.186.075-.438.368-.358.347.094.221.376.26.579.031.168-.145.4.125.488.616.206.593.619.639 1.036.026.231 0 .595.372.571.724-.046 1 .459 1.355.9.127-.051.1-.251.3-.242a2.256 2.256 0 011.328 1.178c.02.12.015.294.094.353a1.371 1.371 0 01.495 1.36c-.006.215.067.571.428.547a2.486 2.486 0 01.929.285c.254.078.481.343.742.265.579-.175.667.141.631.545-.033.378.089.563.523.495.177-.029.387-.04.413.2.063.592.408.631.879.547a.7.7 0 01.446.1 5.83 5.83 0 003.068.839c.254.015.627.018.75.222.517.855 1.093.43 1.56.288a.71.71 0 01.81.184 2.257 2.257 0 00.891.481 1.277 1.277 0 001.271-.152.628.628 0 01.659-.033c.629.261.866-.17 1.139-.5.315-.372-.145-.551-.367-.748z" fill="#030504" stroke="rgba(0,0,0,0)"/></g><g><path d="M159.128 155.518a4.623 4.623 0 012.875 1.5 60.783 60.783 0 00.487-6.124c-.159.239-.336.135-.5-.339-.141-.4-.341-.435-.463-.213-.587 1.076-.755.285-.791-1.529-.3 2.007-.511 1.288-.719.519-.287-1.063-.953-1.338-1.4-.586-.606 1.026-.868.947-1.271-.562-.159-.592-.308-.2-.441 0-.628.965-1.125.91-1.687-.265-.772-1.614-.906-1.4-1.531.825-.175.625-.267 1.8-.684.865-.2-.454-.668.5-.727-.966a3.04 3.04 0 00-.571-1.528c-.232-.329-.323.559-.486.872-.317.607-.63.3-.783-.261-.343-1.251-.748-.977-1.22-.463-.317.345-.649.579-.891-.253-.149-.514-.309-.27-.5.015-.329.5-.777 1.011-1.028.564a9.364 9.364 0 01-.974-1.745c-.265-.766-.5-.424-.563.388-.1 1.412-.28.863-.523.483a4 4 0 01-.339-.753c-.086-.229-.179-.415-.315-.28-.16.159-.172.539-.217.906a8.823 8.823 0 01-.057 1.795l-.192-1.649c-.076-.659-.244-1.107-.508-1.075s-.255.675-.292 1.172c-.042.566-.22.759-.388.875s-.255-.244-.3-.569a10.79 10.79 0 00-.488-1.976c-.3-.93-.482-.89-.822.075-.831 2.358-.7 2.337-1.161-.21-.129-.721-.266-.935-.6-.467s-.683 1.442-1.11 1.031c-.4-.388-.775-.984-1.25-.3-.041.06-.134-.065-.184-.168-.213-.438-.481-.371-.684-.035-.348.578-.526.244-.7-.42-.066-.247-.15-.494-.3-.272-.616.915-1.19.264-1.635-.417-.4-.617-.588-.49-.855.559-.168-1.026-.444-1.024-.771-.644-.2.227-.4.382-.594.643-.285.392-.53.346-.671-.339-.222-1.077-.4-2.245-.984-.816-.543-.529-.9.577-1.234 1.424-.283.705-.39.478-.476-.209-.181-1.446-.847-1.184-1.154-2.212-.069-.232-.3-.043-.351.363a13.6 13.6 0 00-.454 2.217c0 .538-.2.915-.411.954-.448.083-.812-1.12-1.312-.3-.01.016-.045-.012-.047-.033-.06-1.169-.547-1.113-.757-1.842-.081-.283-.133-.669-.308-.465a1.553 1.553 0 00-.122.864c.018 1.134-.213 1.322-.566 1.249-.235-.049-.246-.754-.4-.882-.342-.292-.127 1.1-.329.986a4.05 4.05 0 01-.807-.4c-.118-.1-.171-.765-.357-.353a2.213 2.213 0 000 1.146 1.914 1.914 0 01-.046 1.23c-.247.382-.306-.324-.425-.63-.1-.251-.1-.944-.3-.677-.458.608-.64-.172-.863-.85-.124-.375-.281-1.072-.488-.436-.4 1.236-.8.758-1.214.544-.05.295.059.614-.06.908a.726.726 0 01-1.332-.007c-.069-.185-.148-.506-.222-.487-.505.129-.707-.749-.931-1.659-.1-.4-.309-.924-.509-.306s-.454.645-.677.965c-.186.266-.444.148-.559.705-.257 1.234-.458.806-.627.022-.159-.734-.318-.873-.539-.059-.091.334-.208.688-.334.3-.317-.966-.537-.488-.772.413a.891.891 0 01-.31.525c-.878.377-1.544 1.8-2.191 3.37-.155.376-.375.964-.543.794-.5-.508-.713.189-.869.993 17.545-1.683 35.323 1.182 52.704 3.972z" fill="#030504" stroke="rgba(0,0,0,0)"/></g><g><g><path d="M59.559 263.11c5.537-2.361 9.641-6.685 10.888-12.654a20.881 20.881 0 00.521-6.191c-.215-2.024-.759-4.057-1.1-6.067s-.648-4-.928-6.012c-2.268-16.259-2.569-33.1 1.732-49.061a81.778 81.778 0 0111.765-25.382c.46-.663-.624-1.288-1.08-.631-9.188 13.24-13.9 28.795-15.007 44.792a139.319 139.319 0 00.595 24.214c.418 3.946.965 7.877 1.614 11.791.511 3.082 1.306 6.068 1.086 9.2a18.271 18.271 0 01-2.227 7.905 17.269 17.269 0 01-8.492 7.014c-.738.314-.1 1.391.631 1.079z" fill="#030504" stroke="rgba(0,0,0,0)"/></g></g><g><g><path d="M129.709 152.604c-15.425 13.773-22.693 35.585-20.414 55.949a59.51 59.51 0 004.169 16.342c.306.731 1.516.41 1.2-.333-7.728-18.492-5.35-40.789 4.952-57.822a57.946 57.946 0 0110.971-13.252c.6-.537-.285-1.419-.883-.884z" fill="#030504" stroke="rgba(0,0,0,0)"/></g></g><g><g><path d="M276.005 115.442a58.234 58.234 0 0111.186-1.771c2.3-.231 4.611-.413 6.921-.563 2.357-.152 4.7-.554 7.046-.8q6.747-.714 13.539-.854a167.949 167.949 0 01102.829 32.941c3.769 2.795 7.2 5.947 11.165 8.457q6.172 3.91 12.193 8.053c5.847 4.014 11.6 8.172 17.157 12.582a132.308 132.308 0 0115.317 13.818c1 1.092 1.972 2.216 2.893 3.379 1 1.261 2.756-.519 1.767-1.768a97.516 97.516 0 00-14.3-14.016c-5.627-4.693-11.505-9.085-17.49-13.31q-6.957-4.911-14.122-9.52-1.911-1.23-3.838-2.435a49.262 49.262 0 01-4.522-3.578 170.458 170.458 0 00-102.372-37.1q-6.984-.143-13.963.316c-4.688.31-9.33 1.073-14.011 1.389-5.8.392-11.792.806-17.457 2.215-.2.05-.406.1-.606.161-1.534.471-.88 2.885.665 2.411z" fill="#030504" stroke="rgba(0,0,0,0)"/></g></g><g><g><path d="M171.743 217.181c4.223.713 8.735-.324 12.761-1.594.935-.294 2.428-.571 3.139-1.313.746-.779.193-2.279-.086-3.154-.331-1.041-.821-2.011-1.251-3.012-.232-.54-.623-1.261-.32-1.835a2.877 2.877 0 011.2-.9 57.664 57.664 0 012.275-1.216 34.515 34.515 0 017.091-2.813c2.409-.613 5.4-.871 7.323.765 1.489 1.266 2.045 3.033 2.734 4.817.573 1.485 2.991.84 2.41-.665a17.045 17.045 0 00-2.651-5.184 8.418 8.418 0 00-6.916-2.7 20.476 20.476 0 00-5.954 1.3 39.135 39.135 0 00-8.093 3.843 3.794 3.794 0 00-1.685 4.833c.335.906.8 1.759 1.153 2.657a10.6 10.6 0 00.509 1.621l.074.351q1.017-.857.567-.588c.016.011-.339.125-.2.1-.57.112-1.536.558-2.223.769q-1.675.517-3.389.9a20.632 20.632 0 01-7.8.616c-1.574-.266-2.25 2.143-.665 2.41z" fill="#030504" stroke="rgba(0,0,0,0)"/></g></g><g><g><path d="M205.916 209.1c17.653-5.064 35.154-10.648 52.738-15.945q6.978-2.1 13.979-4.125a1.251 1.251 0 00-.664-2.411c-17.654 5.064-35.154 10.648-52.738 15.945q-6.978 2.1-13.98 4.125a1.251 1.251 0 00.665 2.411z" fill="#030504" stroke="rgba(0,0,0,0)"/></g></g><g><g><path d="M163.482 145.817c-4.182 8.693-5.2 18.759-5.091 28.295a98.618 98.618 0 005.052 30.718 63.147 63.147 0 002.952 7.19 19.21 19.21 0 001.859 3.289 5.354 5.354 0 004.231 1.926c1.6.138 1.593-2.363 0-2.5-1.635-.14-2.245-.791-3-2.181-.513-.939-.989-1.9-1.436-2.868a59.673 59.673 0 01-2.3-5.83 89.77 89.77 0 01-3.413-13.758 93.367 93.367 0 01-.615-29.334 47.986 47.986 0 013.92-13.686c.7-1.443-1.46-2.712-2.158-1.261z" fill="#030504" stroke="rgba(0,0,0,0)"/></g></g><g><path d="M261.264 98.832c-33.054 17.683-71.683 20.616-106.179 35.068 2.262 4.619 3.769 6.5 11.589 4.035 0 0 49.865-18.407 80.263-25.88 5.919-1.455 11.911-2.884 17.368-5.664s10.416-7.085 12.827-12.853c-5.62-.481-10.861 2.616-15.868 5.294z" fill="#030504" stroke="rgba(0,0,0,0)"/></g><g><g><path d="M178.835 125.676l30.589-8.617c8.483-2.39 17.369-4.354 25.244-8.438a32.254 32.254 0 0010.577-8.455c.66-.834.084-2.638-1.216-2.089a346.231 346.231 0 01-51.631 17.169q-7.575 1.871-15.229 3.393a1.256 1.256 0 00-.747 1.836c.959 1.282.165 2.889-.077 4.282a1.452 1.452 0 00.888 1.826c.787.232 1.385-.309 1.892-.825 1.129-1.147-.637-2.916-1.768-1.767-.577.586-.118-.046.541.182l.747.574c.412.676-.01.858.206.25a5.819 5.819 0 00.144-.564 14.081 14.081 0 00.323-1.731 4.82 4.82 0 00-.737-3.489l-.747 1.836a345.459 345.459 0 0052.315-14.8q7.336-2.718 14.544-5.764l-1.216-2.09c-5.1 6.444-12.725 9.737-20.371 12.137-9.24 2.9-18.648 5.325-27.969 7.95l-16.967 4.78a1.251 1.251 0 00.665 2.411z" fill="#030504" stroke="rgba(0,0,0,0)"/></g></g><g><path d="M208.654 207.069a15.727 15.727 0 00-5.55-8.53 6.627 6.627 0 01-1 .446c-3.119 1.088-6.454 1.083-9.62 1.993a29.9 29.9 0 00-7.363 3.245 15.33 15.33 0 00-.108 8.3c1.954 7.539 8.83 12.429 15.357 10.923s10.234-8.838 8.284-16.377z" fill="#080909" stroke="rgba(0,0,0,0)"/></g><g><ellipse cx="14.072" cy="13.787" rx="14.072" ry="13.787" transform="rotate(-80.807 250.463 -60.388)" fill="#080909" stroke="rgba(0,0,0,0)"/></g><g><ellipse cx="14.072" cy="13.787" rx="14.072" ry="13.787" transform="rotate(-80.807 220.966 5.094)" fill="#080909" stroke="rgba(0,0,0,0)"/></g><g><g><path d="M112.453 218.674c14.865-10.565 31.56-18.508 48.5-25.142.741-.29.418-1.5-.332-1.2-17.038 6.673-33.84 14.639-48.8 25.268-.65.462-.026 1.547.631 1.079z" fill="#030504" stroke="rgba(0,0,0,0)"/></g></g><g><g><path d="M388.825 125.299c-2.971-.463-5.61.819-8.066 2.368a133.424 133.424 0 00-7.007 4.742 63.406 63.406 0 00-12.476 11.334c-4.285 5.313-6.556 11.758-9.763 17.713a65.342 65.342 0 01-8.488 12.405 73.327 73.327 0 01-13.988 12 164.229 164.229 0 01-22.664 12.471c-11.4 5.319-23.127 9.98-34.965 14.212-22.6 8.08-45.9 13.86-68.751 21.125-19.721 6.268-39.333 14.012-55.692 26.982q-2.982 2.365-5.792 4.935c-.6.544.291 1.426.884.884 15.48-14.128 34.693-22.806 54.358-29.445 22.121-7.467 44.85-12.968 66.989-20.39q18.021-6.042 35.5-13.591a213.314 213.314 0 0025.643-12.84c10.159-6.125 19.283-13.7 25.589-23.857a122.021 122.021 0 006.807-13.111 42.924 42.924 0 019.232-12.98 91.465 91.465 0 0113.486-10.385c2.594-1.708 5.545-3.876 8.829-3.364.787.123 1.126-1.082.333-1.205z" fill="#030504" stroke="rgba(0,0,0,0)"/></g></g><g><g><path d="M2.686 201.674c14.163-15.409 32.267-26.372 51.358-34.61a150.619 150.619 0 0132.14-9.987 207.6 207.6 0 0134.365-3.175 294.351 294.351 0 0140.838 2.089c1.594.194 1.58-2.307 0-2.5a293.367 293.367 0 00-37.02-2.134 226.551 226.551 0 00-34.962 2.633 147.835 147.835 0 00-33.054 9.407 193.311 193.311 0 00-27.9 14.051A130.58 130.58 0 00.919 199.907c-1.087 1.183.676 2.955 1.768 1.767z" fill="#030504" stroke="rgba(0,0,0,0)"/></g></g><g><g><path d="M293.389 109.493a6.558 6.558 0 01-1.015-9.817c1.3-1.377 3.354-2.315 5.1-1.173a10.958 10.958 0 013.2 4.2c.712 1.323 2.517.358 2.285-.964-.608-3.452-1.027-8 2.122-10.42a3.317 3.317 0 013.947-.391 2.864 2.864 0 011.24 3.334l2.285.963c.513-2.044 1.121-4.476 2.749-5.945 1.992-1.8 4.592-.538 5.777 1.538 1.466 2.568.581 5.874-.577 8.381-1.278 2.765-3 5.285-4.185 8.1l2.41.665a63.449 63.449 0 001.51-18.618h-2.5a33.179 33.179 0 01-3.263 18.734l2.329.631a78.13 78.13 0 01.808-15.546c.149-.957.715-2.292 0-3.118a1.778 1.778 0 00-1.773-.535c-1.918.515-2.011 2.928-2.123 4.494l-.568 7.972-.249 3.487a9.214 9.214 0 00-.171 1.579c-.181.261-.115.352.2.272a2.173 2.173 0 01-.187-.567 18.822 18.822 0 01-.1-3.564l-.052-3.949-.1-7.9a1.294 1.294 0 00-.917-1.206c-1.3-.483-2.346.519-2.751 1.679-.571 1.635-.249 3.675-.246 5.381l.021 12.442h2.5c-.39-6.271-1.261-12.741-5.3-17.8-.717-.9-2.1-.1-2.133.884l-.473 15.85h2.5l-.464-16.536a1.251 1.251 0 00-2.5 0 27.749 27.749 0 003.149 16.522 1.264 1.264 0 002.285-.3c1.823-5.789 3.472-12.589-.9-17.694-.767-.9-2.052-.1-2.134.883a44.59 44.59 0 001.55 15.849 1.256 1.256 0 002.456-.332l-.164-11.227c-.029-2.007-.462-5.683-3.272-5.493-3.249.22-2.595 5.1-2.641 7.232l-.241 11.226h2.5a27.888 27.888 0 00-4.141-13.052 1.264 1.264 0 00-2.284.3 28.244 28.244 0 00.069 12.4 1.261 1.261 0 002.411 0 16.68 16.68 0 00-1.228-12.108 1.257 1.257 0 00-2.159 0 16.285 16.285 0 00.513 14.01c.613 1.172 2.249.525 2.329-.631a18.407 18.407 0 00-4.151-12.928c-.769-.945-2.02-.056-2.133.884a55.33 55.33 0 00-.082 12.609c.137 1.269 2.206 1.846 2.455.332a14.991 14.991 0 00-2.233-10.849 1.262 1.262 0 00-2.158 0 19.484 19.484 0 00-1.9 9.793c.111 1.587 2.527 1.626 2.5 0l-.108-6.64a1.264 1.264 0 00-2.134-.883c-2.136 2.309-3.8 5.751-.737 8.119 3.023 2.339 6.546.525 9.492-.941a66.844 66.844 0 0110.846-4.255q2.814-.831 5.692-1.418a18.345 18.345 0 016.024-.676c3.306.47 5.543 4.146 4.89 7.321l1.836-.747c-1.953-1.059-2.854-3.2-4.173-4.882-1.338-1.708-3.161-3.128-5.432-3.021a1.261 1.261 0 00-.631 2.329c2.062 1.5 3.635 3.043 3.468 5.75h2.5c-.2-2.678-1.891-3.774-3.9-5.233a1.263 1.263 0 00-1.836.747 11.641 11.641 0 00-.679 4.6l2.329-.631-1.505-2.928-.747 1.836q-1.167-.26.524-.573c.619-1.483-1.8-2.13-2.41-.664-.812 1.944 1.91 3.9 3.406 2.3 1.433-1.529-.282-3.965-2.184-3.475a1.267 1.267 0 00-.747 1.837l1.5 2.928a1.259 1.259 0 002.33-.631 9.771 9.771 0 01.59-3.94l-1.837.747c1.166.846 2.545 1.48 2.662 3.074a1.251 1.251 0 002.5 0c.225-3.636-1.949-5.9-4.706-7.909l-.631 2.33c2.183-.1 3.49 2.014 4.558 3.616a11.206 11.206 0 003.785 3.946 1.263 1.263 0 001.836-.747 8.988 8.988 0 00-2.052-7.712c-2.109-2.454-5.023-3.083-8.128-2.666a68.272 68.272 0 00-21.549 6.887c-1.673.846-3.793 2.059-5.664 1.1-2.272-1.159-.658-3.36.544-4.66l-2.134-.884.108 6.64h2.5a16.94 16.94 0 011.556-8.531h-2.158a12.418 12.418 0 011.981 8.923l2.455.332a55.33 55.33 0 01.082-12.609l-2.134.884a15.873 15.873 0 013.418 11.16l2.329-.631a13.594 13.594 0 01-.512-11.487h-2.159a14.033 14.033 0 01.976 10.182h2.411a25.264 25.264 0 01-.07-11.074l-2.284.3a25.221 25.221 0 013.8 11.79 1.251 1.251 0 002.5 0l.178-8.3.09-4.148c.012-.594-.3-3.071.276-3.476-.006 0-.21-.149.028.028a1.344 1.344 0 01.264.459 4.093 4.093 0 01.29 1.195c.141 1.294.048 2.657.067 3.96l.125 8.542 2.455-.333a42.551 42.551 0 01-1.461-15.184l-2.134.884c3.681 4.3 1.754 10.5.254 15.263l2.285-.3a25.488 25.488 0 01-2.808-15.26h-2.5l.464 16.536a1.251 1.251 0 002.5 0l.473-15.85-2.134.884c3.575 4.475 4.228 10.515 4.571 16.032a1.251 1.251 0 002.5 0l-.016-9.207-.007-4.48c0-.746-.012-1.493 0-2.239a4.484 4.484 0 01.023-.777 1.227 1.227 0 01.146-.438q.224-.353-.331.05l-.918-1.2.153 11.6c.025 1.955-.529 7.08 2.766 6.885a2.657 2.657 0 002.274-2.267 30.454 30.454 0 00.439-5.08l.426-5.979q.108-1.494.214-2.989a5 5 0 01.107-1.089 1.06 1.06 0 01.167-.393q.518-.509-.682-.212l-.321-1.216a82.172 82.172 0 00-1.218 18.113c.052 1.161 1.74 1.8 2.329.631a35.489 35.489 0 003.6-20c-.178-1.562-2.61-1.631-2.5 0a61.079 61.079 0 01-1.42 17.953 1.251 1.251 0 002.41.665c1.5-3.574 3.986-6.675 5.06-10.441.946-3.316.721-7.1-1.835-9.648a5.944 5.944 0 00-7.824-.848c-2.352 1.744-3.3 4.818-3.986 7.534-.331 1.318 1.666 2.293 2.285.963 2.05-4.408-2.741-8.881-7.095-7.184-5.674 2.211-5.665 9.06-4.784 14.064l2.285-.963c-1.164-2.165-2.6-4.537-4.966-5.538-2.57-1.089-5.425.082-7.263 2.006a9.1 9.1 0 001.521 13.743c1.328.917 2.579-1.249 1.262-2.158z" fill="#030504" stroke="rgba(0,0,0,0)"/></g></g><g><g><path d="M162.704 150.436c1.845-3.262 3.8-7 7.1-8.525a57.71 57.71 0 015.414-2.063c6.452-2.227 13.008-4.175 19.543-6.143 16.422-4.945 32.935-9.6 49.469-14.153 3.552-.978 7.091-1.992 10.638-2.983q2.068-.579 4.142-1.141c1.023-.276 2.022-.7 3.05-.941 1.1-.262.634-1.957-.468-1.7-1.941.461-4.305.869-6.391 1.385-3.141.777-6.272 1.551-9.395 2.4q-12.042 3.281-24.023 6.781c-15.394 4.467-30.87 8.914-45.925 14.444-2.247.825-4.518 1.654-6.675 2.7-3.67 1.775-5.667 5.9-7.521 9.323a.606.606 0 001.046.611z" fill="#030504" stroke="rgba(0,0,0,0)"/></g></g><g><g><path d="M333.992 109.633c-6.9.71-10.677 6.979-13.409 12.67-3.381 7.043-6.658 14.628-12.995 19.558-.634.493.256 1.372.884.884 5.934-4.616 9.379-11.666 12.491-18.327 2.622-5.612 6.058-12.818 13.029-13.535.792-.082.8-1.333 0-1.25z" fill="#030504" stroke="rgba(0,0,0,0)"/></g></g><g><g><path d="M290.997 183.149c5.841.15 11.212-1.941 16.4-4.447 2.185-1.056 4.29-2.288 6.524-3.237 1.684-.716 3.932-1.478 4.78-3.25a1.339 1.339 0 00-2.311-1.35c-.871 1.208-3 1.784-4.3 2.35-2.155.939-4.146 2.234-6.219 3.337a46.384 46.384 0 01-15.041 5.37c-.718.1-.512 1.21.166 1.227z" fill="#030504" stroke="rgba(0,0,0,0)"/></g></g><g><g><path d="M318.904 172.091c-.539-4.574-2.176-9.076-3.471-13.482a121.551 121.551 0 00-4.246-12.922c-.838-2-1.762-3.952-2.714-5.9-.709-1.448-1.184-2.584-2.818-3.071a17.67 17.67 0 00-3.749-.466c-.546-.039-1.1-.065-1.639-.155a5.832 5.832 0 01-.729-.168c-.026-.008.05.065-.063-.044-3.268-3.175-6.421-6.464-9.726-9.6a101.323 101.323 0 00-11.8-10.137 14.231 14.231 0 00-2.2-1.295 23.923 23.923 0 00-4.616-1.147 51.209 51.209 0 00-7.242-1.32 13.008 13.008 0 00-3.567.168 8.727 8.727 0 00-3.276 1.705.972.972 0 00.745 1.767 19.615 19.615 0 012.557-.015c1.034-.047 2.059-.095 3.094-.053a37.288 37.288 0 016.315.98c1.447.311 2.973.492 4.385.931.3.092-.249-.124.058.021q.23.108.453.228c.347.184.684.39 1.015.6 3.954 2.529 7.423 5.911 10.829 9.111s6.707 6.462 9.976 9.777a5.288 5.288 0 002.081 1.514 13.973 13.973 0 003.483.48 11.2 11.2 0 012.963.415c-.343-.14-.246-.259-.03.2.23.492.482.975.721 1.463.479.976.951 1.956 1.407 2.944a114.917 114.917 0 014.887 13.644c1.508 4.759 2.722 9.883 5.019 14.334.441.854 2.012.5 1.892-.513z" fill="#030504" stroke="rgba(0,0,0,0)"/></g></g><g><g><path d="M254.794 109.143a1.887 1.887 0 00-.367 1.337 3.237 3.237 0 00.139.825c.072.2.164.4.248.6.2.486.407.97.629 1.448.2.429.374.885.608 1.3a1.167 1.167 0 001.454.476 1.149 1.149 0 00.674-1.374 23.5 23.5 0 00-1.285-2.525c-.2-.353-.387-.709-.61-1.047a3.942 3.942 0 01-.219-.385l-.017-.041a.416.416 0 00-.087-.161q-.239-.318-.027-.021c.005-.006-.065-.261-.069-.289a.576.576 0 00-.487-.42.6.6 0 00-.584.28z" fill="#030504" stroke="rgba(0,0,0,0)"/></g></g><g><g><path d="M254.862 109.755l.352.028-.4-.167a1.032 1.032 0 00.621.26l.219.027c.276.035-.13-.032.124.022a2.586 2.586 0 00.375.082l-.461-.374q.079.177-.035-.165c-.139-.51-.034.07-.012.18a4.816 4.816 0 00.284.8c.135.335.276.668.429.995a13.082 13.082 0 002 2.955 1.441 1.441 0 001.022.423 1.485 1.485 0 00.875-.31 1.429 1.429 0 00.372-1.863 2.586 2.586 0 00-.748-.759 4.2 4.2 0 00-.663-.313 1.218 1.218 0 00-.677 0 1.263 1.263 0 00-.662.457 1.311 1.311 0 00-.1 1.415c.052.112.109.222.159.335l-.141-.334a3.09 3.09 0 00.338.657l2.268-1.75q-.422-.452-.8-.939l.222.288a17.06 17.06 0 01-1.613-2.512 3.111 3.111 0 00-.5-.816 1.363 1.363 0 00-1.517-.339c-.24.1-.457.241-.69.357a1.567 1.567 0 00-.775.531l.339-.261-.329.128a.491.491 0 00.129.96z" fill="#030504" stroke="rgba(0,0,0,0)"/></g></g><g><g><path d="M170.559 135.086c-.009.356.237.58.447.831.1.114-.068-.1-.013-.017.024.037.051.072.076.109.063.094.118.171.193.265-.05-.063-.1-.129-.022-.024a6.846 6.846 0 01.595 1.05c.086.184.167.371.248.558.049.116-.091-.217-.023-.054l.066.16.111.266c.218.52.449 1.335 1.008 1.589a1.272 1.272 0 00.851.111 1.067 1.067 0 00.715-.639 1.108 1.108 0 00-.715-1.489c.45.156.607.554.433.265l-.072-.123c-.049-.082-.1-.165-.145-.247-.1-.174-.2-.35-.307-.525-.2-.35-.409-.7-.635-1.035a7.435 7.435 0 00-.821-1.034c-.318-.326-1.024-.856-1.5-.661a.7.7 0 00-.49.644z" fill="#030504" stroke="rgba(0,0,0,0)"/></g></g><g><g><path d="M171.73 136.07a.883.883 0 00.379.235 2.137 2.137 0 00.377.042 2.445 2.445 0 00.41.011c.293-.024.586-.048.879-.076l-1.023-.778.019.055-.038-.284a.7.7 0 01-.006.159 1.192 1.192 0 00.072.421c.032.092.072.183.107.274.115.293.239.583.364.873.178.414.36.826.535 1.241l-.135-.322.191.493a1.526 1.526 0 00.645.839 1.4 1.4 0 001.921-.5l.141-.336a1.41 1.41 0 000-.746 2.933 2.933 0 00-.288-.875l-.2-.265-.265-.205a1.332 1.332 0 00-1.927.784 3.043 3.043 0 00-.072.934l2.616-.708c-.287-.443-.557-.9-.826-1.348-.132-.222-.261-.447-.4-.664a2.416 2.416 0 00-.821-.934l.221.171-.042-.039.168.216-.035-.049a1.157 1.157 0 00-.507-.434.978.978 0 00-.691-.053c-.291.117-.58.238-.87.359a3.568 3.568 0 00-.547.277 1.711 1.711 0 00-.3.211.912.912 0 00-.215.387.651.651 0 00.168.637z" fill="#030504" stroke="rgba(0,0,0,0)"/></g></g><g><g><path d="M169.43 157.577a49.307 49.307 0 001.21 17.172 1.778 1.778 0 003.477-.47c.052-6.256-.253-12.526-.416-18.78a1.611 1.611 0 00-3.149-.426c-1.012 3.365-.27 7.076.111 10.49a105.1 105.1 0 001.693 10.9c.4 1.819 3.411 1.9 3.756 0 .6-3.308-.424-6.674-.7-9.974a47.221 47.221 0 01.068-10.3l-3.3-.446c.09 3.471.312 6.936.685 10.388.342 3.16.53 6.569 1.958 9.46.9 1.819 3.747.9 3.729-1.01-.064-6.832-.333-13.668-.905-20.477a1.619 1.619 0 00-3.164-.428 15.79 15.79 0 00-.153 6.1c.233 2.033.481 4.064.758 6.092s.594 4.068.993 6.085c.38 1.924.523 4.32 2.681 5.023a2.048 2.048 0 002.572-1.959c-.109-6.666-.549-13.357-.515-20.02.012-2.179-3.32-2.173-3.38 0-.174 6.31 1.364 12.695 3.249 18.681.518 1.643 3.458 2.03 3.734 0 .43-3.15-.456-6.182-.747-9.308a44.856 44.856 0 01.161-9.7h-3.183a125.9 125.9 0 002.412 17.56c.444 2.076 3.918 1.652 3.747-.507-.473-5.965-1.534-11.915-1.545-17.912h-2.957a78.912 78.912 0 003.755 19.2 1.943 1.943 0 002.121 1.385 1.906 1.906 0 001.676-1.9c-.8-6.365-2.19-12.725-2.234-19.16l-3.131.424c1.6 6.062 3.195 12.122 4.856 18.167.609 2.216 3.472 1.5 3.726-.5.386-3.038-.92-6.032-1.513-8.969a41.539 41.539 0 01-.92-9.192l-3.182.43c1.505 5.289 2.972 10.589 4.582 15.847.75 2.45 4.133 1.392 3.756-1.036-.949-6.1-1.973-12.178-2.683-18.317l-3.126.423c1.934 6.376 3.488 12.881 5.366 19.279.746 2.544 4.32 1.448 3.9-1.074-.54-3.233-1.166-6.454-1.731-9.683s-1.32-6.51-1.632-9.784l-2.775.751a51.714 51.714 0 014.871 16.524l3.952-.535c-.527-3.072-1.15-6.114-1.743-9.171a38.609 38.609 0 01-1.094-9.49l-2.352 1.35c.4.176.5 1.353.6 1.731q.311 1.15.589 2.309c.39 1.625.728 3.264 1.045 4.9a84.121 84.121 0 011.279 9.654 2.041 2.041 0 001.757 1.99 2 2 0 002.223-1.451 34.135 34.135 0 00-.113-9.893c-.484-3.261-1.4-6.416-2.092-9.631l-3.24.893c1.888 5.412 3.7 10.865 5.768 16.214a2.2 2.2 0 002.63 1.493 2.154 2.154 0 001.494-2.631c-2.125-5.512-4.516-10.932-6.821-16.37-.751-1.772-3.582-.5-3.071 1.294a48.077 48.077 0 011.465 18.092h4.052a90.3 90.3 0 00-2.02-11.8c-.454-1.851-1.008-3.683-1.6-5.493-.553-1.684-.929-3.475-2.741-4.16a1.575 1.575 0 00-1.978 1.507 69.889 69.889 0 00.855 9.922c.4 3.273.763 6.542 1.228 9.809.316 2.22 4.25 1.716 3.951-.535a48.825 48.825 0 00-6.322-18.027c-.9-1.549-2.976-.442-2.722 1.148.532 3.334.678 6.753 1.075 10.108s.786 6.708 1.315 10.037l3.9-1.074c-2.2-6.264-4.53-12.622-6.195-19.051-.439-1.7-3.261-1.4-3.125.423.481 6.459 1.062 12.958 2.109 19.353l3.756-1.036c-1.656-5.251-3.454-10.455-5.214-15.672-.562-1.668-3.226-1.477-3.182.431a81.333 81.333 0 00.586 9.176q.3 2.169.751 4.31a14.568 14.568 0 01.542 4.675l3.726-.5c-1.772-6.015-3.6-12.01-5.44-18.006-.509-1.662-3.218-1.434-3.131.424a197.12 197.12 0 001.625 19.673l3.728-1.027a85.3 85.3 0 01-4.526-18.169c-.232-1.83-3.059-1.948-2.957 0 .311 5.967-.005 11.964.687 17.912l3.747-.507a108.185 108.185 0 01-2.908-16.546 1.593 1.593 0 00-3.183 0 59.215 59.215 0 00-.434 9.212 53.22 53.22 0 00.335 4.316 14.984 14.984 0 01.134 4.447h3.734c-1.652-5.839-3.6-11.5-3.6-17.651h-3.38c.15 6.66-.175 13.355-.168 20.02l2.571-1.959-.257-.057.891.52q.131.327 0-.083c-.068-.227-.133-.454-.2-.682q-.159-.568-.309-1.14-.328-1.255-.616-2.523c-.367-1.612-.688-3.235-.987-4.861s-.579-3.256-.852-4.886a9.56 9.56 0 01.078-4.811l-3.163-.428c.237 6.825.312 13.649.124 20.477l3.729-1.01c-1.163-2.591-1.427-5.63-1.816-8.415a122.67 122.67 0 01-.926-9.413 1.68 1.68 0 00-3.357 0 67.619 67.619 0 00-.482 10.267c.159 3.313.962 6.618.587 9.934l3.826-.517a97.554 97.554 0 01-1.975-9.849c-.478-3.068-1.491-6.615-.493-9.651l-3.149-.426c0 6.255-.136 12.529.082 18.78l3.476-.471a66.155 66.155 0 01-2.631-16.231 1 1 0 00-1.992 0z" fill="#030504" stroke="rgba(0,0,0,0)"/></g></g><g><g><path d="M171.867 154.926a2.865 2.865 0 01-1.213-.114l.961 1.262.009-.25-.4.956c.2-.21.821-.232 1.1-.3.47-.118.94-.236 1.408-.362.8-.215 1.606-.427 2.408-.645q2.609-.706 5.237-1.332c1.753-.416 3.5-.843 5.262-1.229q1.219-.269 2.441-.518a10.168 10.168 0 012.672-.413c2.63.2 3.28-4.228.63-4.656a3.874 3.874 0 00-2.061.1 1.95 1.95 0 00-1.15 2.826 3.761 3.761 0 001.385 1.4v-4.093a14.378 14.378 0 01-3.027.767q-1.409.352-2.812.73c-2.075.558-4.134 1.16-6.178 1.822-1.98.642-3.955 1.309-5.9 2.057-1.481.571-4.308 1.326-3.6 3.485a1.321 1.321 0 001.923.782 2.916 2.916 0 011.149-.437.941.941 0 00-.249-1.841z" fill="#030504" stroke="rgba(0,0,0,0)"/></g></g><g><g><path d="M217.178 145.102a86.739 86.739 0 004.972 15.97c.563 1.409 2.8 1.755 3.223 0a6.065 6.065 0 00-.868-4.278 116.922 116.922 0 01-2.093-4.358 49.377 49.377 0 01-3.173-9.13l-3.07.847c2.2 5.87 4.624 11.634 7.152 17.371.907 2.056 4.3.593 3.622-1.527a95.592 95.592 0 01-4.285-18.941l-3.45.467c.707 3.023 1.34 6.039 2.262 9.009a73.964 73.964 0 003.37 8.691 2.017 2.017 0 002.539.832 2.077 2.077 0 001.178-2.4c-.9-5.767-2.026-11.511-3.226-17.223l-3.447.95a170.955 170.955 0 005.8 18.252 1.982 1.982 0 003.818-1.053c-1.355-6.324-2.285-12.691-3.439-19.047l-3.032.836a170.911 170.911 0 005.192 18.333 2.046 2.046 0 003.942-1.087c-.717-3-1.585-5.957-2.214-8.986s-1.156-6.062-1.684-9.1l-2.954.814c.7 3.261 1.306 6.523 2.269 9.723a69.629 69.629 0 003.594 9.313c.8 1.725 3.879.926 3.669-.994-.7-6.394-3.272-12.418-3.6-18.884l-2.941.4c.991 3.224 1.736 6.5 2.832 9.694s2.326 6.329 3.653 9.43c.81 1.892 3.683.817 3.693-1 .016-3.219-.975-6.485-1.7-9.6-.739-3.185-1.53-6.359-2.3-9.538l-2.911.8c.8 2.957 1.455 5.95 2.374 8.877s2.041 5.773 3.12 8.632a1.982 1.982 0 003.818-1.053c-1.267-5.83-2.875-11.779-3.322-17.748l-2.98.4q2.48 8.082 4.649 16.256l3.648-1.006a86.7 86.7 0 01-3.759-17.837 1.546 1.546 0 00-3.09 0c-.127 3.086 1.062 6.218 1.83 9.169.832 3.2 1.572 6.433 2.509 9.6a2.048 2.048 0 004-.542 53.945 53.945 0 00-3.47-19.231 1.515 1.515 0 00-2.919.8c.6 2.528 1.174 5.061 1.771 7.59.3 1.253.522 2.56.9 3.789s.946 2.443 1.413 3.65a1.652 1.652 0 003.183-.878c-.23-1.272-.381-2.594-.7-3.847s-.8-2.482-1.206-3.706c-.81-2.47-1.64-4.933-2.449-7.4l-2.919.8a66.125 66.125 0 012.314 18.426l4-.542c-.851-3.02-1.9-6-2.848-8.989-.876-2.753-2.295-5.775-2.331-8.694l-3.035.411c.893 6.2.994 12.473 3.146 18.432.815 2.258 4.385 1.346 3.648-1.006q-2.532-8.079-5.371-16.057c-.534-1.5-3.145-1.413-2.981.4.573 6.343.907 12.6 2.539 18.8l3.618-1.526a425.812 425.812 0 01-3.408-8.268 47 47 0 01-2.793-8.518c-.374-1.921-3.224-1.087-2.911.8.511 3.08 1.014 6.161 1.532 9.24a71.387 71.387 0 011.41 9.1l3.692-1a123.327 123.327 0 01-3.821-8.813 81.4 81.4 0 01-3.2-9.107 1.5 1.5 0 00-2.94.4 52.752 52.752 0 001.092 9.691c.612 3.229 1.13 6.47 1.633 9.717l3.6-1.517a58.389 58.389 0 01-6.309-17.863c-.253-1.689-3.2-1.311-3.008.407.348 3.146.7 6.292 1.149 9.426a59.653 59.653 0 001.815 9.342l3.942-1.087c-2.289-5.917-4.673-11.884-6.1-18.082a1.579 1.579 0 00-3.088.418 90.8 90.8 0 002.709 19.682l3.818-1.053a169.861 169.861 0 01-6.171-18.149c-.629-2.263-3.806-1.273-3.447.95.935 5.782 1.8 11.575 2.751 17.354l3.717-1.567a73.753 73.753 0 01-5.756-16.581c-.376-1.925-3.612-1.514-3.451.467a79 79 0 003.976 19.994l3.622-1.527c-2.64-5.487-5.281-10.992-7.665-16.6-.749-1.761-3.216-.421-2.909 1.227a42.476 42.476 0 002.516 8.355q.788 1.914 1.664 3.79.486 1.046.991 2.08c.223.458.892 1.287.81 1.806l3.054-.4a153.2 153.2 0 01-6.2-15.187.948.948 0 00-1.827.5z" fill="#030504" stroke="rgba(0,0,0,0)"/></g></g><g><g><path d="M214.195 143.145c2.5.76 5.42.1 7.928-.335 2.719-.476 5.42-1.045 8.124-1.6 2.611-.535 5.223-1.065 7.829-1.62 2.108-.449 4.38-1.47 4.815-3.826a2.071 2.071 0 00-3-2.306c-2.624 1.267-5.327 2.391-7.99 3.576-1.26.56-2.517 1.124-3.779 1.68-.668.294-1.338.584-2.008.875a6.385 6.385 0 00-1.938 1.43c-1.087.981-.3 3.3 1.284 3.1a6.464 6.464 0 002.226-.4c.66-.3 1.312-.631 1.968-.945 1.386-.664 2.779-1.313 4.169-1.968 2.706-1.275 5.388-2.624 8.13-3.819l-3-2.306c-.119.477-1 .65-1.432.77-1.035.287-2.091.51-3.135.763q-3.408.824-6.813 1.664c-2.284.56-4.559 1.158-6.847 1.7-2.236.529-4.7.847-6.746 1.926a.908.908 0 00.215 1.642z" fill="#030504" stroke="rgba(0,0,0,0)"/></g></g><g><g><path d="M214.869 140.825c-1.308.557-1.082 2.477-.909 3.6a26.316 26.316 0 001.1 3.754 15.755 15.755 0 01.552 3.846 37.232 37.232 0 00.578 4.765c.495 2.606 1.175 6.415 4.216 7.123 1.54.359 3.133-.294 4.592-.722a33.562 33.562 0 004.809-1.559c1.364-.639 1.179-2.348.427-3.314a2.234 2.234 0 00-1.23-.759 1.869 1.869 0 00-1.814.48 2.373 2.373 0 00-.557 1.771l1.549-2.034c-2.318.324-4.5 1.478-6.784 1.949.029-.006.209.183.172.149a1.772 1.772 0 01-.281-.525 13.42 13.42 0 01-.471-1.532 35.127 35.127 0 01-.812-3.61c-.384-2.25-.266-4.592-1.059-6.759-.4-1.081-.91-2.115-1.339-3.182-.342-.848-.385-1.779-.715-2.613a1.414 1.414 0 00-2.028-.825z" fill="#030504" stroke="rgba(0,0,0,0)"/></g></g><g><g><path d="M219.099 157.738a2.84 2.84 0 00.27 1.988 3.181 3.181 0 001.173 1.2 5.427 5.427 0 001.307.537 4.658 4.658 0 00.547.135 3.6 3.6 0 001.346.012 2.457 2.457 0 00.76-.295 2.634 2.634 0 00.869-.834 2.025 2.025 0 00.178-.368 1.647 1.647 0 00.132-.394 2.5 2.5 0 00-.055-1.274 4.109 4.109 0 00-2.508-2.346 3.386 3.386 0 00-.957-.195 2.4 2.4 0 00-.919.11 2.837 2.837 0 00-1.09.637 1.931 1.931 0 00-.5.9 1.9 1.9 0 00.185 1.411 1.578 1.578 0 00.784.672 1.638 1.638 0 001.068.082 2.874 2.874 0 001.095-.689l-.355.274a1.158 1.158 0 01.2-.115l-.415.175a1.3 1.3 0 01.268-.075l-.458.062a1.358 1.358 0 01.254-.005l-.454-.061a1.974 1.974 0 01.444.13l-.407-.172a3.668 3.668 0 01.728.43l-.343-.265a2.409 2.409 0 01.384.378l-.264-.342a1.452 1.452 0 01.181.306l-.17-.4a1.031 1.031 0 01.06.233l-.06-.447a1.032 1.032 0 010 .192l.06-.447a1.029 1.029 0 01-.056.191l.169-.4a.882.882 0 01-.1.162l.262-.339a1.061 1.061 0 01-.136.133l.34-.262a1.215 1.215 0 01-.25.142l.4-.169a1.453 1.453 0 01-.292.074l.443-.059a2.106 2.106 0 01-.5-.008l.438.059a5.29 5.29 0 01-1.2-.3l.383.161a2.194 2.194 0 01-.487-.279l.321.247a1.666 1.666 0 01-.255-.258l.246.318a1.593 1.593 0 01-.184-.313l.157.372a1.386 1.386 0 01-.081-.3l.055.41a1.282 1.282 0 010-.255l-.055.408.008-.051a1.167 1.167 0 00.028-.611 1.15 1.15 0 00-.182-.57 1.533 1.533 0 00-2.1-.55 1.545 1.545 0 00-.705.916z" fill="#030504" stroke="rgba(0,0,0,0)"/></g></g><g><g><path d="M257.14 134.418c-.254-1.049-.647-2.025-.986-3.045a1.371 1.371 0 10-2.517 1.061 86.41 86.41 0 016.229 15.4c.645 2.164 3.722 1.245 3.335-.919-1.04-5.812-4.239-10.889-5.748-16.56l-2.889 1.218a185.522 185.522 0 018.085 18.619c.861 2.2 4.352 1.369 3.631-1-2.1-6.913-2.809-14.217-6.382-20.617-1.038-1.859-3.761-.222-2.832 1.655a159.612 159.612 0 018.39 19.263c.8 2.36 4.513 1.385 3.767-1.038-2.035-6.612-4.534-13.224-5.9-20.019l-2.877 1.213a58.477 58.477 0 017.18 18.681c.56 2.573 4.352 1.456 3.907-1.077a106.678 106.678 0 00-2.462-10.949c-1.039-3.614-2.572-7.037-3.737-10.6l-2.562 1.08c2.874 6.746 5.44 13.65 7.818 20.586.714 2.082 4.081 1.87 4.007-.543-.224-7.259-3.266-13.87-5.338-20.7l-2.782 1.172a110.988 110.988 0 017.488 19.6c.737 2.663 4.56 1.519 4.081-1.125a176.462 176.462 0 00-5.822-21.541l-2.758 1.163a41.863 41.863 0 014.158 10.649c1.012 3.7 1.865 7.467 2.61 11.23.42 2.122 3.659 1.991 4.162 0 .909-3.6-.9-7.153-1.976-10.514q-1.7-5.3-2.959-10.721l-2.629 1.109c1.44 2.787 2.358 5.876 3.523 8.786s2.288 5.83 3.413 8.752a2.008 2.008 0 003.868-1.067 87.584 87.584 0 00-3.274-10.584q-.934-2.55-1.955-5.067c-.71-1.744-1.632-3.428-2.2-5.222l-2.534 1.068a41.828 41.828 0 014.717 9.436c.58 1.62 1.1 3.26 1.6 4.905s.742 4.059 2.351 5.006a2.369 2.369 0 003.166-.83 2.518 2.518 0 00.015-2.562 2.322 2.322 0 00-2.614-1.063l-.081.023c-2.86.813-1.644 5.281 1.231 4.463l.08-.023-2.613-1.063.054.125v-2.336l-.069.1 2.614-1.063-.207-.07 1.37 1.053a36.569 36.569 0 01-1.817-4.5c-.662-1.619-1.344-3.23-2.1-4.809a33.338 33.338 0 00-5.524-8.466c-1.122-1.207-2.848.324-2.178 1.68a37.291 37.291 0 011.774 5.214q.824 2.574 1.558 5.177c.981 3.478 1.813 7 2.763 10.481l3.665-1.546c-1.273-2.947-2.547-5.894-3.862-8.823s-2.987-5.684-4.255-8.622c-.695-1.613-2.868-.361-2.63 1.109q.819 5.037 1.988 10.007c.38 1.6.8 3.194 1.225 4.786a8.337 8.337 0 01.335 4.53h4.162c-1.1-3.846-2.089-7.7-3.446-11.467a86.884 86.884 0 00-4.878-10.789c-.809-1.546-3.168-.464-2.759 1.163 1.823 7.239 3.063 14.578 4.652 21.864l4.081-1.125a94.218 94.218 0 00-8.94-20.01c-.85-1.423-3.429-.486-2.782 1.173a69.876 69.876 0 012.722 9.913 60.92 60.92 0 011.471 9.98l4.007-.542a191.054 191.054 0 00-9.331-20.916c-.715-1.384-3.158-.412-2.562 1.08a72.3 72.3 0 012.918 10.824c.831 3.663 1.556 7.334 2.077 11.055l3.907-1.077a49.2 49.2 0 00-8.369-19.193 1.582 1.582 0 00-2.877 1.213c.853 3.373 1.456 6.814 2.3 10.192s1.742 6.735 2.868 10.028l3.767-1.038a186.955 186.955 0 00-9.325-19.88l-2.832 1.655c3.509 6.051 3.513 13.413 5.583 19.963l3.631-1c-1.324-3.281-2.68-6.56-4.213-9.75s-3.214-6.293-4.773-9.464c-.815-1.656-3.292-.469-2.89 1.218 1.36 5.7 4.38 10.865 5.462 16.639l3.335-.919a68.464 68.464 0 00-7.186-15.866l-1.555 2.023a11.257 11.257 0 012.45 1.527c.116.087.259-.056.23-.176z" fill="#030504" stroke="rgba(0,0,0,0)"/></g></g><g><g><path d="M257.245 130.298a1.635 1.635 0 00-.508-1.613l-.688 2.607c3.3-1.178 6.631-2.29 9.994-3.283 1.647-.486 3.308-.919 4.97-1.35q1.246-.323 2.5-.617.684-.16 1.369-.312c.169-.037 1.18-.1.762-.235l-.928-.541.135.175-.544-.934c1.159 3.3 2.138 6.668 3.283 9.975l1.761 5.089c.267.771.531 1.543.8 2.313.163.462.328.923.492 1.385l.164.462q.262.846.107.159l.715-1.726-.143.135 1.077-.628c-3.145.944-6.425.65-9.378 2.347l3.553 2.731c.25-1.148.261-2.619-.906-3.3-1.1-.644-2.429.063-3.137.947a2.431 2.431 0 002.931 3.8 24.72 24.72 0 016.363-1.471 4.926 4.926 0 003.093-1.107c1.051-1.11.719-2.382.27-3.646-1.75-4.925-3.523-9.851-5.393-14.731-.478-1.247-.955-2.491-1.491-3.714a2.708 2.708 0 00-2.507-1.9 15.982 15.982 0 00-3.543.761c-1.212.3-2.421.609-3.619.961a86.34 86.34 0 00-13.953 5.405c-1.793.886-.213 3.622 1.575 2.694a1.43 1.43 0 00.823-.837z" fill="#030504" stroke="rgba(0,0,0,0)"/></g></g><g><g><path d="M276.604 122.836a51.552 51.552 0 019.917 16.586 2 2 0 003.856-1.063c-.834-3.411-3.278-6.454-5.108-9.391-1.992-3.2-4.1-6.39-5.9-9.7l-2.745 1.6c3.69 6.063 10.223 11.247 10.991 18.732l4.22-.571a34.671 34.671 0 00-11.037-18.944c-1.345-1.242-3.711.37-2.633 2.031 2.033 3.132 4.333 6.071 6.383 9.189a54.453 54.453 0 014.831 9.4 2.258 2.258 0 002.085 1.588 2.164 2.164 0 002.085-1.588c.685-4.736-1.477-8.477-3.79-12.413-1.285-2.186-4.632-.232-3.4 1.987 1.822 3.28 3.655 6.553 5.464 9.839 1.209 2.2 4.526.68 3.962-1.67a46.126 46.126 0 00-1.832-5.859l-3.833 1.616a16.675 16.675 0 004.944 5.45l1.1-4.079c-2.313.227-4.636.41-6.941.719a2.435 2.435 0 00-2.357 2.357 2.4 2.4 0 002.357 2.357l4.237.2v-4.665a15.933 15.933 0 00-5.146 1.516c-1.876.926-1.253 3.718.557 4.263a11.234 11.234 0 004.9.268l-1.77-4.2a8.051 8.051 0 01-2.063.816l2.957 2.958-.068.167-.869.869.186-.121a2.43 2.43 0 10-2.947-3.819 3.149 3.149 0 00-1.024 2.265c-.2 1.507 1.7 2.791 3.043 2.318a16.027 16.027 0 003.1-1.486 2.354 2.354 0 001.056-2.594 2.3 2.3 0 00-2.215-1.687 7.359 7.359 0 01-3.05-.254l.557 4.263a8.6 8.6 0 012.792-.879 2.4 2.4 0 002.332-2.332 2.376 2.376 0 00-2.332-2.333l-4.237-.248v4.714c2.517-.307 5.019-.739 7.523-1.134 1.974-.311 1.975-3.091.523-4a10.093 10.093 0 01-3.531-3.787c-1.107-2.052-4.649-.651-3.833 1.616a47.915 47.915 0 011.7 5.9l3.962-1.67c-1.947-3.205-3.872-6.425-5.807-9.638l-3.4 1.987c1.654 2.626 3.593 6.052 3.02 9.277h4.17a43.177 43.177 0 00-5.34-9.925c-2.26-3.162-4.929-6.017-7.149-9.2l-2.633 2.031c5.059 4.457 8.146 11.148 9.265 17.715.4 2.359 4.5 1.839 4.22-.571-1.01-8.585-7.526-14.393-12.792-20.658-1.165-1.387-3.447.411-2.5 1.926 1.926 3.069 3.615 6.344 5.354 9.524q1.284 2.349 2.575 4.7a20.628 20.628 0 011.972 4.327l3.856-1.063a42.541 42.541 0 00-11.95-17.346 1.29 1.29 0 00-1.823 1.823z" fill="#030504" stroke="rgba(0,0,0,0)"/></g></g><g><g><path d="M284.304 168.333a7.861 7.861 0 00-3.8.025 15.181 15.181 0 00-3.929 1.288 14.061 14.061 0 00-5.391 4.424 14.693 14.693 0 00-2.408 7.371c-.269 2.764-.515 5.566.3 8.268l2.983-1.257a3.64 3.64 0 00-1.972-1.824 1.238 1.238 0 00-1.5.852 3.575 3.575 0 00.655 2.619c.875 1.567 3.695.49 2.982-1.258a16 16 0 01-.964-6.849 12.756 12.756 0 011.847-6.62 11.7 11.7 0 014.6-3.8 26.928 26.928 0 013.513-1.34 12.118 12.118 0 003.183-1.216.377.377 0 00-.089-.679z" fill="#030504" stroke="rgba(0,0,0,0)"/></g></g><g><g><path d="M168.034 153.604a110.2 110.2 0 001.09 29.349 1.263 1.263 0 001.538.873q13.137-3.633 26.181-7.593 6.465-1.965 12.9-4.01c1.452-.461 3.588-.9 3.706-2.781a5.091 5.091 0 00-.9-2.532l-1.538-2.989c-.736-1.431-2.894-.167-2.159 1.262l1.319 2.562c.1.194.717 1.044.659 1.28-.094.381-.47.375-.819.489-1.867.613-3.748 1.189-5.623 1.775q-5.745 1.8-11.509 3.527-11.407 3.427-22.89 6.6l1.538.873a107.719 107.719 0 01-1-28.684c.157-1.6-2.344-1.589-2.5 0z" fill="#030504" stroke="rgba(0,0,0,0)"/></g></g><g><g><path d="M170.73 154.39c10.738-2.7 21.651-4.8 32.469-7.15l-1.411-.575 1.269 2.75c.673 1.459 2.829.191 2.158-1.262l-1.269-2.75a1.266 1.266 0 00-1.411-.574c-10.819 2.351-21.731 4.452-32.469 7.15a1.251 1.251 0 00.664 2.411z" fill="#030504" stroke="rgba(0,0,0,0)"/></g></g><g><g><path d="M212.758 142.809c.111 5.715 1.446 11.369 2.886 16.875a16.826 16.826 0 002.841 6.375 3.718 3.718 0 002.282 1.624c1.316.189 2.819-.516 4.068-.874q8.544-2.455 16.963-5.32 1.961-.667 3.914-1.357a12.316 12.316 0 003.285-1.436c2.03-1.5 1.666-4.058 1.374-6.262a32.51 32.51 0 00-4.04-11.917c-.189-.326-2.26-3.224-2.236-3.263.859-1.366-1.3-2.622-2.158-1.262-1.153 1.835 1.017 3.768 1.915 5.246a29.762 29.762 0 014.218 13.088c.083 1.165.091 2.088-1.057 2.657a30.751 30.751 0 01-3.575 1.3q-7.364 2.559-14.83 4.807-1.864.561-3.736 1.1-.819.237-1.638.47c-.441.125-1.646.7-2.083.564-.7-.21-1.344-1.58-1.668-2.192a16.319 16.319 0 01-1.217-3.24 68.159 68.159 0 01-3.008-16.989 1.251 1.251 0 00-2.5 0z" fill="#030504" stroke="rgba(0,0,0,0)"/></g></g><g><g><path d="M309.357 91.951c.373-.063.359.886.352 1.038l1.25-1.25a1.9 1.9 0 01-2.106-1.793l-1.206 1.582c1.3-.034 1.6 3.663 1.668 4.525a16.834 16.834 0 01-.547 5.838 1.251 1.251 0 002.411.665l2.956-9.331-2.411-.664A96.264 96.264 0 00310 103.606c-.136 1.4 2.156 1.7 2.456.332q1.452-6.616 3.506-13.077l-2.41-.664a72.4 72.4 0 00-2.706 15.81 1.255 1.255 0 002.455.333l2.546-10.656c.415-1.736.854-3.469 1.245-5.21.273-1.216.263-2.318-.838-3.086a1.266 1.266 0 00-1.836.747 34.664 34.664 0 00-1.91 18.166c.228 1.443 2.4 1.015 2.455-.332a160.471 160.471 0 011.447-16.286q.3-.719-.767-.344a16.006 16.006 0 00.554 1.547 12.874 12.874 0 01.469 3.288 13.109 13.109 0 01-1.563 6.4l2.158 1.262a37.657 37.657 0 002.787-9.17c.391-2.5.21-5.075-1.92-6.716-.942-.725-2.035.468-1.836 1.412.6 2.865 2.558 5.146 2.754 8.149a11.569 11.569 0 01-2.272 7.714l2.285.963c1.928-4.759 3.778-9.985 2.125-15.1l-2.285.963a10.873 10.873 0 011.019 10.756l2.284.964.988-6.574c.247-1.645.583-3.367-.406-4.841a1.274 1.274 0 00-1.71-.448c-1.352.819-1.641 2.279-1.89 3.733a46.362 46.362 0 00-.636 5.914c-.105 2.538-.366 7.055 3.163 7.3a1.251 1.251 0 001.079-.619l2.266-3.483-2.285-.3c.609 2.351 1.637 5.02 4.246 5.667a1.263 1.263 0 001.538-1.538 11.362 11.362 0 00-2.459-4.537 1.259 1.259 0 00-2.089 1.216 11.141 11.141 0 002.817 4.516l.884-2.134a50.98 50.98 0 00-12.38.062 1.262 1.262 0 00-.631 2.329 18.213 18.213 0 009.4 3.146 1.255 1.255 0 00.332-2.455 60.137 60.137 0 00-9.944-1.615 1.255 1.255 0 00-.332 2.455 41.2 41.2 0 009.644.658 1.251 1.251 0 000-2.5l-18.931-.377c-1.626-.032-1.585 2.376 0 2.5l6.232.488v-2.5l-12.186.8a1.251 1.251 0 000 2.5 32.775 32.775 0 0011.659-.765 1.255 1.255 0 00-.332-2.455l-16.861.5a1.251 1.251 0 000 2.5 51.052 51.052 0 009.576-.908c1.42-.269 1.037-2.428-.332-2.455a91.631 91.631 0 00-11.837.529c-1.572.173-1.617 2.641 0 2.5a43.626 43.626 0 0012.52-2.954 1.256 1.256 0 00-.332-2.455 31.128 31.128 0 00-12.638 1.38c-1.289.418-1.135 2.516.333 2.455a26.413 26.413 0 0012.762-3.876 1.26 1.26 0 00-.631-2.329 28.667 28.667 0 00-13.084 3.869 1.256 1.256 0 00.963 2.285 22.156 22.156 0 0010.8-5.633 1.262 1.262 0 00-.884-2.134 14.328 14.328 0 00-9.022 4.09l1.963 1.515a21.627 21.627 0 016.844-6.157l-1.515-1.963c-1.562 1.807-4.1 1.925-6.026 3.184-1.906 1.248-3.264 3.247-2.709 5.582a1.26 1.26 0 002.411 0c.568-3.144 2.989-5.284 5.3-7.277a1.262 1.262 0 00-.884-2.134 8.025 8.025 0 00-7.514 7.5c-.106 1.388 2.227 1.729 2.455.332a9.046 9.046 0 014.63-6.657c1.344-.727.342-2.479-.964-2.285-5.873.875-9.239 7.029-7.519 12.555a1.265 1.265 0 002.285.3c1-1.905-.153-3.33-.234-5.259a3.824 3.824 0 012.568-3.737l-1.216-2.089c-2.087 2.114-4.342 4.485-4.831 7.539a6.658 6.658 0 002.632 6.8 1.259 1.259 0 001.881-1.08 22.109 22.109 0 00-.93-5.952l-2.09 1.216a5.373 5.373 0 011.366 3.417 1.264 1.264 0 001.582 1.2c2.53-.727 4.237-2.727 5.982-4.575l6.29-6.657a1.256 1.256 0 00-1.515-1.964c-1.468.772-4.064 2.973-3.177 4.9.954 2.078 3.777.733 5-.272a3.048 3.048 0 00.036-4.967c-2.121-1.476-4.349-.13-6.079 1.261-.934.753-.068 2.044.884 2.134a8.36 8.36 0 006.879-2.662 1.264 1.264 0 00-.884-2.133 5.024 5.024 0 00-4.134 2.169c-.692.916.447 2.088 1.411 1.836a6.141 6.141 0 003.715-2.759c.864-1.363-1.3-2.618-2.158-1.262a3.534 3.534 0 01-2.221 1.611l1.411 1.836a2.4 2.4 0 011.976-.931l-.884-2.134a5.975 5.975 0 01-5.111 1.929l.884 2.134c.617-.5 1.538-1.312 2.408-1.169s.8.757.233 1.234a4.267 4.267 0 01-.905.546 1.528 1.528 0 01-.525.19l.546.451c.111-.01.556-.763.714-.918a5.037 5.037 0 011.243-.867l-1.515-1.963-5.627 5.957c-1.59 1.682-3.225 3.966-5.542 4.632l1.583 1.206a8.092 8.092 0 00-2.1-5.185 1.259 1.259 0 00-2.089 1.216 19.513 19.513 0 01.841 5.288l1.881-1.079c-1.586-1.047-1.776-3.285-1.261-4.964.669-2.18 2.407-3.87 3.966-5.448a1.26 1.26 0 00-1.217-2.09 6.3 6.3 0 00-4 3.848 6.058 6.058 0 00-.362 2.8c.114 1.008 1.036 2.547.537 3.494l2.285.3a7.2 7.2 0 015.773-9.479l-.963-2.285a11.39 11.39 0 00-5.779 8.152l2.456.332a5.464 5.464 0 015.014-5l-.884-2.134c-2.626 2.265-5.3 4.818-5.943 8.381h2.411c-.48-2.019 2.095-3.137 3.578-3.7a10.412 10.412 0 004.514-2.64 1.256 1.256 0 00-1.515-1.963 24.526 24.526 0 00-7.74 7.054c-.846 1.179.976 2.482 1.963 1.515a11.621 11.621 0 017.254-3.358l-.883-2.133a19.748 19.748 0 01-9.7 4.989l.963 2.285a25.9 25.9 0 0111.822-3.528l-.631-2.33a23.782 23.782 0 01-11.5 3.535l.332 2.456a29.28 29.28 0 0111.973-1.291l-.333-2.456a41.4 41.4 0 01-11.855 2.865v2.5a91.631 91.631 0 0111.837-.529l-.332-2.455a47.517 47.517 0 01-8.912.818v2.5l16.861-.5-.332-2.455a30.83 30.83 0 01-10.995.675v2.5l12.186-.8a1.251 1.251 0 000-2.5l-6.232-.488v2.5l18.931.377v-2.5a38.319 38.319 0 01-8.979-.569l-.333 2.456a55.949 55.949 0 019.28 1.526l.332-2.456a15.752 15.752 0 01-8.134-2.805l-.63 2.33a50.98 50.98 0 0112.38-.062c1.109.13 1.605-1.434.884-2.134a8.453 8.453 0 01-2.175-3.412l-2.089 1.216a8.54 8.54 0 011.816 3.434l1.538-1.538c-1.646-.408-2.131-2.5-2.5-3.92a1.265 1.265 0 00-2.285-.3l-2.265 3.483 1.079-.619c-1.216-.086-.658-5.04-.614-5.739.082-1.29.218-2.576.421-3.853.111-.693.13-2.283.818-2.7l-1.711-.449c.788 1.174.127 3.093-.065 4.375l-.768 5.113c-.19 1.264 1.628 2.368 2.284.963a13.39 13.39 0 00-1.018-13.279c-.763-1.095-2.748-.471-2.285.963 1.508 4.669-.374 9.451-2.125 13.774-.574 1.417 1.517 2 2.285.964a13.731 13.731 0 002.632-8.6 13.264 13.264 0 00-.884-4.389 30.644 30.644 0 01-1.979-4.8l-1.836 1.412c1.512 1.164.785 4.022.456 5.551a36.769 36.769 0 01-2.219 6.914c-.625 1.436 1.38 2.714 2.158 1.262a15.669 15.669 0 001.871-8.477c-.127-1.826-.674-6.934-3.481-6.4-1.427.273-1.627 1.855-1.787 3.03q-.354 2.6-.632 5.2-.564 5.373-.769 10.773l2.455-.332a32.237 32.237 0 011.91-16.837l-1.836.747c-.333-.232-.071-.167-.254.026a4.46 4.46 0 00-.283 1.184l-.509 2.131-1.019 4.262-2.037 8.525 2.456.332a69.329 69.329 0 012.616-15.146 1.251 1.251 0 00-2.41-.664q-2.053 6.456-3.507 13.077l2.455.332a90.324 90.324 0 011.635-10.381 1.251 1.251 0 00-2.411-.664l-2.956 9.33 2.411.665a19.235 19.235 0 00.353-8.6c-.389-2.07-1.286-5-3.885-4.929a1.274 1.274 0 00-1.205 1.583 4.3 4.3 0 004.517 3.628 1.285 1.285 0 001.25-1.25c.113-2.2-2.237-4.1-4.158-2.472-1.842 1.559-.2 4.215 1.97 3.845 1.583-.269.912-2.679-.664-2.411z" fill="#030504" stroke="rgba(0,0,0,0)"/></g></g><g><g><path d="M108.112 257.582a61.123 61.123 0 018.027-7.3.646.646 0 00.224-.855.629.629 0 00-.855-.225 62.984 62.984 0 00-8.28 7.5c-.545.591.337 1.477.884.884z" fill="#030504" stroke="rgba(0,0,0,0)"/></g></g><g><g><path d="M155.804 225.26a65.754 65.754 0 0110.977-4.632c.764-.243.437-1.45-.332-1.205a67.452 67.452 0 00-11.276 4.758c-.71.378-.08 1.458.631 1.079z" fill="#030504" stroke="rgba(0,0,0,0)"/></g></g><g><g><path d="M314.694 160.918a80.82 80.82 0 008.387-5.509.645.645 0 00.224-.855.628.628 0 00-.855-.224 80.793 80.793 0 01-8.387 5.509.625.625 0 00.631 1.079z" fill="#030504" stroke="rgba(0,0,0,0)"/></g></g><g><g><path d="M330.29 147.118a50.652 50.652 0 006.933-12.522c.288-.752-.92-1.077-1.206-.332a49.535 49.535 0 01-6.806 12.223c-.486.641.6 1.265 1.079.631z" fill="#030504" stroke="rgba(0,0,0,0)"/></g></g><g><g><path d="M345.467 122.681a20.014 20.014 0 0110.265-7.007.625.625 0 00-.333-1.205 21.416 21.416 0 00-11.011 7.581c-.49.637.595 1.26 1.079.631z" fill="#030504" stroke="rgba(0,0,0,0)"/></g></g><g><path d="M427.218 150.611c.4-5.563 7.238-10.544 10.776-5.563 0 0-1.367-8.219 6.193-8.219s8.363 8.551 8.363 8.551 5.308-10.543 14.878-4.234 4.342 18.182.321 23.163c0 0 6.916-3.155 8.444 6.227s-8.363 9.63-8.363 9.63-23.643-17.6-29.273-22a96.878 96.878 0 00-11.339-7.555z" fill="#080909" stroke="rgba(0,0,0,0)"/></g><g><path d="M411.51 137.993c-.215-22.8.857-25.9 1.93-34.979s-9.436-3.321-9.436-3.321.214 11.069.214 15.5-6.862-4.207-6.862-4.207l-.858 3.321a49.067 49.067 0 016.005 8.192c2.144 3.985 1.286 11.069 1.286 11.069z" fill="#080909" stroke="rgba(0,0,0,0)"/></g><g><g><path d="M405.048 53.697a14.864 14.864 0 00-11.756 7.724c-2.051 3.761-3.037 10.345 1.563 12.744l.963-2.285c-5.773-2.2-11.214 2.149-13.4 7.257-1.055 2.462-2.034 5.642-.923 8.245.929 2.177 3.581 3.5 5.735 2.2a1.266 1.266 0 000-2.159c-2.718-1.8-6.914.233-8.265 2.932-1.741 3.475 1.166 6.565 4.188 7.867a35.508 35.508 0 0011.718 2.782c3.526.22 7.345-.69 9.127-4.039h-2.159c3.491 5.635 10.819 8.71 17.332 8.066a11.953 11.953 0 008.51-4.367 9.6 9.6 0 001.789-8.628l-1.538 1.538a8.218 8.218 0 0010.679-6.7 8.386 8.386 0 00-7.942-9.591v2.5a7.277 7.277 0 004.8-2 5.875 5.875 0 001.321-4.8c-.546-4.062-4.245-6.432-7.437-8.423a69.109 69.109 0 00-24.52-9.388c-1.573-.277-2.248 2.132-.664 2.411a67.1 67.1 0 0120.5 7.139c2.864 1.561 6.322 3.282 8.413 5.859a5.083 5.083 0 011.207 4.166c-.37 1.738-2.015 2.366-3.616 2.536a1.251 1.251 0 000 2.5 5.868 5.868 0 015.477 6.8 5.723 5.723 0 01-7.55 4.584 1.259 1.259 0 00-1.537 1.538 7.212 7.212 0 01-1.69 6.859 9.994 9.994 0 01-7.439 3.041c-5.281.093-11.084-2.3-13.932-6.9a1.262 1.262 0 00-2.159 0c-1.239 2.328-3.818 2.9-6.274 2.833a31.7 31.7 0 01-8.374-1.5c-2.093-.645-5.83-1.584-6.215-4.209-.32-2.178 3.16-4.464 4.993-3.249v-2.162c-2.03 1.233-2.549-2.308-2.388-3.475a14.984 14.984 0 011.877-5.332c1.96-3.391 5.762-5.822 9.7-4.321 1.324.5 2.209-1.635.963-2.285-3.522-1.836-1.905-7.336-.314-9.931a12.229 12.229 0 019.245-5.878c1.593-.124 1.607-2.625 0-2.5z" fill="#030504" stroke="rgba(0,0,0,0)"/></g></g><g><g><path d="M405.576 58.392l-.078-1.038a1.265 1.265 0 00-1.881-1.08 18.845 18.845 0 00-7.292 7.537c-.644 1.21.964 2.6 1.964 1.515l7.268-7.872a1.285 1.285 0 000-1.767c-1.937-2.291-5.585 1.254-6.993 2.606a21.809 21.809 0 00-5.1 7.726c-.458 1.149 1.311 2.15 2.089 1.216a81.235 81.235 0 008.276-11.206 1.255 1.255 0 00-1.963-1.515 32.845 32.845 0 00-9.8 17.941 1.256 1.256 0 002.285.963 112.892 112.892 0 0113.445-17.324l-1.768-1.768c-6.311 6.783-10.462 15.109-14.505 23.353a1.251 1.251 0 002.159 1.262 156.524 156.524 0 0116.289-20.018c1.142-1.189-.537-2.749-1.768-1.768-3.9 3.111-6.517 7.6-9.051 11.821-2.88 4.8-5.6 9.691-8.373 14.551l2.159 1.261c4.474-8.666 10.915-16.006 17.479-23.137l-1.963-1.514a185.956 185.956 0 00-10.243 15.612l-10.4 16.775 2.284.963c3.916-11.74 12.4-21.064 20.822-29.817l-1.963-1.514c-3.688 5.26-7.377 10.523-10.872 15.915a213.26 213.26 0 00-5.012 8.1c-1.475 2.514-2.932 4.989-3.3 7.927-.143 1.136 1.427 1.564 2.134.884 2.587-2.488 4.139-5.864 5.945-8.915a180.41 180.41 0 015.915-9.358 108.517 108.517 0 0114.074-17.016l-1.964-1.515c-9.377 12.88-19.135 25.653-26.279 39.959-.714 1.429 1.388 2.687 2.159 1.262 8.1-14.968 20.279-27 31.1-39.946 1.021-1.221-.7-2.991-1.768-1.768a213.112 213.112 0 00-14.349 19.222c-2.272 3.3-4.54 6.593-6.695 9.966-2.005 3.138-4.528 6.517-5.181 10.262a1.262 1.262 0 002.089 1.216 12.884 12.884 0 003.032-3.852 175.684 175.684 0 012.7-4.493q2.988-4.76 6.362-9.26a133.815 133.815 0 0114.816-16.617l-1.963-1.515c-4.5 6.074-9.092 12.082-13.657 18.108-4.068 5.369-8.794 10.729-10.85 17.264a1.256 1.256 0 002.285.963 151.907 151.907 0 0127-34.115c1.175-1.11-.584-2.851-1.768-1.768-5.37 4.917-9.732 10.776-14.112 16.558-2.249 2.968-4.479 5.953-6.514 9.072-1.877 2.876-3.816 5.911-4.4 9.353a1.256 1.256 0 002.284.963 200 200 0 0128.141-33.23l-1.768-1.768a218.876 218.876 0 00-13.934 17.917 546.74 546.74 0 00-6.372 9.243c-1.911 2.823-4.492 5.727-4.889 9.228-.15 1.316 1.721 1.581 2.329.63a164.2 164.2 0 0128.547-33.666c1.042-.936-.339-2.778-1.514-1.963-6.123 4.244-10.539 10.706-15.073 16.5-2.418 3.092-4.794 6.217-7.045 9.433-2.177 3.11-4.342 6.277-5.484 9.934a1.257 1.257 0 001.537 1.537 6.159 6.159 0 002.939-2.82q1.461-2.238 3.012-4.412 3.211-4.491 6.834-8.663c4.562-5.26 9.684-10.045 13.557-15.872.79-1.188-.987-2.529-1.963-1.514a160 160 0 00-12.837 15.414 435.078 435.078 0 00-5.947 8.216c-1.808 2.546-3.96 5.082-4.739 8.169a1.256 1.256 0 002.284.963A315.3 315.3 0 01435.7 72.57a1.256 1.256 0 00-1.515-1.964c-2.775 1.463-4.7 4.091-6.677 6.451q-3.252 3.89-6.363 7.9c-3.952 5.085-8.447 10.292-10.85 16.33-.571 1.434 1.509 1.979 2.285.963q6.008-7.875 12.759-15.143c4.079-4.391 8.825-8.46 11.583-13.877a1.256 1.256 0 00-1.963-1.515c-4.926 3.911-8.575 9.17-12.093 14.318q-2.781 4.07-5.371 8.265a34.581 34.581 0 00-4.288 8.457c-.325 1.138 1.269 2.209 2.089 1.216q9.945-12.024 19.623-24.264c.974-1.231-.678-2.995-1.768-1.768a97.128 97.128 0 00-16.516 25.9c-.527 1.218.889 2.608 1.964 1.515q5.542-5.64 10.565-11.758 2.391-2.917 4.655-5.936c1.033-1.375 3.216-3.595 1.505-5.291a1.266 1.266 0 00-1.767 0 73.861 73.861 0 00-14.057 20.6 1.256 1.256 0 001.963 1.514c6.406-5.966 11.406-13.218 15.917-20.672.773-1.278-.921-2.391-1.963-1.515a45.365 45.365 0 00-10.465 12.749c-.558 1.006.65 2.5 1.71 1.71a39.2 39.2 0 009.617-10.279 3.653 3.653 0 00.883-2.574 1.57 1.57 0 00-1.691-1.351c-.956.13-2.011 1.253-2.7 1.877a19.108 19.108 0 00-2.441 2.75l2.159 1.262 4.294-7.159c.623-1.04-.65-2.413-1.711-1.71a20.914 20.914 0 00-7.573 8.874 1.256 1.256 0 001.963 1.515 25.682 25.682 0 006.726-9.551 1.26 1.26 0 00-1.836-1.411 25.181 25.181 0 00-8.878 12.33c-.421 1.268 1.214 1.979 2.089 1.216a62.008 62.008 0 004.759-4.6q1.053-1.136 2.046-2.325c.458-.547 1.422-2.321 2.148-2.421l-.963-.126c-.1-.323-.07-.247.1.228l.306.825a10.189 10.189 0 01.611 1.65c.126.748-.083 1-.626 1.521a4.93 4.93 0 01-1.292 1c-1.164.529-2.042-.351-3.137-.645a3.12 3.12 0 00-2.636.391l1.837 1.412a6.935 6.935 0 00-.362-4.777 1.26 1.26 0 00-1.963-.253 50.965 50.965 0 00-8.049 10.165c-.715 1.185 1.031 2.622 1.963 1.514a82.478 82.478 0 007.843-11.022 1.256 1.256 0 00-1.964-1.515 62.433 62.433 0 00-12.4 15.452 1.262 1.262 0 001.08 1.881c1.748-.039 2.831-2.118 3.818-3.339q1.791-2.216 3.518-4.483 1.774-2.327 3.477-4.705a12.454 12.454 0 002.538-4.735c.191-.991-.855-2.056-1.836-1.411a31.829 31.829 0 00-13.371 19.068 1.265 1.265 0 001.538 1.538 11.3 11.3 0 006.911-4.713c.728-1.045-.686-2.34-1.71-1.71-2.722 1.673-5.385 3.446-7.125 6.2a1.263 1.263 0 001.412 1.836 23.129 23.129 0 0010.91-7.659 1.269 1.269 0 00-.253-1.964 2.254 2.254 0 00-.951-.281c-.207-.013-.537.113-.716.059l.747.575q-.1 1 .294.147l.515-.785 1.03-1.569 2.06-3.137c.734-1.118-.668-2.228-1.71-1.71a53.363 53.363 0 00-15.41 11.578c-1.091 1.18.673 2.953 1.767 1.768a51.435 51.435 0 0114.9-11.188l-1.71-1.71-2.06 3.138a27.506 27.506 0 00-1.875 2.882 1.723 1.723 0 00.232 2.1 1.691 1.691 0 001.07.421c.234.012.926.061.551-.13l-.253-1.963a20.856 20.856 0 01-9.807 7.016l1.412 1.837c1.5-2.373 3.886-3.861 6.228-5.3l-1.71-1.71a8.742 8.742 0 01-5.418 3.564l1.538 1.538a29.26 29.26 0 0112.222-17.575l-1.837-1.411a10.443 10.443 0 01-2.15 3.946q-1.428 2-2.906 3.964-1.452 1.927-2.956 3.815-.8 1.005-1.615 2a17.172 17.172 0 01-1.313 1.7l1.079 1.881a60.228 60.228 0 0112.009-14.946l-1.963-1.515a78.579 78.579 0 01-7.451 10.517l1.963 1.514a48.334 48.334 0 017.657-9.658l-1.963-.253a4.171 4.171 0 01.11 2.85 1.263 1.263 0 001.836 1.412c.647-.448 1.451.181 2.077.439a4.227 4.227 0 001.846.36 5.587 5.587 0 003.358-1.661c.957-.859 1.924-1.834 1.809-3.212a13.534 13.534 0 00-1.422-4.146 1.847 1.847 0 00-2.532-1.027c-1.2.541-2 2.1-2.815 3.069a61.6 61.6 0 01-6.663 6.755l2.089 1.216a22.29 22.29 0 017.73-10.837l-1.836-1.411a23 23 0 01-6.084 8.447l1.963 1.515a18.6 18.6 0 016.677-7.978l-1.71-1.71-4.294 7.159c-.849 1.416 1.22 2.516 2.159 1.262a15.612 15.612 0 013.779-3.582l-.963.126.184.077-.747-.575c-.164-.256-.13-.01-.287.2s-.3.476-.447.708q-.51.789-1.062 1.551a34.125 34.125 0 01-2.287 2.831 36.1 36.1 0 01-5.259 4.824l1.711 1.71a43.442 43.442 0 0110.073-12.243l-1.963-1.515c-4.408 7.283-9.266 14.337-15.526 20.167l1.964 1.514a71.909 71.909 0 0113.665-20.094h-1.767c-.055-.367-.126-.38-.214-.041a7.111 7.111 0 01-.432.618c-.272.379-.553.751-.832 1.125q-1.018 1.368-2.065 2.714-2.075 2.666-4.255 5.246-4.273 5.064-8.928 9.788l1.963 1.515a95.109 95.109 0 0116.125-25.4l-1.768-1.768q-9.678 12.24-19.623 24.265l2.09 1.216c.833-2.921 2.575-5.5 4.159-8.06q2.532-4.092 5.248-8.065c3.406-4.986 6.932-10.025 11.7-13.812l-1.964-1.515c-2.793 5.488-7.712 9.589-11.827 14.058a211.275 211.275 0 00-12.515 14.962l2.285.963a36.7 36.7 0 014.608-7.759q2.873-3.972 5.888-7.839 2.9-3.72 5.923-7.343c1.863-2.234 3.695-4.855 6.322-6.24l-1.515-1.963a320.313 320.313 0 00-26.31 30.224l2.285.963c.751-2.976 3.01-5.493 4.753-7.947a429.269 429.269 0 015.68-7.84 154.977 154.977 0 0112.447-14.909l-1.964-1.514c-3.666 5.514-8.522 10.055-12.862 15.016q-3.307 3.783-6.3 7.83-1.452 1.957-2.824 3.973-.72 1.056-1.417 2.127c-.371.568-.769 1.419-1.445 1.672l1.537 1.537c1.073-3.434 3.189-6.417 5.233-9.336 2.219-3.171 4.56-6.256 6.948-9.3 2.263-2.887 4.526-5.784 6.877-8.6a38.348 38.348 0 017.395-7.138l-1.514-1.963a166.641 166.641 0 00-28.939 34.173l2.33.631a10.1 10.1 0 012.063-4.283q1.5-2.232 3.01-4.458a511.256 511.256 0 016.117-8.849 210.563 210.563 0 0113.273-17.03 1.251 1.251 0 00-1.768-1.768 202.964 202.964 0 00-28.531 33.737l2.284.963c.571-3.388 2.54-6.327 4.4-9.146 1.966-2.978 4.1-5.838 6.258-8.682 4.254-5.615 8.507-11.278 13.722-16.052L424.9 63.07a154.328 154.328 0 00-27.39 34.622l2.285.963c2.022-6.427 6.9-11.782 10.9-17.06 4.467-5.9 8.955-11.773 13.359-17.715.869-1.173-.972-2.459-1.964-1.515a137.594 137.594 0 00-14.676 16.421q-3.333 4.385-6.3 9.03-1.486 2.325-2.877 4.708a13.164 13.164 0 01-3.058 4.063l2.09 1.216c.627-3.595 3.127-6.853 5.058-9.867 2.117-3.3 4.34-6.534 6.566-9.764a207.409 207.409 0 0113.958-18.715l-1.768-1.768c-10.956 13.1-23.3 25.3-31.494 40.452l2.159 1.262c7.143-14.306 16.9-27.08 26.279-39.959.856-1.175-.975-2.473-1.963-1.515a110.565 110.565 0 00-13.959 16.788 174.052 174.052 0 00-5.96 9.327c-1.845 3.085-3.388 6.651-6.007 9.17l2.133.884c.353-2.791 2.162-5.331 3.567-7.691q2.376-3.99 4.926-7.872c3.34-5.114 6.847-10.117 10.353-15.118.822-1.172-.992-2.523-1.963-1.514-8.738 9.08-17.406 18.749-21.465 30.92-.46 1.377 1.557 2.137 2.284.963l10.4-16.775a186.365 186.365 0 0110.242-15.613c.867-1.127-1.012-2.547-1.963-1.514-6.7 7.277-13.3 14.8-17.87 23.643-.735 1.423 1.357 2.668 2.159 1.261 2.694-4.722 5.342-9.474 8.129-14.143 2.5-4.189 5.034-8.637 8.9-11.722l-1.768-1.768a160.581 160.581 0 00-16.68 20.524l2.159 1.262c3.943-8.041 7.957-16.231 14.114-22.847 1.094-1.176-.659-2.941-1.768-1.768a116.424 116.424 0 00-13.836 17.83l2.285.963a30.594 30.594 0 019.154-16.837l-1.963-1.515a77.424 77.424 0 01-7.886 10.7l2.089 1.216a18.8 18.8 0 013.369-5.491 19.173 19.173 0 012.26-2.173 16.419 16.419 0 012.285-1.566v-1.767l-7.268 7.871 1.963 1.515a16.418 16.418 0 016.4-6.64l-1.881-1.079.078 1.038c.119 1.594 2.62 1.607 2.5 0z" fill="#030504" stroke="rgba(0,0,0,0)"/></g></g><g><g><path d="M383.088 91.545a6.184 6.184 0 00-2.828 1.4c-1.091.906.331 2.734 1.515 1.963a7 7 0 003.2-4.939 1.27 1.27 0 00-1.538-1.538 5.915 5.915 0 00-3.73 3.659c-.608 1.36-1.559 3.827.477 4.525 1.835.63 3.935-1.4 5.043-2.6a16.123 16.123 0 003.386-5.845 1.262 1.262 0 00-1.836-1.411 11.161 11.161 0 00-4.012 4.683c-.638 1.429-1.481 3.835.12 4.984 1.7 1.217 3.821-.932 4.957-2.035a16.969 16.969 0 003.724-5.434 1.256 1.256 0 00-1.963-1.515 24.743 24.743 0 00-4.3 4.546c-1.081 1.475-2.386 3.3-1.342 5.129a1.294 1.294 0 001.411.574c4.249-.694 6.636-4.54 8.556-8a1.256 1.256 0 00-1.963-1.515 12.429 12.429 0 00-3.628 4.77c-.619 1.436-1.774 4.4.412 5.1 1.865.6 3.515-1.608 4.539-2.821a26.216 26.216 0 003.717-5.8 1.256 1.256 0 00-1.964-1.514 18.162 18.162 0 00-5.346 6.693c-.483 1.048-1.061 2.252-.555 3.4.563 1.276 2.013 1.312 3.168.9 2.6-.937 4.481-3.918 6-6.077a97.493 97.493 0 005.16-8.524 1.26 1.26 0 00-1.711-1.71c-2.47 1.34-3.774 4.311-5.08 6.664a31.167 31.167 0 00-3.458 8.586 1.27 1.27 0 001.2 1.582 3.045 3.045 0 002.673-1.618c.905-1.343 1.614-2.864 2.389-4.284q2.469-4.524 4.844-9.1c.618-1.188-1.025-2.673-1.963-1.514a50.593 50.593 0 00-5.948 8.466c-.862 1.676-3.909 7.608-.329 8.058 1.46.183 3-.9 4.059-1.784a26.491 26.491 0 003.613-3.979c2.429-3.065 4.594-6.319 6.747-9.581.771-1.167-1.049-2.614-1.963-1.514a45.339 45.339 0 00-7.56 12.979 1.267 1.267 0 00.873 1.538c2.083.664 3.844-2.1 4.958-3.463a42.548 42.548 0 004.159-6.114c.67-1.195-1.005-2.624-1.963-1.515a59.23 59.23 0 00-4.013 5.19c-1.139 1.662-2.476 3.429-2.448 5.533a1.267 1.267 0 001.88 1.079c2.56-1.144 4.378-3.521 5.882-5.806a29.746 29.746 0 003.7-8.141 1.259 1.259 0 00-2.089-1.216 36.735 36.735 0 00-5.066 7.1 37.175 37.175 0 00-1.755 3.739c-.484 1.189-.806 2.261.1 3.323a1.255 1.255 0 001.514.195 11.537 11.537 0 004.348-5.08c.638-1.46-1.516-2.735-2.158-1.262a9.261 9.261 0 01-3.451 4.183l1.514.2c.286.334.415-.58.543-.891.227-.552.474-1.1.733-1.636q.687-1.428 1.5-2.789a33.73 33.73 0 013.942-5.308l-2.089-1.216a27.523 27.523 0 01-3.208 7.182c-1.323 2.08-2.911 4.239-5.219 5.27l1.881 1.08c-.022-1.675 1.448-3.329 2.361-4.639a52.964 52.964 0 013.368-4.316l-1.963-1.515a40.41 40.41 0 01-3.011 4.644 36.012 36.012 0 01-1.758 2.141q-.438.5-.892.976-.227.242-.458.477-.469.336-.176.19l.873 1.538a41.767 41.767 0 016.917-11.877l-1.963-1.514c-1.624 2.461-3.25 4.924-5 7.3-1.619 2.2-3.437 4.964-5.851 6.358a4.14 4.14 0 00-.739.355q-.564.086.124.565l.087-.411a11.4 11.4 0 00.578-2 21.1 21.1 0 011.733-3.632 54.906 54.906 0 014.854-6.687l-1.964-1.514q-1.925 3.7-3.906 7.373-.935 1.727-1.881 3.446c-.287.522-1.227 2.986-1.96 2.943l1.205 1.582a28.041 28.041 0 012.995-7.6c1.1-2.02 2.286-5.008 4.395-6.152l-1.71-1.71c-2.291 4.093-4.587 8.3-7.746 11.807a9.532 9.532 0 01-1.142 1.138 4.429 4.429 0 01-.722.472q-.721.033-.264.632a19.915 19.915 0 011.072-2.491 16.548 16.548 0 014.3-4.915l-1.963-1.514a21.378 21.378 0 01-5.062 7.142 1.044 1.044 0 01-.276.228q-.469.25.524.215c.122-.067.214-.8.257-.93a9.776 9.776 0 01.8-1.813 10.568 10.568 0 012.644-3.056l-1.964-1.515c-1.617 2.918-3.46 6.265-7.061 6.853l1.411.575c-.454-.795 1.713-3.11 2.168-3.645a23.741 23.741 0 013.079-3l-1.964-1.515a15.7 15.7 0 01-2.014 3.474 14.761 14.761 0 01-1.319 1.454c-.465.453-1.129.823-1.549 1.3l-.321.221.267.36a4.754 4.754 0 01.118-.814 7.9 7.9 0 01.675-1.69 8.556 8.556 0 012.775-3.086l-1.837-1.411a12.368 12.368 0 01-4.242 6.128c-.2.143-.452.241-.642.394l-.392.166.524.273a8.742 8.742 0 00.562-1.43 3.5 3.5 0 012.09-2.191l-1.538-1.538a4.647 4.647 0 01-2.05 3.446l1.515 1.963a3.649 3.649 0 011.725-.762c1.578-.306.91-2.716-.665-2.41z" fill="#030504" stroke="rgba(0,0,0,0)"/></g></g><g><g><path d="M400.898 75.604c-1.656-.209-3.111 1.364-4.223 2.388a30.181 30.181 0 00-3.328 3.622 32.478 32.478 0 00-4.844 8.7 1.262 1.262 0 001.2 1.582c1.624.091 2.329-1.546 2.983-2.74q1.13-2.062 2.2-4.156 2.227-4.34 4.209-8.8a1.262 1.262 0 00-1.71-1.711 9.532 9.532 0 00-3.358 3.064 47.715 47.715 0 00-7.453 12.881 1.255 1.255 0 00.574 1.412 1.308 1.308 0 001.515-.2c2.476-1.983 3.833-5.171 5.274-7.914a59.343 59.343 0 004.219-9.681 1.264 1.264 0 00-1.206-1.583c-1.7-.045-2.748 1.336-3.695 2.549a42.116 42.116 0 00-3 4.359 42.991 42.991 0 00-4.2 9.569 1.256 1.256 0 002.285.963 65.2 65.2 0 007.149-15.617 1.26 1.26 0 00-1.538-1.538 7.806 7.806 0 00-3.363 2.7 36.931 36.931 0 00-2.556 3.326 36.39 36.39 0 00-3.965 7.742 1.262 1.262 0 001.836 1.412c2.17-1.458 3.252-3.889 4.421-6.136q2.044-3.931 3.951-7.93a1.267 1.267 0 00-1.411-1.837 7.363 7.363 0 00-3.532 2.321 44.987 44.987 0 00-3.11 3.635 46.798 46.798 0 00-2.659 3.807 6.2 6.2 0 00-1.24 4.313 1.257 1.257 0 002.09.551 38.138 38.138 0 007.237-12.985c.427-1.319-1.2-1.9-2.089-1.216a21.219 21.219 0 00-5 5.558 22.2 22.2 0 00-1.709 3.4c-.435 1.071-1.086 2.444-.557 3.585a1.918 1.918 0 003.044.483 13.425 13.425 0 002.551-3.038 22.361 22.361 0 003.183-7.123 1.26 1.26 0 00-2.089-1.216 11.9 11.9 0 00-3.511 4.276 5.46 5.46 0 00.318 5.052c.882 1.338 3.048.087 2.159-1.261-1.6-2.423 1.143-4.853 2.8-6.3l-2.09-1.216a20.231 20.231 0 01-2.158 5.31 18.728 18.728 0 01-1.61 2.343 7.587 7.587 0 00-.946 1.077q-.454.276.235.4.453.513.471 0a2.363 2.363 0 00.216-.666 19.208 19.208 0 016.463-8.906l-2.089-1.216a35.013 35.013 0 01-6.6 11.883l2.089.551c-.146-1.026.886-2.243 1.4-3.04a42.9 42.9 0 012.235-3.139q1.145-1.453 2.41-2.807a5.793 5.793 0 012.745-2.014l-1.411-1.836q-1.763 3.69-3.638 7.325c-1 1.94-1.951 4.576-3.838 5.844l1.836 1.412a33.661 33.661 0 013.381-6.648 31.226 31.226 0 012.113-2.863c.694-.834 1.572-2.177 2.645-2.515l-1.538-1.538a62.633 62.633 0 01-6.9 15.02l2.285.963a40.116 40.116 0 013.487-8.187 40.646 40.646 0 012.356-3.684c.406-.565.827-1.12 1.268-1.659.335-.409.779-1.126 1.365-1.111l-1.2-1.582a55.64 55.64 0 01-3.967 9.084c-1.341 2.552-2.579 5.563-4.883 7.408l2.089 1.216a46.427 46.427 0 014.086-7.969 43.96 43.96 0 012.536-3.573 8.777 8.777 0 013.041-2.909l-1.71-1.71q-1.713 3.842-3.6 7.6-.907 1.8-1.855 3.582-.474.889-.958 1.773c-.188.344-.375.689-.568 1.03a8.721 8.721 0 01-.21.362q-.222.231-.046.11l1.205 1.582a29.507 29.507 0 014.055-7.4 28.208 28.208 0 012.763-3.139q.7-.69 1.445-1.331c.474-.408 1.053-1.088 1.722-1a1.259 1.259 0 001.25-1.25 1.279 1.279 0 00-1.25-1.25z" fill="#030504" stroke="rgba(0,0,0,0)"/></g></g><g><g><path d="M399.357 93.917a2.029 2.029 0 00-1.792-2.091 2.8 2.8 0 00-2.529 1.32 6.173 6.173 0 00-1.082 4.655 6.389 6.389 0 006.908 5.231 7.143 7.143 0 004.823-2.694l-1.963-1.515a5.222 5.222 0 01-1.549 1.431 1.649 1.649 0 01-1.555.159c-1.277-.629-1.474-2.356-1.229-3.712h-2.411a12.592 12.592 0 002.573 4.974 5.177 5.177 0 004.866 1.5 3.9 3.9 0 002.827-4.2 3.315 3.315 0 00-1.462-2.536 2.952 2.952 0 00-3.084.2 7.329 7.329 0 00-3.068 5.46 1.259 1.259 0 001.881 1.079c1.844-1.1 2.587-3.155 3.154-5.112a1.256 1.256 0 00-2.285-.963 15.616 15.616 0 00-1.122 2.623 9.154 9.154 0 00-.557 2.613 1.611 1.611 0 002.538 1.354 4.481 4.481 0 001.491-2.023 7.078 7.078 0 00.592-2.527c.045-.98-.07-2.241-1.221-2.516s-1.858.848-2.423 1.641a13.846 13.846 0 00-1.305 2.272l2.285.963.177-.71a1.251 1.251 0 00-2.411-.665l-.177.711a1.253 1.253 0 00.724 1.474 1.239 1.239 0 001.561-.511 14.14 14.14 0 01.868-1.619 13.091 13.091 0 01.66-.957c.118-.151.408-.293.041-.188h-.665l.129.039-.552-.322.07.081-.322-.552a3.094 3.094 0 01.061.859 4.007 4.007 0 01-.163.951 4.111 4.111 0 01-.369.9 4.159 4.159 0 01-.256.412c-.01.079-.042.123-.1.131q-.386.344.514-.023l.552.322.037.033.171.631a6.129 6.129 0 01.456-2.106 11.956 11.956 0 01.871-2.027l-2.285-.963c-.4 1.367-.846 2.928-2 3.618l1.88 1.08a4.525 4.525 0 012.041-3.428c.042-.02.312-.1.265-.095-.084.007.194.091.052-.008a.87.87 0 01.275.587 1.536 1.536 0 01-.5 1.369 1.44 1.44 0 01-.51.237 2.97 2.97 0 01-.262.054c.109-.019.086-.021-.071-.006-.055 0-.5-.023-.353 0a2.793 2.793 0 01-1.574-.729 9.3 9.3 0 01-2.1-4.042 1.287 1.287 0 00-1.206-.918 1.255 1.255 0 00-1.205.918c-.436 2.419.019 5.439 2.51 6.6 2.562 1.193 4.9-.555 6.393-2.551.841-1.127-1.1-2.638-1.964-1.515a4.874 4.874 0 01-3.234 1.985 3.981 3.981 0 01-3.005-.932 3.776 3.776 0 01-.9-4.594 3.333 3.333 0 01.279-.442c.032-.042.27-.231.264-.273 0 .021-.07-.028-.064-.017a.388.388 0 01-.248-.114c-.1-.454-.146-.543-.155-.266a1.258 1.258 0 001.25 1.25 1.278 1.278 0 001.25-1.25z" fill="#030504" stroke="rgba(0,0,0,0)"/></g></g><g><g><path d="M398.256 60.253c4.363-4.716 11.117-7.656 17.552-6.037a15.142 15.142 0 0111.274 12.573 1.268 1.268 0 002.134.884c1.34-1.223 2.83-2.6 4.774-2.5a6.323 6.323 0 014.244 2.261c2.577 2.924 2.953 7.547 3.155 11.26.2 3.754-.267 8.1-3.311 10.716a16.085 16.085 0 01-5.283 2.572 72.622 72.622 0 01-6.23 1.867 1.256 1.256 0 00.333 2.455c2.065.074 2.918 2.28 2.982 4.057a9.766 9.766 0 01-1.344 5.2c-1.878 3.233-5.409 4.763-8.908 5.571-7.136 1.646-15.3-.31-19.486-6.7-2.019-3.082-2.337-7.121-5.117-9.712a1.251 1.251 0 00-1.768 1.768 35.184 35.184 0 015.83 9.051c.573 1.277 2.829.349 2.285-.963l-2.44-5.88-2.285.963a39.284 39.284 0 006 8.341c.691.735 2.256.215 2.134-.884l-.783-7.057-2.455.332q1.408 4.512 3.195 8.889a1.257 1.257 0 002.456-.333l.218-8.3-2.456.332a39.5 39.5 0 002.6 9.009c.5 1.078 1.945.6 2.285-.3a65.2 65.2 0 002.522-8.245l-2.456-.333c.015 3.464.151 6.87 1.523 10.1.433 1.019 2.04.665 2.285-.3l2.431-9.566-2.456-.332a58.278 58.278 0 00.325 9.33 1.251 1.251 0 002.5 0 55.5 55.5 0 011.45-8.242l-2.455-.332.505 8.715a1.256 1.256 0 002.455.332l2.3-8.606-2.455-.332-.065 9a1.256 1.256 0 002.456.333q1-4.538 2.434-8.958l-2.41-.665a39.622 39.622 0 00-.453 8.285c.072 1.338 2.153 1.781 2.456.332a57.418 57.418 0 012.848-9.474l-2.455-.332-.869 8.267c-.168 1.6 2.321 1.579 2.5 0a34.636 34.636 0 012.031-8.291l-2.455-.332a46.78 46.78 0 01-1.254 7.508 1.251 1.251 0 002.41.664 70.156 70.156 0 013.338-9.72l-2.329-.631a59.843 59.843 0 01-1.7 8.851l2.41.664a59.908 59.908 0 012.992-10.153l-2.455-.332a39.307 39.307 0 01-1.774 8.084c-.507 1.536 1.889 2.175 2.41.665l2.46-7.13-2.455-.332a19.752 19.752 0 01-2.1 8.522l1.963-.253a8.666 8.666 0 01-1.542-1.646c-.919-1.306-3.087-.059-2.159 1.261a11.119 11.119 0 001.933 2.153 1.267 1.267 0 001.964-.253 22.665 22.665 0 002.437-9.784 1.256 1.256 0 00-2.455-.332l-2.46 7.129 2.41.665a42.462 42.462 0 001.864-8.749c.163-1.512-1.984-1.532-2.456-.333a59.96 59.96 0 00-2.991 10.154 1.251 1.251 0 002.41.664 64.08 64.08 0 001.792-9.515 1.258 1.258 0 00-2.329-.631 74.172 74.172 0 00-3.59 10.318l2.41.664a50.76 50.76 0 001.344-8.172c.124-1.5-1.994-1.56-2.456-.332a37.191 37.191 0 00-2.12 8.955h2.5l.869-8.267c.159-1.516-1.98-1.528-2.455-.333a57.461 57.461 0 00-2.849 9.475l2.455.332a36.52 36.52 0 01.363-7.62 1.251 1.251 0 00-2.41-.665q-1.434 4.421-2.435 8.958l2.455.332.065-9a1.256 1.256 0 00-2.455-.332l-2.3 8.606 2.456.332-.505-8.715a1.256 1.256 0 00-2.456-.332 60.087 60.087 0 00-1.539 8.906h2.5a58.278 58.278 0 01-.325-9.33 1.256 1.256 0 00-2.455-.333l-2.431 9.567 2.285-.3c-1.18-2.778-1.169-5.873-1.182-8.838a1.256 1.256 0 00-2.455-.332 64.82 64.82 0 01-2.522 8.246l2.285-.3a37 37 0 01-2.349-8.411c-.28-1.422-2.419-1.035-2.455.332l-.218 8.3 2.455-.332q-1.786-4.377-3.2-8.889c-.4-1.275-2.617-1.131-2.455.333l.783 7.057 2.134-.884a36.711 36.711 0 01-5.611-7.835c-.654-1.218-2.836-.364-2.285.964l2.44 5.88 2.285-.963a37.285 37.285 0 00-6.221-9.558l-1.768 1.768c1.54 1.435 2.13 3.441 2.854 5.355a18.241 18.241 0 0012.744 11.63c8 2.17 19.679-.108 22.817-8.771 1.469-4.057.686-10.7-4.774-10.9l.332 2.455c3.679-.931 7.758-1.949 11.035-3.927a12.03 12.03 0 005.371-8.473 31.268 31.268 0 00-.615-11.854c-.754-3.314-2.388-6.585-5.463-8.292a7.553 7.553 0 00-5.149-.9c-1.966.4-3.526 1.776-4.961 3.086l2.134.884a17.687 17.687 0 00-12.769-14.894c-7.363-2.026-15.279 1.137-20.325 6.59-1.091 1.18.672 2.952 1.768 1.768z" fill="#030504" stroke="rgba(0,0,0,0)"/></g></g><g><g><path d="M409.443 58.317a12.534 12.534 0 01.079-3.556c.175-1-.839-2.043-1.836-1.412a13.512 13.512 0 00-5.545 6.99 1.261 1.261 0 001.836 1.411 21.522 21.522 0 006.306-6.4 1.259 1.259 0 00-1.71-1.71 11.648 11.648 0 00-4.672 5.337c-.755 1.75-1.688 4.814.49 5.953 2.254 1.177 4.929-1.949 6.36-3.322a41.966 41.966 0 005.436-6.44c.879-1.27-.943-2.313-1.963-1.515a20.988 20.988 0 00-5.44 6.4 21.8 21.8 0 00-1.6 3.7c-.36 1.093-.99 2.6.263 3.361a2.427 2.427 0 002.73-.459 28.344 28.344 0 003.312-3.141 35.747 35.747 0 005.228-7.412 1.256 1.256 0 00-1.963-1.515 24.679 24.679 0 00-7.721 11.133 1.267 1.267 0 001.2 1.583c2.651.311 4.715-2.279 6.293-4.042a45.468 45.468 0 005.073-6.9c.616-1.022-.66-2.447-1.71-1.71a26.977 26.977 0 00-9.312 11.4c-.448 1.038.545 2.464 1.71 1.711 4.729-3.06 8.078-7.591 11.334-12.092.833-1.151-1.013-2.554-1.963-1.515a45.919 45.919 0 00-8.729 13.956c-.441 1.1.966 1.851 1.836 1.411 2.158-1.09 3.633-3.431 5.155-5.231l5.614-6.635-1.963-1.515a94.327 94.327 0 00-8.783 15.595c-.564 1.369 1.546 2.079 2.285.963q4.209-6.356 8.853-12.4l-2.159-1.262a103.35 103.35 0 00-7.3 15.007c-.454 1.159 1.3 2.135 2.089 1.216l10.3-11.97-1.964-1.514c-2.749 4.905-5.964 9.783-7.772 15.138a1.262 1.262 0 00.575 1.411 2 2 0 002.546-.519c1.1-1.111 2.043-2.442 3.047-3.642l5.932-7.093-1.963-1.515-4.791 8.357a1.264 1.264 0 001.412 1.836 5.823 5.823 0 002.829-1.821c1.037-1.219-.723-3-1.768-1.768a3.468 3.468 0 01-1.726 1.179l1.412 1.836 4.79-8.357c.682-1.19-1.026-2.635-1.963-1.515l-4.649 5.56-2.245 2.684-1.122 1.341c-.277.331-.756 1.2-1.209 1.286l.964.126-.234-.133.574 1.411c1.734-5.134 4.883-9.835 7.52-14.541.67-1.195-1.007-2.626-1.963-1.514l-10.3 11.97 2.09 1.216a99.224 99.224 0 017.048-14.41c.846-1.428-1.209-2.5-2.159-1.262q-4.642 6.045-8.853 12.4l2.285.963c2.2-5.337 5.38-10.188 8.53-15 .768-1.172-1.039-2.607-1.963-1.515l-5.293 6.256-2.566 3.034a8.04 8.04 0 01-2.4 2.186l1.837 1.411a42.546 42.546 0 018.085-12.852l-1.963-1.515c-2.994 4.138-6.087 8.381-10.437 11.2l1.71 1.71a24.662 24.662 0 018.416-10.5l-1.71-1.71a42.09 42.09 0 01-4.1 5.72c-.723.843-1.479 1.661-2.268 2.442s-1.629 1.679-2.844 1.537l1.205 1.582a22.3 22.3 0 017.078-10.03l-1.963-1.515a33.245 33.245 0 01-3.74 5.652q-1.065 1.28-2.252 2.451-.591.584-1.212 1.135-.309.276-.626.544-.669.318.263.529l.126.963a19.239 19.239 0 016.879-10.691l-1.963-1.515a37.5 37.5 0 01-7.6 8.181c.04-.032-.824.643-.861.628-.158-.063.033-.859.064-1.018a8.535 8.535 0 01.907-2.453 9.1 9.1 0 013.3-3.445l-1.71-1.711a18.542 18.542 0 01-5.41 5.508l1.836 1.411a10.748 10.748 0 014.4-5.5l-1.836-1.412a14.867 14.867 0 00-.168 4.221c.172 1.582 2.674 1.6 2.5 0z" fill="#030504" stroke="rgba(0,0,0,0)"/></g></g><g><g><path d="M436.435 62.342a39.539 39.539 0 00-7.832 10.784 1.265 1.265 0 001.08 1.881c2.159.028 3.5-1.886 4.793-3.357q2.382-2.715 4.594-5.572c.964-1.24-.714-3.018-1.767-1.768a30.988 30.988 0 00-5.4 9.286c-.361.974.975 2.059 1.836 1.411a26.289 26.289 0 006.858-7.6l-2.284-.963c-1.339 3.231-4.417 5.212-4.732 8.921-.1 1.211 1.378 1.471 2.134.884a36.021 36.021 0 006.919-7.156c.955-1.3-1.213-2.545-2.159-1.262a64.726 64.726 0 00-5.214 8.332 1.256 1.256 0 001.963 1.515 48.278 48.278 0 006.494-6.97l-2.158-1.262-5.685 9.083c-.779 1.246.939 2.435 1.964 1.515l6.358-5.712-1.767-1.768a66.446 66.446 0 00-9.039 11.394 1.256 1.256 0 001.963 1.515l7.844-7.071-1.963-1.515-5.8 8.719c-.848 1.275.936 2.333 1.963 1.515a49.006 49.006 0 006.271-5.976l-2.089-1.216a15.416 15.416 0 01-2.509 4.551l-3.078 4.538c-.809 1.194.975 2.5 1.964 1.515l5.552-5.509-1.964-1.515a86.646 86.646 0 01-4.988 7.5c-.773 1.041.7 2.308 1.711 1.71a10.425 10.425 0 004.731-11.46c-.609-2.136-2.329-3.756-4.664-3.359-2.543.433-3.888 2.7-4.918 4.83-.586 1.215.931 2.6 1.963 1.515a16.089 16.089 0 003.793-6.612 1.266 1.266 0 00-1.837-1.412 8.48 8.48 0 00-3.25 2.688l2.329.631.32-3.148c.162-1.6-2.339-1.588-2.5 0l-.32 3.148c-.141 1.389 1.677 1.482 2.33.631a5.964 5.964 0 012.353-1.791l-1.836-1.412a13.324 13.324 0 01-3.149 5.509l1.963 1.515c.642-1.33 1.435-3.29 3.07-3.615 1.7-.336 2.118 1.726 2.175 2.994a7.976 7.976 0 01-3.815 7.189l1.71 1.711a86.871 86.871 0 004.988-7.5 1.255 1.255 0 00-1.963-1.515l-5.552 5.509 1.963 1.515 3.345-4.933a15.741 15.741 0 002.494-4.754c.3-1.152-1.237-2.185-2.09-1.216a48.94 48.94 0 01-6.27 5.976l1.963 1.515 5.8-8.719c.817-1.229-.95-2.429-1.964-1.515l-7.844 7.071 1.963 1.515a63.461 63.461 0 018.648-10.888 1.251 1.251 0 00-1.767-1.768l-6.359 5.712 1.963 1.515 5.684-9.083c.879-1.4-1.21-2.5-2.158-1.262a45.192 45.192 0 01-6.1 6.464l1.963 1.515a64.606 64.606 0 015.215-8.332l-2.159-1.262a33.823 33.823 0 01-6.528 6.65l2.134.884a8.431 8.431 0 012.1-4.168 18.568 18.568 0 002.54-4.088c.554-1.337-1.581-2.143-2.284-.964a23.192 23.192 0 01-5.962 6.7l1.837 1.411a27.506 27.506 0 014.76-8.182l-1.767-1.768q-1.789 2.3-3.68 4.517-.907 1.061-1.841 2.1c-.539.6-1.212 1.591-2.1 1.58l1.079 1.881a37.486 37.486 0 017.441-10.279c1.153-1.125-.616-2.892-1.768-1.767z" fill="#030504" stroke="rgba(0,0,0,0)"/></g></g><g><g><path d="M425.753 67.225c5.03-3.769 12.369-4.6 16.953.376a9.854 9.854 0 012.444 8.14c-.517 3.09-2.732 5.387-5.189 7.146l1.515 1.963a49.046 49.046 0 004.5-5.242c1.166-1.639 2.555-3.705 2.195-5.817a6.813 6.813 0 00-2.29-3.561c-.91-.88-2.279-1.857-2.263-3.252l-2.455.333a27.967 27.967 0 011.849 6.408c.246 1.557.446 3.535-.821 4.71l2.09 1.216c2.155-5.864.773-13.426-5.659-15.819-1.317-.49-2.242 1.676-.963 2.285 2.22 1.057 4.811 2.218 6.061 4.471.9 1.615.884 4.2-.907 5.186-1.411.773-.151 2.933 1.262 2.158 2.638-1.445 3.25-4.9 2.274-7.56-1.2-3.272-4.468-5.005-7.428-6.414l-.964 2.285c5.148 1.915 5.539 8.32 3.913 12.743-.456 1.241 1.24 2 2.089 1.217 1.583-1.468 1.866-3.7 1.653-5.754a27.7 27.7 0 00-2.038-7.8 1.257 1.257 0 00-2.456.332 5.315 5.315 0 001.613 3.658 18.084 18.084 0 012.709 2.888c.858 1.514-.564 3.286-1.407 4.514a42.277 42.277 0 01-4.324 5.044c-.933.985.316 2.822 1.515 1.963 2.979-2.132 5.667-4.9 6.337-8.64a12.443 12.443 0 00-2.638-10.056c-5.152-6.253-14.346-5.843-20.431-1.282-1.272.953-.027 3.125 1.262 2.158z" fill="#030504" stroke="rgba(0,0,0,0)"/></g></g><g><path d="M117.074 153.992s-45.821-2.169-76.739 17.814c-4.8 3.1-5.212-10.489-5.617-16.317-.174-2.5.512-5.745 2.914-6.1 1.508-.225 2.861.885 4.028 1.894a86.986 86.986 0 0014.554 10.19l-.613-11.63c-.191-3.608-.359-7.356.975-10.7s4.641-6.135 8.1-5.569c2.275.372 4.116 2.06 5.738 3.747 2.7 2.807 4.723 6.964 9.333 6.245 2.095-.327 3.846-1.8 5.3-3.386a31.409 31.409 0 014.5-4.608c1.741-1.245 4.1-1.873 5.989-.885 1.843.963 2.73 3.13 3.422 5.14.561 1.631 1.192 3.407 2.632 4.295 2.06 1.27 4.648.135 7.028-.179a8.037 8.037 0 015.769 1.323 8.279 8.279 0 012.687 8.619c-.093-.351-.14-.7-.2-1.063" fill="#030504" stroke="rgba(0,0,0,0)"/></g><g><g><path d="M369.579 158.925a22.887 22.887 0 011.576 3.45c.215.6.387 1.2.567 1.809a16.293 16.293 0 00.555 1.776c.143.333.637.139.645-.175a7.07 7.07 0 00-.333-1.972 18.363 18.363 0 00-.616-1.794 20.967 20.967 0 00-1.756-3.467.37.37 0 00-.638.373z" fill="#030504" stroke="rgba(0,0,0,0)"/></g></g><g><g><path d="M373.441 153.18q.229 1.592.523 3.173a11.838 11.838 0 00.838 3.063.354.354 0 00.655-.177 16.7 16.7 0 00-.519-3.155q-.324-1.572-.582-3.157a.478.478 0 00-.584-.331.487.487 0 00-.331.584z" fill="#030504" stroke="rgba(0,0,0,0)"/></g></g><g><g><path d="M381.089 152.189l-.074.614-.037.307a1.292 1.292 0 00.046.385.383.383 0 00.7.091 1.264 1.264 0 00.147-.355l.047-.306.1-.611a.478.478 0 000-.249l-.047-.112a.472.472 0 00-.689-.132.355.355 0 00-.121.132.478.478 0 00-.064.236z" fill="#030504" stroke="rgba(0,0,0,0)"/></g></g><g><g><path d="M388.257 157.697l.008.965c0 .16-.008.323 0 .482a3.506 3.506 0 00.113.545.378.378 0 00.723 0 3.18 3.18 0 00.113-.545c.009-.159 0-.322 0-.482l.008-.965a.487.487 0 00-.973 0z" fill="#030504" stroke="rgba(0,0,0,0)"/></g></g><g><g><path d="M392.621 159.762l.036.614.018.307a.969.969 0 00.033.22l.048.152a.339.339 0 00.322.245.345.345 0 00.322-.245l.047-.152a.866.866 0 00.033-.22l.018-.307.037-.614a.457.457 0 00-.78-.323.452.452 0 00-.134.323z" fill="#030504" stroke="rgba(0,0,0,0)"/></g></g><g><g><path d="M387.822 146.685l.005.79a5.743 5.743 0 00.106.845.322.322 0 00.621 0 5.759 5.759 0 00.106-.845l.005-.79a.422.422 0 00-.843 0z" fill="#030504" stroke="rgba(0,0,0,0)"/></g></g><g><g><path d="M382.242 140.317a5.073 5.073 0 011.325 1.568 5.6 5.6 0 01.411.915c.115.344.174.7.289 1.044a.33.33 0 00.645-.087 3.027 3.027 0 00-.147-1.174 5.47 5.47 0 00-1.909-2.879.449.449 0 00-.614 0 .437.437 0 000 .613z" fill="#030504" stroke="rgba(0,0,0,0)"/></g></g><g><g><path d="M394.578 143.417l-.229 1.933c-.038.322-.072.642-.092.966a1.5 1.5 0 00.014.491 4.7 4.7 0 01.1.476.283.283 0 00.272.206.3.3 0 00.271-.206c.064-.152.137-.285.21-.429a1.661 1.661 0 00.113-.48c.06-.34.1-.682.142-1.024l.23-1.933a.519.519 0 00-.516-.516.529.529 0 00-.516.516z" fill="#030504" stroke="rgba(0,0,0,0)"/></g></g><g><g><path d="M399.832 143.176a3.868 3.868 0 00-.312.988 5.052 5.052 0 00-.051.564v.221a.756.756 0 00.122.372.366.366 0 00.627 0 .845.845 0 00.121-.341l.012-.126v-.032c.006-.05.005-.042 0 .025a.907.907 0 01.037-.216 3.89 3.89 0 01.048-.214c.036-.143.068-.287.11-.428.022-.07.045-.14.07-.209l.033-.088c.011-.027.069-.164.012-.031a.528.528 0 00.048-.37.493.493 0 00-.221-.287.483.483 0 00-.37-.048.463.463 0 00-.287.22z" fill="#030504" stroke="rgba(0,0,0,0)"/></g></g><g><g><path d="M402.792 143.412a90.191 90.191 0 00-.323 2.59 7.542 7.542 0 00-.049 1.228 2.262 2.262 0 00.279 1.342.486.486 0 00.68 0 2.369 2.369 0 00.41-1.247 9.426 9.426 0 00.154-1.278q.086-1.227.207-2.451a.692.692 0 00-1.358-.184z" fill="#030504" stroke="rgba(0,0,0,0)"/></g></g><g><g><path d="M415.675 166.988c.006.32 0 .646.024.965a4.319 4.319 0 00.058.58c.034.15.09.3.136.444a.367.367 0 00.7 0c.046-.147.1-.294.136-.444a4.339 4.339 0 00.058-.58c.028-.319.018-.645.024-.965a.569.569 0 00-1.137 0z" fill="#030504" stroke="rgba(0,0,0,0)"/></g></g><g><g><path d="M421.587 168.918l-.212.888-.1.428c-.019.076-.04.153-.055.23a.905.905 0 000 .311.375.375 0 00.223.332.36.36 0 00.4-.075 1.574 1.574 0 00.175-.233 1.87 1.87 0 00.11-.3l.148-.433.3-.881a.514.514 0 00-.356-.627.519.519 0 00-.628.356z" fill="#030504" stroke="rgba(0,0,0,0)"/></g></g><g><g><path d="M355.245 194.381c-.081.3-.158.6-.22.905l-.09.44c-.016.078-.034.157-.048.237a.943.943 0 00.029.4.4.4 0 00.657.173.913.913 0 00.219-.319c.028-.075.051-.153.077-.229l.142-.425c.1-.3.181-.593.262-.893a.533.533 0 10-1.028-.284z" fill="#030504" stroke="rgba(0,0,0,0)"/></g></g><g><g><path d="M350.838 193.484l-.079 1.7c-.013.278-.028.555-.039.833-.005.138-.012.279-.01.417a1.423 1.423 0 00.218.681.713.713 0 00.617.354.734.734 0 00.618-.354c.036-.055.076-.109.11-.166a1.092 1.092 0 00.139-.515c.012-.128.021-.256.029-.385.018-.288.03-.577.045-.865l.087-1.7a.873.873 0 00-.867-.867.887.887 0 00-.868.867z" fill="#030504" stroke="rgba(0,0,0,0)"/></g></g><g><g><path d="M436.621 190.218q-.044.479-.1.957c-.012.1-.024.2-.037.293.018-.137-.008.054-.013.089-.023.159-.047.318-.072.476s-.054.316-.08.475a3.92 3.92 0 00-.027.6 3.416 3.416 0 00.023 1.034.491.491 0 00.813.214 1.613 1.613 0 00.321-.544c.061-.161.113-.327.178-.487-.041.1.039-.074.047-.093a1.575 1.575 0 00.129-.394 31.681 31.681 0 00.376-2.622.781.781 0 00-.779-.779.8.8 0 00-.779.779z" fill="#030504" stroke="rgba(0,0,0,0)"/></g></g><g><g><path d="M443.117 190.389q.057 1.273.013 2.549c-.015.41-.04.819-.042 1.229 0 .555.193 1.393.9 1.393a.912.912 0 00.815-.646c.034-.1.036-.109.008-.023l.108-.258a2.9 2.9 0 00.073-.466 11.445 11.445 0 00.073-1.229q.023-1.275-.057-2.549a.944.944 0 00-1.887 0z" fill="#030504" stroke="rgba(0,0,0,0)"/></g></g><g><g><g><path d="M302.663 212.634l1.7 3.024c.283.5.576 1 .881 1.493a5.909 5.909 0 001.045 1.4.461.461 0 00.764-.445 5.921 5.921 0 00-.722-1.588c-.284-.5-.579-1-.886-1.49l-1.837-2.942a.545.545 0 00-.941.55z" fill="#030504" stroke="rgba(0,0,0,0)"/></g></g><g><g><path d="M306.666 211.811a19.4 19.4 0 00.706 1.822 6.648 6.648 0 00.408.836c.086.135.181.265.274.4a1.094 1.094 0 00.373.388.339.339 0 00.5-.288 2.34 2.34 0 00-.284-.86c-.122-.307-.291-.595-.431-.894a16.675 16.675 0 01-.667-1.642.468.468 0 00-.562-.319.462.462 0 00-.32.562z" fill="#030504" stroke="rgba(0,0,0,0)"/></g></g><g><g><path d="M309.156 205.154c.039.866.124 1.727.249 2.584a11.392 11.392 0 00.236 1.215 5.107 5.107 0 00.5 1.194.354.354 0 00.655-.178 14.8 14.8 0 00-.229-2.456 22.982 22.982 0 01-.2-2.359.604.604 0 10-1.207 0z" fill="#030504" stroke="rgba(0,0,0,0)"/></g></g><g><g><path d="M314.024 206.117l-.086.438a3.941 3.941 0 00-.05.485.2.2 0 00.392.053 3.425 3.425 0 00.123-.419l.085-.43a.241.241 0 00-.464-.127z" fill="#030504" stroke="rgba(0,0,0,0)"/></g></g><g><g><path d="M319.245 210.833a20.1 20.1 0 00-.058 2.009c.007.322.023.646.057.967a2.012 2.012 0 00.4 1.055.342.342 0 00.534-.069 1.483 1.483 0 00.136-.541 3.544 3.544 0 00.044-.445c0-.334-.041-.67-.054-1a19.954 19.954 0 01.019-1.972.544.544 0 00-.539-.539.55.55 0 00-.539.539z" fill="#030504" stroke="rgba(0,0,0,0)"/></g></g><g><g><path d="M322.779 210.999a8.785 8.785 0 00.219 2.607 3.367 3.367 0 00.572 1.194 1.094 1.094 0 00.313.322.8.8 0 00.236.088c.1.015-.042-.027.021 0a1.593 1.593 0 00.659.162.325.325 0 00.278-.485c-.039-.067-.068-.141-.106-.208a.843.843 0 00-.133-.2c-.021-.011.116.4.008-.046a.8.8 0 00-.073-.2c-.04-.072-.1-.138-.14-.209s-.083-.149-.12-.226c-.023-.047-.122-.273-.061-.122a4.2 4.2 0 01-.174-.535 4.618 4.618 0 01-.1-.545c-.016-.1.017.165 0-.017l-.015-.141a6.777 6.777 0 01-.021-.284c-.023-.385-.021-.77-.009-1.154a.679.679 0 00-.674-.674.687.687 0 00-.674.674z" fill="#030504" stroke="rgba(0,0,0,0)"/></g></g><g><g><path d="M327.324 211.517l.145.5a4.128 4.128 0 00.172.453c.079.186.146.387.242.564a2.207 2.207 0 00.118.2.443.443 0 00.479.2c.464-.128.3-.793.261-1.145a5.207 5.207 0 00-.09-.6l-.118-.5a.627.627 0 10-1.209.333z" fill="#030504" stroke="rgba(0,0,0,0)"/></g></g><g><g><path d="M329.111 203.098a10.635 10.635 0 00.437 1.369c.1.258.21.514.329.764a2.28 2.28 0 00.55.6.478.478 0 00.568.073.5.5 0 00.216-.529l-.029-.182-.014-.092q-.014-.1 0 .023a1.269 1.269 0 00-.13-.549l-.076-.172c-.056-.126.049.125-.006-.013a11.799 11.799 0 01-.128-.329 10.618 10.618 0 01-.4-1.331.691.691 0 00-.843-.478.7.7 0 00-.479.843z" fill="#030504" stroke="rgba(0,0,0,0)"/></g></g></g><g><g><g><path d="M215.473 241.211a18.94 18.94 0 01-1.45 3.634c-.3.564-.657 1.089-.965 1.645a8.364 8.364 0 00-.949 1.736.338.338 0 00.491.377 4.857 4.857 0 001.366-1.412 10.914 10.914 0 001.093-1.81 20.4 20.4 0 001.532-3.862.58.58 0 00-1.118-.308z" fill="#030504" stroke="rgba(0,0,0,0)"/></g></g><g><g><path d="M218.417 243.189l-1.272 3.086-.636 1.543a8.364 8.364 0 00-.288.779 1.265 1.265 0 00-.095.84.484.484 0 00.7.284c.275-.13.373-.4.5-.657s.243-.529.349-.8l.623-1.608 1.225-3.16a.577.577 0 00-.4-.706.588.588 0 00-.706.4z" fill="#030504" stroke="rgba(0,0,0,0)"/></g></g><g><g><path d="M225.253 242.447a21.665 21.665 0 00-1.476 2.4q-.32.606-.6 1.229a2.6 2.6 0 00-.411 1.535.483.483 0 00.706.287 1.342 1.342 0 00.452-.6c.095-.208.177-.421.269-.631q.282-.648.606-1.275a21.719 21.719 0 011.426-2.376.568.568 0 00-.2-.77.574.574 0 00-.77.2z" fill="#030504" stroke="rgba(0,0,0,0)"/></g></g><g><g><path d="M229.661 242.195a3.063 3.063 0 00-.973 2.523 1.332 1.332 0 00.336.841.53.53 0 00.617.089.624.624 0 00.283-.549c.014-.15-.017.091 0-.009a1.2 1.2 0 00.021-.276 2.618 2.618 0 01.01-.308.486.486 0 00.008-.077c0 .008-.023.169-.007.059.01-.064.019-.129.026-.194.01-.086-.023.145-.008.06a3.215 3.215 0 01.116-.466l.026-.072c.04-.11-.049.108-.015.034a3.044 3.044 0 01.149-.289c.03-.049.061-.1.094-.144l.033-.047c.08-.113-.1.119-.01.015a2.861 2.861 0 01.238-.244.673.673 0 000-.945.682.682 0 00-.944 0z" fill="#030504" stroke="rgba(0,0,0,0)"/></g></g><g><g><path d="M234.674 241.082a2.969 2.969 0 00-.48 1.058 2.382 2.382 0 00-.062.647 2.29 2.29 0 00.044.405.767.767 0 00.362.469.542.542 0 00.653-.084l.052-.053a.759.759 0 00.2-.489c0-.083.011-.165.022-.248l-.024.176a3.553 3.553 0 01.222-.842l-.07.166a2.562 2.562 0 01.29-.5.7.7 0 00.07-.537.7.7 0 00-.858-.487.8.8 0 00-.416.321z" fill="#030504" stroke="rgba(0,0,0,0)"/></g></g><g><g><path d="M240.256 239.592a3.537 3.537 0 00-.516.616 2.858 2.858 0 00-.163.275 1.682 1.682 0 00-.13.29 1.749 1.749 0 00-.036.319l.022-.169-.018.1a.647.647 0 00.062.474.624.624 0 00.367.283 1.337 1.337 0 00.531.007.554.554 0 00.15-.038.425.425 0 00.236-.229.5.5 0 00-.08-.486c-.023-.034-.051-.067-.076-.1a1.5 1.5 0 00-.114-.146 1.406 1.406 0 00-.172-.133l.221.842c.018-.03.037-.06.057-.089l-.1.129a1.765 1.765 0 00.2-.241c.029-.049.053-.1.082-.15a2.827 2.827 0 01.191-.283l-.109.141a2.817 2.817 0 01.394-.414.713.713 0 00.208-.5.722.722 0 00-.208-.5.709.709 0 00-.5-.207.759.759 0 00-.5.207z" fill="#030504" stroke="rgba(0,0,0,0)"/></g></g><g><g><path d="M244.504 238.857a.627.627 0 000-1.254.627.627 0 000 1.254z" fill="#030504" stroke="rgba(0,0,0,0)"/></g></g></g><g><g><path d="M271.704 40.758a24.6 24.6 0 01.057 5.79.63.63 0 00.625.625.639.639 0 00.625-.625 24.6 24.6 0 00-.057-5.79.645.645 0 00-.625-.625.629.629 0 00-.625.625z" fill="#030504" stroke="rgba(0,0,0,0)"/></g></g><g><g><path d="M271.593 52.182a33.626 33.626 0 00.765 6.9c.17.786 1.375.454 1.205-.332a32.063 32.063 0 01-.72-6.566.625.625 0 00-1.25 0z" fill="#030504" stroke="rgba(0,0,0,0)"/></g></g><g><g><path d="M262.657 49.902a10.387 10.387 0 006.543-.38.645.645 0 00.437-.769.63.63 0 00-.769-.436 9.261 9.261 0 01-5.879.38.625.625 0 00-.332 1.205z" fill="#030504" stroke="rgba(0,0,0,0)"/></g></g><g><g><path d="M275.104 49.517a35.178 35.178 0 015.441-.486.625.625 0 000-1.25 37.353 37.353 0 00-5.773.53.63.63 0 00-.437.769.64.64 0 00.769.437z" fill="#030504" stroke="rgba(0,0,0,0)"/></g></g><g><g><path d="M272.757 49.285v-.313a.463.463 0 00-.053-.241.57.57 0 00-.331-.331.462.462 0 00-.241-.053l-.166.022a.624.624 0 00-.276.161l-.1.126a.628.628 0 00-.086.316v.313a.644.644 0 00.625.625l.167-.023a.623.623 0 00.275-.16l.1-.127a.613.613 0 00.085-.315z" fill="#030504" stroke="rgba(0,0,0,0)"/></g></g><g><g><g><path d="M321.039 9.939c.165 2.75.345 5.687-.7 8.3a7.076 7.076 0 01-6.112 4.494c-.8.044-.805 1.295 0 1.25a8.29 8.29 0 007-4.677c1.393-2.9 1.251-6.237 1.063-9.366-.048-.8-1.3-.805-1.25 0z" fill="#030504" stroke="rgba(0,0,0,0)"/></g></g><g><g><path d="M321.329 9.939c-.253 4.207-.333 9.141 3.179 12.131a7.8 7.8 0 005.324 1.906c1.361-.034 2.724-.147 4.079-.274.794-.074.8-1.325 0-1.25a69.515 69.515 0 01-3.59.257 6.816 6.816 0 01-4.929-1.523c-3.256-2.752-3.046-7.382-2.813-11.247.048-.8-1.2-.8-1.25 0z" fill="#030504" stroke="rgba(0,0,0,0)"/></g></g><g><g><path d="M311.09 24.769c3.151-.318 6.666-.475 8.661 2.458 1.741 2.56 2.135 5.753 2.746 8.71.162.788 1.367.454 1.2-.332-.665-3.222-1.119-6.751-3.187-9.441-2.3-3-5.988-2.992-9.425-2.645-.792.08-.8 1.331 0 1.25z" fill="#030504" stroke="rgba(0,0,0,0)"/></g></g><g><g><path d="M323.695 36.748a32.965 32.965 0 011.261-8 6.091 6.091 0 012.216-3.362 8.442 8.442 0 014-1.367c.787-.1.8-1.349 0-1.25a9.973 9.973 0 00-4.352 1.353 6.948 6.948 0 00-2.775 3.46 29.713 29.713 0 00-1.6 9.168c-.045.8 1.2.8 1.25 0z" fill="#030504" stroke="rgba(0,0,0,0)"/></g></g></g><g><g><path d="M310.724 62.167a3.124 3.124 0 002.534-4.474 3.307 3.307 0 00-2.223-1.749 4.3 4.3 0 00-3.3.931 4.876 4.876 0 00-2.029 2.7 10.285 10.285 0 00-.434 3.685 4.994 4.994 0 004.219 4.136 6.208 6.208 0 005.831-2.039c.51-.615-.369-1.5-.883-.884-1.8 2.168-5.693 2.541-7.418.037a3.7 3.7 0 01-.476-2.638 7.732 7.732 0 01.644-2.692 4.628 4.628 0 012-1.73 2.179 2.179 0 012.239 0 1.963 1.963 0 01.88 1.977 1.861 1.861 0 01-1.587 1.491c-.8.056-.8 1.306 0 1.25z" fill="#030504" stroke="rgba(0,0,0,0)"/></g></g><g><g><path d="M236.409 60.056a.518.518 0 01-.055-.018l.149.063a.433.433 0 01-.093-.054l.127.1a.5.5 0 01-.089-.089l.1.126a.539.539 0 01-.069-.118l.063.15a.617.617 0 01-.038-.14l.022.166a.539.539 0 010-.127l-.023.166a.457.457 0 01.032-.115l-.063.149.007-.015a.706.706 0 00.063-.482.479.479 0 00-.112-.212.472.472 0 00-.176-.161.628.628 0 00-.481-.063l-.149.063a.626.626 0 00-.225.224 1.128 1.128 0 00-.1.25 1.945 1.945 0 00-.029.212.4.4 0 000 .06 1.343 1.343 0 00.036.267 1.366 1.366 0 00.095.247.65.65 0 00.055.1 1.284 1.284 0 00.165.2 1.082 1.082 0 00.456.26.483.483 0 00.249.011.563.563 0 00.408-.235.487.487 0 00.112-.213l.022-.166a.621.621 0 00-.085-.315.649.649 0 00-.374-.288z" fill="#030504" stroke="rgba(0,0,0,0)"/></g></g><g><g><path d="M252.952 1.125v.344a.478.478 0 00.054.241.471.471 0 00.129.2.463.463 0 00.2.129.472.472 0 00.241.054l.166-.022a.624.624 0 00.276-.161l.1-.126a.628.628 0 00.086-.316v-.344a.477.477 0 00-.054-.241.56.56 0 00-.33-.33.477.477 0 00-.241-.054l-.166.022a.634.634 0 00-.276.161l-.1.127a.62.62 0 00-.085.315z" fill="#030504" stroke="rgba(0,0,0,0)"/></g></g><g><g><path d="M374.421 38.265c-2.681-4.005-7.817-4.067-11.9-2.426a29.33 29.33 0 00-12.13 8.691c-2.963 3.826-4.388 8.828-2.906 13.544a19.166 19.166 0 008.849 10.472c4.648 2.647 10.462 2.928 14.782-.513a.63.63 0 00-.442-1.066 12.125 12.125 0 01-13.143-13.57 12.465 12.465 0 015.774-9.147 29.274 29.274 0 015.968-2.508q3.389-1.14 6.778-2.273c.759-.254.434-1.462-.332-1.2a107.347 107.347 0 00-11.345 4 13.718 13.718 0 00-3.222 23.087 13.107 13.107 0 009.522 2.862l-.442-1.067c-7.308 5.821-17.691-.625-20.979-7.931a13.168 13.168 0 011.112-12.471c2.286-3.7 5.923-6.293 9.679-8.339 3.988-2.173 10.17-4.191 13.3.487.446.665 1.529.04 1.08-.631z" fill="#030504" stroke="rgba(0,0,0,0)"/></g></g><g><g><path d="M397.927 2.848a19.33 19.33 0 01-.232 5.348.642.642 0 00.437.769.631.631 0 00.769-.436 20.571 20.571 0 00.276-5.681.643.643 0 00-.625-.625.629.629 0 00-.625.625z" fill="#030504" stroke="rgba(0,0,0,0)"/></g></g><g><g><path d="M397.567 15.236a22.1 22.1 0 01-.658 5.755.626.626 0 001.206.332 23.465 23.465 0 00.7-6.087.625.625 0 00-1.25 0z" fill="#030504" stroke="rgba(0,0,0,0)"/></g></g><g><g><path d="M392.579 11.717l3.656.435a.627.627 0 00.625-.625.643.643 0 00-.625-.625l-3.656-.435a.626.626 0 00-.625.625.643.643 0 00.625.625z" fill="#030504" stroke="rgba(0,0,0,0)"/></g></g><g><g><path d="M401.243 13.106h5.334a.625.625 0 000-1.25h-5.334a.625.625 0 000 1.25z" fill="#030504" stroke="rgba(0,0,0,0)"/></g></g><g><g><path d="M92.974 239.468l-2.715-15.881c-.135-.792-1.34-.456-1.206.332l2.716 15.881c.135.791 1.34.456 1.2-.332z" fill="#030504" stroke="rgba(0,0,0,0)"/></g></g><g><g><path d="M90.073 197.763c-1.949-5.337 1.417-10.893 1.09-16.332-.048-.8-1.3-.805-1.25 0 .335 5.58-3.058 11.154-1.046 16.664.274.749 1.483.426 1.206-.332z" fill="#030504" stroke="rgba(0,0,0,0)"/></g></g><g><g><path d="M100.14 163.699a70.441 70.441 0 015.084-11.473c.39-.7-.689-1.335-1.079-.63a72.162 72.162 0 00-5.21 11.771c-.26.763.947 1.091 1.2.332z" fill="#030504" stroke="rgba(0,0,0,0)"/></g></g><g><g><path d="M295.238 180.379a9.72 9.72 0 00-3.778-3.971c-3.305-2.105-7.955-2.34-10.29 1.373-.088.14.127.266.217.13 1.738-2.641 5.317-2.951 8-1.883 2.626 1.047 5.936 3.616 5.7 6.869-.247 3.4-3.368 5.365-6.132 6.488-1.461.593-3.294 1.19-4.638.007a5.858 5.858 0 01-1.627-4.064c-.075-1.762.675-3.707 2.486-4.176a2.18 2.18 0 012.6 2.811.279.279 0 00.507.22 2.685 2.685 0 00-1.28-3.487 3.329 3.329 0 00-4.03 1.259c-1.923 2.539-.921 8.167 2.552 8.735 1.812.3 3.782-.665 5.364-1.485a9.244 9.244 0 004.068-3.732 5.782 5.782 0 00.281-5.094z" fill="#a8a8a8" stroke="rgba(0,0,0,0)"/></g><g><path d="M203.494 204.051a7.592 7.592 0 00-5.368-1.524 10.949 10.949 0 00-5.878 2.043c-1.66 1.205-3.254 3.03-3.075 5.267.023.276.433.284.422 0-.067-1.809 1.4-3.366 2.718-4.368a10.541 10.541 0 014.1-1.913 9.55 9.55 0 014.644.1 4.842 4.842 0 013.359 3.307 8.492 8.492 0 01-2.268 8.924c-2.47 2.061-6.4 1.963-8.228-.96a3.644 3.644 0 01.868-5.122c1.34-.925 4.07-2.279 5.171-.315.232.414.811.05.614-.37-.9-1.924-3.238-1.511-4.773-.8-1.736.808-3.31 2.038-3.364 4.172-.1 3.892 4.017 6.311 7.385 5.409 3.827-1.026 5.953-5.046 5.722-8.954a7.072 7.072 0 00-2.049-4.896z" fill="#a8a8a8" stroke="rgba(0,0,0,0)"/></g></g><g><g><path d="M463.475 150.617a3.586 3.586 0 00-3.608-2.178c-3.368.027-6.345 2.4-8.46 4.958-.392-1.5-.788-2.993-1.167-4.494-.273-1.08-.373-2.667-1.723-2.808a2.836 2.836 0 00-2.558 1.458 6.253 6.253 0 00-.739 3.3 7.569 7.569 0 00-4.745-3.108 4.256 4.256 0 00-4.546 2.483c-.049.116.114.22.168.1a4.07 4.07 0 014.544-1.973c2.018.425 3.4 2.024 4.65 3.588a.288.288 0 00.49-.209 6.869 6.869 0 01.414-3.615c.434-.869 1.729-2.083 2.756-1.377.472.324.541 1.153.674 1.677.165.653.331 1.3.492 1.96l.9 3.679a.27.27 0 00.453.123c1.969-2.42 4.4-4.732 7.561-5.164 1.57-.215 3.428.141 3.957 1.914a7.368 7.368 0 01-.592 4.385c-.147.413.5.6.641.182.502-1.508 1.012-3.318.438-4.881z" fill="#a8a8a8" stroke="rgba(0,0,0,0)"/></g><g><path d="M319.38 93.801a6 6 0 00-6.381.321 6.636 6.636 0 00-2.736 5.038c-1.581-1.035-3.264-2.81-5.235-1.868-1.941.927-2.057 3.374-2.073 5.281a.141.141 0 00.282 0c.057-1.729.238-4.142 2.094-4.857 1.888-.727 3.57 1.378 5.055 2.223a.3.3 0 00.44-.261 5.991 5.991 0 012.568-5.05 5.465 5.465 0 012.847-.9 6.9 6.9 0 012.9.667c.341.143.529-.403.239-.594z" fill="#a8a8a8" stroke="rgba(0,0,0,0)"/></g><g><path d="M393.493 84.251a11.3 11.3 0 01-.539-2.125 12.9 12.9 0 01.258-4.519c.055-.284-.354-.512-.486-.211a9.168 9.168 0 00-.515 4.815 10.14 10.14 0 00.611 2.377 4.665 4.665 0 001.2 1.988c.177.135.4-.087.35-.278a5.485 5.485 0 00-.426-.966 15.43 15.43 0 01-.453-1.081z" fill="#a8a8a8" stroke="rgba(0,0,0,0)"/></g><g><path d="M394.955 79.217a19.4 19.4 0 01-.5-4.447.238.238 0 00-.477 0 20.742 20.742 0 00.421 4.769 17.661 17.661 0 00.646 2.263 2.836 2.836 0 001.032 1.669.208.208 0 00.278-.287 12.892 12.892 0 01-1.4-3.967z" fill="#a8a8a8" stroke="rgba(0,0,0,0)"/></g><g><path d="M398.977 78.348a1.666 1.666 0 01-.08.259 25.7 25.7 0 01-.471-3.825 21.638 21.638 0 01.316-4.568c.075-.429-.552-.618-.641-.183a20.519 20.519 0 00.15 9.5.4.4 0 00.675.184 1.435 1.435 0 00.39-1.363.176.176 0 00-.339-.004z" fill="#a8a8a8" stroke="rgba(0,0,0,0)"/></g><g><path d="M401.959 72.968a9.1 9.1 0 01-.605.939c-.061.073-.252.41-.358.415-.087 0-.226-.276-.257-.331a9.261 9.261 0 01-.808-1.939 10.286 10.286 0 01-.233-4.173c.044-.355-.5-.409-.591-.082a8.768 8.768 0 00.372 5.325 7.612 7.612 0 00.583 1.212 1.167 1.167 0 00.836.682c.39.026.628-.289.818-.595a4.319 4.319 0 00.565-1.313.177.177 0 00-.322-.14z" fill="#a8a8a8" stroke="rgba(0,0,0,0)"/></g><g><path d="M402.884 69.391a7.367 7.367 0 01-.384-2.37.332.332 0 00-.664 0 7.993 7.993 0 00.35 2.609 7.249 7.249 0 00.5 1.209 2.691 2.691 0 00.8 1.037.275.275 0 00.4-.315 6.362 6.362 0 00-.552-1.11 7.893 7.893 0 01-.45-1.06z" fill="#a8a8a8" stroke="rgba(0,0,0,0)"/></g></g></g></g></svg>
