<svg xmlns="http://www.w3.org/2000/svg" width="185" height="140" viewBox="0 0 185 140"><g transform="translate(-4133.136 -3900.436)"><g transform="translate(4284.502 4036.856)"><path d="M4332.384,4051.207l1.4,1.812a1.09,1.09,0,0,0-.09.194c-.126.37-.252.489-.524.089-.327-.48-.657-1.1-1.266-.844-.562-.812-.812-.183-1.1.395-.185.367-.451.379-.74.15-.193-.153-.409-.249-.611-.384-.336-.225-.634-.241-.863.312-.241-.588-.436-.667-.9-.352-.513.35-1.163.675-1.785.143-.152-.129-.254,0-.337.133-.223.353-.43.526-.779.192a.509.509,0,0,0-.739-.016c-.06.053-.166.117-.208.082-.481-.4-.912-.095-1.364.1-.48.2-.8-.341-1.15-.623s-.5-.164-.672.224c-.615,1.369-.478,1.387-1.264.053-.323-.546-.521-.576-.885-.084a3.987,3.987,0,0,0-.619,1.054c-.062.177-.181.365-.351.3a.529.529,0,0,1-.378-.5c-.016-.274.021-.626-.26-.657s-.485.206-.6.561l-.284.892c-.175-.4.069-.682.021-.985-.031-.2-.025-.411-.19-.506-.141-.081-.251.016-.354.136a2.2,2.2,0,0,1-.4.395c-.282.195-.5.486-.543-.292-.026-.447-.268-.647-.59-.241a6.006,6.006,0,0,1-1.134.9c-.292.232-.751-.073-1.083-.362-.191-.167-.353-.308-.538-.034-.3.442-.647.3-.973.091-.487-.306-.912-.477-1.341.189a.5.5,0,0,1-.858.1c-.161-.18-.219-.67-.485-.5a1.437,1.437,0,0,0-.687.805c-.132.8-.591.252-.832.49-.494.49-.538-.158-.7-.509-.571-1.248-.706-1.374-1.614-.531a1.179,1.179,0,0,1-1.835.055c-.083-.073-.169-.171-.27-.173l-1.458-2.244Z" transform="translate(-4300.147 -4051.207)"/></g><g transform="translate(4251.72 3943.599)"><g transform="translate(0 37.202)"><path d="M4264.292,3990.847c4.648,3.658,10.162,6.633,13.14,11.926,1.537,2.73,2.332,5.807,3.926,8.514a46.634,46.634,0,0,0,4.563,6.127c6.2,7.393,14.192,15.325,16.7,24.956a.9.9,0,0,0,1.741-.479c-2.548-9.8-8.386-17.132-15.095-24.736a45.361,45.361,0,0,1-6.173-8.143c-1.65-3.048-2.544-6.469-4.548-9.331-3.136-4.482-8.408-7.722-13.105-10.316-.9-.5-2.02.794-1.146,1.482Z" transform="translate(-4263.977 -3989.255)"/></g><g transform="translate(0.377 33.449)"><path d="M4265.5,3990.395c5.579-5.058,9.926-2.606,14.791,1.545,3.028,2.584,5.854,4.881,8.251,8.112a.822.822,0,0,0,1.494-.629c-.513-2.8-2.684-4.684-4.773-6.467a70.233,70.233,0,0,0-7.415-6.08c-4.433-2.824-10.917-2.507-13.382,2.723a.661.661,0,0,0,1.034.8Z" transform="translate(-4264.393 -3985.107)"/></g><g transform="translate(17.144 4.705)"><path d="M4283.724,3955.109c2.978.26,4.184,13.982,4.8,16.584,1.152,4.872,2.676,9.964,5.465,14.168.829,1.25,3.124.5,2.563-1.079-2.435-6.84-4.946-13.253-6.549-20.371-.806-3.585-1.075-12.158-6.5-10.958-.986.218-.672,1.578.224,1.656Z" transform="translate(-4282.893 -3953.339)"/></g><g transform="translate(21.552)"><path d="M4291.207,3969.269a73.124,73.124,0,0,1-1.314-15.089c.057-1.829-.14-2.462,1.5-3.386,1.862-1.049,1.783-.313,2.447,1.42a30.034,30.034,0,0,1,1.039,5.223,106.071,106.071,0,0,0,4.111,14.254c1.711,5.008,2.906,10.376,5.063,15.2.48,1.071,2.265.529,2.2-.594-.445-7.5-3.958-15.1-6.237-22.217-1.416-4.417-1.556-11.383-5.13-14.76-2.668-2.52-4.146-.6-5.385,2.141-2.652,5.872-2.021,12.264.205,18.228a.781.781,0,0,0,1.505-.414Z" transform="translate(-4287.756 -3948.14)"/></g><g transform="translate(33.016 7.639)"><path d="M4303.416,3973.194c-.244-3.021-.16-6.089-.224-9.121-.02-.942-.163-4,.216-4.039.513-.051,2.371,5.6,2.63,6.311,2.771,7.609,4,15.59,6.507,23.222a1.121,1.121,0,0,0,2.191-.3c-.079-5.564-1.979-11.4-3.561-16.694a89.987,89.987,0,0,0-3.2-8.977c-.743-1.778-1.513-4.72-2.925-6.1-2.272-2.217-4.016-.028-4.4,2.3-.762,4.555.458,9.155,1.205,13.6.147.877,1.637.681,1.564-.212Z" transform="translate(-4300.405 -3956.582)"/></g><g transform="translate(13.463 4.798)"><path d="M4289.329,3991.47c-2.723-4.843-4.277-10.782-5.81-16.093-2.049-7.095-2.528-13.542.483-20.5.4-.915-.667-1.957-1.475-1.137-5.071,5.141-3.965,14.021-2.3,20.354,1.665,6.312,3.641,13.217,7.771,18.4.611.766,1.78-.214,1.326-1.022Z" transform="translate(-4278.831 -3953.442)"/></g><g transform="translate(42.173 17.228)"><path d="M4326.993,4035.459c-.539-10-2.33-19.493-3.722-29.331a188.47,188.47,0,0,0-4.759-23.182c-1.005-3.725-1.794-7.5-2.549-11.278-.275-1.382-.329-3.09-1.264-4.209a.994.994,0,0,0-.958-.253c-2.209.43-3.141,3.793-3.23,5.683-.032.661.906.723,1.105.149.264-.762,1.48-3.508,2.3-3.785-.691.234-.422.365-.175,1.618.625,3.182,1.252,6.364,2.017,9.517,1.045,4.3,2.539,8.477,3.549,12.783,1.015,4.325,1.344,8.7,1.994,13.083,1.451,9.783,3.689,19.289,4.612,29.2.063.681,1.121.7,1.083,0Z" transform="translate(-4310.509 -3967.18)"/></g></g><g transform="translate(4135.422 3900.435)"><path d="M4136.158,3901.734q27.055.37,54.111.609,30.156.254,60.315.225,13.974-.027,27.945-.185,6.3-.078,12.6-.2c2.085-.042,4.394-.425,6.231.792a5.319,5.319,0,0,1,2.35,4.373c.207,8.335.065,16.693.1,25.031.037,9.32.066,18.637.272,27.954.005.276.009.268.009.49a.439.439,0,0,0,.877,0c0-2.274.1-5.111.145-7.569.109-5.678.1-11.357.121-17.036l.11-28.406a7.194,7.194,0,0,0-2.657-5.937c-1.751-1.362-3.669-1.473-5.8-1.427q-3.122.067-6.244.12-13.649.231-27.3.268c-20.245.086-40.491-.039-60.736-.118-18.795-.073-37.588-.235-56.384-.071q-3.032.026-6.067.057a.518.518,0,0,0,0,1.034Z" transform="translate(-4135.659 -3900.435)"/></g><g transform="translate(4194.496 3901.633)"><path d="M4202.043,4027.929c.378-16.516.553-33.036.693-49.557.134-15.844.277-31.7.016-47.54-.158-9.555-.314-19.114-.9-28.652a.438.438,0,0,0-.875,0c-.1,16.512.226,33.03.2,49.544-.024,15.849-.235,31.7-.313,47.543-.046,9.559-.038,19.1.146,28.661a.518.518,0,0,0,1.036,0Z" transform="translate(-4200.838 -3901.759)"/></g><g transform="translate(4250.861 3901.633)"><path d="M4264.538,3941.337c.242-3.6.261-7.18.29-10.787.051-6.294.063-12.61-.091-18.9-.077-3.158-.052-6.327-.393-9.467a.439.439,0,0,0-.876,0c-.642,5.917-.393,11.99-.378,17.936q.02,8.472.146,16.939c.022,1.433.17,2.853.267,4.282a.518.518,0,0,0,1.036,0Z" transform="translate(-4263.03 -3901.759)"/></g><g transform="translate(4250.865 3986.083)"><g transform="translate(0)"><path d="M4264.538,4037.083c.244-3.847.262-7.682.291-11.538.052-6.8.056-13.615-.1-20.409-.075-3.21-.058-6.426-.383-9.622a.439.439,0,0,0-.876,0c-.63,6.17-.393,12.483-.378,18.679q.021,9.2.147,18.4c.021,1.5.169,2.989.265,4.485a.518.518,0,0,0,1.036,0Z" transform="translate(-4263.034 -3995.092)"/></g></g><g transform="translate(4204.101 3949.702)"><path d="M4211.444,3955.268c.815,3.975,4.493,6.313,7.908,7.969a23.152,23.152,0,0,0,6.238,2.071c1.995.335,4.51.561,6.414-.262.553-.24.266-1.151-.3-1.12-.965.052-1.9.315-2.876.346a15.5,15.5,0,0,1-3.066-.213,23.307,23.307,0,0,1-5.8-1.862c-3.175-1.459-6.759-3.587-7.919-7.093a.31.31,0,0,0-.6.165Z" transform="translate(-4211.437 -3954.885)"/></g><g transform="translate(4210.673 3949.24)"><path d="M4218.933,3955.3a20.929,20.929,0,0,0,6.624,2.734,21.839,21.839,0,0,0,3.473.493c.922.056,2.2.039,2.678-.916.3-.6-.355-1.456-1-1a3.382,3.382,0,0,1-2.421.31,23.886,23.886,0,0,1-2.963-.44,26.065,26.065,0,0,1-5.881-2.052.5.5,0,0,0-.509.87Z" transform="translate(-4218.688 -3954.375)"/></g><g transform="translate(4262.74 3919.612)"><g transform="translate(0)"><path d="M4276.6,3943.187a21.683,21.683,0,0,0,10.66-4.928,19.363,19.363,0,0,0,5.121-8.635,40.4,40.4,0,0,0,1.8-7.307c.1-.827-1.179-.929-1.409-.19-.791,2.551-1.182,5.2-2.064,7.74a19.106,19.106,0,0,1-2.8,5.447c-2.9,3.761-7.427,5.3-11.589,7.211-.4.184-.1.729.28.662Z" transform="translate(-4276.136 -3921.629)"/></g></g><g transform="translate(4272.221 3917.448)"><g transform="translate(0)"><path d="M4287.547,3927.094c1.371-.9,2.734-1.791,4.024-2.8a23.011,23.011,0,0,0,3.435-3.354,1.025,1.025,0,0,0,0-1.411,1.007,1.007,0,0,0-1.414,0,36.561,36.561,0,0,1-3.305,3.393c-1.148,1.083-2.322,2.139-3.5,3.187a.63.63,0,0,0,.762.985Z" transform="translate(-4286.597 -3919.238)"/></g></g><g transform="translate(4279.944 3917.815)"><g transform="translate(0)"><path d="M4295.189,3919.985a7.4,7.4,0,0,0,.157,2.623,21.568,21.568,0,0,0,.6,2.414c.228.8.509,1.576.809,2.35.33.846.59,2.111,1.567,2.4a.885.885,0,0,0,.99-.4c.42-.9-.178-1.723-.516-2.554-.313-.769-.6-1.548-.9-2.324s-.539-1.574-.836-2.35a9.635,9.635,0,0,0-.983-2.267c-.226-.308-.793-.331-.89.116Z" transform="translate(-4295.119 -3919.643)"/></g></g><g transform="translate(4133.136 3906.925)"><path d="M4140.8,4032.2a11.1,11.1,0,0,1-4.033.125,2.9,2.9,0,0,1-2.334-2.263,8.448,8.448,0,0,1-.162-1.945c-.019-.818-.012-1.637,0-2.455.011-.963.013-1.926.021-2.888l.06-8.208.089-12.308q.055-7.526.08-15.053.035-8.292.05-16.583l.032-16.924q.015-7.965.02-15.931v-13.623c0-3.374.027-6.75-.005-10.124a45.133,45.133,0,0,0-.145-5.38c-.039-.3-.033-.712-.328-.866l.259.452v-.111a.524.524,0,0,0-1.048,0v.111l.259-.452c-.389.2-.411,1.346-.429,1.744-.044.925-.019,1.858-.027,2.783-.029,3.087-.022,6.174-.022,9.262v13.125q0,7.846.014,15.691l.033,16.957q.017,8.495.043,16.988.032,7.792.075,15.584l.094,12.948.066,9.012q.01,1.315.017,2.631c0,1.1-.014,2.208.009,3.312.032,1.532.079,3.122,1.229,4.291a3.888,3.888,0,0,0,2.563,1.02,12.97,12.97,0,0,0,3.711-.241c.448-.091.258-.768-.187-.681Z" transform="translate(-4133.136 -3907.608)"/></g><g transform="translate(4148.583 4030.345)"><g transform="translate(0)"><path d="M4150.349,4046.042c18.51.45,37.04.144,55.55-.148,18.422-.29,36.842-.668,55.266-.843q7.794-.074,15.588-.092c5.192-.01,10.4.131,15.588,0a.414.414,0,0,0,0-.827c-4.621-.19-9.264-.092-13.888-.084s-9.258.034-13.887.074q-13.889.122-27.775.376c-18.422.313-36.843.706-55.266.929-10.392.126-20.785.173-31.176.27a.175.175,0,0,0,0,.349Z" transform="translate(-4150.18 -4044.011)"/></g></g><g transform="translate(4265.693 4008.025)"><path d="M4279.507,4019.775a18.378,18.378,0,0,1,3.833,3.169,16.588,16.588,0,0,1,1.494,1.928c.47.7.837,1.465,1.311,2.163a.27.27,0,0,0,.49-.207,8.3,8.3,0,0,0-1.175-2.323,15.664,15.664,0,0,0-1.592-2.008,14.509,14.509,0,0,0-4.126-3.127.234.234,0,0,0-.235.4Z" transform="translate(-4279.394 -4019.343)"/></g><g transform="translate(4264.911 4012.345)"><path d="M4278.609,4024.542a9.484,9.484,0,0,0,1.22.931q.664.459,1.348.885c.441.275.888.545,1.341.8a5.7,5.7,0,0,0,1.432.681c.24.054.454-.25.253-.434a7.2,7.2,0,0,0-1.3-.809c-.452-.26-.9-.517-1.349-.788s-.885-.548-1.324-.83-.856-.594-1.316-.833c-.247-.127-.52.19-.305.4Z" transform="translate(-4278.531 -4024.118)"/></g><g transform="translate(4264.321 4015.57)"><path d="M4278.122,4028.18a24.016,24.016,0,0,1,3.049.185c1.007.127,1.993.371,3,.5.2.024.2-.256.043-.318a12.117,12.117,0,0,0-2.984-.663,23.875,23.875,0,0,0-3.107-.2.249.249,0,0,0,0,.5Z" transform="translate(-4277.881 -4027.682)"/></g><g transform="translate(4231.941 3944.784)"><path d="M4286.944,3949.449h-41.07a3.717,3.717,0,0,0-3.72,3.714v17.749a3.717,3.717,0,0,0,3.72,3.714h31.387s-1.908-11.429,1.145-18.1,4.2-.881,4.77,1.047a46.677,46.677,0,0,0,2.981,6.19s-1.594-6.619-1.407-9.333A8.081,8.081,0,0,1,4286.944,3949.449Z" transform="translate(-4242.155 -3949.449)"/></g><g transform="translate(4199.22 3908.194)"><path d="M4250.918,3928.951H4209.5a3.454,3.454,0,0,1-3.453-3.448v-13.048a3.453,3.453,0,0,1,3.453-3.446h41.415a3.453,3.453,0,0,1,3.452,3.446V3925.5A3.454,3.454,0,0,1,4250.918,3928.951ZM4209.5,3910.82a1.639,1.639,0,0,0-1.64,1.636V3925.5a1.64,1.64,0,0,0,1.64,1.638h41.415a1.64,1.64,0,0,0,1.64-1.638v-13.048a1.639,1.639,0,0,0-1.64-1.636Z" transform="translate(-4206.05 -3909.01)"/></g><g transform="translate(4141.55 3908.194)"><path d="M4187.288,3928.951h-41.416a3.454,3.454,0,0,1-3.452-3.448v-13.048a3.453,3.453,0,0,1,3.452-3.446h41.416a3.453,3.453,0,0,1,3.452,3.446V3925.5A3.453,3.453,0,0,1,4187.288,3928.951Zm-41.416-18.132a1.64,1.64,0,0,0-1.64,1.636V3925.5a1.641,1.641,0,0,0,1.64,1.638h41.416a1.64,1.64,0,0,0,1.639-1.638v-13.048a1.639,1.639,0,0,0-1.639-1.636Z" transform="translate(-4142.42 -3909.01)"/></g><g transform="translate(4141.55 3930.479)"><path d="M4187.288,3953.582h-41.416a3.454,3.454,0,0,1-3.452-3.447v-13.048a3.454,3.454,0,0,1,3.452-3.447h41.416a3.453,3.453,0,0,1,3.452,3.447v13.048A3.453,3.453,0,0,1,4187.288,3953.582Zm-41.416-18.133a1.64,1.64,0,0,0-1.64,1.637v13.048a1.641,1.641,0,0,0,1.64,1.638h41.416a1.64,1.64,0,0,0,1.639-1.638v-13.048a1.639,1.639,0,0,0-1.639-1.637Z" transform="translate(-4142.42 -3933.64)"/></g><g transform="translate(4141.55 3954.48)"><path d="M4187.288,3980.106h-41.416a3.453,3.453,0,0,1-3.452-3.446v-13.048a3.454,3.454,0,0,1,3.452-3.448h41.416a3.453,3.453,0,0,1,3.452,3.448v13.048A3.453,3.453,0,0,1,4187.288,3980.106Zm-41.416-18.132a1.641,1.641,0,0,0-1.64,1.638v13.048a1.64,1.64,0,0,0,1.64,1.636h41.416a1.639,1.639,0,0,0,1.639-1.636v-13.048a1.64,1.64,0,0,0-1.639-1.638Z" transform="translate(-4142.42 -3960.165)"/></g><g transform="translate(4141.55 3978.1)"><path d="M4187.288,4006.211h-41.416a3.454,3.454,0,0,1-3.452-3.448v-13.047a3.454,3.454,0,0,1,3.452-3.447h41.416a3.453,3.453,0,0,1,3.452,3.447v13.047A3.453,3.453,0,0,1,4187.288,4006.211Zm-41.416-18.132a1.64,1.64,0,0,0-1.64,1.637v13.047a1.641,1.641,0,0,0,1.64,1.638h41.416a1.64,1.64,0,0,0,1.639-1.638v-13.047a1.639,1.639,0,0,0-1.639-1.637Z" transform="translate(-4142.42 -3986.27)"/></g><g transform="translate(4141.55 4002.1)"><path d="M4187.288,4032.737h-41.416a3.454,3.454,0,0,1-3.452-3.448v-13.047a3.454,3.454,0,0,1,3.452-3.447h41.416a3.453,3.453,0,0,1,3.452,3.447v13.047A3.453,3.453,0,0,1,4187.288,4032.737Zm-41.416-18.132a1.64,1.64,0,0,0-1.64,1.637v13.047a1.641,1.641,0,0,0,1.64,1.638h41.416a1.64,1.64,0,0,0,1.639-1.638v-13.047a1.639,1.639,0,0,0-1.639-1.637Z" transform="translate(-4142.42 -4012.795)"/></g><g transform="translate(4279.928 4008.819)"><path d="M4299.679,4048.222h32.2s-5.091-16.462-6.105-21.525c-.19-.952-2.1-6.476-2.1-6.476s-18.269,1-23.278,3.856-5.293,4.572-5.293,4.572S4296.673,4039.935,4299.679,4048.222Z" transform="translate(-4295.101 -4020.221)"/></g></g></svg>