<svg xmlns="http://www.w3.org/2000/svg" width="209" height="140" viewBox="0 0 209 140"><g transform="translate(-4559.513 -3888.865)"><g transform="translate(4642.246 3914.568)"><path d="M4654.253,3917.4l-2.3.5c-.134,12.751-.237,15.472-.381,29.238-.013-.546,2.678.348,2.678-.114,0-11.42.143-8.152.207-19.011.02-3.437-.2-7.552-.208-10.614" transform="translate(-4651.577 -3917.404)"/><g transform="translate(2.569 4.508)"><path d="M4654.435,3925.99s3.928-.083,9.32-.083,15.8.12,15.8.12l-.75-3.617c-7.114,0-17.3.678-24.339.678Z" transform="translate(-4654.435 -3922.41)"/></g><g transform="translate(2.566 15.86)"><path d="M4654.435,3939.509s4.124-.1,9.783-.1,16.586.151,16.586.151l-.786-4.541c-7.469,0-18.194.347-25.587.347Z" transform="translate(-4654.431 -3935.015)"/></g><g transform="translate(1.721 27.366)"><path d="M4653.491,3950.688s4.263.094,10.109.338,17.126.833,17.126.833l-.669-3.648c-7.714-.321-18.78-.1-26.416-.42Z" transform="translate(-4653.491 -3947.79)"/></g></g><g transform="translate(4638.672 3981.145)"><g transform="translate(0 3.255)"><path d="M4649.705,3995.386c-.789,13.413-1.463,26.828-2.1,40.248h1.516c-.028-.6-.079-1.2-.123-1.8a.622.622,0,0,0-1.243,0c-.053.6-.113,1.2-.15,1.8-.06.974,1.474.979,1.516,0q.86-20.12,1.5-40.248c.019-.594-.881-.586-.917,0Z" transform="translate(-4647.599 -3994.944)"/></g><g transform="translate(34.868)"><path d="M4686.4,3991.59c0,11.212.748,22.437,1.206,33.637q.114,2.757.224,5.515a41.854,41.854,0,0,0,.367,6.031c.085.459.707.292.75-.1a37.132,37.132,0,0,0-.086-5.528q-.1-2.41-.2-4.821-.192-4.446-.4-8.891c-.245-5.251-.526-10.5-.772-15.75-.157-3.366-.31-6.73-.547-10.092a.27.27,0,0,0-.54,0Z" transform="translate(-4686.4 -3991.329)"/></g><g transform="translate(3.38 2.68)"><path d="M4652.849,3994.651c-.342,6.909-.577,13.824-.83,20.735-.115,3.139-.252,6.277-.338,9.417q-.07,2.6-.142,5.189c-.053,1.888-.407,4.04.062,5.877a.3.3,0,0,0,.579,0c.6-1.8.4-3.992.479-5.877q.11-2.51.218-5.02c.138-3.193.222-6.391.331-9.586.235-6.917.358-13.813.357-20.735a.358.358,0,0,0-.715,0Z" transform="translate(-4651.36 -3994.304)"/></g><g transform="translate(32.513 0.091)"><path d="M4683.863,3991.69a45.127,45.127,0,0,0,.062,5.75c.038,1.777.08,3.553.11,5.33.062,3.587.1,7.175.175,10.763.165,8.126.528,16.241,1.3,24.333.054.571.951.578.9,0-.752-8.154-1.09-16.332-1.25-24.516-.071-3.646-.124-7.29-.209-10.935-.042-1.778-.089-3.555-.166-5.332a33.249,33.249,0,0,0-.4-5.464c-.068-.313-.488-.2-.518.07Z" transform="translate(-4683.778 -3991.43)"/></g><g transform="translate(5.21 6.532)"><path d="M4653.789,4000.429q6.724-.107,13.452-.19c4.481-.061,9.065.061,13.53-.353a.649.649,0,0,0,0-1.3c-4.493-.056-9.039.277-13.53.434s-8.972.3-13.452.594c-.516.033-.527.822,0,.813Z" transform="translate(-4653.397 -3998.582)"/></g><g transform="translate(5.152 9.994)"><path d="M4653.723,4004.265q6.748-.105,13.5-.186c4.5-.059,9.1.064,13.575-.348a.65.65,0,0,0,0-1.3c-4.508-.056-9.067.275-13.575.43s-9,.3-13.5.589c-.516.033-.527.822,0,.813Z" transform="translate(-4653.332 -4002.426)"/></g><g transform="translate(4.48 17.831)"><path d="M4653.017,4012.572c4.715.1,9.433.086,14.15.084,2.437,0,4.873-.022,7.311-.031q1.747-.005,3.494,0a9.324,9.324,0,0,0,3.289-.129c.411-.169.683-.878.145-1.109a7.793,7.793,0,0,0-3.077-.21q-1.738.012-3.477.038-3.746.053-7.491.152c-4.781.133-9.562.279-14.344.308a.449.449,0,0,0,0,.9Z" transform="translate(-4652.584 -4011.128)"/></g><g transform="translate(4.21 22.148)"><path d="M4681.123,4016.078c-4.775-.1-9.552-.1-14.327-.1-2.41,0-4.821.02-7.23.026q-1.808.005-3.617,0a8.928,8.928,0,0,0-3.22.127c-.412.174-.682.871-.144,1.109a7.459,7.459,0,0,0,3.014.213q1.8-.011,3.6-.036,3.7-.05,7.407-.145c4.839-.132,9.679-.274,14.521-.3a.449.449,0,0,0,0-.9Z" transform="translate(-4652.284 -4015.921)"/></g><g transform="translate(4.45 33.191)"><path d="M4652.984,4029.247c4.83.154,9.663.22,14.5.293,2.433.036,4.865.054,7.3.081q1.873.022,3.746.051a10.318,10.318,0,0,0,3.395-.089.613.613,0,0,0,0-1.17,9.348,9.348,0,0,0-3.2-.185q-1.872-.01-3.741-.011-3.749,0-7.5.039c-4.831.057-9.663.119-14.5.095a.449.449,0,0,0,0,.9Z" transform="translate(-4652.551 -4028.183)"/></g><g transform="translate(12.264 38.297)"><path d="M4683.2,4034.143c-3.606-.135-7.213-.178-10.823-.187-1.606,0-3.211.005-4.818,0q-1.378-.005-2.758-.028a10.386,10.386,0,0,0-3.12.091.612.612,0,0,0,0,1.17,9.166,9.166,0,0,0,2.936.176q1.39,0,2.781-.011,2.492-.026,4.979-.11c3.607-.122,7.213-.207,10.823-.2a.449.449,0,0,0,0-.9Z" transform="translate(-4661.247 -4033.852)"/></g></g><g transform="translate(4638.605 4002.582)"><path d="M4652.082,4040.02c-.15-.064-.154-.109-.006-.141q-.074-1.853-.149-3.706l-.062-.014c-.78-.154-.6-.225.054-.218-.006-.151-.013-.3-.018-.455-.08-.029-.1-.056,0-.079-.014-.345-.024-.689-.037-1.034l-.292-.054c-1.173-.22-1.095-.294.217-.341h.061c-.006-.164-.013-.327-.018-.49l-.153-.022c-.925-.127-1.187-.206-.524-.3.189-.028.429-.052.664-.076-.016-.531-.029-1.062-.042-1.593-.279-.049-.508-.1-.225-.139.091-.012.15-.026.22-.04,0-.172-.009-.345-.014-.518-.156-.06-.335-.12-.521-.177-.679-.212-.571-.285.51-.3,0-.018,0-.036,0-.055-.947-.147-.874-.25-.384-.341.137-.025.257-.052.377-.08,0-.151,0-.3,0-.455-1.313-.192-2.578-.372-.722-.469-.382-.176.053-.257.713-.307,0-.105,0-.211,0-.316-1.12.073-1.029-13.253-2.369-13.165l-1.825,26.283,4.6-.21C4652.112,4040.81,4652.1,4040.416,4652.082,4040.02Z" transform="translate(-4647.526 -4015.132)"/></g><g transform="translate(4673.007 4002.582)"><path d="M4690.31,4040.02c-.154-.064-.16-.109-.016-.141q-.2-1.853-.412-3.706l-.064-.014c-.791-.154-.622-.225.038-.218-.016-.151-.034-.3-.05-.455-.082-.029-.1-.056-.008-.079-.038-.345-.074-.689-.111-1.034l-.3-.054c-1.188-.22-1.116-.294.193-.341h.062c-.017-.164-.035-.327-.052-.49l-.155-.022c-.935-.127-1.2-.206-.546-.3.188-.028.425-.052.659-.076-.055-.531-.105-1.062-.157-1.593-.282-.049-.515-.1-.234-.139.09-.012.147-.026.217-.04-.017-.172-.034-.345-.05-.518-.162-.06-.344-.12-.533-.177-.695-.212-.592-.285.487-.3,0-.018,0-.036-.005-.055-.958-.147-.892-.25-.409-.341.135-.025.254-.052.373-.08-.014-.151-.024-.3-.038-.455-1.326-.192-2.6-.372-.754-.469-.4-.176.035-.257.691-.307q-.013-.158-.026-.316c-1.113.073-1.974-13.253-3.307-13.165l.047,26.283,4.588-.21C4690.4,4040.81,4690.354,4040.416,4690.31,4040.02Z" transform="translate(-4685.806 -4015.132)"/></g><g transform="translate(4634.805 3975.78)"><path d="M4643.535,3994.061a27.5,27.5,0,0,0,15.175-.052,28.806,28.806,0,0,0,7-3.07c2.06-1.25,4.548-2.833,5.7-5a.377.377,0,0,0-.511-.513c-2.042,1.18-3.705,2.983-5.739,4.233a29.711,29.711,0,0,1-6.808,3.068,29.268,29.268,0,0,1-14.642.686.338.338,0,0,0-.18.651Z" transform="translate(-4643.296 -3985.372)"/></g><g transform="translate(4660.287 3978.241)"><path d="M4671.73,3988.8a9.929,9.929,0,0,0,7.24,4.14,9.713,9.713,0,0,0,4.094-.536,8.571,8.571,0,0,0,1.9-.934c.5-.339,1.309-.888,1.237-1.565a.537.537,0,0,0-.383-.5c-.595-.109-1,.289-1.478.6a9.008,9.008,0,0,1-1.6.857,8.826,8.826,0,0,1-3.57.579,9.69,9.69,0,0,1-6.714-3.2c-.345-.386-1.041.133-.728.563Z" transform="translate(-4671.652 -3988.104)"/></g><g transform="translate(4615.216 3904.379)"><path d="M4668.41,3906.2a33.987,33.987,0,0,1-19.744,9.929,38.83,38.83,0,0,1-11.9-.837,88.579,88.579,0,0,1-9.9-2.523c-1.192-.377-2.382-.77-3.586-1.114q-.483-.139-.973-.258c-.131-.031-.487-.155-.283-.066-.4-.173-.75.418-.347.592,1.2.517,2.627,1.339,3.973,1.833a71.9,71.9,0,0,0,10.33,2.913,40.269,40.269,0,0,0,11.982,1.037,30.542,30.542,0,0,0,10.754-3.135,35.11,35.11,0,0,0,10.216-7.85c.316-.35-.183-.861-.521-.522Z" transform="translate(-4621.498 -3906.091)"/></g><g transform="translate(4657.205 3903.281)"><path d="M4668.394,3910.449a15.631,15.631,0,0,0,8.764,2.979,17.326,17.326,0,0,0,4.508-.41,15.417,15.417,0,0,0,2.08-.615,6.216,6.216,0,0,1,3.027-.813,15.79,15.79,0,0,0,4.087.325,11.634,11.634,0,0,0,3.647-1.039,11.215,11.215,0,0,0,3.215-2.252c.8-.816,1.972-2.1,1.928-3.317a.43.43,0,0,0-.642-.368c-.94.641-1.488,1.852-2.321,2.647a10.624,10.624,0,0,1-3.126,2.092,9.751,9.751,0,0,1-3.627.806c-1.407.029-2.789-.6-4.177-.4a35.763,35.763,0,0,0-3.968,1.337,16.754,16.754,0,0,1-4.27.553,19.78,19.78,0,0,1-8.742-2.181.38.38,0,0,0-.382.656Z" transform="translate(-4668.222 -3904.872)"/></g><g transform="translate(4616.368 3943.65)"><path d="M4670.471,3959.932c-2.335-4.393-7.018-7.3-11.582-8.938-4.357-1.565-9.351-1.892-13.666.014a11.428,11.428,0,0,0-3.957,2.869,23.22,23.22,0,0,0-2.688,4.524l.846.111c-1.315-4.426-8.379-1.611-10.96-.094-3.741,2.2-6.26,6.25-5.57,10.67.093.6,1,.343.9-.25-.575-3.676,1.6-7.165,4.591-9.131,1.985-1.3,9.037-4.718,10.145-.948a.467.467,0,0,0,.845.111c1.9-3.158,4.409-6.016,8.044-7.054a16.935,16.935,0,0,1,8.3-.182,26.767,26.767,0,0,1,14.218,8.708c.258.3.7-.083.529-.409Z" transform="translate(-4622.78 -3949.696)"/></g><g transform="translate(4664.307 3951.16)"><path d="M4676.666,3961.18a12.412,12.412,0,0,1,10.248-1.338,11.441,11.441,0,0,1,4.05,2.415,13.035,13.035,0,0,1,1.681,1.926,1.942,1.942,0,0,0,1.272.92c.792.166,1.592.058,2.392.274a7.084,7.084,0,0,1,2,.909,7.516,7.516,0,0,1,2.962,3.651c1.22,3.318-.246,6.294-2.344,8.807a.429.429,0,0,0,.517.672c2.263-1.184,3.4-4.049,3.536-6.477a8.593,8.593,0,0,0-3.014-6.982,9.156,9.156,0,0,0-3.318-1.806,15.665,15.665,0,0,0-1.872-.319c-1.009-.176-1.3-.836-1.92-1.538a12.617,12.617,0,0,0-7.416-4.113,11.573,11.573,0,0,0-9.2,2.444c-.314.259.09.754.428.556Z" transform="translate(-4676.125 -3958.035)"/></g><g transform="translate(4612.234 3961.825)"><path d="M4623.8,3969.9c-5.967,2.339-6.934,9.906-4.088,15,3.5,6.268,11.421,8.866,18.25,8.633,3.378-.115,7.6-1.719,8.452-5.4a.46.46,0,0,0-.837-.354,8.963,8.963,0,0,1-4.049,3.426,13.213,13.213,0,0,1-5.983.546c-3.87-.364-7.922-1.415-11.037-3.84a12.413,12.413,0,0,1-4.969-8.955c-.15-3.313,1.466-6.884,4.582-8.291.425-.192.119-.935-.32-.762Z" transform="translate(-4618.18 -3969.877)"/></g><g transform="translate(4678.701 3938.55)"><path d="M4692.492,3951.506a6.768,6.768,0,0,1,6.117,1.264.66.66,0,0,0,1.083-.286,7.6,7.6,0,0,1,3.587-3.394,38.748,38.748,0,0,1,4.909-2.433c3.245-1.291,6.9-1.877,10.236-.574a8.755,8.755,0,0,1,2.059,1.144c.616.461,1.063,1.151,1.7,1.568,1.04.681,2.758.03,3.934.047a14.871,14.871,0,0,1,8.216,2.756c2.89,2.011,4.616,4.8,6.063,7.942.334.725,1.385.191,1.232-.521-1.337-6.222-7.984-10.673-13.974-11.431a14.9,14.9,0,0,0-2.156-.122c-.818.015-2.117.42-2.8-.083-.633-.466-1.136-1.08-1.809-1.519a11.052,11.052,0,0,0-2.271-1.114c-3.522-1.281-7.367-.71-10.779.635a37.987,37.987,0,0,0-5.791,2.9,8.179,8.179,0,0,0-3.606,3.855l.953-.388a6.926,6.926,0,0,0-7.114-.746c-.287.133-.082.582.211.5Z" transform="translate(-4692.143 -3944.033)"/></g><g transform="translate(4694.389 3952.023)"><path d="M4709.891,3984.006a17.573,17.573,0,0,0,11.283-.813,22.908,22.908,0,0,0,4.993-3.086c1.166-.887,2.146-.49,3.448-.174a16.847,16.847,0,0,0,3.1.455,14.667,14.667,0,0,0,10.845-3.886c2.66-2.514,4.7-6.568,3.894-10.3a10.123,10.123,0,0,0-3.667-5.333,6.481,6.481,0,0,0-5.729-1.714c-.81.209-.446,1.334.335,1.222,2-.287,3.8,1,5.147,2.333a7.264,7.264,0,0,1,2.512,4.906c.106,3.438-2.184,6.858-4.872,8.813a13.97,13.97,0,0,1-10.616,2.258c-1.6-.286-3.083-.982-4.606-.058-1.41.857-2.571,2.028-4.051,2.809a18.558,18.558,0,0,1-11.8,1.787c-.505-.091-.729.65-.216.784Z" transform="translate(-4709.6 -3958.993)"/></g><g transform="translate(4698.815 3908.842)"><path d="M4716.105,3936.675c-.746-2.338.031-5.24.777-7.506a21.514,21.514,0,0,1,3.251-6.12,24.486,24.486,0,0,1,12.018-8.37,36.174,36.174,0,0,1,15.243-1.434,19.154,19.154,0,0,1,7.466,2.277,26.769,26.769,0,0,1,5.867,5.145,22.085,22.085,0,0,1,4.856,7.557,26.339,26.339,0,0,1,1.283,8.637.6.6,0,0,0,1.167.159c1.325-5.445-.792-11.386-4.181-15.633a37.512,37.512,0,0,0-6.264-6.29,18.348,18.348,0,0,0-7.681-3.363c-10.633-2.121-23.38.578-30.479,9.25a22.26,22.26,0,0,0-4.124,7.571c-.825,2.688-1.245,5.835.019,8.448.211.435.927.13.781-.33Z" transform="translate(-4714.525 -3911.047)"/></g><g transform="translate(4729.619 3936.82)"><path d="M4749.412,3947.507a3.732,3.732,0,0,1,1.475-2.877,6.1,6.1,0,0,1,3.441-1.1,13.038,13.038,0,0,1,3.123.075,4.976,4.976,0,0,1,1.379.417,4.585,4.585,0,0,1,1.13.948.688.688,0,0,0,1.075-.831,4.3,4.3,0,0,0-3.131-1.88,13.423,13.423,0,0,0-4.138.031,6.446,6.446,0,0,0-3.9,1.8,3.7,3.7,0,0,0-.962,3.488.259.259,0,0,0,.507-.069Z" transform="translate(-4748.803 -3942.112)"/></g><g transform="translate(4735.225 3933.753)"><path d="M4759.72,3946.325c-.108-1.37,1.944-2.142,2.937-2.686,1.173-.644,2.361-1.265,3.588-1.8a16.533,16.533,0,0,1,7.861-1.632,8.529,8.529,0,0,1,6.4,3.313,6.694,6.694,0,0,1,.832,6.585.738.738,0,0,0,.433,1.067c1.528.366,3.383,1.548,2.791,3.393-.5,1.541-2.272,2.537-3.586,3.29a21.869,21.869,0,0,1-8.8,2.8,22.4,22.4,0,0,1-8.968-.961c-2.556-.826-6.476-2.3-6.914-5.369-.1-.736-1.25-.531-1.261.171-.045,2.948,2.754,4.6,5.137,5.642a23.652,23.652,0,0,0,8.687,1.927,24.521,24.521,0,0,0,8.94-1.372c2.543-.9,5.63-2.264,7.289-4.5,2.049-2.755-.055-5.622-2.934-6.426l.433,1.067a7.987,7.987,0,0,0-.7-7.944,9.87,9.87,0,0,0-7.256-4.11,17.171,17.171,0,0,0-9.453,2.027,39.205,39.205,0,0,0-4.792,2.768,2.776,2.776,0,0,0-1.491,2.855c.1.452.855.362.817-.111Z" transform="translate(-4755.042 -3938.707)"/></g><g transform="translate(4692.995 3898.892)"><path d="M4708.162,3900.848c1.143,1.458,2.377,2.844,3.611,4.225,1.55,1.735,3.107,3.468,4.731,5.133a8.67,8.67,0,0,0,2,1.7.414.414,0,0,0,.562-.563,10.344,10.344,0,0,0-1.408-1.753l-2.25-2.385c-1.6-1.7-3.189-3.408-4.789-5.106-.6-.637-1.2-1.272-1.773-1.932-.417-.48-1.061.207-.685.686Z" transform="translate(-4708.049 -3899.999)"/></g><g transform="translate(4694.247 3915.541)"><path d="M4709.7,3919.467c.625.389,1.259.75,1.9,1.107.315.175.633.348.956.509.18.089.37.161.555.238a1.285,1.285,0,0,0,.619.142.469.469,0,0,0,.4-.7,2.446,2.446,0,0,0-.944-.757c-.314-.178-.637-.342-.958-.505-.659-.333-1.316-.656-1.992-.955a.548.548,0,0,0-.727.191.542.542,0,0,0,.19.729Z" transform="translate(-4709.442 -3918.485)"/></g><g transform="translate(4685.183 3927.552)"><path d="M4699.7,3932.788c1.391.291,2.785.533,4.2.7.691.082,1.387.147,2.081.2a5.881,5.881,0,0,0,2.12-.114c.324-.1.471-.643.1-.8a6.293,6.293,0,0,0-1.984-.407c-.721-.062-1.441-.123-2.162-.188-1.408-.128-2.818-.228-4.226-.352-.548-.049-.669.852-.13.964Z" transform="translate(-4699.356 -3931.822)"/></g><g transform="translate(4711.756 3888.865)"><path d="M4728.929,3889.21c.4,2.807,1.031,5.547,1.693,8.3.322,1.337.632,2.678.9,4.027a30.041,30.041,0,0,0,.88,4.217.381.381,0,0,0,.745-.1,14.248,14.248,0,0,0-.493-4.112c-.292-1.4-.628-2.783-.978-4.165-.7-2.781-1.521-5.532-2.22-8.313-.089-.352-.576-.193-.528.146Z" transform="translate(-4728.925 -3888.865)"/></g><g transform="translate(4728.268 3894.381)"><path d="M4748.516,3895.252c-.291,1.547-.565,3.1-.775,4.659q-.155,1.152-.291,2.306a9.862,9.862,0,0,0-.115,2.36.424.424,0,0,0,.828.113,11.078,11.078,0,0,0,.33-2.29q.1-1.179.229-2.355c.166-1.565.324-3.132.518-4.694.05-.411-.647-.506-.724-.1Z" transform="translate(-4747.299 -3894.99)"/></g><g transform="translate(4743.882 3894.261)"><path d="M4774.295,3895q-2.544,2.71-5.018,5.486-1.219,1.37-2.4,2.772a14.119,14.119,0,0,0-2.171,2.975c-.135.292.171.737.5.5a14.747,14.747,0,0,0,2.437-2.556q1.212-1.448,2.426-2.9,2.388-2.857,4.854-5.65c.375-.424-.232-1.046-.626-.627Z" transform="translate(-4764.674 -3894.857)"/></g><g transform="translate(4754.136 3911.896)"><path d="M4781.178,3914.563a17.431,17.431,0,0,1-2.454,1.816c-.427.261-.87.492-1.309.732-.231.126-.471.241-.7.371a1.7,1.7,0,0,0-.572.58c-.172.245.068.5.3.532a1.309,1.309,0,0,0,.361.031,1.774,1.774,0,0,0,.491-.139c.242-.105.48-.224.714-.348a12.805,12.805,0,0,0,1.345-.847,18.961,18.961,0,0,0,2.481-2.064c.434-.428-.215-1.062-.663-.665Z" transform="translate(-4776.085 -3914.438)"/></g><g transform="translate(4757.297 3925.609)"><path d="M4780.069,3931.813q2.684-.078,5.356-.349c.844-.087,1.683-.2,2.521-.33a10.325,10.325,0,0,0,2.635-.592c.455-.2.185-.856-.237-.875a12.906,12.906,0,0,0-2.509.318c-.868.135-1.737.255-2.608.369q-2.569.338-5.158.487c-.617.036-.627.989,0,.971Z" transform="translate(-4779.603 -3929.664)"/></g><g transform="translate(4679.505 3985.931)"><path d="M4693.146,4008.561c4.88,4.79,13.278,5.031,18.876,1.406.76-.493,1.422-1.155,2.2-1.612,1.251-.735,2.6-.148,3.877.2a15.329,15.329,0,0,0,4.764.534,17.456,17.456,0,0,0,9.031-3.081,16.1,16.1,0,0,0,6.534-8.569c.176-.657-.849-1.146-1.136-.48a17.267,17.267,0,0,1-5.606,7.5,16.369,16.369,0,0,1-8.675,3.2,14.137,14.137,0,0,1-4.531-.485c-1.68-.461-3.351-1.005-4.96-.024a35.91,35.91,0,0,1-4.364,2.815,14.819,14.819,0,0,1-4.859,1.165,16.467,16.467,0,0,1-10.686-3.175c-.362-.254-.773.3-.465.605Z" transform="translate(-4693.038 -3996.643)"/></g><g transform="translate(4721.479 3980.763)"><path d="M4739.765,3993.474c-.454,5.291,6.759,5.587,10.35,5.177a14.544,14.544,0,0,0,6.6-2.289c1.641-1.116,3.528-2.892,3.828-4.96.048-.329-.358-.7-.633-.369a21.8,21.8,0,0,1-3.5,3.906,13.183,13.183,0,0,1-5.419,2.268c-3.232.614-10.21.947-10.592-3.731a.316.316,0,0,0-.632,0Z" transform="translate(-4739.745 -3990.905)"/></g><g transform="translate(4569.636 3976.304)"><path d="M4572.99,3986.059a10.652,10.652,0,0,0-1.25,10.993,12.557,12.557,0,0,0,9.235,7.013,14.714,14.714,0,0,0,2.974.264,14.185,14.185,0,0,1,3.306-.154c1.241.289,1.589,1.611,2,2.657a12.19,12.19,0,0,0,1.4,2.661,14.646,14.646,0,0,0,9.835,5.64c5.582.809,11.065-1.181,16.112-3.352l-.932-.244c3.667,8.253,14.61,12.909,22.8,8.549.674-.359.2-1.568-.532-1.263-7.875,3.28-17.508-.069-21.1-7.974a.694.694,0,0,0-.931-.244c-7.425,3.264-17.8,5.947-23.826-1.424-1.19-1.455-1.525-3.25-2.524-4.786-1.037-1.6-2.577-1.611-4.3-1.446a12.755,12.755,0,0,1-10.761-3.9,10.631,10.631,0,0,1-.994-12.582c.2-.311-.278-.7-.521-.4Z" transform="translate(-4570.777 -3985.954)"/></g><g transform="translate(4582.845 3913.95)"><path d="M4585.526,3917.095c-.6,4.819,4.355,7.1,8.345,7.49a21.55,21.55,0,0,0,13.641-3.375l-.959-.391c1.352,4.175,5.471,6.687,9.519,7.73a21.911,21.911,0,0,0,15.882-2.134c3.04-1.68,6.375-4.3,7.963-7.463.258-.513-.385-1.073-.818-.633-1.113,1.131-2.059,2.408-3.207,3.512a22.031,22.031,0,0,1-3.539,2.774,21.393,21.393,0,0,1-7.371,2.9,18.341,18.341,0,0,1-13.27-2.224,9.287,9.287,0,0,1-3.9-4.809.66.66,0,0,0-.959-.392,20.672,20.672,0,0,1-11.457,3.311c-3.842-.065-9.1-1.542-9.091-6.3,0-.517-.719-.485-.779,0Z" transform="translate(-4585.477 -3916.719)"/></g><g transform="translate(4559.513 3954.819)"><path d="M4568.223,3990.209c-3.733-.157-5.565-4.054-6.238-7.237a21.494,21.494,0,0,1-.651-5.719,9.217,9.217,0,0,1,2.075-4.876c4.009-5.373,10.474-9,17.275-8.4a15.456,15.456,0,0,1,5.879,1.721,8.68,8.68,0,0,1,2.1,1.49,13.631,13.631,0,0,1,1.518,2.165.632.632,0,0,0,1.167-.317c.2-1.755-1.28-3.184-2.594-4.121a15.5,15.5,0,0,0-5.583-2.38,19.282,19.282,0,0,0-11.862,1.223,23.562,23.562,0,0,0-9.1,7.228,11.694,11.694,0,0,0-2.589,5.382,19.771,19.771,0,0,0,.562,6.692c.827,3.944,3.388,8.484,8.039,8.13a.491.491,0,0,0,0-.982Z" transform="translate(-4559.513 -3962.098)"/></g><g transform="translate(4587.688 3942.432)"><path d="M4623.638,3948.61a18.611,18.611,0,0,0-12.526,2.1,15.584,15.584,0,0,0-6.978,8.929l1.033-.587a14.36,14.36,0,0,0-7.77-.191c-2.263.574-5.223,1.794-6.45,3.9a.569.569,0,0,0,.771.773c1-.523,1.836-1.3,2.828-1.854a12.785,12.785,0,0,1,10.175-1,.85.85,0,0,0,1.031-.587c2.283-7.67,10.292-11.1,17.781-10.685.442.024.556-.721.106-.788Z" transform="translate(-4590.866 -3948.343)"/></g><g transform="translate(4640.638 3984.232)"><path d="M4650.479,3995.453c-.891,3.132-.534,6.646-.577,9.878q-.066,5.034-.11,10.066c-.025,3.284.053,6.557.113,9.841.061,3.424-.145,6.87.036,10.288a.8.8,0,0,0,1.606,0c.338-3.334.287-6.717.485-10.064s.407-6.7.495-10.064q.127-4.922.188-9.842c.043-3.3.491-6.889-.357-10.1a.982.982,0,0,0-1.879,0Z" transform="translate(-4649.788 -3994.756)"/></g><g transform="translate(4641.032 3988.443)"><path d="M4651.109,4003.893a13.374,13.374,0,0,0,3.39-.09c1.12-.073,2.242-.1,3.364-.061,2.567.082,5.132.085,7.7.03q4.141-.089,8.277-.334,2.133-.126,4.263-.3c1.586-.126,3.216-.061,4.5-1.109a1.394,1.394,0,0,0-.279-2.176c-1.389-.722-2.945-.333-4.438-.19s-2.975.27-4.464.38q-4.12.305-8.248.406c-2.53.062-5.058.03-7.588.069-1.088.016-2.179.095-3.261.215a7.939,7.939,0,0,0-3.516.866c-.812.555-.835,2.066.3,2.29Z" transform="translate(-4650.226 -3999.433)"/></g><g transform="translate(4642.303 3999.733)"><path d="M4652.563,4016.006c4.707.631,9.647.144,14.376-.018,4.786-.164,9.6-.29,14.376-.669,2.117-.167,2.18-3.394,0-3.35-4.863.1-9.744.456-14.6.771-4.755.308-9.753.319-14.4,1.427-1.117.266-.715,1.711.248,1.84Z" transform="translate(-4651.64 -4011.969)"/></g><g transform="translate(4641.54 4015.512)"><path d="M4651.692,4033.471a31.591,31.591,0,0,0,7.624,1.005c2.624.122,5.243.229,7.87.254q3.83.036,7.657,0,1.992-.017,3.983-.042c1.43-.017,3.031.189,4.3-.573a2.4,2.4,0,0,0,0-4.109c-1.285-.708-2.673-.5-4.087-.466q-1.991.043-3.981.08-3.935.073-7.868.163c-2.555.06-5.1.18-7.658.3a34.678,34.678,0,0,0-7.835.948,1.278,1.278,0,0,0,0,2.442Z" transform="translate(-4650.791 -4029.489)"/></g><g transform="translate(4671.734 3980.665)"><path d="M4684.391,3991.574l1.6,45.46,2.646.257-2.2-45.1a1.061,1.061,0,0,0-.349-1.283C4685.389,3990.445,4684.391,3991.574,4684.391,3991.574Z" transform="translate(-4684.391 -3990.796)"/></g><g transform="translate(4668.813 3910.456)"><path d="M4681.14,3913.146l1.048,40.945h3.071l-2.322-41.253Z" transform="translate(-4681.14 -3912.839)"/></g></g></svg>