<svg xmlns="http://www.w3.org/2000/svg" width="81" height="70" viewBox="0 0 81 70"><g transform="translate(-4654.614 -316.171)"><g transform="translate(4654.614 316.171)"><g transform="translate(0 0.482)"><path d="M4654.942,317.2c-.222,4.889-.217,9.787-.26,14.681-.054,6.136-.1,12.277-.03,18.413.029,2.338.078,4.672.192,7.007a.632.632,0,0,0,1.263,0c.238-4.888.221-9.787.212-14.681-.01-6.137-.014-12.277-.126-18.413-.042-2.337-.078-4.672-.183-7.007a.535.535,0,0,0-1.069,0Z" transform="translate(-4654.614 -316.681)"/></g><g transform="translate(0.144 40.103)"><path d="M4655.294,360.719a43.832,43.832,0,0,0,5.512.221c2.286.033,4.574.027,6.861.041,5.622.034,11.245,0,16.868,0,11.833,0,23.673.02,35.507-.124,4.784-.058,9.578-.042,14.344-.506a.653.653,0,0,0,0-1.306c-4.127-.349-8.264-.345-12.4-.362-5.638-.025-11.275.007-16.913.025q-17.735.058-35.47.182c-2.682.019-5.364.07-8.047.108a45.119,45.119,0,0,0-6.26.293.743.743,0,0,0,0,1.423Z" transform="translate(-4654.767 -358.677)"/></g><g transform="translate(0.81)"><path d="M4656.083,317.977c4.16.275,8.349.2,12.517.247q8.361.095,16.721.179c11.708.13,23.425.257,35.133.088,2.66-.039,5.32-.09,7.98-.174a37.3,37.3,0,0,0,6.293-.446c.976-.2.663-1.57-.221-1.641a53.441,53.441,0,0,0-5.5.061c-2.273.051-4.546.076-6.82.09-5.539.033-11.079.024-16.619,0-11.7-.044-23.4-.214-35.1-.133a131.638,131.638,0,0,0-14.388.459.634.634,0,0,0,0,1.266Z" transform="translate(-4655.474 -316.171)"/></g><g transform="translate(78.641 0.069)"><path d="M4738.639,316.924c-.048,2-.223,4-.273,6.005-.069,2.922-.1,5.843-.126,8.766-.055,6.29-.188,12.6.014,18.89.074,2.314.139,4.629.386,6.931a.7.7,0,0,0,1.406,0,136.514,136.514,0,0,0,.452-14.771c-.015-6.3-.007-12.6-.158-18.89-.057-2.312-.239-4.622-.294-6.931a.7.7,0,0,0-1.406,0Z" transform="translate(-4738.145 -316.243)"/></g></g><g transform="translate(4686.095 327.735)"><path d="M4688.543,329.743c5.028.065,10.057.077,15.084,0a.659.659,0,0,0,0-1.318c-5.028.092-10.061.064-15.084.3a.51.51,0,0,0,0,1.019Z" transform="translate(-4688.053 -328.428)"/></g><g transform="translate(4685.917 334.342)"><path d="M4688.223,337.01a49.629,49.629,0,0,0,6.661.126c2.643.006,5.286-.023,7.928-.042,5.515-.042,11.03-.083,16.545-.162l4.059-.06a13.173,13.173,0,0,0,3.624-.236.534.534,0,0,0,0-1.02,11.25,11.25,0,0,0-3.1-.155l-3.572.025c-2.642.017-5.286.022-7.927.052-5.515.064-11.033.075-16.546.2a54.951,54.951,0,0,0-7.676.3c-.473.079-.485.9,0,.97Z" transform="translate(-4687.863 -335.431)"/></g><g transform="translate(4685.917 343.69)"><path d="M4688.223,346.917a49.468,49.468,0,0,0,6.661.126c2.643.006,5.286-.022,7.928-.042,5.515-.042,11.03-.083,16.545-.162l4.059-.06a13.171,13.171,0,0,0,3.624-.236.534.534,0,0,0,0-1.02,11.251,11.251,0,0,0-3.1-.155l-3.572.025c-2.642.017-5.286.022-7.927.052-5.515.063-11.033.075-16.546.2a54.956,54.956,0,0,0-7.676.3c-.473.079-.485.9,0,.969Z" transform="translate(-4687.863 -345.339)"/></g><g transform="translate(4663.107 326.988)"><g transform="translate(1.712)"><path d="M4669.464,338.715c-1.035.1-1.789-.982-2.465-1.774a6.234,6.234,0,0,1-1.49-4.857,5.138,5.138,0,0,1,3.015-3.991,6.944,6.944,0,0,1,2.242-.44,7.413,7.413,0,0,1,1.933.109,5.21,5.21,0,0,1,4,4.732c.1,2.224-.915,5.789-3.041,6.435" transform="translate(-4665.454 -327.637)"/></g><g transform="translate(0 10.705)"><path d="M4673.273,338.983a6.316,6.316,0,0,1,4.466,2.94c.99,1.556,1.3,4.706,1.2,6.548l-15.08-.145c.066-.043.072.125-.007.116s-.109-.1-.122-.183a7.779,7.779,0,0,1,.009-2.436,8.483,8.483,0,0,1,5.888-6.669" transform="translate(-4663.636 -338.983)"/></g></g><g transform="translate(4657.469 357.208)"><path d="M4658.177,360.247c-.124,4.71-.243,9.418-.326,14.129-.04,2.224-.083,4.447-.1,6.672-.019,2.313-.343,4.973.267,7.223a.505.505,0,0,0,.967,0c.635-2.181.375-4.779.4-7.033.026-2.288.03-4.575.038-6.862q.019-7.066-.047-14.129a.6.6,0,0,0-1.2,0Z" transform="translate(-4657.647 -359.667)"/></g><g transform="translate(4658.69 357.228)"><path d="M4660.064,388.017a2.95,2.95,0,0,1,1.933-1.694,1.7,1.7,0,0,1,1.891,1.31.791.791,0,0,0,1.431.188,7.439,7.439,0,0,1,1.967-2.628h-1.161l2.376,2.912c.5.614,1.435.072,1.463-.608a1.486,1.486,0,0,1,1.289-1.475,2,2,0,0,1,1.7,1.411.9.9,0,0,0,1.617.212q.668-1.176,1.327-2.358l-1.376.177c.942.875,1.869,1.766,2.8,2.653a.907.907,0,0,0,1.53-.635c.36-9.011-.041-18.037.1-27.053a.769.769,0,0,0-1.537,0c-.446,9.009-.129,18.037-.352,27.053l1.53-.635c-.945-.873-1.894-1.741-2.829-2.626a.885.885,0,0,0-1.376.178c-.448.782-.9,1.564-1.341,2.349l1.618.212a3.742,3.742,0,0,0-3.668-2.682,3.221,3.221,0,0,0-2.745,3.216l1.463-.608-2.428-2.86a.834.834,0,0,0-1.161,0,8.57,8.57,0,0,0-2.237,3.186h1.51a3.244,3.244,0,0,0-3.062-2.342,3.934,3.934,0,0,0-3.331,2.523c-.32.706.68,1.328,1.058.62Z" transform="translate(-4658.943 -359.689)"/></g><g transform="translate(4683.445 357.208)"><path d="M4685.768,360.247c-.123,4.71-.242,9.418-.326,14.129-.04,2.224-.082,4.447-.1,6.672-.02,2.313-.345,4.973.265,7.223a.506.506,0,0,0,.968,0c.634-2.181.374-4.779.4-7.033.026-2.288.031-4.575.038-6.862.015-4.711-.009-9.419-.046-14.129a.6.6,0,0,0-1.2,0Z" transform="translate(-4685.237 -359.667)"/></g><g transform="translate(4684.667 357.228)"><path d="M4687.656,388.017a2.951,2.951,0,0,1,1.933-1.694,1.7,1.7,0,0,1,1.893,1.31.79.79,0,0,0,1.43.188,7.454,7.454,0,0,1,1.966-2.628h-1.16l2.377,2.912c.5.614,1.433.072,1.463-.608a1.484,1.484,0,0,1,1.289-1.475,2,2,0,0,1,1.7,1.411.9.9,0,0,0,1.618.212q.669-1.176,1.326-2.358l-1.376.177c.942.875,1.87,1.766,2.8,2.653a.907.907,0,0,0,1.53-.635c.359-9.011-.041-18.037.1-27.053a.769.769,0,0,0-1.538,0c-.446,9.009-.128,18.037-.351,27.053l1.53-.635c-.944-.873-1.894-1.741-2.828-2.626a.886.886,0,0,0-1.377.178c-.448.782-.9,1.564-1.34,2.349l1.617.212a3.74,3.74,0,0,0-3.668-2.682,3.221,3.221,0,0,0-2.745,3.216l1.463-.608-2.429-2.86a.833.833,0,0,0-1.16,0,8.545,8.545,0,0,0-2.236,3.186h1.509a3.242,3.242,0,0,0-3.062-2.342,3.931,3.931,0,0,0-3.33,2.523c-.321.706.679,1.328,1.057.62Z" transform="translate(-4686.536 -359.689)"/></g><g transform="translate(4711.598 357.379)"><path d="M4734.076,360.441c-.482,9.011-.194,18.037-.492,27.053l1.5-.625-2.813-2.642a.893.893,0,0,0-1.388.179q-.669,1.177-1.332,2.355l1.613.211a3.75,3.75,0,0,0-3.666-2.677,3.254,3.254,0,0,0-2.781,3.211l1.523-.632-2.389-2.9a.927.927,0,0,0-1.29,0,8.292,8.292,0,0,0-2.206,3l1.67.219a3.406,3.406,0,0,0-3.188-2.5,4.212,4.212,0,0,0-3.576,2.575l1.672.455c-.018-7.843,0-15.686-.089-23.528-.014-1.126-.04-2.254-.04-3.38a.769.769,0,0,0-1.537,0c0,7.842-.1,15.686-.122,23.528l-.008,3.38a.905.905,0,0,0,1.674.454,2.7,2.7,0,0,1,1.74-1.64,1.521,1.521,0,0,1,1.711,1.146c.206.687,1.332.976,1.67.219a7.374,7.374,0,0,1,1.918-2.629h-1.29l2.417,2.872c.523.623,1.5.089,1.523-.632a1.459,1.459,0,0,1,1.253-1.48c.81-.036,1.438.736,1.706,1.417a.9.9,0,0,0,1.613.211q.671-1.175,1.335-2.353l-1.388.179,2.816,2.637a.892.892,0,0,0,1.5-.625c.284-9.016-.145-18.035-.044-27.053a.613.613,0,0,0-1.226,0Z" transform="translate(-4715.142 -359.849)"/></g><g transform="translate(4661.949 363.242)"><path d="M4663.187,367.878c.839.057,1.679.116,2.519.15s1.687.113,2.519.07a1.017,1.017,0,0,0,0-2.034c-.834-.012-1.684.086-2.519.124s-1.679.088-2.519.124a.784.784,0,0,0,0,1.567Z" transform="translate(-4662.405 -366.063)"/></g><g transform="translate(4662.3 368.109)"><path d="M4663.111,373.121a7.024,7.024,0,0,0,2.417.359c.849.052,1.7.062,2.547.078q1.226.023,2.453.034a24.914,24.914,0,0,0,2.546-.008,1.209,1.209,0,0,0,1.176-1.178,1.2,1.2,0,0,0-1.176-1.178c-.81-.029-1.64.075-2.452.115q-1.272.064-2.547.122c-.817.036-1.636.058-2.453.115a7.6,7.6,0,0,0-2.512.369.683.683,0,0,0,0,1.173Z" transform="translate(-4662.778 -371.223)"/></g><g transform="translate(4662.104 373.714)"><path d="M4663.375,379.156c1.6.094,3.192.353,4.794.487a32.086,32.086,0,0,0,4.808.121,1.328,1.328,0,0,0,1.295-1.3,1.3,1.3,0,0,0-1.295-1.3,47.814,47.814,0,0,1-4.808.156q-2.4,0-4.794.162a.836.836,0,0,0,0,1.671Z" transform="translate(-4662.57 -377.163)"/></g><g transform="translate(4692.705 363.266)"><path d="M4695.928,366.625q-.406,2.782-.542,5.589c-.045.937-.054,1.876-.077,2.812-.023.906.017,1.844-.089,2.745l.164-.608.044-.062a1.169,1.169,0,0,0,.509,1.934l.086.029a1.217,1.217,0,0,0,1.36-.555c.479-.834.239-2.118.227-3.051s-.024-1.875-.035-2.811c-.022-1.942-.125-3.883-.188-5.824-.025-.8-1.331-1.063-1.459-.2Z" transform="translate(-4695.075 -366.089)"/></g><g transform="translate(4687.854 370.76)"><path d="M4690.145,375.336c1.93,1.5,2.865,4.034,5.064,5.235,1.59.868,2.666-.875,3.693-1.8.5-.452,1.024-.881,1.567-1.282a16.669,16.669,0,0,0,1.842-1.393,1.2,1.2,0,0,0,.184-1.427,1.237,1.237,0,0,0-.188-.265c-.074-.073-.6-.334-.233-.158a1.23,1.23,0,0,0-1.424.184c-.936.828-2.047,1.456-3,2.28-.451.392-.887.8-1.3,1.234-.055.057-.615.62-.6.642-.038-.057.918.146.333-.2q-.185-.108-.361-.226a11.963,11.963,0,0,1-2.046-2.029,8.079,8.079,0,0,0-2.6-2.008.78.78,0,0,0-.992.2.761.761,0,0,0,.061,1.011Z" transform="translate(-4689.922 -374.032)"/></g><g transform="translate(4716.299 369.912)"><path d="M4720.661,375.158a15.179,15.179,0,0,0,2.989.3c1.021.041,2.042.088,3.063.121.74.025,1.48.058,2.222.062a2.391,2.391,0,0,0,1.858-.45,1.234,1.234,0,0,0,.185-1.434,1.16,1.16,0,0,0-2.021-.068,1,1,0,0,0,.355,1.358l.039.017-.475-.62.014.051v-.577l-.015.058.292-.5c.382-.385.991-.311.494-.266-.12.01-.239.025-.359.033-.21.015-.421.026-.632.034-.8.029-1.6.04-2.406.068l-2.7.1a14.706,14.706,0,0,0-2.9.291.744.744,0,0,0,0,1.423Z" transform="translate(-4720.136 -373.134)"/></g><g transform="translate(4722.008 365.131)"><path d="M4726.215,368.585c.012-.074.011-.06,0,.04a.47.47,0,0,0,.012.256,1.955,1.955,0,0,0,.131.3c.057.125.118.247.181.369a6.152,6.152,0,0,0,.5.8,20.875,20.875,0,0,0,1.46,1.7c.223.247.441.5.65.759.059.073.3.284.3.375l-.078-.1c.034.045.068.091.1.136s.081.112.119.17c.17.253.306.526.471.782a3.656,3.656,0,0,0,.953,1.01,1.175,1.175,0,0,0,1.6-.421,1.208,1.208,0,0,0-.421-1.608c.236.169.03.016-.017-.033-.027-.029-.164-.219-.069-.076s-.036-.061-.055-.091c-.046-.073-.089-.146-.134-.22a7.994,7.994,0,0,0-.466-.725,12.027,12.027,0,0,0-1.412-1.574,17.5,17.5,0,0,0-1.6-1.372c-.252-.187-.5-.375-.764-.545-.111-.073-.221-.147-.331-.225-.06-.042-.121-.1-.185-.135s-.4-.1-.281-.081a.54.54,0,0,0-.667.51Z" transform="translate(-4726.199 -368.066)"/></g><g transform="translate(4721.344 370.984)"><path d="M4731.923,374.274h-.015l.362.1c-.6-.339-1.365.242-1.819.63-.421.359-.839.723-1.258,1.083q-1.324,1.141-2.588,2.353c-.405.389-1.162.963-1.109,1.573a1.079,1.079,0,0,0,1.05,1.053c.562.024,1.06-.584,1.468-.931s.836-.692,1.242-1.051c.9-.792,1.781-1.582,2.6-2.452.474-.5,1.174-1.509.557-2.144l.184.317,0-.016a.708.708,0,0,0-.672-.512Z" transform="translate(-4725.494 -374.27)"/></g></g></svg>