<svg xmlns="http://www.w3.org/2000/svg" width="39.961" height="30.82" viewBox="0 0 39.961 30.82">
    <path
        d="M39.961 1.992a45.991 45.991 0 00-4.922 3.75 44.35 44.35 0 00-5.068 5.068q-2.256 2.671-2.256 4.541a3.385 3.385 0 00.938 2.021q.937 1.143 2.08 2.344a13.074 13.074 0 011.934 2.607 6 6 0 01.791 2.988 5.081 5.081 0 01-1.729 3.955 6.126 6.126 0 01-4.248 1.553 6.816 6.816 0 01-5.508-2.285 8.757 8.757 0 01-1.934-5.858 14.808 14.808 0 011.67-6.8 26.049 26.049 0 014.219-6.006 53.49 53.49 0 015.449-5.068q2.9-2.344 6.416-4.8zm-20.039 0A45.992 45.992 0 0015 5.742a44.35 44.35 0 00-5.068 5.068q-2.256 2.671-2.256 4.541a3.385 3.385 0 00.938 2.021q.938 1.143 2.08 2.344a13.074 13.074 0 011.934 2.607 6 6 0 01.791 2.988 5.081 5.081 0 01-1.729 3.955 6.126 6.126 0 01-4.251 1.554 6.816 6.816 0 01-5.508-2.285 8.757 8.757 0 01-1.934-5.859 14.808 14.808 0 011.67-6.8A26.049 26.049 0 015.886 9.87a53.49 53.49 0 015.453-5.066q2.9-2.344 6.416-4.8z"
        fill="#1d1c1d"/>
</svg>
