<svg xmlns="http://www.w3.org/2000/svg" width="46.834" height="45.993" viewBox="0 0 46.834 45.993"><g transform="translate(-538.077 -2870.669)"><g transform="translate(540.189 2870.669)"><path d="M503.427,2873.963c2.035-.155,4.057-.415,6.089-.608,2.318-.22,4.641-.169,6.958-.369,5.642-.487,11.267-.866,16.933-.937q4.828-.061,9.654.155c.881.039.879-1.331,0-1.369a159.623,159.623,0,0,0-17.1.137c-2.841.179-5.672.446-8.5.762-2.4.268-4.813.3-7.208.6a41.545,41.545,0,0,0-6.86,1.347c-.15.044-.13.3.039.283Z" transform="translate(-503.288 -2870.67)" fill="#151516"/></g><g transform="translate(538.077 2871.085)"><path d="M500.267,2879.789c.362,3.4.533,18.406,1.521,20.537s1.6,1.6,9.66,1.749,26.013-1.978,29.662-2.662,2.356-2.662,2.13-9.2-.836-15.44-5.247-16.049-30.88.457-33.846,1.141S499.887,2876.212,500.267,2879.789Z" transform="translate(-500.202 -2872.13)" fill="#fff"/><g transform="translate(1.678 2.456)"><path d="M502.823,2875.2a43.717,43.717,0,0,0,.053,8.229c.161,1.545.342,3.088.487,4.635.22,2.325.326,4.655.512,6.982a22.7,22.7,0,0,0,.75,4.7,3.329,3.329,0,0,0,.986,1.767,1.494,1.494,0,0,0,1.063.231q1.149-.054,2.3-.1c6.189-.236,12.384-.317,18.569-.675,3.037-.175,6.08-.378,9.1-.729a54.617,54.617,0,0,0,8.9-1.621,8.3,8.3,0,0,0,2.047-.8.458.458,0,0,0-.229-.848,20.823,20.823,0,0,0-4.293.77q-2.145.464-4.315.795c-2.9.442-5.823.663-8.744.877-6.038.443-12.094.58-18.141.856q-2.258.107-4.515.24c-.339.021-.682.054-1.022.064-.083,0,.079.053-.032,0,.02.01.029.041-.037-.03.054.053-.077-.095-.1-.124a2.736,2.736,0,0,1-.226-.41,14.946,14.946,0,0,1-.946-4.475c-.238-2.154-.347-4.323-.573-6.479-.17-1.629-.383-3.254-.595-4.877a42.882,42.882,0,0,1-.386-7.7q.032-.642.076-1.285c.03-.448-.659-.442-.7,0Z" transform="translate(-502.655 -2874.865)" fill="#151516"/></g><g transform="translate(41.658)"><path d="M561.059,2871.525a13.825,13.825,0,0,0,.556,2.483c.218.849.479,1.687.691,2.539.419,1.68.75,3.383,1,5.1a97.79,97.79,0,0,1,.827,10.368q.054,1.426.1,2.851a5.074,5.074,0,0,1,.006,1.276c-.054.219-.234.279-.462.256-.328-.035-.474.316-.438.575.128.921,1.323.813,1.824.291.62-.643.46-1.67.436-2.479-.059-1.928-.125-3.855-.235-5.783a64.517,64.517,0,0,0-1.543-11.434c-.255-1.059-.56-2.107-.9-3.143a10.842,10.842,0,0,0-1.372-3.026c-.139-.188-.509-.154-.489.132Z" transform="translate(-561.057 -2871.277)" fill="#151516"/></g><g transform="translate(2.134 4.713)"><path d="M503.666,2882.808a74.967,74.967,0,0,0,7.511-.294q3.938-.282,7.874-.581c5.574-.415,11.124-1,16.678-1.618l4.738-.531,2.369-.267a4,4,0,0,0,2.2-.585.359.359,0,0,0-.073-.563,3.349,3.349,0,0,0-1.957-.112l-2.115.238-4.23.477c-2.812.316-5.622.638-8.438.93-5.383.558-10.784.947-16.179,1.376-2.824.225-5.668.405-8.47.836-.406.061-.289.681.094.693Z" transform="translate(-503.319 -2878.16)" fill="#151516"/></g><g transform="translate(2.949 11.109)"><path d="M504.756,2892.45a42.213,42.213,0,0,0,6.393,0c3.026-.154,6.045-.383,9.063-.652,6.368-.566,12.726-1.232,19.065-2.054,2.368-.307,4.741-.616,7.1-1.008.793-.132.465-1.372-.335-1.217-4.884.942-9.861,1.387-14.809,1.959q-9.541,1.1-19.115,1.908-3.676.309-7.36.55a.257.257,0,0,0,0,.514Z" transform="translate(-504.51 -2887.505)" fill="#151516"/></g><g transform="translate(29.087 17.217)"><g transform="translate(0 0.621)"><path d="M548.671,2897.926c-.594-.141-1.15-.394-1.755-.513a3.859,3.859,0,0,0-1.691.031,3.655,3.655,0,0,0-2.325,2.345,2.76,2.76,0,0,0,.639,3.041,5.124,5.124,0,0,0,3.084,1.222,2.937,2.937,0,0,0,1.938-.325,2.5,2.5,0,0,0,1.124-1.3.345.345,0,0,0-.421-.421,4.24,4.24,0,0,0-.988.6,1.87,1.87,0,0,1-1.15.313,4.619,4.619,0,0,1-2.409-.712,1.613,1.613,0,0,1-.7-1.778,2.817,2.817,0,0,1,1.369-1.774,5.8,5.8,0,0,1,1.462-.294,4.69,4.69,0,0,1,1.7-.035c.255.061.363-.331.107-.392Z" transform="translate(-542.692 -2897.334)" fill="#151516"/></g><g transform="translate(5.448 0)"><path d="M553.839,2896.671a2.59,2.59,0,0,0-2.3,1.025,3.909,3.909,0,0,0-.884,2.367,3.181,3.181,0,0,0,.178,1.249,2,2,0,0,0,1.031,1.028,4.975,4.975,0,0,0,2.847.527,2.485,2.485,0,0,0,2.276-1.583,4.731,4.731,0,0,0,.2-1.371,3.365,3.365,0,0,0-.253-1.461,3.587,3.587,0,0,0-2.161-1.66,2.886,2.886,0,0,0-2.871.048,2.5,2.5,0,0,0-.843,1.383,7.459,7.459,0,0,0-.316,1.767,2.872,2.872,0,0,0,1.412,2.734.685.685,0,0,0,1.017-.584c-.028-1.3-.111-2.6-.107-3.9H551.81a18.315,18.315,0,0,0,.089,2.686,3.62,3.62,0,0,0,.4,1.231,1.075,1.075,0,0,0,1.417.607c.488-.265.519-.839.535-1.331a8.184,8.184,0,0,0-.1-1.469,12.372,12.372,0,0,0-.3-1.285,3.1,3.1,0,0,1-.091-.449.6.6,0,0,1,.062-.4h-1.182a13.193,13.193,0,0,1,1.178,4.337.766.766,0,0,0,.735.559.8.8,0,0,0,.735-.559,4.752,4.752,0,0,0,.219-2.579,10.287,10.287,0,0,0-.767-2.249l-1.144.666a3.865,3.865,0,0,1,.964,1.585,4.144,4.144,0,0,1,.161,1.934.768.768,0,0,0,.964.736c1-.267,1.152-1.573,1.078-2.438a4.032,4.032,0,0,0-1.082-2.44l-.31,1.172c.231-.062-.032.01-.01-.017s.091.028.107.037c.086.043.031.011.073.049a1.007,1.007,0,0,1,.138.141c-.064-.084.045.085.057.1.035.074.044.089.028.044-.029-.085-.005-.032.069.161-.035-.1,0,.023.014.063.021.072.037.145.054.218s0-.084,0,.054c0,.075,0,.149,0,.224,0,.034-.034.243-.005.092-.012.062-.026.123-.041.183a2.489,2.489,0,0,1-.268.681.684.684,0,0,0,.177.883.7.7,0,0,0,.9-.054,2.53,2.53,0,0,0,.663-2.655c-.287-.949-1.259-1.927-2.332-1.561a.71.71,0,0,0-.309,1.173,2.479,2.479,0,0,1,.654,1.345,3.062,3.062,0,0,1,.019.379,1.355,1.355,0,0,1-.035.318,2.392,2.392,0,0,1-.118.418c.053-.139-.054.085-.054.078.015-.093.327-.164.125-.125l.939.938a5.349,5.349,0,0,0-1.652-4.69.7.7,0,0,0-.83-.107.684.684,0,0,0-.314.773,9.058,9.058,0,0,1,.663,2.081,3.96,3.96,0,0,1-.268,1.977h1.47a15.823,15.823,0,0,0-1.466-4.621.691.691,0,0,0-1.182,0,3.12,3.12,0,0,0,.023,2.418,6.351,6.351,0,0,1,.19,1.184q.018.3.012.594c0,.1-.005.2-.012.3,0,.066-.009.132-.014.2,0-.148.091-.255.272-.321h.37c.112.021.145.181.065.022-.025-.053-.057-.1-.084-.15a1.9,1.9,0,0,1-.139-.351,4.012,4.012,0,0,1-.161-.8c-.062-.658-.068-1.323-.094-1.981a.629.629,0,1,0-1.258,0c.044,1.3,0,2.6.007,3.9l1.017-.585a1.1,1.1,0,0,1-.509-.487,1.781,1.781,0,0,1-.231-.829,4.286,4.286,0,0,1,.118-1.109,4.161,4.161,0,0,1,.283-.97.637.637,0,0,1,.47-.381,1.8,1.8,0,0,1,.919.083,3.749,3.749,0,0,1,1.779.848,2.29,2.29,0,0,1,.261,1.71,1.634,1.634,0,0,1-.255.8,1.227,1.227,0,0,1-.7.375,3.771,3.771,0,0,1-1.984-.069,2.844,2.844,0,0,1-.9-.419.921.921,0,0,1-.268-.673,3.074,3.074,0,0,1,.378-1.812,3.632,3.632,0,0,1,.58-.8,1.484,1.484,0,0,1,.988-.6c.308,0,.4-.5.076-.557Z" transform="translate(-550.651 -2896.429)" fill="#151516"/></g></g><g transform="translate(33.719 35.015)"><path d="M549.481,2922.944l1.59,4.908c.53,1.636,1.007,3.3,1.672,4.885a.368.368,0,0,0,.709-.2c-.4-1.67-1-3.291-1.539-4.921l-1.62-4.9c-.169-.511-.98-.294-.812.224Z" transform="translate(-549.458 -2922.429)" fill="#131213"/></g></g></g></svg>