<svg xmlns="http://www.w3.org/2000/svg" width="43.547" height="48.139" viewBox="0 0 43.547 48.139"><g transform="matrix(0.985, 0.174, -0.174, 0.985, -695.223, -3168.651)"><g transform="translate(1242.157 2999.863)"><path d="M1235.966,2997.56s2.677,29.874.8,30.158-11.11,2.275-10.708,3.271,2.141,8.108,1.071,7.682-11.11-8.678-11.11-8.678l-12.716-1s-2.141-20.2-2.141-25.179,19.141-4.695,19.141-4.695Z" transform="translate(-1201.164 -2997.56)" fill="#fff"/></g><g transform="translate(1242.319 2998.285)"><g transform="translate(0 1.648)"><path d="M1202.64,2997.878c-2.173,7.679-1.051,15.891-.505,23.723l.205,2.964a14.524,14.524,0,0,0,.269,2.794c.357,1.3,1.568,1.668,2.782,1.725,2.067.1,4.161.019,6.23,0a38.1,38.1,0,0,0,6.039-.252.423.423,0,0,0,0-.811,32.488,32.488,0,0,0-5.192-.257q-2.752-.032-5.5-.03a6.656,6.656,0,0,1-2.492-.145c-.931-.424-.771-1.733-.838-2.6l-.429-5.5c-.555-7.115-1.417-14.369.073-21.431a.33.33,0,0,0-.637-.175Z" transform="translate(-1201.355 -2997.642)"/></g><g transform="translate(1.092 0)"><path d="M1202.967,2997.514c5.676.161,11.377-.248,17.053-.365q4.319-.09,8.639-.1,1.9,0,3.792.009c.555,0,1.651-.2,2.087.277a6.058,6.058,0,0,1,.625,2.133,55.933,55.933,0,0,1,1.557,16.167,49.44,49.44,0,0,1-1.023,8.191c-.174.787-.4,1.321-1.221,1.563a18.865,18.865,0,0,1-1.87.369c-1.379.254-2.762.5-4.142.749a4.383,4.383,0,0,0-2.863,1.313,5.116,5.116,0,0,0-1.072,2.872c-.164,2.232.853,4.293,1.271,6.438l.873-.873a12.559,12.559,0,0,1-8.361-8.22c-.3-.878-1.707-.5-1.4.385,1.49,4.273,4.906,8.072,9.38,9.2a.72.72,0,0,0,.874-.874c-.4-2.069-1.461-4.108-1.207-6.263a2.674,2.674,0,0,1,2.256-2.576c1.428-.316,2.877-.564,4.313-.842a8.518,8.518,0,0,0,3.3-.9,4,4,0,0,0,1.255-2.8,56.989,56.989,0,0,0-.887-25.03,3.545,3.545,0,0,0-1.123-2.262c-.906-.585-2.465-.31-3.465-.314q-4.426-.021-8.851.043c-6.605.1-13.331.1-19.883,1.035-.385.055-.274.648.089.66Z" transform="translate(-1202.631 -2995.712)"/></g><g transform="translate(6.172 8.882)"><path d="M1209.19,3006.119l-.073.005a.536.536,0,0,0-.5.38c-.195.71.594,1.05,1.151,1.089.771.053,1.545.08,2.317.129,1.5.1,2.994.219,4.482.423a.8.8,0,0,0,.991-.756c.07-.8-.991-1.44-1.581-.786a.622.622,0,0,0,.124.958l.056.04-.239-.239c.046.067.094.132.147.195-.026-.056-.052-.112-.075-.168l.785-.784q-2-.232-4.02-.324c-.647-.028-1.295-.04-1.943-.032-.349.005-.7.022-1.046.034a1.173,1.173,0,0,1-.513-.14l.31.239c-.091-.126-.2-.274-.375-.264Z" transform="translate(-1208.586 -3006.117)"/></g><g transform="translate(6.468 15.004)"><path d="M1209.327,3014.85a17.09,17.09,0,0,0,4.312.371c1.5.044,3.01.073,4.516.066,3.01-.017,6.021-.149,9.024-.351l-.219-1.611a6.29,6.29,0,0,0-.855.381.572.572,0,0,0,.132,1.033,4.84,4.84,0,0,0,.719.167c1.235.19,1.354-1.689.219-1.61-3.006.209-6.011.322-9.024.372-1.505.024-3.01.04-4.516.026a21.111,21.111,0,0,0-4.312.1.555.555,0,0,0,0,1.06Z" transform="translate(-1208.933 -3013.293)"/></g><g transform="translate(7.319 22.086)"><path d="M1210.6,3024.4c1.5-.595,3.215-.22,4.782-.183,1.739.042,3.482-.082,5.219-.2q2.527-.174,5.052-.37c1.029-.078,3.243.222,3.287-1.293a.731.731,0,0,0-.371-.645l-.1-.046c-.507-.241-1.255.167-1.035.8l.032.094.192-.727a4.453,4.453,0,0,1-1.167.077l-1.011.084c-.786.066-1.572.127-2.358.2-1.514.132-3.027.284-4.543.4s-3.009.168-4.516.153a8.166,8.166,0,0,0-3.881.683c-.54.264-.157,1.213.417.987Z" transform="translate(-1209.931 -3021.591)"/></g></g></g></svg>