<svg xmlns="http://www.w3.org/2000/svg" width="54.743" height="44.325" viewBox="0 0 54.743 44.325"><g transform="translate(13.579)"><path d="M396.835,2952.911c3.088-1.171,6.873.3,9.555,1.852a14.955,14.955,0,0,1,4.126,3.431,13.413,13.413,0,0,1,2.445,5.706c1,4.547,1.528,9.87-1.3,13.9a18.144,18.144,0,0,1-4.9,4.482,27.66,27.66,0,0,1-6.44,3.352,14.75,14.75,0,0,1-12.1-1.209,16.112,16.112,0,0,1-7.478-9.851,16.766,16.766,0,0,1,1.3-12.416c1.991-3.55,5.239-5.78,8.814-7.519a20.4,20.4,0,0,1,7.321-2.31,13.826,13.826,0,0,1,10.065,3.642,16.6,16.6,0,0,1,2.481,2.744c.439.594-.507,1.284-1.006.777-2.635-2.673-5.618-5.258-9.5-5.67a14.211,14.211,0,0,0-7.227,1.344,23.732,23.732,0,0,0-7.489,4.676,14.2,14.2,0,0,0-3.974,10.808,15.3,15.3,0,0,0,4.755,10.532,13.923,13.923,0,0,0,10.2,3.776,15.9,15.9,0,0,0,6.231-1.92,30.739,30.739,0,0,0,5.384-3.5,11.156,11.156,0,0,0,3.712-5.118,16.547,16.547,0,0,0,.519-6.493,25.022,25.022,0,0,0-1.385-6.769,10.066,10.066,0,0,0-2.854-3.923c-2.417-2.133-5.777-4.007-9.07-4.093a5.836,5.836,0,0,0-2.04.289c-.334.114-.464-.4-.144-.522Z" transform="translate(-380.124 -2952.289)" fill="#131213"/></g><g transform="translate(48.727 0.477)"><path d="M367.872,2953.151a13.212,13.212,0,0,1,5.049,7.232,13.573,13.573,0,0,1,.493,4.6,9.991,9.991,0,0,1-1.371,4.323c-.2.353-.8.117-.666-.281a15.623,15.623,0,0,0,.72-4.042,14.78,14.78,0,0,0-.319-4.176,12.1,12.1,0,0,0-4.219-7.115c-.311-.239-.021-.774.315-.54Z" transform="translate(-367.426 -2953.091)" fill="#131213"/></g><g transform="translate(21.495 10.813)"><path d="M418.622,2970.9c.051,0,.1,0,.156,0l-.151.02c.055-.012.11-.022.165-.031a1.3,1.3,0,0,1,.232-.024,1.534,1.534,0,0,1,.268.042,3.1,3.1,0,0,1,.378.1,2.414,2.414,0,0,1,.946.556,1.94,1.94,0,0,1,.327.417,1.683,1.683,0,0,1,.2.7,1.255,1.255,0,0,1-.108.6,1.391,1.391,0,0,1-.445.576,1.45,1.45,0,0,1-.586.282,1.785,1.785,0,0,1-1.641-.46,2.159,2.159,0,0,1-.556-.866,1.95,1.95,0,0,1-.067-1.042,1.083,1.083,0,0,1,.056-.2,1.7,1.7,0,0,1,.166-.357,1.449,1.449,0,0,1,.248-.3,1.669,1.669,0,0,1,.515-.3,1.451,1.451,0,0,1,.387-.077.853.853,0,0,1,.19,0,1.4,1.4,0,0,1,.6.171.964.964,0,0,1,.353.337,1.1,1.1,0,0,1,.123.524l-.211-.51a1.693,1.693,0,0,1,.312.441.576.576,0,0,1-.649.842c-.123-.025-.242-.052-.364-.082l.554-.072a.912.912,0,0,1-.525.176,1.536,1.536,0,0,1-.319-.05c-.073-.017-.143-.043-.217-.054l.234.032a.65.65,0,0,0-.16,0l.232-.032a.549.549,0,0,0-.079.02l.207-.087a.638.638,0,0,0-.121.069l.175-.135a.669.669,0,0,0-.1.1l.136-.175a.858.858,0,0,0-.1.171l.088-.207a1.1,1.1,0,0,0-.062.241l.031-.232a1.155,1.155,0,0,0,0,.275l-.031-.232a1.262,1.262,0,0,0,.089.314l-.088-.208a1.321,1.321,0,0,0,.153.261l-.136-.176a1.282,1.282,0,0,0,.228.232l-.177-.139a1.126,1.126,0,0,0,.232.135l-.209-.088a1.022,1.022,0,0,0,.234.062l-.232-.032a1.026,1.026,0,0,0,.229,0l-.232.031a.892.892,0,0,0,.216-.057l-.207.088a.772.772,0,0,0,.143-.083l-.175.135a.663.663,0,0,0,.1-.1l-.135.174a.672.672,0,0,0,.068-.113l-.087.205a.6.6,0,0,0,.04-.144l-.03.228a.743.743,0,0,0,0-.174l.03.226a1.337,1.337,0,0,0-.085-.278l.085.2a1.4,1.4,0,0,0-.168-.287l.127.164a2.445,2.445,0,0,0-.425-.406l.15.115a2.242,2.242,0,0,0-.4-.252l.159.067a1.312,1.312,0,0,1-.417-.242l.127.1a.955.955,0,0,0-.149-.1l.133.055c-.04-.013-.079-.025-.12-.037a.538.538,0,0,1,.143-1.054Z" transform="translate(-417.7 -2970.529)" fill="#131213"/></g><g transform="translate(34.762 11.411)"><path d="M397.716,2972.264c.054.029.108.057.16.09a.967.967,0,0,1,.254.243,2.38,2.38,0,0,1,.308.464,1.9,1.9,0,0,1,.188.7,1.6,1.6,0,0,1-.034.371,1.172,1.172,0,0,1-.132.355,1.47,1.47,0,0,1-.881.675,1.643,1.643,0,0,1-.236.04,1.442,1.442,0,0,1-.249.021,1.707,1.707,0,0,1-.488-.078,1.674,1.674,0,0,1-.912-.706,1.539,1.539,0,0,1-.2-.5,1.845,1.845,0,0,1-.042-.547,2.085,2.085,0,0,1,.362-1.039,2.736,2.736,0,0,1,.232-.289,2.464,2.464,0,0,1,.308-.252.944.944,0,0,1,.175-.1,1.649,1.649,0,0,1,.375-.142,1.5,1.5,0,0,1,.617,0,1.088,1.088,0,0,1,.351.139,1.772,1.772,0,0,1,.556.538,2.347,2.347,0,0,1,.394,1.125l-.032.245a.689.689,0,0,1-.165.313.865.865,0,0,1-.478.33,3.266,3.266,0,0,1-.6.093.864.864,0,0,1-.742-.434.7.7,0,0,1-.081-.185.68.68,0,0,1,0-.347l-.024.173c.01-.083.022-.153.034-.232l-.028.208a.85.85,0,0,1,.444-.739,1.752,1.752,0,0,0,.16-.106l-.177.139a.668.668,0,0,0,.116-.111l-.144,1.117a3.416,3.416,0,0,1-.249-.627l.093.224a1.405,1.405,0,0,0-.168-.3l.146.188a.791.791,0,0,0-.139-.139l.185.144a.633.633,0,0,0-.113-.066l.221.093c-.093-.036-.181-.077-.271-.115l.219.093a.536.536,0,0,0-.11-.03l.24.032a.631.631,0,0,0-.139,0l.236-.031a.425.425,0,0,0-.078.019l.21-.089a.93.93,0,0,0-.209.125l.177-.139a1.308,1.308,0,0,0-.209.214l.136-.176a1.378,1.378,0,0,0-.159.278l.087-.206a1.273,1.273,0,0,0-.083.306l.03-.228a1.108,1.108,0,0,0,0,.288l-.031-.226a.976.976,0,0,0,.066.232l-.085-.2a.892.892,0,0,0,.093.165l-.132-.171a.8.8,0,0,0,.131.132l-.17-.132a.912.912,0,0,0,.194.112l-.2-.085a1.017,1.017,0,0,0,.217.06l-.221-.03a.991.991,0,0,0,.242,0l-.219.029a.839.839,0,0,0,.193-.05l-.2.083a.711.711,0,0,0,.154-.088l-.166.127a.672.672,0,0,0,.1-.1l-.128.166a1.027,1.027,0,0,0,.121-.209l-.081.19a.8.8,0,0,0,.049-.186l-.027.207a1.036,1.036,0,0,0,0-.247l.027.2a1.623,1.623,0,0,0-.113-.4l.07.164a2.65,2.65,0,0,1-.149-.328c-.017-.064-.029-.128-.046-.191a.586.586,0,0,1,.209-.613.594.594,0,0,1,.649-.046Z" transform="translate(-395.445 -2971.542)" fill="#131213"/></g><g transform="translate(24.72 22.606)"><path d="M410.461,2990.994a6.934,6.934,0,0,1-5.256,3.145,7.037,7.037,0,0,1-3.153-.538,6.564,6.564,0,0,1-1.432-.813c-.407-.3-.957-.693-1.066-1.217a.437.437,0,0,1,.532-.532,3.57,3.57,0,0,1,1.05.71,6.946,6.946,0,0,0,1.226.7,5.991,5.991,0,0,0,2.683.525,6.4,6.4,0,0,0,4.729-2.382c.3-.393.976-.033.683.4Z" transform="translate(-399.541 -2990.426)" fill="#131213"/></g><g transform="translate(0 36.126)"><path d="M452.228,3013.739q-2.726,1.709-5.3,3.644c-.859.649-1.7,1.321-2.537,1.993s-1.615,1.391-2.477,2.013c-.243.175-.5-.2-.309-.4a33.759,33.759,0,0,1,4.933-4.09q2.628-1.93,5.42-3.623c.294-.178.559.278.269.46Z" transform="translate(-441.541 -3013.237)" fill="#131213"/></g></svg>