<svg xmlns="http://www.w3.org/2000/svg" width="55.377" height="54.585" viewBox="0 0 55.377 54.585"><g transform="translate(0 14.396) rotate(-20)"><g transform="translate(0 0)"><g transform="translate(38.081 5.966)"><path d="M496.62,4241.875a.037.037,0,0,1-.032-.036.032.032,0,0,1,.065,0,.032.032,0,0,1-.032.031Z" transform="translate(-496.588 -4241.81)" fill="#171717"/></g><g transform="translate(37.621 0.417)"><path d="M491.615,4236.01c1.873-.094,1.811,3.43,2,4.685.384,2.561.791,5.119,1.181,7.679q.618,4.066,1.215,8.137a42.448,42.448,0,0,1,.864,6.613.664.664,0,0,1-1.3.178,44.724,44.724,0,0,1-.864-5.939q-.49-3.633-.993-7.26c-.313-2.286-.61-4.573-.9-6.862-.137-1.08-.281-2.159-.406-3.239-.079-.679-.015-3.137-.891-3.284-.422-.07-.294-.695.1-.715Z" transform="translate(-491.258 -4236.002)" fill="#171717"/></g><g transform="translate(0.128 6.881)"><path d="M534.041,4264.611a112.875,112.875,0,0,1-25.078,4.091l.54-.309q-2.618,5.008-5.265,10a.657.657,0,0,1-1.188-.156l-1-6.11a9.953,9.953,0,0,1-.4-2.437c.1-.089.54.278.432.4-.028.03-.151-.02-.194,0a2.433,2.433,0,0,1-.626.061c-.62.075-1.238.182-1.854.284-1.248.205-2.5.449-3.756.582-1.1.115-1.445-.108-1.665-1.247-.793-4.082-1.373-8.206-1.853-12.339-.289-2.5-.56-5-.734-7.513a42.862,42.862,0,0,1-.216-6.631c.048-.541.93-.763,1.023-.139.282,1.88.313,3.8.479,5.7.189,2.16.387,4.329.62,6.49.463,4.3,1.014,8.588,1.771,12.848a5.253,5.253,0,0,1,.256,1.381c-.09.539.432,0-.382.139.047-.007.132.021.178,0a7.231,7.231,0,0,1,1.438-.165c1.328-.2,2.648-.437,3.976-.625.6-.084,1.789-.432,2.25.143a4.327,4.327,0,0,1,.384,1.816l1.122,7.018-1.188-.155q2.267-4.267,4.542-8.529a10.979,10.979,0,0,1,.723-1.349c.533-.718,1.853-.461,2.673-.513,3.732-.239,7.449-.661,11.151-1.195a92.678,92.678,0,0,0,11.607-2.375.436.436,0,1,1,.232.841Z" transform="translate(-491.143 -4242.769)" fill="#171717"/></g><g transform="translate(0)"><path d="M534.35,4236.4c-12.308,1.645-24.532,3.862-36.85,5.419-.891.108-.883-1.287,0-1.4,12.29-1.555,24.548-3.381,36.85-4.849.531-.064.518.756,0,.829Z" transform="translate(-496.836 -4235.565)" fill="#171717"/></g></g><g transform="translate(29.204 13.154)"><path d="M503,4251.284a.726.726,0,0,1,.518-.839,1.311,1.311,0,0,1,.928.083,1.9,1.9,0,0,1,1.094,1.431,2.381,2.381,0,0,1-2.521,2.591,3.759,3.759,0,0,1-3.311-2.36,2.206,2.206,0,0,1,.246-1.972,2.3,2.3,0,0,1,1.943-.871,3.749,3.749,0,0,1,3.489,1.791,2.51,2.51,0,0,1,.108,2.067,2.253,2.253,0,1,1-3.715-2.459,2.433,2.433,0,0,1,1.751-.75,1.777,1.777,0,0,1,1.026.272,1.308,1.308,0,0,1,.377,1.079,2.071,2.071,0,0,1-.972,1.62,1.732,1.732,0,0,1-1.848-.022,2.084,2.084,0,0,1-.921-1.619,1.793,1.793,0,0,1,.231-.944.733.733,0,0,1,1.256,0c.132.279.261.556.378.838l-1.411.191a.8.8,0,0,1,1.2-.736c.034.021.067.042.1.065.2.141-.124-.107.049.04a.72.72,0,0,1,.185.215.563.563,0,0,1-.021.585.4.4,0,0,1-.676,0c.063.108.294.14.344.129-.027.009-.019.006.023-.009a.208.208,0,0,0,.108-.067.487.487,0,0,0,.108-.191c-.043.119.088.2-.01-.222a.72.72,0,0,1-1.314.555c-.115-.216-.216-.432-.324-.656h1.256c-.043.078-.013.026,0-.024a.824.824,0,0,1-.037.13c-.033.069-.006-.107,0-.032a.824.824,0,0,1,0,.108c0,.064.044.135,0,0,.012.033.015.072.026.108s.024.068.035.108c-.015-.054-.05-.1-.005-.023a.746.746,0,0,1,.07.117c.028.077-.073-.067-.014-.014a.889.889,0,0,1,.075.081c.012.012.1.1.029.031s.038.024.06.038a.943.943,0,0,0,.1.05c-.048-.023-.108-.04-.021-.018.132.035-.09.015,0,0a.444.444,0,0,1,.108,0c.07.013-.091.035-.027,0a.486.486,0,0,1,.108-.029c.07-.009-.1.067,0,0a.845.845,0,0,1,.095-.06c-.048.025-.074.069-.014.011l.08-.081c.114-.108-.028.068.011-.008.016-.032.041-.064.06-.1.009-.014.073-.123.027-.039s.016-.048.023-.072a.747.747,0,0,1,.028-.108c-.018.047,0,.12,0,.027v-.108h0c0-.036-.059-.166.008-.012l.432.333c-.076-.029-.152-.051-.229-.074-.012,0-.108-.03-.022-.009s-.027,0-.054,0H503.4c-.046,0-.119.033.012,0-.049.013-.1.021-.148.033s-.216.077-.083.02a1.493,1.493,0,0,0-.187.1c-.035.022-.067.045-.1.066-.069.04.018-.011.028-.022-.028.029-.06.054-.089.082-.012.015-.123.136-.062.063.048-.056-.059.1-.077.128-.068.108-.016.023,0-.007-.014.038-.027.076-.038.108s-.014.059-.022.089-.017.149-.012.052,0,.01,0,.023v.181c0,.017.016.108,0,.024s.009.03.014.053c.019.068.038.135.062.2-.045-.132.016.029.042.074a.852.852,0,0,1,.063.108c.026.067-.071-.067.015.022.048.05.108.1.149.147s-.086-.031,0,0a.587.587,0,0,1,.077.048c.036.019.07.037.108.054-.03-.016-.127-.04-.005-.01l.108.029c.08.022.045,0-.016,0h.236c.013,0,.113-.007.022,0s.026,0,.051-.012c.067-.018.132-.037.2-.056.039-.012.108-.061-.008,0,.043-.023.087-.043.131-.069s.173-.131.07-.04a1.521,1.521,0,0,1,.147-.142c.073-.048-.042.087,0,.006.015-.025.03-.05.047-.073a.9.9,0,0,0,.056-.109c-.054.109,0-.021.012-.047.013-.043.045-.233.032-.107a2.045,2.045,0,0,0,0-.267c0-.008-.013-.117,0-.04s-.012-.051-.016-.069a1.953,1.953,0,0,0-.089-.292c.042.108-.044-.08-.062-.108a2.211,2.211,0,0,0-.128-.2c.067.093-.063-.069-.085-.093s-.066-.066-.1-.1-.126-.108-.057-.054a2.776,2.776,0,0,0-.438-.264c-.121-.063-.068-.033-.037-.021-.045-.019-.093-.036-.138-.051-.094-.033-.188-.062-.284-.087a4.172,4.172,0,0,0-.494-.1,4.988,4.988,0,0,0-.533-.026,1.916,1.916,0,0,0-.254.016c.1-.015-.108.029-.139.038a.634.634,0,0,0-.3.173c-.077.072.043-.071-.017.016a.918.918,0,0,0-.053.082,1.037,1.037,0,0,0-.059.115c.015-.036.024-.087,0,.023-.01.04-.045.207-.04.17.008-.078,0,.06,0,.076v.165c-.005-.108.018.083.028.119s.075.216.041.141a1.787,1.787,0,0,0,.135.251c.019.029.038.06.058.089s.1.126.048.067a2.725,2.725,0,0,0,.772.658,2.215,2.215,0,0,0,.937.324,2.3,2.3,0,0,0,.307,0c.126-.007-.084.02.027,0,.054-.01.108-.022.162-.038l.126-.04c.031-.01.092-.037.028-.009a1.884,1.884,0,0,0,.26-.144c.028-.02.055-.036.081-.055-.076.059.031-.033.044-.045.031-.029.063-.061.092-.091s.094-.114.042-.044a1.327,1.327,0,0,0,.132-.223c-.042.087,0-.007.006-.024.014-.051.029-.107.041-.156.016-.076,0,.01,0,.022v-.181c0,.011.017.1,0,.021a1.215,1.215,0,0,0-.034-.147.944.944,0,0,0-.038-.115c.026.063.011.021-.012-.015s-.039-.07-.062-.108c-.008-.011-.1-.136-.055-.083s-.023-.027-.026-.031a1.619,1.619,0,0,0-.126-.123c.065.053-.087-.048-.122-.064.079.035-.108-.028-.138-.037-.136-.043-.032-.013-.02-.007h-.054a.288.288,0,0,0,.173-.1.432.432,0,0,1-.777-.1Z" transform="translate(-499.575 -4249.336)" fill="#171717"/></g><g transform="translate(17.975 14.477)"><path d="M514.228,4251.476a1.652,1.652,0,0,1,1.727-.472,1.858,1.858,0,0,1,1.308,1.479,2.636,2.636,0,0,1-2.051,3,2.737,2.737,0,0,1-3.16-1.853,2.219,2.219,0,0,1,.352-2.133,2.568,2.568,0,0,1,1.835-.777,3.16,3.16,0,0,1,3.073,1.972,2.639,2.639,0,0,1-1.356,3.194,2.375,2.375,0,0,1-2.182-.132,3.778,3.778,0,0,1-1.551-1.464,1.707,1.707,0,0,1,.372-2.188,1.989,1.989,0,0,1,2.064-.173,3.3,3.3,0,0,1,1.394,1.461,2.068,2.068,0,0,1-.012,2.389,1.378,1.378,0,0,1-1.08.51,1.813,1.813,0,0,1-1.2-.57,4.208,4.208,0,0,1-1.091-1.812,4.35,4.35,0,0,1-.17-1.08.766.766,0,0,1,1.3-.54,5.86,5.86,0,0,1,1.1,1.777.755.755,0,0,1-.35.863.785.785,0,0,1-.922-.118,5.316,5.316,0,0,1-.634-.756,2.543,2.543,0,0,1-.442-.877l1.451-.2c0,.08,0,.072-.007-.022.025.078.017.072-.023-.013s-.052-.09,0-.025c-.048-.03-.042-.026.017.013a.586.586,0,0,1-.451,1.072,1.755,1.755,0,0,1-.469-.235c-.073-.062-.083-.067-.029-.013-.037-.026-.073-.053-.108-.083a1.631,1.631,0,0,1-.19-.167.738.738,0,1,1,1.16-.9c.149.2.245.442.385.647.01.016.117.163.063.09s.058.071.07.085a3.516,3.516,0,0,0,.284.3l-1.272.74c-.084-.207.066.132-.031-.069-.03-.062-.059-.123-.091-.183-.058-.108-.12-.222-.187-.325s-.138-.21-.216-.311c.077.107-.027-.031-.052-.062-.044-.051-.089-.108-.135-.154l1.3-.54c0,.065.009.131.012.2.01.216-.032-.152.006.06.021.108.042.216.07.324s.065.209.1.313c.07.2-.07-.128.025.063.035.068.067.137.108.205a3.333,3.333,0,0,0,.19.309s.126.167.058.083.07.08.066.075c.073.083.153.158.231.237.131.134-.108-.039.062.05a1.218,1.218,0,0,0,.118.064.16.16,0,0,0-.13-.034c.048.008.153-.018-.026.016.161-.029-.108.089.018-.008-.153.108-.018,0,.012-.028-.037.041-.052.114-.021.015.055-.184-.038.159.012-.03.045-.172.025.173.005-.036a1,1,0,0,0-.006-.139c.018.168-.039-.108-.048-.138-.041-.136-.016-.049,0-.017-.028-.064-.062-.128-.1-.191-.051-.1-.108-.194-.164-.286-.032-.054-.067-.108-.1-.159-.014-.022-.141-.187-.031-.051a2.467,2.467,0,0,0-.253-.276s-.154-.132-.065-.062-.073-.046-.074-.047c-.053-.032-.108-.061-.163-.089.146.075.049.017,0,.007-.019,0-.118-.043-.128-.031l.1.012a.629.629,0,0,1-.108-.006,1,1,0,0,1-.133,0c-.059,0-.036,0,.07-.01-.035.006-.069.015-.1.023l-.051.017q-.115.042.037-.02a.581.581,0,0,0-.089.051c-.148.072.108-.109,0,0s.068-.142-.008.008c-.023.045-.027.1,0-.021l-.018.056c-.018.086-.019.077,0-.028v.059c0,.085,0,.077-.012-.028-.01.049.032.127.045.173.046.173-.079-.108.023.045.029.044.054.091.082.136s.108.144.017.031c.041.051.085.1.131.15a3.144,3.144,0,0,0,.241.229c.018.015.189.142.05.042.057.041.114.082.173.122a3.181,3.181,0,0,0,.363.216c.042.022.084.043.127.061-.146-.062.067.017.081.021.056.017.108.025.171.04.123.029-.177,0-.006,0a.773.773,0,0,0,.158,0c-.114.018-.13.02-.045,0l.05-.01c.051-.012.1-.03.149-.043.165-.045-.136.081.012,0,.054-.032.2-.081.223-.135l-.068.054c.028-.022.054-.045.081-.069s.053-.048.078-.072.071-.08.108-.119c.1-.108-.067.119.028-.043.051-.086.1-.171.146-.259.077-.147-.013.108,0,0a.8.8,0,0,1,.041-.129c.014-.051.025-.108.037-.157.036-.147,0,.038,0,.038.018-.021.009-.132.009-.159v-.108c-.008-.083,0-.07.009.039.019-.065-.045-.2-.066-.267l-.018-.05c-.029-.078-.026-.069.012.024a.36.36,0,0,0-.049-.1,1.6,1.6,0,0,0-.082-.142c-.029-.045-.132-.173-.013-.027a2.356,2.356,0,0,0-.224-.241l-.082-.072c-.135-.125.128.079-.027-.02a2.393,2.393,0,0,0-.236-.147c-.049-.028-.1-.053-.15-.077-.032-.015-.205-.074-.03-.015-.108-.037-.216-.076-.324-.108-.042-.01-.335-.056-.14-.036a2.593,2.593,0,0,0-.308-.02h-.139c-.045,0-.216.034-.046,0a2.761,2.761,0,0,0-.349.091c.147-.05-.028.015-.052.026l-.1.059c-.152.085.076-.091-.045.032-.04.043-.083.081-.12.125.017-.021.08-.108.008,0-.088.134.013-.108-.034.068a1.731,1.731,0,0,0-.047.194c.019-.123,0,.044,0,.079,0,.058,0,.114.005.172.008.134,0,.013,0-.013a3.135,3.135,0,0,0,.09.332c.04.122.006.019,0-.005.026.052.051.108.079.154s.062.1.091.147c.095.154-.087-.092.03.044.077.089.159.166.243.247.023.022.108.071,0,0,.047.032.094.067.144.1s.082.047.125.07.153.063.017.012a2.958,2.958,0,0,0,.33.093c.174.039-.138,0,.04,0h.225a.8.8,0,0,0,.108-.009c-.181.018.056-.018.093-.026l.108-.029c.035-.012.247-.108.1-.033a2.8,2.8,0,0,0,.295-.166c.023-.016.16-.132.041-.028.042-.038.085-.073.125-.108s.077-.083.116-.124c.09-.1-.051.08.044-.063a1.3,1.3,0,0,0,.074-.118c.023-.041.1-.238.054-.1a2.23,2.23,0,0,0,.092-.347c-.026.157,0-.037,0-.059v-.181c0-.178.04.108-.01-.059-.016-.058-.031-.108-.046-.171-.043-.163.063.084-.025-.059-.036-.059-.069-.117-.108-.175-.019-.029-.1-.12-.019-.032-.019-.021-.18-.159-.076-.085-.029-.02-.06-.041-.092-.06a.843.843,0,0,0-.1-.052c.057.022.054.022-.012,0s-.108-.026-.158-.043c-.108-.031.057-.012-.066-.013h-.16c.09-.007-.062.014-.07.017a.657.657,0,0,0-.26.135.448.448,0,0,1-.583-.117.461.461,0,0,1,.036-.593Z" transform="translate(-511.922 -4250.721)" fill="#171717"/></g><g transform="translate(7.252 16.489)"><path d="M525.356,4253.154a2.826,2.826,0,0,1,2.4.628,2.5,2.5,0,0,1,.871,2.453,2.356,2.356,0,0,1-2.187,1.379,3.023,3.023,0,0,1-2.018-.524,2.22,2.22,0,0,1-.906-2.243,2.355,2.355,0,0,1,1.638-1.776,2.3,2.3,0,0,1,2.432.971,2.038,2.038,0,0,1-.161,2.592,1.5,1.5,0,0,1-1.445.4,1.609,1.609,0,0,1-.972-.829,3.446,3.446,0,0,1-.324-1.219,1.568,1.568,0,0,1,.409-1.393,1.6,1.6,0,0,1,1.438-.332,2.009,2.009,0,0,1,1.164.905,4.727,4.727,0,0,1,.587,1.249,1.733,1.733,0,0,1-.339,1.671,2.152,2.152,0,0,1-2.358.517,3.027,3.027,0,0,1-1.737-1.771,2.463,2.463,0,0,1,.354-2.333,1.7,1.7,0,0,1,1.229-.672,1.9,1.9,0,0,1,1.413.548,2.31,2.31,0,0,1,.577,2.229,1.966,1.966,0,0,1-1.835,1.471,2.213,2.213,0,0,1-1.943-1.09,1.773,1.773,0,0,1-.175-1.326,1.71,1.71,0,0,1,1.013-1.136,1.087,1.087,0,0,1,1.311.456.54.54,0,0,1-.46.8.605.605,0,0,0-.084,0s.154-.024.041,0c0,0,.137-.042.069-.026a.706.706,0,0,0-.206.085c-.067.042.07-.042.07-.03,0-.01-.07.05-.078.045l.04-.03-.114.088c-.015.01-.059.058-.078.056.079,0,.108-.1.044-.028a.538.538,0,0,0-.068.071s.1-.165.031-.037c-.013.021-.025.043-.038.064l-.012.022h0c.032,0,.021-.083.005,0,0,0-.018.092-.022.1l.016-.108v.136c.03-.128-.031-.156-.006-.078.009.027.016.056.023.083.016.071.059.046-.032-.065a.956.956,0,0,1,.07.129c.079.143-.108-.108.008.014l.108.108c.082.085-.038-.031-.055-.038a.5.5,0,0,1,.071.05l.132.077c.028.017.121.053.008.007s.012,0,.03.009c.049.016.1.027.147.04.164.044-.144,0-.011,0h.172c.028,0,.108-.015-.016,0s-.006,0,.024-.007.188-.068.071-.014.037-.022.064-.039a.43.43,0,0,1,.073-.05c-.022,0-.135.125-.054.037a.739.739,0,0,1,.061-.063c.076-.068-.026.025-.037.055a1.11,1.11,0,0,1,.094-.146.437.437,0,0,1,.029-.059c.054-.075-.046.156-.027.065.011-.049.033-.1.045-.147.008-.029.013-.058.019-.087.027-.108-.013.049-.008.073a1.765,1.765,0,0,1,0-.334c0-.1.042.162.009.071a.46.46,0,0,1-.013-.066c-.015-.065-.043-.127-.057-.192s.032.079.036.082a.41.41,0,0,1-.039-.079.812.812,0,0,1-.094-.15s.108.119.054.067c-.022-.019-.039-.044-.06-.064s-.032-.03-.046-.045c-.1-.108.108.062.035.023-.032-.018-.137-.108-.18-.108.059-.008.1.03.011.011a.511.511,0,0,0-.12-.029c.216,0-.133.028.03.01s0,.013-.009.008c-.089-.04-.066.182.039-.021,0,.008-.192.13-.07.035.1-.077-.029.037-.055.061-.092.083.031-.026.032-.048a.529.529,0,0,1-.053.077,1.062,1.062,0,0,1-.092.166c.012,0,.065-.183.022-.05-.007.023-.016.045-.023.07-.017.054-.032.108-.045.166a.473.473,0,0,1-.018.1c.013-.013.013-.2.012-.06,0,.065-.006.13,0,.195a.475.475,0,0,1,.007.094c.008-.014-.038-.195-.007-.061.013.055.024.108.039.166a1.1,1.1,0,0,1,.054.163c.006-.007-.085-.178-.021-.05.019.036.037.073.056.108s.057.1.089.148l.055.082h0l-.03-.04c.015.019.031.038.049.055l.05.055c.051.054.108.108.16.155.137.129-.1-.057.015.016l.162.108c.054.036.108.048.148.078.065.043-.07-.029-.077-.029a.5.5,0,0,1,.108.04c.059.021.119.033.179.05.168.043-.137,0,0,0h.252c.083,0-.191.047-.046,0a1.349,1.349,0,0,1,.157-.044c.074-.012-.07.022-.074.035a.73.73,0,0,1,.087-.044c.032-.018.063-.04.1-.057.108-.059-.037,0-.024.021l.062-.058c.108-.108.038,0,0,.008.021,0,.038-.093.054-.1-.008,0-.055.144-.028.05s.01.129,0,.017v-.081a.509.509,0,0,0-.033-.128c-.012-.042-.028-.084-.041-.125-.023-.068-.027-.068,0,0-.062-.143-.129-.282-.2-.42-.031-.062-.064-.123-.1-.182-.021-.035-.04-.069-.062-.1s-.1-.161-.039-.067,0,0-.012-.013-.051-.057-.079-.085c-.012-.012-.078-.082-.084-.077s.123.077.039.034a.481.481,0,0,1-.085-.05c-.06-.047.066.042.077.032l-.091-.026c-.131-.043.108-.006.042,0a.3.3,0,0,1-.094,0c-.07-.014.078,0,.088-.014a.887.887,0,0,1-.087.021c-.1.019.032.043.059-.029,0,.008-.049.029-.057.033-.081.05.122-.108.055-.038s.055-.075.052-.069c-.086.125.051-.118.008-.014s-.011-.117,0-.016a.987.987,0,0,1,0,.127,1.813,1.813,0,0,0,.013.19.423.423,0,0,1,.01.093s-.029-.164-.011-.083.024.144.041.216c.013.054.028.108.044.165.008.025.063.132.055.159.018-.063-.07-.139-.021-.055.015.027.028.055.043.081a.309.309,0,0,1,.036.058c.027.077-.116-.119-.027-.033.026.025.146.137.047.054s-.02-.02.011,0c.083.044-.157-.057-.065-.028.155.05-.143.008,0,.006.12,0-.053-.006-.054.01l.093-.027s-.153.064-.049.011c.087-.044-.023-.036-.034.03,0,0,.14-.2.079-.075-.052.1.037-.074.052-.1.073-.134-.016.036-.014.035s.033-.108.037-.126a.5.5,0,0,1,.015-.077c-.055.131-.008.108-.013.045,0-.043-.029-.216,0-.108s-.021-.073-.029-.108a.5.5,0,0,0-.034-.1c.041.092.049.108.025.061a.373.373,0,0,0-.023-.046c-.028-.053-.061-.107-.093-.157-.075-.121.022.019.024.026,0-.019-.06-.069-.069-.079-.041-.045-.09-.083-.132-.127s.04.032.05.035a.834.834,0,0,1-.129-.089c-.028-.017-.186-.121-.1-.058.068.048.027.008-.006,0s-.065-.022-.1-.032-.216-.031-.108-.028,0,0-.03,0h-.13c-.123,0,.047.015.047-.007l-.072.016a1,1,0,0,0-.163.05c0,.022.146-.076.044-.015-.028.017-.057.03-.085.047l-.062.039c-.133.082,0-.018.013-.013-.017-.006-.127.118-.144.135a.58.58,0,0,1-.049.055c-.073.056.067-.115.024-.033-.026.051-.065.1-.094.147-.016.028-.03.059-.046.086-.059.108.012-.041.014-.042a.788.788,0,0,0-.061.187l-.016.071v.024h0c.044-.043,0-.059,0,.022v.171s-.044-.187,0-.027c.014.054.03.108.047.159.034.122-.075-.133,0,.007.029.049.057.1.088.149.084.134-.1-.092.018.021.036.037.069.073.108.108a.4.4,0,0,1,.066.056c-.006-.012-.148-.1-.046-.036.043.027.085.058.13.083.025.015.165.068.177.093,0,0-.145-.054-.071-.03l.085.032.153.047c.052.015.108.026.157.038a.362.362,0,0,1,.091.018c.09.023-.168-.015-.032,0,.108.009.216.017.324.015a1.341,1.341,0,0,0,.188-.008c.023,0,.046-.006.07-.006.092,0-.163.031-.031,0,.115-.022.228-.05.34-.083.026-.007.145-.032.152-.054,0,0-.172.083-.029.01l.1-.051c.031-.017.245-.128.085-.04a.56.56,0,0,0,.082-.073c.011-.008.083-.072.015-.007s0-.019.022-.038c.044-.049,0,.02-.012.04.012-.04.022-.076.032-.115-.027.093,0,.067,0-.017,0-.056-.024-.225,0-.083a2.148,2.148,0,0,0-.053-.216c-.009-.028-.078-.2-.037-.108s0,0-.006-.01c-.022-.039-.04-.079-.062-.117s-.064-.108-.1-.156c-.068-.108,0,0,.015.016-.022-.028-.044-.055-.068-.081a2.782,2.782,0,0,0-.306-.291l-.059-.051c-.07-.065.1.061.013.01-.054-.03-.1-.068-.155-.1s-.108-.062-.162-.088l-.1-.044c-.068-.032.1.029-.016,0s-.235-.064-.354-.094c.132.032-.062,0-.1,0h-.216a.581.581,0,0,1-.153-1.135Z" transform="translate(-523.409 -4252.829)" fill="#171717"/></g></g></svg>