<svg xmlns="http://www.w3.org/2000/svg" width="191.332" height="55.811" viewBox="0 0 191.332 55.811"><g transform="translate(-851.091 -6225)"><g transform="translate(960.633 6225)"><g transform="translate(33.355 25.642)"><path d="M398.905,5762.89a23.771,23.771,0,0,0,5.249-.656,27.392,27.392,0,0,0,3.948-1.03,44.79,44.79,0,0,0,8.355-4.287.5.5,0,0,0-.506-.865,47.451,47.451,0,0,1-8.2,4.235,30.14,30.14,0,0,1-3.738,1.031,48.724,48.724,0,0,0-5.182,1.039.273.273,0,0,0,.072.534Z" transform="translate(-398.638 -5755.995)"/></g><g transform="translate(37.55 45.712)"><path d="M416.239,5783.28c-1.963.362-3.861.992-5.808,1.449q-1.133.267-2.28.476c-1.137.21-2.347.276-3.46.568a.507.507,0,0,0,.134.992,26.507,26.507,0,0,0,3.448-.6q1.184-.231,2.355-.516c1.955-.48,3.933-.906,5.857-1.483a.462.462,0,1,0-.245-.89Z" transform="translate(-404.334 -5783.263)"/></g><g transform="translate(56.768 22.775)"><path d="M430.614,5754.259a13.537,13.537,0,0,0,4.654.162c1.942-.137,3.875-.419,5.805-.665,1.706-.218,3.418-.451,5.138-.55,1.088-.062,2.5-.21,2.947,1.049.468,1.312-.434,2.358-.8,3.533a.426.426,0,0,0,.706.411c1.363-1.3,1.867-4.364.1-5.564a4.713,4.713,0,0,0-2.95-.443c-.974.054-1.946.156-2.914.274-2.238.272-4.466.615-6.711.867-1.97.221-3.937.289-5.91.452a.244.244,0,0,0-.065.476Z" transform="translate(-430.441 -5752.121)"/></g><g transform="translate(73.804 27.513)"><path d="M455.01,5759.179c1.594,2.066.923,4.75-.425,6.733a2.462,2.462,0,0,0-.556,1.443,1.172,1.172,0,0,0,.242.629c.154.21.46.337.547.586a3.773,3.773,0,0,1-.314,1.938c-.223.712-.6,1.342-.888,2.026-.21.5.586.951.915.533a7.3,7.3,0,0,0,1.336-4.09,2.187,2.187,0,0,0-.094-.855c-.1-.278-.3-.389-.474-.6-.235-.291-.132-.455.07-.786s.456-.623.661-.95a6.113,6.113,0,0,0-.372-7.116c-.3-.353-.944.128-.65.5Z" transform="translate(-453.582 -5758.546)"/></g><g transform="translate(49.158 42.224)"><path d="M445.312,5778.7c-1.124,1.757-3.91,2.222-5.786,2.718a15.968,15.968,0,0,1-6.049.681c-2.925-.335-5.872-.449-8.808-.494q-1.443-.023-2.887.031c-.284.012-.562.035-.839.068-.083.01-.533.057-.3.041-.722.046-.728,1.178,0,1.13,1.468-.094,2.964-.071,4.432-.1,1.565-.031,3.129,0,4.691.079,1.61.079,3.211.314,4.816.394a18.038,18.038,0,0,0,6-1.153c1.857-.585,4.277-1.276,5.329-3.049a.345.345,0,0,0-.6-.348Z" transform="translate(-420.1 -5778.529)"/></g><g transform="translate(50.616 11.422)"><g transform="translate(0 0)"><path d="M422.668,5750.165a17.206,17.206,0,0,1,3.26-3.393c1.174-.919,2.622-1.462,3.725-2.465a6.862,6.862,0,0,0,1.887-3.321c.322-1.194.7-2.961.157-4.127-.137-.294-.56-.181-.647.085a8.076,8.076,0,0,0-.163,1.92,9.9,9.9,0,0,1-.366,2.047,5.722,5.722,0,0,1-2.4,3.325,24.118,24.118,0,0,0-3.355,2.308,13.765,13.765,0,0,0-2.63,3.305c-.21.354.3.63.536.315Z" transform="translate(-422.083 -5736.684)"/></g></g><g transform="translate(59.393 9.229)"><path d="M434.413,5734.791a1.042,1.042,0,0,1,1.515.2,4.228,4.228,0,0,1,.728,1.519,25.242,25.242,0,0,1,.931,3.635,13.177,13.177,0,0,1-.913,7.255c-.271.677.861,1.153,1.183.5a13.686,13.686,0,0,0,.654-9.534c-.362-1.321-.75-3.061-1.77-4.054a1.671,1.671,0,0,0-2.706.188.242.242,0,0,0,.38.292Z" transform="translate(-434.004 -5733.707)"/></g><g transform="translate(0 28.71)"><g transform="translate(0 0)"><path d="M353.624,5761.764l7.9-.118c1.3-.02,2.608-.05,3.912-.06a9.671,9.671,0,0,1,2.123.15,10.041,10.041,0,0,1,1.715.676c1.992.831,4.168.386,6.177-.156a15.753,15.753,0,0,1,3.426-.677c1.1-.045,2.287.324,3.211-.414a.577.577,0,0,0-.254-.96,6.473,6.473,0,0,0-1.635.023c-.592.03-1.184.014-1.775.083a18.34,18.34,0,0,0-3.146.733,16.466,16.466,0,0,1-3.223.8,9.007,9.007,0,0,1-3.5-.685c-2.219-.652-4.755-.264-7.033-.2l-7.9.219a.294.294,0,0,0,0,.587Z" transform="translate(-353.331 -5760.166)"/></g></g><g transform="translate(30.41 29.256)"><path d="M394.694,5761.55c.645,1.292,1.983,2.241,2.969,3.265a10.662,10.662,0,0,1,2.46,4.008c1.106,3.269.877,6.736.642,10.123a.76.76,0,0,0,.745.744c.3.03.353.651.5.851a.8.8,0,0,0,1.068.279l.074-.045a.772.772,0,0,0,.343-.838l-.014-.067a.706.706,0,0,0-.66-.5l-.046,0a.641.641,0,0,0-.639.638v.051l.5-.658.253.007.467.358c-.251-.345-.256-.769-.611-1.087a2.023,2.023,0,0,0-1.235-.463l.744.744c.221-3.539.445-7.257-.826-10.644a11.388,11.388,0,0,0-2.426-3.958,41.077,41.077,0,0,0-3.632-3.317.433.433,0,0,0-.677.525Z" transform="translate(-394.635 -5760.912)"/></g><g transform="translate(2.262 48.048)"><g transform="translate(0 0)"><path d="M393.587,5786.472a32.316,32.316,0,0,1-7.829,2.978c-2.949.683-5.969,1.084-8.96,1.529-6.606.982-13.259,1.783-19.929,2.237-.629.042-.629,1.021,0,.983,6.908-.419,13.8-.972,20.663-1.873a71,71,0,0,0,8.913-1.55,26.722,26.722,0,0,0,3.935-1.364,10.476,10.476,0,0,0,3.52-2.534.261.261,0,0,0-.315-.409Z" transform="translate(-356.398 -5786.436)"/></g></g><g transform="translate(21.358 44.237)"><path d="M382.4,5781.9a6.5,6.5,0,0,1,.822,2.337,6.129,6.129,0,0,1,.051,1.2,5.609,5.609,0,0,1-.052.568,2.284,2.284,0,0,0-.055.377,1.949,1.949,0,0,0,.075.347.393.393,0,0,0,.709.094,1.183,1.183,0,0,0,.189-.31,2.163,2.163,0,0,0,.056-.377,6.735,6.735,0,0,0,.042-.7,7.885,7.885,0,0,0-.124-1.4,7.2,7.2,0,0,0-.983-2.561.425.425,0,1,0-.734.427Z" transform="translate(-382.341 -5781.263)"/></g><g transform="translate(23.749 45.413)"><g transform="translate(0 0)"><path d="M385.589,5783.291a5.459,5.459,0,0,0,.2,1.335,5.291,5.291,0,0,0,.2.579,2.032,2.032,0,0,0,.427.724.512.512,0,0,0,.856-.5,2.22,2.22,0,0,0-.173-.383c-.041-.087-.084-.171-.129-.256s-.086-.171-.126-.257c-.011-.021-.086-.183-.03-.063-.02-.044-.036-.09-.053-.134a5.849,5.849,0,0,1-.314-1.163.436.436,0,0,0-.856.116Z" transform="translate(-385.588 -5782.856)"/></g></g><g transform="translate(38.802 36.152)"><g transform="translate(0 0)"><path d="M406.134,5770.889a44.789,44.789,0,0,0,3.893,3.806,15.528,15.528,0,0,0,2.135,1.526c.643.371,1.621.912,2.376.6a.236.236,0,0,0,.056-.424,4.716,4.716,0,0,0-1.039-.441,7.832,7.832,0,0,1-1.142-.585,18.815,18.815,0,0,1-2.074-1.5,48.128,48.128,0,0,1-3.7-3.492c-.325-.329-.821.171-.505.506Z" transform="translate(-406.034 -5770.276)"/></g></g><g transform="translate(44.714 36.753)"><g transform="translate(0 0)"><path d="M414.191,5771.792a16.8,16.8,0,0,0,2.441,1.942c.419.274.853.53,1.3.764a3.553,3.553,0,0,0,.722.34c.259.067.53.12.793.172a.256.256,0,0,0,.2-.464c-.2-.131-.4-.254-.584-.4a3.648,3.648,0,0,0-.66-.358q-.671-.347-1.307-.755a15.564,15.564,0,0,1-2.317-1.822C414.389,5770.84,413.8,5771.423,414.191,5771.792Z" transform="translate(-414.064 -5771.09)"/></g></g><g transform="translate(66.382)"><path d="M443.5,5721.452c.036,1.085.036,2.171.1,3.251l.091,1.627a10.479,10.479,0,0,0,.143,1.572c.066.314.485.2.517-.069a10.9,10.9,0,0,0-.008-1.627l-.055-1.564c-.038-1.065-.137-2.129-.2-3.192-.022-.373-.6-.379-.587,0Z" transform="translate(-443.499 -5721.167)"/></g><g transform="translate(72.618 2.925)"><g transform="translate(0 0)"><path d="M455.881,5725.276q-1.063,1.417-2.059,2.883a22.826,22.826,0,0,0-1.814,3.041.272.272,0,0,0,.47.274c.7-.944,1.322-1.958,1.969-2.946s1.316-1.958,2.008-2.913c.254-.349-.321-.672-.574-.335Z" transform="translate(-451.97 -5725.138)"/></g></g><g transform="translate(76.644 11.379)"><g transform="translate(0 0)"><path d="M461.877,5736.641q-1.034.4-2.1.717c-.354.1-.712.2-1.069.295a3.546,3.546,0,0,0-1.071.4c-.278.188-.29.718.1.788a5.3,5.3,0,0,0,2.3-.386q1.081-.322,2.133-.734a.577.577,0,0,0,.391-.69.565.565,0,0,0-.69-.392Z" transform="translate(-457.439 -5736.62)"/></g></g><g transform="translate(37.995 40.606)"><g transform="translate(0 0)"><path d="M405.027,5776.9a2.849,2.849,0,0,0,.315.358c.137.123.286.234.433.348a8.185,8.185,0,0,0,.813.545,5.1,5.1,0,0,0,1.869.717.354.354,0,0,0,.407-.2.344.344,0,0,0-.141-.431c-.554-.3-1.135-.548-1.686-.853s-1.059-.682-1.6-1.013a.335.335,0,0,0-.434.086.342.342,0,0,0,.026.442Z" transform="translate(-404.936 -5776.324)"/></g></g></g><g transform="translate(851.091 6225)"><g transform="translate(30.387 25.642)"><path d="M416.418,5762.89a23.77,23.77,0,0,1-5.249-.656,27.392,27.392,0,0,1-3.948-1.03,44.791,44.791,0,0,1-8.355-4.287.5.5,0,0,1,.506-.865,47.452,47.452,0,0,0,8.2,4.235,30.141,30.141,0,0,0,3.738,1.031,48.725,48.725,0,0,1,5.182,1.039.273.273,0,0,1-.072.534Z" transform="translate(-398.638 -5755.995)"/></g><g transform="translate(31.749 45.712)"><path d="M404.92,5783.28c1.963.362,3.861.992,5.808,1.449q1.133.267,2.28.476c1.137.21,2.347.276,3.46.568a.507.507,0,0,1-.134.992,26.508,26.508,0,0,1-3.448-.6q-1.184-.231-2.355-.516c-1.955-.48-3.933-.906-5.858-1.483a.462.462,0,1,1,.245-.89Z" transform="translate(-404.334 -5783.263)"/></g><g transform="translate(5.167 22.775)"><path d="M450.123,5754.259a13.537,13.537,0,0,1-4.654.162c-1.942-.137-3.875-.419-5.805-.665-1.706-.218-3.418-.451-5.138-.55-1.088-.062-2.5-.21-2.947,1.049-.468,1.312.434,2.358.8,3.533a.426.426,0,0,1-.706.411c-1.363-1.3-1.867-4.364-.1-5.564a4.713,4.713,0,0,1,2.95-.443c.974.054,1.946.156,2.914.274,2.238.272,4.466.615,6.711.867,1.97.221,3.938.289,5.91.452a.244.244,0,0,1,.065.476Z" transform="translate(-430.441 -5752.121)"/></g><g transform="translate(4.569 27.513)"><path d="M455.57,5759.179c-1.594,2.066-.923,4.75.425,6.733a2.462,2.462,0,0,1,.556,1.443,1.172,1.172,0,0,1-.242.629c-.154.21-.46.337-.547.586a3.773,3.773,0,0,0,.314,1.938c.223.712.6,1.342.888,2.026.21.5-.586.951-.915.533a7.3,7.3,0,0,1-1.336-4.09,2.187,2.187,0,0,1,.094-.855c.1-.278.3-.389.474-.6.235-.291.132-.455-.07-.786s-.456-.623-.661-.95a6.113,6.113,0,0,1,.372-7.116c.3-.353.944.128.65.5Z" transform="translate(-453.582 -5758.546)"/></g><g transform="translate(6.776 42.224)"><path d="M420.744,5778.7c1.124,1.757,3.91,2.222,5.786,2.718a15.968,15.968,0,0,0,6.049.681c2.925-.335,5.872-.449,8.808-.494q1.443-.023,2.887.031c.284.012.562.035.839.068.083.01.533.057.3.041.722.046.728,1.178,0,1.13-1.468-.094-2.964-.071-4.432-.1-1.565-.031-3.129,0-4.691.079-1.61.079-3.211.314-4.816.394a18.038,18.038,0,0,1-6-1.153c-1.857-.585-4.277-1.276-5.329-3.049a.345.345,0,0,1,.6-.348Z" transform="translate(-420.1 -5778.529)"/></g><g transform="translate(21.285 11.422)"><g transform="translate(0 0)"><path d="M431.387,5750.165a17.209,17.209,0,0,0-3.26-3.393c-1.174-.919-2.621-1.462-3.725-2.465a6.861,6.861,0,0,1-1.887-3.321c-.322-1.194-.7-2.961-.157-4.127.137-.294.56-.181.647.085a8.073,8.073,0,0,1,.163,1.92,9.894,9.894,0,0,0,.366,2.047,5.722,5.722,0,0,0,2.4,3.325,24.12,24.12,0,0,1,3.355,2.308,13.768,13.768,0,0,1,2.63,3.305c.21.354-.305.63-.536.315Z" transform="translate(-422.083 -5736.684)"/></g></g><g transform="translate(17.326 9.229)"><path d="M438.666,5734.791a1.042,1.042,0,0,0-1.515.2,4.228,4.228,0,0,0-.728,1.519,25.242,25.242,0,0,0-.931,3.635,13.177,13.177,0,0,0,.913,7.255c.271.677-.861,1.153-1.183.5a13.686,13.686,0,0,1-.654-9.534c.362-1.321.75-3.061,1.77-4.054a1.671,1.671,0,0,1,2.706.188.242.242,0,0,1-.38.292Z" transform="translate(-434.004 -5733.707)"/></g><g transform="translate(52.865 28.71)"><g transform="translate(0 0)"><path d="M381.963,5761.764l-7.9-.118c-1.3-.02-2.608-.05-3.912-.06a9.671,9.671,0,0,0-2.123.15,10.041,10.041,0,0,0-1.715.676c-1.992.831-4.168.386-6.177-.156a15.753,15.753,0,0,0-3.426-.677c-1.1-.045-2.287.324-3.211-.414a.577.577,0,0,1,.254-.96,6.474,6.474,0,0,1,1.635.023c.592.03,1.184.014,1.775.083a18.34,18.34,0,0,1,3.146.733,16.467,16.467,0,0,0,3.223.8,9.007,9.007,0,0,0,3.5-.685c2.219-.652,4.755-.264,7.033-.2l7.9.219a.294.294,0,0,1,0,.587Z" transform="translate(-353.331 -5760.166)"/></g></g><g transform="translate(42.501 29.256)"><path d="M403.455,5761.55c-.645,1.292-1.983,2.241-2.969,3.265a10.662,10.662,0,0,0-2.46,4.008c-1.106,3.269-.877,6.736-.642,10.123a.76.76,0,0,1-.745.744c-.3.03-.353.651-.5.851a.8.8,0,0,1-1.068.279l-.074-.045a.772.772,0,0,1-.343-.838l.014-.067a.706.706,0,0,1,.66-.5l.046,0a.641.641,0,0,1,.639.638v.051l-.5-.658-.253.007-.467.358c.251-.345.256-.769.611-1.087a2.023,2.023,0,0,1,1.235-.463l-.744.744c-.221-3.539-.445-7.257.826-10.644a11.388,11.388,0,0,1,2.426-3.958,41.073,41.073,0,0,1,3.632-3.317.433.433,0,0,1,.677.525Z" transform="translate(-394.635 -5760.912)"/></g><g transform="translate(41.952 48.048)"><g transform="translate(0 0)"><path d="M356.784,5786.472a32.316,32.316,0,0,0,7.829,2.978c2.949.683,5.969,1.084,8.96,1.529,6.606.982,13.26,1.783,19.929,2.237.629.042.629,1.021,0,.983-6.908-.419-13.8-.972-20.663-1.873a71.007,71.007,0,0,1-8.913-1.55,26.722,26.722,0,0,1-3.935-1.364,10.476,10.476,0,0,1-3.52-2.534.261.261,0,0,1,.315-.409Z" transform="translate(-356.398 -5786.436)"/></g></g><g transform="translate(58.534 44.237)"><path d="M384.177,5781.9a6.5,6.5,0,0,0-.822,2.337,6.129,6.129,0,0,0-.051,1.2,5.609,5.609,0,0,0,.052.568,2.284,2.284,0,0,1,.055.377,1.949,1.949,0,0,1-.075.347.393.393,0,0,1-.709.094,1.183,1.183,0,0,1-.189-.31,2.16,2.16,0,0,1-.056-.377,6.735,6.735,0,0,1-.042-.7,7.888,7.888,0,0,1,.124-1.4,7.2,7.2,0,0,1,.983-2.561.425.425,0,1,1,.734.427Z" transform="translate(-382.341 -5781.263)"/></g><g transform="translate(56.34 45.413)"><g transform="translate(0 0)"><path d="M387.288,5783.291a5.461,5.461,0,0,1-.2,1.335,5.291,5.291,0,0,1-.2.579,2.032,2.032,0,0,1-.427.724.512.512,0,0,1-.856-.5,2.215,2.215,0,0,1,.173-.383c.041-.087.084-.171.129-.256s.086-.171.126-.257c.01-.021.086-.183.03-.063.02-.044.036-.09.053-.134a5.847,5.847,0,0,0,.314-1.163.436.436,0,0,1,.856.116Z" transform="translate(-385.588 -5782.856)"/></g></g><g transform="translate(34.32 36.152)"><g transform="translate(0 0)"><path d="M414.6,5770.889a44.79,44.79,0,0,1-3.893,3.806,15.528,15.528,0,0,1-2.135,1.526c-.643.371-1.621.912-2.376.6a.236.236,0,0,1-.056-.424,4.716,4.716,0,0,1,1.039-.441,7.83,7.83,0,0,0,1.142-.585,18.816,18.816,0,0,0,2.074-1.5,48.128,48.128,0,0,0,3.7-3.492c.325-.329.821.171.505.506Z" transform="translate(-406.034 -5770.276)"/></g></g><g transform="translate(31.378 36.753)"><g transform="translate(0 0)"><path d="M419.635,5771.792a16.8,16.8,0,0,1-2.441,1.942c-.419.274-.853.53-1.3.764a3.553,3.553,0,0,1-.723.34c-.259.067-.53.12-.793.172a.256.256,0,0,1-.2-.464c.2-.131.4-.254.584-.4a3.649,3.649,0,0,1,.66-.358q.671-.347,1.307-.755a15.566,15.566,0,0,0,2.317-1.822C419.437,5770.84,420.021,5771.423,419.635,5771.792Z" transform="translate(-414.064 -5771.09)"/></g></g><g transform="translate(14.532)"><path d="M444.373,5721.452c-.036,1.085-.036,2.171-.1,3.251l-.091,1.627a10.475,10.475,0,0,1-.143,1.572c-.066.314-.486.2-.517-.069a10.909,10.909,0,0,1,.008-1.627l.055-1.564c.038-1.065.137-2.129.2-3.192.022-.373.6-.379.587,0Z" transform="translate(-443.499 -5721.167)"/></g><g transform="translate(4.623 2.925)"><g transform="translate(0 0)"><path d="M452.607,5725.276q1.063,1.417,2.059,2.883a22.826,22.826,0,0,1,1.814,3.041.272.272,0,0,1-.47.274c-.7-.944-1.322-1.958-1.969-2.946s-1.316-1.958-2.008-2.913c-.254-.349.321-.672.574-.335Z" transform="translate(-451.97 -5725.138)"/></g></g><g transform="translate(0 11.379)"><g transform="translate(0 0)"><path d="M458.147,5736.641q1.034.4,2.1.717c.354.1.712.2,1.069.295a3.546,3.546,0,0,1,1.071.4c.278.188.29.718-.1.788a5.3,5.3,0,0,1-2.3-.386q-1.081-.322-2.133-.734a.577.577,0,0,1-.391-.69.565.565,0,0,1,.69-.392Z" transform="translate(-457.439 -5736.62)"/></g></g><g transform="translate(39.841 40.606)"><g transform="translate(0 0)"><path d="M408.8,5776.9a2.851,2.851,0,0,1-.315.358c-.137.123-.286.234-.433.348a8.182,8.182,0,0,1-.813.545,5.1,5.1,0,0,1-1.869.717.354.354,0,0,1-.407-.2.344.344,0,0,1,.141-.431c.554-.3,1.135-.548,1.686-.853s1.059-.682,1.6-1.013a.335.335,0,0,1,.434.086.342.342,0,0,1-.026.442Z" transform="translate(-404.936 -5776.324)"/></g></g></g></g></svg>